<?xml version="1.0" encoding="utf-8" standalone="no"?>
<!DOCTYPE svg PUBLIC "-//W3C//DTD SVG 1.1//EN"
  "http://www.w3.org/Graphics/SVG/1.1/DTD/svg11.dtd">
<!-- Created with matplotlib (https://matplotlib.org/) -->
<svg height="432pt" version="1.1" viewBox="0 0 360 432" width="360pt" xmlns="http://www.w3.org/2000/svg" xmlns:xlink="http://www.w3.org/1999/xlink">
 <defs>
  <style type="text/css">
*{stroke-linecap:butt;stroke-linejoin:round;}
  </style>
 </defs>
 <g id="figure_1">
  <g id="patch_1">
   <path d="M 0 432 
L 360 432 
L 360 0 
L 0 0 
z
" style="fill:#ffffff;"/>
  </g>
  <g id="axes_1">
   <g id="patch_2">
    <path d="M 81.44 363.06 
L 336.583871 363.06 
L 336.583871 39.44 
L 81.44 39.44 
z
" style="fill:#ffffff;"/>
   </g>
   <g id="matplotlib.axis_1">
    <g id="xtick_1">
     <g id="line2d_1">
      <path clip-path="url(#pcfe92c3a5c)" d="M 93.037449 363.06 
L 93.037449 39.44 
" style="fill:none;stroke:#cccccc;stroke-linecap:round;stroke-width:1.5;"/>
     </g>
     <g id="text_1">
      <!-- 0 -->
      <defs>
       <path d="M 4.15625 35.296875 
Q 4.15625 48 6.765625 55.734375 
Q 9.375 63.484375 14.515625 67.671875 
Q 19.671875 71.875 27.484375 71.875 
Q 33.25 71.875 37.59375 69.546875 
Q 41.9375 67.234375 44.765625 62.859375 
Q 47.609375 58.5 49.21875 52.21875 
Q 50.828125 45.953125 50.828125 35.296875 
Q 50.828125 22.703125 48.234375 14.96875 
Q 45.65625 7.234375 40.5 3 
Q 35.359375 -1.21875 27.484375 -1.21875 
Q 17.140625 -1.21875 11.234375 6.203125 
Q 4.15625 15.140625 4.15625 35.296875 
z
M 13.1875 35.296875 
Q 13.1875 17.671875 17.3125 11.828125 
Q 21.4375 6 27.484375 6 
Q 33.546875 6 37.671875 11.859375 
Q 41.796875 17.71875 41.796875 35.296875 
Q 41.796875 52.984375 37.671875 58.78125 
Q 33.546875 64.59375 27.390625 64.59375 
Q 21.34375 64.59375 17.71875 59.46875 
Q 13.1875 52.9375 13.1875 35.296875 
z
" id="ArialMT-48"/>
      </defs>
      <g style="fill:#262626;" transform="translate(88.449675 387.370391)scale(0.165 -0.165)">
       <use xlink:href="#ArialMT-48"/>
      </g>
     </g>
    </g>
    <g id="xtick_2">
     <g id="line2d_2">
      <path clip-path="url(#pcfe92c3a5c)" d="M 170.872675 363.06 
L 170.872675 39.44 
" style="fill:none;stroke:#cccccc;stroke-linecap:round;stroke-width:1.5;"/>
     </g>
     <g id="text_2">
      <!-- 50 -->
      <defs>
       <path d="M 4.15625 18.75 
L 13.375 19.53125 
Q 14.40625 12.796875 18.140625 9.390625 
Q 21.875 6 27.15625 6 
Q 33.5 6 37.890625 10.78125 
Q 42.28125 15.578125 42.28125 23.484375 
Q 42.28125 31 38.0625 35.34375 
Q 33.84375 39.703125 27 39.703125 
Q 22.75 39.703125 19.328125 37.765625 
Q 15.921875 35.84375 13.96875 32.765625 
L 5.71875 33.84375 
L 12.640625 70.609375 
L 48.25 70.609375 
L 48.25 62.203125 
L 19.671875 62.203125 
L 15.828125 42.96875 
Q 22.265625 47.46875 29.34375 47.46875 
Q 38.71875 47.46875 45.15625 40.96875 
Q 51.609375 34.46875 51.609375 24.265625 
Q 51.609375 14.546875 45.953125 7.46875 
Q 39.0625 -1.21875 27.15625 -1.21875 
Q 17.390625 -1.21875 11.203125 4.25 
Q 5.03125 9.71875 4.15625 18.75 
z
" id="ArialMT-53"/>
      </defs>
      <g style="fill:#262626;" transform="translate(161.697128 387.370391)scale(0.165 -0.165)">
       <use xlink:href="#ArialMT-53"/>
       <use x="55.615234" xlink:href="#ArialMT-48"/>
      </g>
     </g>
    </g>
    <g id="xtick_3">
     <g id="line2d_3">
      <path clip-path="url(#pcfe92c3a5c)" d="M 248.707901 363.06 
L 248.707901 39.44 
" style="fill:none;stroke:#cccccc;stroke-linecap:round;stroke-width:1.5;"/>
     </g>
     <g id="text_3">
      <!-- 100 -->
      <defs>
       <path d="M 37.25 0 
L 28.46875 0 
L 28.46875 56 
Q 25.296875 52.984375 20.140625 49.953125 
Q 14.984375 46.921875 10.890625 45.40625 
L 10.890625 53.90625 
Q 18.265625 57.375 23.78125 62.296875 
Q 29.296875 67.234375 31.59375 71.875 
L 37.25 71.875 
z
" id="ArialMT-49"/>
      </defs>
      <g style="fill:#262626;" transform="translate(234.94458 387.370391)scale(0.165 -0.165)">
       <use xlink:href="#ArialMT-49"/>
       <use x="55.615234" xlink:href="#ArialMT-48"/>
       <use x="111.230469" xlink:href="#ArialMT-48"/>
      </g>
     </g>
    </g>
    <g id="xtick_4">
     <g id="line2d_4">
      <path clip-path="url(#pcfe92c3a5c)" d="M 326.543126 363.06 
L 326.543126 39.44 
" style="fill:none;stroke:#cccccc;stroke-linecap:round;stroke-width:1.5;"/>
     </g>
     <g id="text_4">
      <!-- 150 -->
      <g style="fill:#262626;" transform="translate(312.779806 387.370391)scale(0.165 -0.165)">
       <use xlink:href="#ArialMT-49"/>
       <use x="55.615234" xlink:href="#ArialMT-53"/>
       <use x="111.230469" xlink:href="#ArialMT-48"/>
      </g>
     </g>
    </g>
    <g id="text_5">
     <!-- Iteration -->
     <defs>
      <path d="M 9.328125 0 
L 9.328125 71.578125 
L 18.796875 71.578125 
L 18.796875 0 
z
" id="ArialMT-73"/>
      <path d="M 25.78125 7.859375 
L 27.046875 0.09375 
Q 23.34375 -0.6875 20.40625 -0.6875 
Q 15.625 -0.6875 12.984375 0.828125 
Q 10.359375 2.34375 9.28125 4.8125 
Q 8.203125 7.28125 8.203125 15.1875 
L 8.203125 45.015625 
L 1.765625 45.015625 
L 1.765625 51.859375 
L 8.203125 51.859375 
L 8.203125 64.703125 
L 16.9375 69.96875 
L 16.9375 51.859375 
L 25.78125 51.859375 
L 25.78125 45.015625 
L 16.9375 45.015625 
L 16.9375 14.703125 
Q 16.9375 10.9375 17.40625 9.859375 
Q 17.875 8.796875 18.921875 8.15625 
Q 19.96875 7.515625 21.921875 7.515625 
Q 23.390625 7.515625 25.78125 7.859375 
z
" id="ArialMT-116"/>
      <path d="M 42.09375 16.703125 
L 51.171875 15.578125 
Q 49.03125 7.625 43.21875 3.21875 
Q 37.40625 -1.171875 28.375 -1.171875 
Q 17 -1.171875 10.328125 5.828125 
Q 3.65625 12.84375 3.65625 25.484375 
Q 3.65625 38.578125 10.390625 45.796875 
Q 17.140625 53.03125 27.875 53.03125 
Q 38.28125 53.03125 44.875 45.953125 
Q 51.46875 38.875 51.46875 26.03125 
Q 51.46875 25.25 51.421875 23.6875 
L 12.75 23.6875 
Q 13.234375 15.140625 17.578125 10.59375 
Q 21.921875 6.0625 28.421875 6.0625 
Q 33.25 6.0625 36.671875 8.59375 
Q 40.09375 11.140625 42.09375 16.703125 
z
M 13.234375 30.90625 
L 42.1875 30.90625 
Q 41.609375 37.453125 38.875 40.71875 
Q 34.671875 45.796875 27.984375 45.796875 
Q 21.921875 45.796875 17.796875 41.75 
Q 13.671875 37.703125 13.234375 30.90625 
z
" id="ArialMT-101"/>
      <path d="M 6.5 0 
L 6.5 51.859375 
L 14.40625 51.859375 
L 14.40625 44 
Q 17.4375 49.515625 20 51.265625 
Q 22.5625 53.03125 25.640625 53.03125 
Q 30.078125 53.03125 34.671875 50.203125 
L 31.640625 42.046875 
Q 28.421875 43.953125 25.203125 43.953125 
Q 22.3125 43.953125 20.015625 42.21875 
Q 17.71875 40.484375 16.75 37.40625 
Q 15.28125 32.71875 15.28125 27.15625 
L 15.28125 0 
z
" id="ArialMT-114"/>
      <path d="M 40.4375 6.390625 
Q 35.546875 2.25 31.03125 0.53125 
Q 26.515625 -1.171875 21.34375 -1.171875 
Q 12.796875 -1.171875 8.203125 3 
Q 3.609375 7.171875 3.609375 13.671875 
Q 3.609375 17.484375 5.34375 20.625 
Q 7.078125 23.78125 9.890625 25.6875 
Q 12.703125 27.59375 16.21875 28.5625 
Q 18.796875 29.25 24.03125 29.890625 
Q 34.671875 31.15625 39.703125 32.90625 
Q 39.75 34.71875 39.75 35.203125 
Q 39.75 40.578125 37.25 42.78125 
Q 33.890625 45.75 27.25 45.75 
Q 21.046875 45.75 18.09375 43.578125 
Q 15.140625 41.40625 13.71875 35.890625 
L 5.125 37.0625 
Q 6.296875 42.578125 8.984375 45.96875 
Q 11.671875 49.359375 16.75 51.1875 
Q 21.828125 53.03125 28.515625 53.03125 
Q 35.15625 53.03125 39.296875 51.46875 
Q 43.453125 49.90625 45.40625 47.53125 
Q 47.359375 45.171875 48.140625 41.546875 
Q 48.578125 39.3125 48.578125 33.453125 
L 48.578125 21.734375 
Q 48.578125 9.46875 49.140625 6.21875 
Q 49.703125 2.984375 51.375 0 
L 42.1875 0 
Q 40.828125 2.734375 40.4375 6.390625 
z
M 39.703125 26.03125 
Q 34.90625 24.078125 25.34375 22.703125 
Q 19.921875 21.921875 17.671875 20.9375 
Q 15.4375 19.96875 14.203125 18.09375 
Q 12.984375 16.21875 12.984375 13.921875 
Q 12.984375 10.40625 15.640625 8.0625 
Q 18.3125 5.71875 23.4375 5.71875 
Q 28.515625 5.71875 32.46875 7.9375 
Q 36.421875 10.15625 38.28125 14.015625 
Q 39.703125 17 39.703125 22.796875 
z
" id="ArialMT-97"/>
      <path d="M 6.640625 61.46875 
L 6.640625 71.578125 
L 15.4375 71.578125 
L 15.4375 61.46875 
z
M 6.640625 0 
L 6.640625 51.859375 
L 15.4375 51.859375 
L 15.4375 0 
z
" id="ArialMT-105"/>
      <path d="M 3.328125 25.921875 
Q 3.328125 40.328125 11.328125 47.265625 
Q 18.015625 53.03125 27.640625 53.03125 
Q 38.328125 53.03125 45.109375 46.015625 
Q 51.90625 39.015625 51.90625 26.65625 
Q 51.90625 16.65625 48.90625 10.90625 
Q 45.90625 5.171875 40.15625 2 
Q 34.421875 -1.171875 27.640625 -1.171875 
Q 16.75 -1.171875 10.03125 5.8125 
Q 3.328125 12.796875 3.328125 25.921875 
z
M 12.359375 25.921875 
Q 12.359375 15.96875 16.703125 11.015625 
Q 21.046875 6.0625 27.640625 6.0625 
Q 34.1875 6.0625 38.53125 11.03125 
Q 42.875 16.015625 42.875 26.21875 
Q 42.875 35.84375 38.5 40.796875 
Q 34.125 45.75 27.640625 45.75 
Q 21.046875 45.75 16.703125 40.8125 
Q 12.359375 35.890625 12.359375 25.921875 
z
" id="ArialMT-111"/>
      <path d="M 6.59375 0 
L 6.59375 51.859375 
L 14.5 51.859375 
L 14.5 44.484375 
Q 20.21875 53.03125 31 53.03125 
Q 35.6875 53.03125 39.625 51.34375 
Q 43.5625 49.65625 45.515625 46.921875 
Q 47.46875 44.1875 48.25 40.4375 
Q 48.734375 37.984375 48.734375 31.890625 
L 48.734375 0 
L 39.9375 0 
L 39.9375 31.546875 
Q 39.9375 36.921875 38.90625 39.578125 
Q 37.890625 42.234375 35.28125 43.8125 
Q 32.671875 45.40625 29.15625 45.40625 
Q 23.53125 45.40625 19.453125 41.84375 
Q 15.375 38.28125 15.375 28.328125 
L 15.375 0 
z
" id="ArialMT-110"/>
     </defs>
     <g style="fill:#262626;" transform="translate(176.495217 407.533828)scale(0.18 -0.18)">
      <use xlink:href="#ArialMT-73"/>
      <use x="27.783203" xlink:href="#ArialMT-116"/>
      <use x="55.566406" xlink:href="#ArialMT-101"/>
      <use x="111.181641" xlink:href="#ArialMT-114"/>
      <use x="144.482422" xlink:href="#ArialMT-97"/>
      <use x="200.097656" xlink:href="#ArialMT-116"/>
      <use x="227.880859" xlink:href="#ArialMT-105"/>
      <use x="250.097656" xlink:href="#ArialMT-111"/>
      <use x="305.712891" xlink:href="#ArialMT-110"/>
     </g>
    </g>
   </g>
   <g id="matplotlib.axis_2">
    <g id="ytick_1">
     <g id="line2d_5">
      <path clip-path="url(#pcfe92c3a5c)" d="M 81.44 348.35 
L 336.583871 348.35 
" style="fill:none;stroke:#cccccc;stroke-linecap:round;stroke-width:1.5;"/>
     </g>
     <g id="text_6">
      <!-- 0 -->
      <g style="fill:#262626;" transform="translate(59.764453 354.255195)scale(0.165 -0.165)">
       <use xlink:href="#ArialMT-48"/>
      </g>
     </g>
    </g>
    <g id="ytick_2">
     <g id="line2d_6">
      <path clip-path="url(#pcfe92c3a5c)" d="M 81.44 294.761658 
L 336.583871 294.761658 
" style="fill:none;stroke:#cccccc;stroke-linecap:round;stroke-width:1.5;"/>
     </g>
     <g id="text_7">
      <!-- 100 -->
      <g style="fill:#262626;" transform="translate(41.413359 300.666853)scale(0.165 -0.165)">
       <use xlink:href="#ArialMT-49"/>
       <use x="55.615234" xlink:href="#ArialMT-48"/>
       <use x="111.230469" xlink:href="#ArialMT-48"/>
      </g>
     </g>
    </g>
    <g id="ytick_3">
     <g id="line2d_7">
      <path clip-path="url(#pcfe92c3a5c)" d="M 81.44 241.173315 
L 336.583871 241.173315 
" style="fill:none;stroke:#cccccc;stroke-linecap:round;stroke-width:1.5;"/>
     </g>
     <g id="text_8">
      <!-- 200 -->
      <defs>
       <path d="M 50.34375 8.453125 
L 50.34375 0 
L 3.03125 0 
Q 2.9375 3.171875 4.046875 6.109375 
Q 5.859375 10.9375 9.828125 15.625 
Q 13.8125 20.3125 21.34375 26.46875 
Q 33.015625 36.03125 37.109375 41.625 
Q 41.21875 47.21875 41.21875 52.203125 
Q 41.21875 57.421875 37.46875 61 
Q 33.734375 64.59375 27.734375 64.59375 
Q 21.390625 64.59375 17.578125 60.78125 
Q 13.765625 56.984375 13.71875 50.25 
L 4.6875 51.171875 
Q 5.609375 61.28125 11.65625 66.578125 
Q 17.71875 71.875 27.9375 71.875 
Q 38.234375 71.875 44.234375 66.15625 
Q 50.25 60.453125 50.25 52 
Q 50.25 47.703125 48.484375 43.546875 
Q 46.734375 39.40625 42.65625 34.8125 
Q 38.578125 30.21875 29.109375 22.21875 
Q 21.1875 15.578125 18.9375 13.203125 
Q 16.703125 10.84375 15.234375 8.453125 
z
" id="ArialMT-50"/>
      </defs>
      <g style="fill:#262626;" transform="translate(41.413359 247.07851)scale(0.165 -0.165)">
       <use xlink:href="#ArialMT-50"/>
       <use x="55.615234" xlink:href="#ArialMT-48"/>
       <use x="111.230469" xlink:href="#ArialMT-48"/>
      </g>
     </g>
    </g>
    <g id="ytick_4">
     <g id="line2d_8">
      <path clip-path="url(#pcfe92c3a5c)" d="M 81.44 187.584973 
L 336.583871 187.584973 
" style="fill:none;stroke:#cccccc;stroke-linecap:round;stroke-width:1.5;"/>
     </g>
     <g id="text_9">
      <!-- 300 -->
      <defs>
       <path d="M 4.203125 18.890625 
L 12.984375 20.0625 
Q 14.5 12.59375 18.140625 9.296875 
Q 21.78125 6 27 6 
Q 33.203125 6 37.46875 10.296875 
Q 41.75 14.59375 41.75 20.953125 
Q 41.75 27 37.796875 30.921875 
Q 33.84375 34.859375 27.734375 34.859375 
Q 25.25 34.859375 21.53125 33.890625 
L 22.515625 41.609375 
Q 23.390625 41.5 23.921875 41.5 
Q 29.546875 41.5 34.03125 44.421875 
Q 38.53125 47.359375 38.53125 53.46875 
Q 38.53125 58.296875 35.25 61.46875 
Q 31.984375 64.65625 26.8125 64.65625 
Q 21.6875 64.65625 18.265625 61.421875 
Q 14.84375 58.203125 13.875 51.765625 
L 5.078125 53.328125 
Q 6.6875 62.15625 12.390625 67.015625 
Q 18.109375 71.875 26.609375 71.875 
Q 32.46875 71.875 37.390625 69.359375 
Q 42.328125 66.84375 44.9375 62.5 
Q 47.5625 58.15625 47.5625 53.265625 
Q 47.5625 48.640625 45.0625 44.828125 
Q 42.578125 41.015625 37.703125 38.765625 
Q 44.046875 37.3125 47.5625 32.6875 
Q 51.078125 28.078125 51.078125 21.140625 
Q 51.078125 11.765625 44.234375 5.25 
Q 37.40625 -1.265625 26.953125 -1.265625 
Q 17.53125 -1.265625 11.296875 4.34375 
Q 5.078125 9.96875 4.203125 18.890625 
z
" id="ArialMT-51"/>
      </defs>
      <g style="fill:#262626;" transform="translate(41.413359 193.490168)scale(0.165 -0.165)">
       <use xlink:href="#ArialMT-51"/>
       <use x="55.615234" xlink:href="#ArialMT-48"/>
       <use x="111.230469" xlink:href="#ArialMT-48"/>
      </g>
     </g>
    </g>
    <g id="ytick_5">
     <g id="line2d_9">
      <path clip-path="url(#pcfe92c3a5c)" d="M 81.44 133.99663 
L 336.583871 133.99663 
" style="fill:none;stroke:#cccccc;stroke-linecap:round;stroke-width:1.5;"/>
     </g>
     <g id="text_10">
      <!-- 400 -->
      <defs>
       <path d="M 32.328125 0 
L 32.328125 17.140625 
L 1.265625 17.140625 
L 1.265625 25.203125 
L 33.9375 71.578125 
L 41.109375 71.578125 
L 41.109375 25.203125 
L 50.78125 25.203125 
L 50.78125 17.140625 
L 41.109375 17.140625 
L 41.109375 0 
z
M 32.328125 25.203125 
L 32.328125 57.46875 
L 9.90625 25.203125 
z
" id="ArialMT-52"/>
      </defs>
      <g style="fill:#262626;" transform="translate(41.413359 139.901826)scale(0.165 -0.165)">
       <use xlink:href="#ArialMT-52"/>
       <use x="55.615234" xlink:href="#ArialMT-48"/>
       <use x="111.230469" xlink:href="#ArialMT-48"/>
      </g>
     </g>
    </g>
    <g id="ytick_6">
     <g id="line2d_10">
      <path clip-path="url(#pcfe92c3a5c)" d="M 81.44 80.408288 
L 336.583871 80.408288 
" style="fill:none;stroke:#cccccc;stroke-linecap:round;stroke-width:1.5;"/>
     </g>
     <g id="text_11">
      <!-- 500 -->
      <g style="fill:#262626;" transform="translate(41.413359 86.313483)scale(0.165 -0.165)">
       <use xlink:href="#ArialMT-53"/>
       <use x="55.615234" xlink:href="#ArialMT-48"/>
       <use x="111.230469" xlink:href="#ArialMT-48"/>
      </g>
     </g>
    </g>
    <g id="text_12">
     <!-- No. generated ECFP6 analogs -->
     <defs>
      <path d="M 7.625 0 
L 7.625 71.578125 
L 17.328125 71.578125 
L 54.9375 15.375 
L 54.9375 71.578125 
L 64.015625 71.578125 
L 64.015625 0 
L 54.296875 0 
L 16.703125 56.25 
L 16.703125 0 
z
" id="ArialMT-78"/>
      <path d="M 9.078125 0 
L 9.078125 10.015625 
L 19.09375 10.015625 
L 19.09375 0 
z
" id="ArialMT-46"/>
      <path id="ArialMT-32"/>
      <path d="M 4.984375 -4.296875 
L 13.53125 -5.5625 
Q 14.0625 -9.515625 16.5 -11.328125 
Q 19.78125 -13.765625 25.4375 -13.765625 
Q 31.546875 -13.765625 34.859375 -11.328125 
Q 38.1875 -8.890625 39.359375 -4.5 
Q 40.046875 -1.8125 39.984375 6.78125 
Q 34.234375 0 25.640625 0 
Q 14.9375 0 9.078125 7.71875 
Q 3.21875 15.4375 3.21875 26.21875 
Q 3.21875 33.640625 5.90625 39.90625 
Q 8.59375 46.1875 13.6875 49.609375 
Q 18.796875 53.03125 25.6875 53.03125 
Q 34.859375 53.03125 40.828125 45.609375 
L 40.828125 51.859375 
L 48.921875 51.859375 
L 48.921875 7.03125 
Q 48.921875 -5.078125 46.453125 -10.125 
Q 44 -15.1875 38.640625 -18.109375 
Q 33.296875 -21.046875 25.484375 -21.046875 
Q 16.21875 -21.046875 10.5 -16.875 
Q 4.78125 -12.703125 4.984375 -4.296875 
z
M 12.25 26.859375 
Q 12.25 16.65625 16.296875 11.96875 
Q 20.359375 7.28125 26.46875 7.28125 
Q 32.515625 7.28125 36.609375 11.9375 
Q 40.71875 16.609375 40.71875 26.5625 
Q 40.71875 36.078125 36.5 40.90625 
Q 32.28125 45.75 26.3125 45.75 
Q 20.453125 45.75 16.34375 40.984375 
Q 12.25 36.234375 12.25 26.859375 
z
" id="ArialMT-103"/>
      <path d="M 40.234375 0 
L 40.234375 6.546875 
Q 35.296875 -1.171875 25.734375 -1.171875 
Q 19.53125 -1.171875 14.328125 2.25 
Q 9.125 5.671875 6.265625 11.796875 
Q 3.421875 17.921875 3.421875 25.875 
Q 3.421875 33.640625 6 39.96875 
Q 8.59375 46.296875 13.765625 49.65625 
Q 18.953125 53.03125 25.34375 53.03125 
Q 30.03125 53.03125 33.6875 51.046875 
Q 37.359375 49.078125 39.65625 45.90625 
L 39.65625 71.578125 
L 48.390625 71.578125 
L 48.390625 0 
z
M 12.453125 25.875 
Q 12.453125 15.921875 16.640625 10.984375 
Q 20.84375 6.0625 26.5625 6.0625 
Q 32.328125 6.0625 36.34375 10.765625 
Q 40.375 15.484375 40.375 25.140625 
Q 40.375 35.796875 36.265625 40.765625 
Q 32.171875 45.75 26.171875 45.75 
Q 20.3125 45.75 16.375 40.96875 
Q 12.453125 36.1875 12.453125 25.875 
z
" id="ArialMT-100"/>
      <path d="M 7.90625 0 
L 7.90625 71.578125 
L 59.671875 71.578125 
L 59.671875 63.140625 
L 17.390625 63.140625 
L 17.390625 41.21875 
L 56.984375 41.21875 
L 56.984375 32.8125 
L 17.390625 32.8125 
L 17.390625 8.453125 
L 61.328125 8.453125 
L 61.328125 0 
z
" id="ArialMT-69"/>
      <path d="M 58.796875 25.09375 
L 68.265625 22.703125 
Q 65.28125 11.03125 57.546875 4.90625 
Q 49.8125 -1.21875 38.625 -1.21875 
Q 27.046875 -1.21875 19.796875 3.484375 
Q 12.546875 8.203125 8.765625 17.140625 
Q 4.984375 26.078125 4.984375 36.328125 
Q 4.984375 47.515625 9.25 55.828125 
Q 13.53125 64.15625 21.40625 68.46875 
Q 29.296875 72.796875 38.765625 72.796875 
Q 49.515625 72.796875 56.828125 67.328125 
Q 64.15625 61.859375 67.046875 51.953125 
L 57.71875 49.75 
Q 55.21875 57.5625 50.484375 61.125 
Q 45.75 64.703125 38.578125 64.703125 
Q 30.328125 64.703125 24.78125 60.734375 
Q 19.234375 56.78125 16.984375 50.109375 
Q 14.75 43.453125 14.75 36.375 
Q 14.75 27.25 17.40625 20.4375 
Q 20.0625 13.625 25.671875 10.25 
Q 31.296875 6.890625 37.84375 6.890625 
Q 45.796875 6.890625 51.3125 11.46875 
Q 56.84375 16.0625 58.796875 25.09375 
z
" id="ArialMT-67"/>
      <path d="M 8.203125 0 
L 8.203125 71.578125 
L 56.5 71.578125 
L 56.5 63.140625 
L 17.671875 63.140625 
L 17.671875 40.96875 
L 51.265625 40.96875 
L 51.265625 32.515625 
L 17.671875 32.515625 
L 17.671875 0 
z
" id="ArialMT-70"/>
      <path d="M 7.71875 0 
L 7.71875 71.578125 
L 34.71875 71.578125 
Q 41.84375 71.578125 45.609375 70.90625 
Q 50.875 70.015625 54.4375 67.546875 
Q 58.015625 65.09375 60.1875 60.640625 
Q 62.359375 56.203125 62.359375 50.875 
Q 62.359375 41.75 56.546875 35.421875 
Q 50.734375 29.109375 35.546875 29.109375 
L 17.1875 29.109375 
L 17.1875 0 
z
M 17.1875 37.546875 
L 35.6875 37.546875 
Q 44.875 37.546875 48.734375 40.96875 
Q 52.59375 44.390625 52.59375 50.59375 
Q 52.59375 55.078125 50.3125 58.265625 
Q 48.046875 61.46875 44.34375 62.5 
Q 41.9375 63.140625 35.5 63.140625 
L 17.1875 63.140625 
z
" id="ArialMT-80"/>
      <path d="M 49.75 54.046875 
L 41.015625 53.375 
Q 39.84375 58.546875 37.703125 60.890625 
Q 34.125 64.65625 28.90625 64.65625 
Q 24.703125 64.65625 21.53125 62.3125 
Q 17.390625 59.28125 14.984375 53.46875 
Q 12.59375 47.65625 12.5 36.921875 
Q 15.671875 41.75 20.265625 44.09375 
Q 24.859375 46.4375 29.890625 46.4375 
Q 38.671875 46.4375 44.84375 39.96875 
Q 51.03125 33.5 51.03125 23.25 
Q 51.03125 16.5 48.125 10.71875 
Q 45.21875 4.9375 40.140625 1.859375 
Q 35.0625 -1.21875 28.609375 -1.21875 
Q 17.625 -1.21875 10.6875 6.859375 
Q 3.765625 14.9375 3.765625 33.5 
Q 3.765625 54.25 11.421875 63.671875 
Q 18.109375 71.875 29.4375 71.875 
Q 37.890625 71.875 43.28125 67.140625 
Q 48.6875 62.40625 49.75 54.046875 
z
M 13.875 23.1875 
Q 13.875 18.65625 15.796875 14.5 
Q 17.71875 10.359375 21.1875 8.171875 
Q 24.65625 6 28.46875 6 
Q 34.03125 6 38.03125 10.484375 
Q 42.046875 14.984375 42.046875 22.703125 
Q 42.046875 30.125 38.078125 34.390625 
Q 34.125 38.671875 28.125 38.671875 
Q 22.171875 38.671875 18.015625 34.390625 
Q 13.875 30.125 13.875 23.1875 
z
" id="ArialMT-54"/>
      <path d="M 6.390625 0 
L 6.390625 71.578125 
L 15.1875 71.578125 
L 15.1875 0 
z
" id="ArialMT-108"/>
      <path d="M 3.078125 15.484375 
L 11.765625 16.84375 
Q 12.5 11.625 15.84375 8.84375 
Q 19.1875 6.0625 25.203125 6.0625 
Q 31.25 6.0625 34.171875 8.515625 
Q 37.109375 10.984375 37.109375 14.3125 
Q 37.109375 17.28125 34.515625 19 
Q 32.71875 20.171875 25.53125 21.96875 
Q 15.875 24.421875 12.140625 26.203125 
Q 8.40625 27.984375 6.46875 31.125 
Q 4.546875 34.28125 4.546875 38.09375 
Q 4.546875 41.546875 6.125 44.5 
Q 7.71875 47.46875 10.453125 49.421875 
Q 12.5 50.921875 16.03125 51.96875 
Q 19.578125 53.03125 23.640625 53.03125 
Q 29.734375 53.03125 34.34375 51.265625 
Q 38.96875 49.515625 41.15625 46.5 
Q 43.359375 43.5 44.1875 38.484375 
L 35.59375 37.3125 
Q 35.015625 41.3125 32.203125 43.546875 
Q 29.390625 45.796875 24.265625 45.796875 
Q 18.21875 45.796875 15.625 43.796875 
Q 13.03125 41.796875 13.03125 39.109375 
Q 13.03125 37.40625 14.109375 36.03125 
Q 15.1875 34.625 17.484375 33.6875 
Q 18.796875 33.203125 25.25 31.453125 
Q 34.578125 28.953125 38.25 27.359375 
Q 41.9375 25.78125 44.03125 22.75 
Q 46.140625 19.734375 46.140625 15.234375 
Q 46.140625 10.84375 43.578125 6.953125 
Q 41.015625 3.078125 36.171875 0.953125 
Q 31.34375 -1.171875 25.25 -1.171875 
Q 15.140625 -1.171875 9.84375 3.03125 
Q 4.546875 7.234375 3.078125 15.484375 
z
" id="ArialMT-115"/>
     </defs>
     <g style="fill:#262626;" transform="translate(33.624922 323.81875)rotate(-90)scale(0.18 -0.18)">
      <use xlink:href="#ArialMT-78"/>
      <use x="72.216797" xlink:href="#ArialMT-111"/>
      <use x="127.832031" xlink:href="#ArialMT-46"/>
      <use x="155.615234" xlink:href="#ArialMT-32"/>
      <use x="183.398438" xlink:href="#ArialMT-103"/>
      <use x="239.013672" xlink:href="#ArialMT-101"/>
      <use x="294.628906" xlink:href="#ArialMT-110"/>
      <use x="350.244141" xlink:href="#ArialMT-101"/>
      <use x="405.859375" xlink:href="#ArialMT-114"/>
      <use x="439.160156" xlink:href="#ArialMT-97"/>
      <use x="494.775391" xlink:href="#ArialMT-116"/>
      <use x="522.558594" xlink:href="#ArialMT-101"/>
      <use x="578.173828" xlink:href="#ArialMT-100"/>
      <use x="633.789062" xlink:href="#ArialMT-32"/>
      <use x="661.572266" xlink:href="#ArialMT-69"/>
      <use x="728.271484" xlink:href="#ArialMT-67"/>
      <use x="800.488281" xlink:href="#ArialMT-70"/>
      <use x="861.572266" xlink:href="#ArialMT-80"/>
      <use x="928.271484" xlink:href="#ArialMT-54"/>
      <use x="983.886719" xlink:href="#ArialMT-32"/>
      <use x="1011.669922" xlink:href="#ArialMT-97"/>
      <use x="1067.285156" xlink:href="#ArialMT-110"/>
      <use x="1122.900391" xlink:href="#ArialMT-97"/>
      <use x="1178.515625" xlink:href="#ArialMT-108"/>
      <use x="1200.732422" xlink:href="#ArialMT-111"/>
      <use x="1256.347656" xlink:href="#ArialMT-103"/>
      <use x="1311.962891" xlink:href="#ArialMT-115"/>
     </g>
    </g>
   </g>
   <g id="line2d_11">
    <path clip-path="url(#pcfe92c3a5c)" d="M 93.037449 348.35 
L 94.594153 347.814117 
L 102.377676 347.814117 
L 103.93438 346.74235 
L 107.047789 345.670583 
L 108.604494 344.598816 
L 111.717903 343.527049 
L 113.274607 342.455282 
L 116.388016 341.383515 
L 117.944721 340.311749 
L 119.501425 339.775865 
L 121.05813 338.704098 
L 122.614835 338.168215 
L 124.171539 338.168215 
L 125.728244 337.096448 
L 127.284948 335.488798 
L 128.841653 332.273497 
L 130.398357 331.737614 
L 131.955062 330.129964 
L 133.511766 325.842896 
L 135.068471 325.307013 
L 138.18188 322.091712 
L 141.295289 321.019945 
L 144.408698 318.876412 
L 149.078811 312.445811 
L 150.635516 310.83816 
L 152.19222 309.766393 
L 153.748925 308.158743 
L 155.305629 308.158743 
L 156.862334 306.551093 
L 159.975743 304.407559 
L 161.532447 303.871676 
L 163.089152 302.799909 
L 164.645857 301.192259 
L 166.202561 300.656375 
L 167.759266 299.048725 
L 169.31597 298.512842 
L 170.872675 298.512842 
L 173.986084 297.441075 
L 175.542788 296.369308 
L 177.099493 295.833424 
L 178.656197 295.833424 
L 180.212902 294.225774 
L 181.769606 294.225774 
L 183.326311 293.689891 
L 184.883015 292.08224 
L 186.43972 291.546357 
L 187.996424 291.546357 
L 191.109833 290.47459 
L 192.666538 289.402823 
L 194.223242 288.86694 
L 195.779947 288.86694 
L 197.336651 288.331056 
L 198.893356 286.723406 
L 203.563469 286.723406 
L 206.676879 285.651639 
L 212.903697 285.651639 
L 214.460401 284.579872 
L 216.017106 284.043989 
L 220.687219 284.043989 
L 223.800628 282.972222 
L 226.914037 282.972222 
L 228.470742 282.436339 
L 231.584151 282.436339 
L 233.140855 281.900455 
L 234.69756 280.828689 
L 236.254264 280.828689 
L 237.810969 280.292805 
L 242.481082 280.292805 
L 244.037787 279.756922 
L 245.594491 279.756922 
L 247.151196 279.221038 
L 248.707901 279.221038 
L 250.264605 278.685155 
L 251.82131 278.685155 
L 253.378014 277.613388 
L 267.388355 277.613388 
L 270.501764 276.541621 
L 281.398695 276.541621 
L 282.9554 276.005738 
L 284.512104 276.005738 
L 287.625513 274.933971 
L 295.409036 274.933971 
L 296.965741 273.862204 
L 303.192559 273.862204 
L 304.749263 273.326321 
L 309.419377 273.326321 
L 310.976081 272.790437 
L 314.08949 272.790437 
L 318.759604 271.182787 
L 323.429717 271.182787 
L 324.986422 270.646903 
L 324.986422 270.646903 
" style="fill:none;stroke:#1f77b4;stroke-linecap:round;stroke-width:2.25;"/>
   </g>
   <g id="line2d_12">
    <path clip-path="url(#pcfe92c3a5c)" d="M 93.037449 348.35 
L 96.150858 347.278233 
L 102.377676 347.278233 
L 103.93438 346.206466 
L 107.047789 345.134699 
L 108.604494 344.062933 
L 111.717903 342.991166 
L 113.274607 342.991166 
L 114.831312 341.919399 
L 116.388016 341.383515 
L 117.944721 341.383515 
L 121.05813 340.311749 
L 125.728244 337.096448 
L 127.284948 334.952914 
L 128.841653 333.345264 
L 130.398357 332.273497 
L 131.955062 330.129964 
L 133.511766 328.522313 
L 135.068471 327.450546 
L 136.625175 325.842896 
L 138.18188 325.842896 
L 139.738584 324.235246 
L 141.295289 323.163479 
L 142.851993 322.627596 
L 144.408698 319.412295 
L 145.965402 317.804645 
L 147.522107 316.732878 
L 149.078811 315.125228 
L 150.635516 312.445811 
L 152.19222 310.83816 
L 153.748925 307.086976 
L 155.305629 306.015209 
L 156.862334 303.335792 
L 158.419038 302.264026 
L 159.975743 300.120492 
L 161.532447 299.048725 
L 163.089152 296.369308 
L 164.645857 295.833424 
L 166.202561 292.618124 
L 167.759266 291.010474 
L 169.31597 288.331056 
L 170.872675 285.115756 
L 172.429379 283.508106 
L 173.986084 278.149271 
L 175.542788 275.469854 
L 178.656197 271.182787 
L 181.769606 269.039253 
L 183.326311 268.50337 
L 184.883015 268.50337 
L 186.43972 264.752186 
L 187.996424 263.144536 
L 189.553129 262.608652 
L 191.109833 261.536885 
L 194.223242 257.249818 
L 195.779947 255.642168 
L 198.893356 251.3551 
L 202.006765 242.780965 
L 203.563469 242.245082 
L 205.120174 238.493898 
L 208.233583 236.350364 
L 209.790288 233.670947 
L 211.346992 232.063297 
L 212.903697 231.527413 
L 214.460401 229.919763 
L 216.017106 225.632696 
L 219.130515 224.560929 
L 220.687219 223.489162 
L 222.243924 220.273862 
L 223.800628 217.594444 
L 225.357333 216.522678 
L 226.914037 212.23561 
L 228.470742 212.23561 
L 230.027446 211.163843 
L 233.140855 207.948543 
L 234.69756 204.733242 
L 236.254264 203.125592 
L 239.367673 198.838525 
L 242.481082 197.766758 
L 244.037787 195.623224 
L 245.594491 194.015574 
L 247.151196 193.47969 
L 250.264605 190.26439 
L 251.82131 187.584973 
L 253.378014 185.977322 
L 254.934719 182.762022 
L 256.491423 180.082605 
L 258.048128 179.010838 
L 261.161537 174.72377 
L 262.718241 174.72377 
L 264.274946 172.580237 
L 265.83165 171.50847 
L 267.388355 169.364936 
L 268.945059 168.293169 
L 272.058468 165.077869 
L 273.615173 162.934335 
L 275.171877 161.326685 
L 276.728582 160.254918 
L 279.841991 157.039617 
L 281.398695 155.967851 
L 284.512104 151.680783 
L 286.068809 150.073133 
L 287.625513 150.073133 
L 289.182218 148.465483 
L 290.738923 146.321949 
L 292.295627 146.321949 
L 293.852332 145.250182 
L 295.409036 144.714299 
L 296.965741 144.714299 
L 298.522445 142.570765 
L 300.07915 141.498998 
L 301.635854 139.891348 
L 303.192559 137.747814 
L 304.749263 133.460747 
L 306.305968 133.460747 
L 307.862672 132.924863 
L 309.419377 131.853097 
L 312.532786 131.853097 
L 314.08949 130.78133 
L 315.646195 129.173679 
L 317.202899 128.637796 
L 318.759604 127.030146 
L 320.316308 124.886612 
L 321.873013 124.350729 
L 323.429717 123.278962 
L 324.986422 122.743078 
L 324.986422 122.743078 
" style="fill:none;stroke:#ff7f0e;stroke-linecap:round;stroke-width:2.25;"/>
   </g>
   <g id="line2d_13">
    <path clip-path="url(#pcfe92c3a5c)" d="M 93.037449 348.35 
L 96.150858 347.278233 
L 102.377676 347.278233 
L 103.93438 346.206466 
L 107.047789 345.134699 
L 108.604494 344.062933 
L 111.717903 342.991166 
L 113.274607 342.991166 
L 114.831312 341.919399 
L 116.388016 341.383515 
L 117.944721 341.383515 
L 121.05813 340.311749 
L 125.728244 337.096448 
L 127.284948 334.952914 
L 128.841653 333.345264 
L 130.398357 332.273497 
L 131.955062 330.129964 
L 133.511766 328.522313 
L 135.068471 327.450546 
L 136.625175 325.842896 
L 138.18188 325.842896 
L 139.738584 324.235246 
L 141.295289 323.163479 
L 142.851993 322.627596 
L 144.408698 319.412295 
L 145.965402 317.804645 
L 147.522107 316.732878 
L 149.078811 315.125228 
L 150.635516 312.445811 
L 152.19222 310.83816 
L 153.748925 307.086976 
L 155.305629 306.015209 
L 156.862334 303.335792 
L 158.419038 302.264026 
L 161.532447 297.976958 
L 163.089152 294.761658 
L 164.645857 293.689891 
L 166.202561 288.86694 
L 167.759266 286.723406 
L 169.31597 285.115756 
L 170.872675 282.972222 
L 172.429379 281.364572 
L 173.986084 280.828689 
L 175.542788 278.149271 
L 177.099493 276.541621 
L 178.656197 273.326321 
L 180.212902 270.646903 
L 183.326311 268.50337 
L 184.883015 266.895719 
L 186.43972 263.680419 
L 187.996424 262.072769 
L 189.553129 259.929235 
L 191.109833 256.713934 
L 192.666538 255.106284 
L 194.223242 254.034517 
L 197.336651 250.819217 
L 198.893356 245.460383 
L 200.45006 242.780965 
L 202.006765 242.780965 
L 203.563469 241.173315 
L 205.120174 237.958015 
L 208.233583 232.59918 
L 209.790288 230.99153 
L 211.346992 228.312113 
L 214.460401 225.096812 
L 216.017106 222.953279 
L 217.57381 220.273862 
L 219.130515 219.202095 
L 220.687219 215.450911 
L 222.243924 214.379144 
L 223.800628 212.771494 
L 225.357333 211.699727 
L 226.914037 210.092077 
L 228.470742 206.876776 
L 231.584151 203.661475 
L 233.140855 201.517942 
L 236.254264 196.159107 
L 237.810969 194.551457 
L 239.367673 194.015574 
L 242.481082 189.728506 
L 244.037787 188.120856 
L 245.594491 185.977322 
L 247.151196 182.226138 
L 248.707901 180.618488 
L 250.264605 177.403188 
L 251.82131 176.867304 
L 253.378014 175.795537 
L 254.934719 172.044353 
L 256.491423 169.90082 
L 258.048128 168.829053 
L 259.604832 167.221403 
L 262.718241 165.077869 
L 264.274946 164.541985 
L 265.83165 162.934335 
L 267.388355 160.790801 
L 268.945059 159.183151 
L 270.501764 155.431967 
L 272.058468 155.431967 
L 275.171877 154.3602 
L 276.728582 152.75255 
L 278.285286 149.001366 
L 279.841991 147.393716 
L 281.398695 143.106648 
L 282.9554 140.963115 
L 284.512104 139.355464 
L 286.068809 138.283698 
L 289.182218 135.068397 
L 290.738923 132.38898 
L 292.295627 131.317213 
L 293.852332 129.709563 
L 295.409036 124.886612 
L 296.965741 123.814845 
L 298.522445 122.207195 
L 300.07915 121.135428 
L 303.192559 116.848361 
L 304.749263 115.24071 
L 306.305968 111.489526 
L 307.862672 109.881876 
L 310.976081 104.523042 
L 312.532786 103.987158 
L 314.08949 102.379508 
L 315.646195 101.843625 
L 318.759604 98.628324 
L 320.316308 96.484791 
L 321.873013 93.26949 
L 323.429717 90.590073 
L 324.986422 88.446539 
L 324.986422 88.446539 
" style="fill:none;stroke:#2ca02c;stroke-linecap:round;stroke-width:2.25;"/>
   </g>
   <g id="line2d_14">
    <path clip-path="url(#pcfe92c3a5c)" d="M 93.037449 348.35 
L 96.150858 347.278233 
L 102.377676 347.278233 
L 103.93438 346.206466 
L 107.047789 345.134699 
L 108.604494 344.062933 
L 111.717903 342.991166 
L 113.274607 342.991166 
L 114.831312 341.919399 
L 116.388016 341.383515 
L 117.944721 341.383515 
L 121.05813 340.311749 
L 125.728244 337.096448 
L 127.284948 334.952914 
L 128.841653 333.345264 
L 130.398357 332.273497 
L 131.955062 330.129964 
L 133.511766 328.522313 
L 135.068471 327.450546 
L 136.625175 325.842896 
L 138.18188 325.842896 
L 139.738584 324.235246 
L 141.295289 323.163479 
L 142.851993 323.163479 
L 144.408698 319.948179 
L 145.965402 318.876412 
L 147.522107 317.268761 
L 149.078811 316.732878 
L 150.635516 312.981694 
L 152.19222 311.374044 
L 153.748925 306.551093 
L 155.305629 304.407559 
L 156.862334 301.192259 
L 158.419038 300.120492 
L 159.975743 296.905191 
L 161.532447 295.297541 
L 163.089152 294.761658 
L 166.202561 292.618124 
L 167.759266 291.010474 
L 169.31597 288.331056 
L 170.872675 287.25929 
L 172.429379 283.508106 
L 173.986084 281.900455 
L 175.542788 279.756922 
L 177.099493 278.149271 
L 178.656197 277.077505 
L 180.212902 275.469854 
L 181.769606 272.790437 
L 183.326311 271.182787 
L 184.883015 268.50337 
L 186.43972 266.359836 
L 189.553129 261.001002 
L 191.109833 261.001002 
L 192.666538 259.393352 
L 194.223242 256.713934 
L 195.779947 251.890984 
L 198.893356 246.532149 
L 200.45006 244.924499 
L 202.006765 244.388616 
L 203.563469 242.780965 
L 205.120174 241.709199 
L 206.676879 241.173315 
L 208.233583 240.101548 
L 209.790288 235.814481 
L 211.346992 233.135064 
L 212.903697 231.527413 
L 214.460401 228.847996 
L 216.017106 227.240346 
L 217.57381 224.560929 
L 220.687219 222.417395 
L 222.243924 220.273862 
L 223.800628 217.594444 
L 225.357333 215.450911 
L 226.914037 211.699727 
L 228.470742 209.556193 
L 230.027446 208.484426 
L 233.140855 205.269126 
L 236.254264 200.982058 
L 237.810969 199.910291 
L 240.924378 196.694991 
L 244.037787 194.551457 
L 245.594491 192.407923 
L 248.707901 189.192623 
L 250.264605 185.441439 
L 251.82131 183.833789 
L 253.378014 182.762022 
L 254.934719 182.762022 
L 256.491423 181.154372 
L 258.048128 178.474954 
L 261.161537 176.331421 
L 262.718241 174.187887 
L 264.274946 173.11612 
L 267.388355 168.829053 
L 268.945059 167.757286 
L 270.501764 165.077869 
L 272.058468 161.862568 
L 273.615173 159.719035 
L 275.171877 155.967851 
L 276.728582 153.288434 
L 278.285286 151.1449 
L 281.398695 147.929599 
L 282.9554 144.178415 
L 284.512104 140.963115 
L 286.068809 139.355464 
L 287.625513 137.211931 
L 289.182218 137.211931 
L 290.738923 135.604281 
L 292.295627 135.068397 
L 293.852332 132.924863 
L 295.409036 131.853097 
L 296.965741 130.245446 
L 298.522445 129.709563 
L 300.07915 127.030146 
L 301.635854 125.422495 
L 303.192559 123.278962 
L 304.749263 121.671311 
L 309.419377 113.63306 
L 310.976081 111.489526 
L 312.532786 109.881876 
L 314.08949 106.666576 
L 315.646195 105.058925 
L 317.202899 104.523042 
L 318.759604 101.843625 
L 320.316308 100.235974 
L 321.873013 98.092441 
L 323.429717 96.484791 
L 324.986422 94.341257 
L 324.986422 94.341257 
" style="fill:none;stroke:#d62728;stroke-linecap:round;stroke-width:2.25;"/>
   </g>
   <g id="line2d_15">
    <path clip-path="url(#pcfe92c3a5c)" d="M 93.037449 348.35 
L 96.150858 347.278233 
L 102.377676 347.278233 
L 103.93438 346.206466 
L 107.047789 345.134699 
L 108.604494 344.062933 
L 111.717903 342.991166 
L 113.274607 342.991166 
L 114.831312 341.919399 
L 116.388016 341.383515 
L 117.944721 341.383515 
L 121.05813 340.311749 
L 125.728244 337.096448 
L 127.284948 334.952914 
L 128.841653 333.345264 
L 130.398357 332.273497 
L 133.511766 329.058197 
L 135.068471 327.98643 
L 136.625175 326.37878 
L 138.18188 326.37878 
L 139.738584 324.771129 
L 141.295289 323.699362 
L 142.851993 323.699362 
L 144.408698 319.948179 
L 145.965402 318.340528 
L 147.522107 315.125228 
L 149.078811 313.517577 
L 150.635516 312.445811 
L 152.19222 310.83816 
L 153.748925 310.302277 
L 155.305629 307.62286 
L 158.419038 304.407559 
L 159.975743 303.871676 
L 163.089152 298.512842 
L 164.645857 295.297541 
L 166.202561 293.689891 
L 167.759266 292.618124 
L 169.31597 292.08224 
L 170.872675 289.402823 
L 172.429379 287.25929 
L 173.986084 284.043989 
L 175.542788 282.972222 
L 177.099493 280.828689 
L 181.769606 276.005738 
L 183.326311 275.469854 
L 184.883015 272.790437 
L 186.43972 271.182787 
L 187.996424 269.039253 
L 191.109833 265.823953 
L 194.223242 261.536885 
L 195.779947 258.321585 
L 197.336651 257.249818 
L 198.893356 255.642168 
L 200.45006 252.96275 
L 203.563469 250.819217 
L 205.120174 248.1398 
L 206.676879 248.1398 
L 208.233583 246.532149 
L 209.790288 243.316849 
L 211.346992 242.245082 
L 212.903697 240.637432 
L 214.460401 238.493898 
L 216.017106 237.422131 
L 217.57381 235.278597 
L 219.130515 234.206831 
L 220.687219 232.063297 
L 222.243924 229.38388 
L 223.800628 225.096812 
L 225.357333 222.953279 
L 226.914037 221.345628 
L 228.470742 219.202095 
L 230.027446 217.594444 
L 231.584151 215.450911 
L 233.140855 214.379144 
L 236.254264 210.092077 
L 237.810969 204.733242 
L 239.367673 204.197359 
L 240.924378 200.982058 
L 242.481082 199.374408 
L 244.037787 198.302641 
L 245.594491 196.694991 
L 247.151196 193.47969 
L 248.707901 191.87204 
L 250.264605 190.800273 
L 251.82131 188.65674 
L 253.378014 185.441439 
L 254.934719 181.690255 
L 256.491423 180.618488 
L 258.048128 177.403188 
L 259.604832 175.259654 
L 261.161537 172.580237 
L 262.718241 169.364936 
L 264.274946 166.685519 
L 265.83165 162.398452 
L 267.388355 156.503734 
L 270.501764 154.3602 
L 272.058468 151.1449 
L 273.615173 146.321949 
L 275.171877 144.178415 
L 276.728582 141.498998 
L 281.398695 131.853097 
L 282.9554 129.173679 
L 284.512104 127.030146 
L 286.068809 123.278962 
L 287.625513 120.063661 
L 290.738923 115.776594 
L 293.852332 110.41776 
L 295.409036 106.666576 
L 296.965741 104.523042 
L 298.522445 102.915392 
L 300.07915 100.235974 
L 301.635854 98.092441 
L 303.192559 94.87714 
L 306.305968 89.518306 
L 307.862672 86.303005 
L 309.419377 80.944171 
L 310.976081 79.336521 
L 314.08949 73.977687 
L 317.202899 66.475319 
L 318.759604 63.260018 
L 320.316308 60.580601 
L 321.873013 58.437067 
L 323.429717 56.829417 
L 324.986422 54.15 
L 324.986422 54.15 
" style="fill:none;stroke:#9467bd;stroke-linecap:round;stroke-width:2.25;"/>
   </g>
   <g id="patch_3">
    <path d="M 81.44 363.06 
L 81.44 39.44 
" style="fill:none;stroke:#cccccc;stroke-linecap:square;stroke-linejoin:miter;stroke-width:1.875;"/>
   </g>
   <g id="patch_4">
    <path d="M 336.583871 363.06 
L 336.583871 39.44 
" style="fill:none;stroke:#cccccc;stroke-linecap:square;stroke-linejoin:miter;stroke-width:1.875;"/>
   </g>
   <g id="patch_5">
    <path d="M 81.44 363.06 
L 336.583871 363.06 
" style="fill:none;stroke:#cccccc;stroke-linecap:square;stroke-linejoin:miter;stroke-width:1.875;"/>
   </g>
   <g id="patch_6">
    <path d="M 81.44 39.44 
L 336.583871 39.44 
" style="fill:none;stroke:#cccccc;stroke-linecap:square;stroke-linejoin:miter;stroke-width:1.875;"/>
   </g>
   <g id="text_13">
    <!-- clogP -->
    <defs>
     <path d="M 40.4375 19 
L 49.078125 17.875 
Q 47.65625 8.9375 41.8125 3.875 
Q 35.984375 -1.171875 27.484375 -1.171875 
Q 16.84375 -1.171875 10.375 5.78125 
Q 3.90625 12.75 3.90625 25.734375 
Q 3.90625 34.125 6.6875 40.421875 
Q 9.46875 46.734375 15.15625 49.875 
Q 20.84375 53.03125 27.546875 53.03125 
Q 35.984375 53.03125 41.359375 48.75 
Q 46.734375 44.484375 48.25 36.625 
L 39.703125 35.296875 
Q 38.484375 40.53125 35.375 43.15625 
Q 32.28125 45.796875 27.875 45.796875 
Q 21.234375 45.796875 17.078125 41.03125 
Q 12.9375 36.28125 12.9375 25.984375 
Q 12.9375 15.53125 16.9375 10.796875 
Q 20.953125 6.0625 27.390625 6.0625 
Q 32.5625 6.0625 36.03125 9.234375 
Q 39.5 12.40625 40.4375 19 
z
" id="ArialMT-99"/>
    </defs>
    <g style="fill:#262626;" transform="translate(186.499279 33.44)scale(0.18 -0.18)">
     <use xlink:href="#ArialMT-99"/>
     <use x="50" xlink:href="#ArialMT-108"/>
     <use x="72.216797" xlink:href="#ArialMT-111"/>
     <use x="127.832031" xlink:href="#ArialMT-103"/>
     <use x="183.447266" xlink:href="#ArialMT-80"/>
    </g>
   </g>
  </g>
 </g>
 <defs>
  <clipPath id="pcfe92c3a5c">
   <rect height="323.62" width="255.143871" x="81.44" y="39.44"/>
  </clipPath>
 </defs>
</svg>
