<?xml version="1.0" encoding="utf-8" standalone="no"?>
<!DOCTYPE svg PUBLIC "-//W3C//DTD SVG 1.1//EN"
  "http://www.w3.org/Graphics/SVG/1.1/DTD/svg11.dtd">
<!-- Created with matplotlib (https://matplotlib.org/) -->
<svg height="432pt" version="1.1" viewBox="0 0 360 432" width="360pt" xmlns="http://www.w3.org/2000/svg" xmlns:xlink="http://www.w3.org/1999/xlink">
 <defs>
  <style type="text/css">
*{stroke-linecap:butt;stroke-linejoin:round;}
  </style>
 </defs>
 <g id="figure_1">
  <g id="patch_1">
   <path d="M 0 432 
L 360 432 
L 360 0 
L 0 0 
z
" style="fill:#ffffff;"/>
  </g>
  <g id="axes_1">
   <g id="patch_2">
    <path d="M 81.44 363.06 
L 336.913244 363.06 
L 336.913244 39.44 
L 81.44 39.44 
z
" style="fill:#ffffff;"/>
   </g>
   <g id="matplotlib.axis_1">
    <g id="xtick_1">
     <g id="line2d_1">
      <path clip-path="url(#pb3f1f0d42d)" d="M 93.05242 363.06 
L 93.05242 39.44 
" style="fill:none;stroke:#cccccc;stroke-linecap:round;stroke-width:1.5;"/>
     </g>
     <g id="text_1">
      <!-- 0 -->
      <defs>
       <path d="M 4.15625 35.296875 
Q 4.15625 48 6.765625 55.734375 
Q 9.375 63.484375 14.515625 67.671875 
Q 19.671875 71.875 27.484375 71.875 
Q 33.25 71.875 37.59375 69.546875 
Q 41.9375 67.234375 44.765625 62.859375 
Q 47.609375 58.5 49.21875 52.21875 
Q 50.828125 45.953125 50.828125 35.296875 
Q 50.828125 22.703125 48.234375 14.96875 
Q 45.65625 7.234375 40.5 3 
Q 35.359375 -1.21875 27.484375 -1.21875 
Q 17.140625 -1.21875 11.234375 6.203125 
Q 4.15625 15.140625 4.15625 35.296875 
z
M 13.1875 35.296875 
Q 13.1875 17.671875 17.3125 11.828125 
Q 21.4375 6 27.484375 6 
Q 33.546875 6 37.671875 11.859375 
Q 41.796875 17.71875 41.796875 35.296875 
Q 41.796875 52.984375 37.671875 58.78125 
Q 33.546875 64.59375 27.390625 64.59375 
Q 21.34375 64.59375 17.71875 59.46875 
Q 13.1875 52.9375 13.1875 35.296875 
z
" id="ArialMT-48"/>
      </defs>
      <g style="fill:#262626;" transform="translate(88.464647 387.370391)scale(0.165 -0.165)">
       <use xlink:href="#ArialMT-48"/>
      </g>
     </g>
    </g>
    <g id="xtick_2">
     <g id="line2d_2">
      <path clip-path="url(#pb3f1f0d42d)" d="M 170.988126 363.06 
L 170.988126 39.44 
" style="fill:none;stroke:#cccccc;stroke-linecap:round;stroke-width:1.5;"/>
     </g>
     <g id="text_2">
      <!-- 50 -->
      <defs>
       <path d="M 4.15625 18.75 
L 13.375 19.53125 
Q 14.40625 12.796875 18.140625 9.390625 
Q 21.875 6 27.15625 6 
Q 33.5 6 37.890625 10.78125 
Q 42.28125 15.578125 42.28125 23.484375 
Q 42.28125 31 38.0625 35.34375 
Q 33.84375 39.703125 27 39.703125 
Q 22.75 39.703125 19.328125 37.765625 
Q 15.921875 35.84375 13.96875 32.765625 
L 5.71875 33.84375 
L 12.640625 70.609375 
L 48.25 70.609375 
L 48.25 62.203125 
L 19.671875 62.203125 
L 15.828125 42.96875 
Q 22.265625 47.46875 29.34375 47.46875 
Q 38.71875 47.46875 45.15625 40.96875 
Q 51.609375 34.46875 51.609375 24.265625 
Q 51.609375 14.546875 45.953125 7.46875 
Q 39.0625 -1.21875 27.15625 -1.21875 
Q 17.390625 -1.21875 11.203125 4.25 
Q 5.03125 9.71875 4.15625 18.75 
z
" id="ArialMT-53"/>
      </defs>
      <g style="fill:#262626;" transform="translate(161.812579 387.370391)scale(0.165 -0.165)">
       <use xlink:href="#ArialMT-53"/>
       <use x="55.615234" xlink:href="#ArialMT-48"/>
      </g>
     </g>
    </g>
    <g id="xtick_3">
     <g id="line2d_3">
      <path clip-path="url(#pb3f1f0d42d)" d="M 248.923832 363.06 
L 248.923832 39.44 
" style="fill:none;stroke:#cccccc;stroke-linecap:round;stroke-width:1.5;"/>
     </g>
     <g id="text_3">
      <!-- 100 -->
      <defs>
       <path d="M 37.25 0 
L 28.46875 0 
L 28.46875 56 
Q 25.296875 52.984375 20.140625 49.953125 
Q 14.984375 46.921875 10.890625 45.40625 
L 10.890625 53.90625 
Q 18.265625 57.375 23.78125 62.296875 
Q 29.296875 67.234375 31.59375 71.875 
L 37.25 71.875 
z
" id="ArialMT-49"/>
      </defs>
      <g style="fill:#262626;" transform="translate(235.160512 387.370391)scale(0.165 -0.165)">
       <use xlink:href="#ArialMT-49"/>
       <use x="55.615234" xlink:href="#ArialMT-48"/>
       <use x="111.230469" xlink:href="#ArialMT-48"/>
      </g>
     </g>
    </g>
    <g id="xtick_4">
     <g id="line2d_4">
      <path clip-path="url(#pb3f1f0d42d)" d="M 326.859538 363.06 
L 326.859538 39.44 
" style="fill:none;stroke:#cccccc;stroke-linecap:round;stroke-width:1.5;"/>
     </g>
     <g id="text_4">
      <!-- 150 -->
      <g style="fill:#262626;" transform="translate(313.096218 387.370391)scale(0.165 -0.165)">
       <use xlink:href="#ArialMT-49"/>
       <use x="55.615234" xlink:href="#ArialMT-53"/>
       <use x="111.230469" xlink:href="#ArialMT-48"/>
      </g>
     </g>
    </g>
    <g id="text_5">
     <!-- Iteration -->
     <defs>
      <path d="M 9.328125 0 
L 9.328125 71.578125 
L 18.796875 71.578125 
L 18.796875 0 
z
" id="ArialMT-73"/>
      <path d="M 25.78125 7.859375 
L 27.046875 0.09375 
Q 23.34375 -0.6875 20.40625 -0.6875 
Q 15.625 -0.6875 12.984375 0.828125 
Q 10.359375 2.34375 9.28125 4.8125 
Q 8.203125 7.28125 8.203125 15.1875 
L 8.203125 45.015625 
L 1.765625 45.015625 
L 1.765625 51.859375 
L 8.203125 51.859375 
L 8.203125 64.703125 
L 16.9375 69.96875 
L 16.9375 51.859375 
L 25.78125 51.859375 
L 25.78125 45.015625 
L 16.9375 45.015625 
L 16.9375 14.703125 
Q 16.9375 10.9375 17.40625 9.859375 
Q 17.875 8.796875 18.921875 8.15625 
Q 19.96875 7.515625 21.921875 7.515625 
Q 23.390625 7.515625 25.78125 7.859375 
z
" id="ArialMT-116"/>
      <path d="M 42.09375 16.703125 
L 51.171875 15.578125 
Q 49.03125 7.625 43.21875 3.21875 
Q 37.40625 -1.171875 28.375 -1.171875 
Q 17 -1.171875 10.328125 5.828125 
Q 3.65625 12.84375 3.65625 25.484375 
Q 3.65625 38.578125 10.390625 45.796875 
Q 17.140625 53.03125 27.875 53.03125 
Q 38.28125 53.03125 44.875 45.953125 
Q 51.46875 38.875 51.46875 26.03125 
Q 51.46875 25.25 51.421875 23.6875 
L 12.75 23.6875 
Q 13.234375 15.140625 17.578125 10.59375 
Q 21.921875 6.0625 28.421875 6.0625 
Q 33.25 6.0625 36.671875 8.59375 
Q 40.09375 11.140625 42.09375 16.703125 
z
M 13.234375 30.90625 
L 42.1875 30.90625 
Q 41.609375 37.453125 38.875 40.71875 
Q 34.671875 45.796875 27.984375 45.796875 
Q 21.921875 45.796875 17.796875 41.75 
Q 13.671875 37.703125 13.234375 30.90625 
z
" id="ArialMT-101"/>
      <path d="M 6.5 0 
L 6.5 51.859375 
L 14.40625 51.859375 
L 14.40625 44 
Q 17.4375 49.515625 20 51.265625 
Q 22.5625 53.03125 25.640625 53.03125 
Q 30.078125 53.03125 34.671875 50.203125 
L 31.640625 42.046875 
Q 28.421875 43.953125 25.203125 43.953125 
Q 22.3125 43.953125 20.015625 42.21875 
Q 17.71875 40.484375 16.75 37.40625 
Q 15.28125 32.71875 15.28125 27.15625 
L 15.28125 0 
z
" id="ArialMT-114"/>
      <path d="M 40.4375 6.390625 
Q 35.546875 2.25 31.03125 0.53125 
Q 26.515625 -1.171875 21.34375 -1.171875 
Q 12.796875 -1.171875 8.203125 3 
Q 3.609375 7.171875 3.609375 13.671875 
Q 3.609375 17.484375 5.34375 20.625 
Q 7.078125 23.78125 9.890625 25.6875 
Q 12.703125 27.59375 16.21875 28.5625 
Q 18.796875 29.25 24.03125 29.890625 
Q 34.671875 31.15625 39.703125 32.90625 
Q 39.75 34.71875 39.75 35.203125 
Q 39.75 40.578125 37.25 42.78125 
Q 33.890625 45.75 27.25 45.75 
Q 21.046875 45.75 18.09375 43.578125 
Q 15.140625 41.40625 13.71875 35.890625 
L 5.125 37.0625 
Q 6.296875 42.578125 8.984375 45.96875 
Q 11.671875 49.359375 16.75 51.1875 
Q 21.828125 53.03125 28.515625 53.03125 
Q 35.15625 53.03125 39.296875 51.46875 
Q 43.453125 49.90625 45.40625 47.53125 
Q 47.359375 45.171875 48.140625 41.546875 
Q 48.578125 39.3125 48.578125 33.453125 
L 48.578125 21.734375 
Q 48.578125 9.46875 49.140625 6.21875 
Q 49.703125 2.984375 51.375 0 
L 42.1875 0 
Q 40.828125 2.734375 40.4375 6.390625 
z
M 39.703125 26.03125 
Q 34.90625 24.078125 25.34375 22.703125 
Q 19.921875 21.921875 17.671875 20.9375 
Q 15.4375 19.96875 14.203125 18.09375 
Q 12.984375 16.21875 12.984375 13.921875 
Q 12.984375 10.40625 15.640625 8.0625 
Q 18.3125 5.71875 23.4375 5.71875 
Q 28.515625 5.71875 32.46875 7.9375 
Q 36.421875 10.15625 38.28125 14.015625 
Q 39.703125 17 39.703125 22.796875 
z
" id="ArialMT-97"/>
      <path d="M 6.640625 61.46875 
L 6.640625 71.578125 
L 15.4375 71.578125 
L 15.4375 61.46875 
z
M 6.640625 0 
L 6.640625 51.859375 
L 15.4375 51.859375 
L 15.4375 0 
z
" id="ArialMT-105"/>
      <path d="M 3.328125 25.921875 
Q 3.328125 40.328125 11.328125 47.265625 
Q 18.015625 53.03125 27.640625 53.03125 
Q 38.328125 53.03125 45.109375 46.015625 
Q 51.90625 39.015625 51.90625 26.65625 
Q 51.90625 16.65625 48.90625 10.90625 
Q 45.90625 5.171875 40.15625 2 
Q 34.421875 -1.171875 27.640625 -1.171875 
Q 16.75 -1.171875 10.03125 5.8125 
Q 3.328125 12.796875 3.328125 25.921875 
z
M 12.359375 25.921875 
Q 12.359375 15.96875 16.703125 11.015625 
Q 21.046875 6.0625 27.640625 6.0625 
Q 34.1875 6.0625 38.53125 11.03125 
Q 42.875 16.015625 42.875 26.21875 
Q 42.875 35.84375 38.5 40.796875 
Q 34.125 45.75 27.640625 45.75 
Q 21.046875 45.75 16.703125 40.8125 
Q 12.359375 35.890625 12.359375 25.921875 
z
" id="ArialMT-111"/>
      <path d="M 6.59375 0 
L 6.59375 51.859375 
L 14.5 51.859375 
L 14.5 44.484375 
Q 20.21875 53.03125 31 53.03125 
Q 35.6875 53.03125 39.625 51.34375 
Q 43.5625 49.65625 45.515625 46.921875 
Q 47.46875 44.1875 48.25 40.4375 
Q 48.734375 37.984375 48.734375 31.890625 
L 48.734375 0 
L 39.9375 0 
L 39.9375 31.546875 
Q 39.9375 36.921875 38.90625 39.578125 
Q 37.890625 42.234375 35.28125 43.8125 
Q 32.671875 45.40625 29.15625 45.40625 
Q 23.53125 45.40625 19.453125 41.84375 
Q 15.375 38.28125 15.375 28.328125 
L 15.375 0 
z
" id="ArialMT-110"/>
     </defs>
     <g style="fill:#262626;" transform="translate(176.659903 407.533828)scale(0.18 -0.18)">
      <use xlink:href="#ArialMT-73"/>
      <use x="27.783203" xlink:href="#ArialMT-116"/>
      <use x="55.566406" xlink:href="#ArialMT-101"/>
      <use x="111.181641" xlink:href="#ArialMT-114"/>
      <use x="144.482422" xlink:href="#ArialMT-97"/>
      <use x="200.097656" xlink:href="#ArialMT-116"/>
      <use x="227.880859" xlink:href="#ArialMT-105"/>
      <use x="250.097656" xlink:href="#ArialMT-111"/>
      <use x="305.712891" xlink:href="#ArialMT-110"/>
     </g>
    </g>
   </g>
   <g id="matplotlib.axis_2">
    <g id="ytick_1">
     <g id="line2d_5">
      <path clip-path="url(#pb3f1f0d42d)" d="M 81.44 348.35 
L 336.913244 348.35 
" style="fill:none;stroke:#cccccc;stroke-linecap:round;stroke-width:1.5;"/>
     </g>
     <g id="text_6">
      <!-- 0 -->
      <g style="fill:#262626;" transform="translate(59.764453 354.255195)scale(0.165 -0.165)">
       <use xlink:href="#ArialMT-48"/>
      </g>
     </g>
    </g>
    <g id="ytick_2">
     <g id="line2d_6">
      <path clip-path="url(#pb3f1f0d42d)" d="M 81.44 284.393478 
L 336.913244 284.393478 
" style="fill:none;stroke:#cccccc;stroke-linecap:round;stroke-width:1.5;"/>
     </g>
     <g id="text_7">
      <!-- 100 -->
      <g style="fill:#262626;" transform="translate(41.413359 290.298674)scale(0.165 -0.165)">
       <use xlink:href="#ArialMT-49"/>
       <use x="55.615234" xlink:href="#ArialMT-48"/>
       <use x="111.230469" xlink:href="#ArialMT-48"/>
      </g>
     </g>
    </g>
    <g id="ytick_3">
     <g id="line2d_7">
      <path clip-path="url(#pb3f1f0d42d)" d="M 81.44 220.436957 
L 336.913244 220.436957 
" style="fill:none;stroke:#cccccc;stroke-linecap:round;stroke-width:1.5;"/>
     </g>
     <g id="text_8">
      <!-- 200 -->
      <defs>
       <path d="M 50.34375 8.453125 
L 50.34375 0 
L 3.03125 0 
Q 2.9375 3.171875 4.046875 6.109375 
Q 5.859375 10.9375 9.828125 15.625 
Q 13.8125 20.3125 21.34375 26.46875 
Q 33.015625 36.03125 37.109375 41.625 
Q 41.21875 47.21875 41.21875 52.203125 
Q 41.21875 57.421875 37.46875 61 
Q 33.734375 64.59375 27.734375 64.59375 
Q 21.390625 64.59375 17.578125 60.78125 
Q 13.765625 56.984375 13.71875 50.25 
L 4.6875 51.171875 
Q 5.609375 61.28125 11.65625 66.578125 
Q 17.71875 71.875 27.9375 71.875 
Q 38.234375 71.875 44.234375 66.15625 
Q 50.25 60.453125 50.25 52 
Q 50.25 47.703125 48.484375 43.546875 
Q 46.734375 39.40625 42.65625 34.8125 
Q 38.578125 30.21875 29.109375 22.21875 
Q 21.1875 15.578125 18.9375 13.203125 
Q 16.703125 10.84375 15.234375 8.453125 
z
" id="ArialMT-50"/>
      </defs>
      <g style="fill:#262626;" transform="translate(41.413359 226.342152)scale(0.165 -0.165)">
       <use xlink:href="#ArialMT-50"/>
       <use x="55.615234" xlink:href="#ArialMT-48"/>
       <use x="111.230469" xlink:href="#ArialMT-48"/>
      </g>
     </g>
    </g>
    <g id="ytick_4">
     <g id="line2d_8">
      <path clip-path="url(#pb3f1f0d42d)" d="M 81.44 156.480435 
L 336.913244 156.480435 
" style="fill:none;stroke:#cccccc;stroke-linecap:round;stroke-width:1.5;"/>
     </g>
     <g id="text_9">
      <!-- 300 -->
      <defs>
       <path d="M 4.203125 18.890625 
L 12.984375 20.0625 
Q 14.5 12.59375 18.140625 9.296875 
Q 21.78125 6 27 6 
Q 33.203125 6 37.46875 10.296875 
Q 41.75 14.59375 41.75 20.953125 
Q 41.75 27 37.796875 30.921875 
Q 33.84375 34.859375 27.734375 34.859375 
Q 25.25 34.859375 21.53125 33.890625 
L 22.515625 41.609375 
Q 23.390625 41.5 23.921875 41.5 
Q 29.546875 41.5 34.03125 44.421875 
Q 38.53125 47.359375 38.53125 53.46875 
Q 38.53125 58.296875 35.25 61.46875 
Q 31.984375 64.65625 26.8125 64.65625 
Q 21.6875 64.65625 18.265625 61.421875 
Q 14.84375 58.203125 13.875 51.765625 
L 5.078125 53.328125 
Q 6.6875 62.15625 12.390625 67.015625 
Q 18.109375 71.875 26.609375 71.875 
Q 32.46875 71.875 37.390625 69.359375 
Q 42.328125 66.84375 44.9375 62.5 
Q 47.5625 58.15625 47.5625 53.265625 
Q 47.5625 48.640625 45.0625 44.828125 
Q 42.578125 41.015625 37.703125 38.765625 
Q 44.046875 37.3125 47.5625 32.6875 
Q 51.078125 28.078125 51.078125 21.140625 
Q 51.078125 11.765625 44.234375 5.25 
Q 37.40625 -1.265625 26.953125 -1.265625 
Q 17.53125 -1.265625 11.296875 4.34375 
Q 5.078125 9.96875 4.203125 18.890625 
z
" id="ArialMT-51"/>
      </defs>
      <g style="fill:#262626;" transform="translate(41.413359 162.38563)scale(0.165 -0.165)">
       <use xlink:href="#ArialMT-51"/>
       <use x="55.615234" xlink:href="#ArialMT-48"/>
       <use x="111.230469" xlink:href="#ArialMT-48"/>
      </g>
     </g>
    </g>
    <g id="ytick_5">
     <g id="line2d_9">
      <path clip-path="url(#pb3f1f0d42d)" d="M 81.44 92.523913 
L 336.913244 92.523913 
" style="fill:none;stroke:#cccccc;stroke-linecap:round;stroke-width:1.5;"/>
     </g>
     <g id="text_10">
      <!-- 400 -->
      <defs>
       <path d="M 32.328125 0 
L 32.328125 17.140625 
L 1.265625 17.140625 
L 1.265625 25.203125 
L 33.9375 71.578125 
L 41.109375 71.578125 
L 41.109375 25.203125 
L 50.78125 25.203125 
L 50.78125 17.140625 
L 41.109375 17.140625 
L 41.109375 0 
z
M 32.328125 25.203125 
L 32.328125 57.46875 
L 9.90625 25.203125 
z
" id="ArialMT-52"/>
      </defs>
      <g style="fill:#262626;" transform="translate(41.413359 98.429108)scale(0.165 -0.165)">
       <use xlink:href="#ArialMT-52"/>
       <use x="55.615234" xlink:href="#ArialMT-48"/>
       <use x="111.230469" xlink:href="#ArialMT-48"/>
      </g>
     </g>
    </g>
    <g id="text_11">
     <!-- No. generated Bemis Murcko scaffolds -->
     <defs>
      <path d="M 7.625 0 
L 7.625 71.578125 
L 17.328125 71.578125 
L 54.9375 15.375 
L 54.9375 71.578125 
L 64.015625 71.578125 
L 64.015625 0 
L 54.296875 0 
L 16.703125 56.25 
L 16.703125 0 
z
" id="ArialMT-78"/>
      <path d="M 9.078125 0 
L 9.078125 10.015625 
L 19.09375 10.015625 
L 19.09375 0 
z
" id="ArialMT-46"/>
      <path id="ArialMT-32"/>
      <path d="M 4.984375 -4.296875 
L 13.53125 -5.5625 
Q 14.0625 -9.515625 16.5 -11.328125 
Q 19.78125 -13.765625 25.4375 -13.765625 
Q 31.546875 -13.765625 34.859375 -11.328125 
Q 38.1875 -8.890625 39.359375 -4.5 
Q 40.046875 -1.8125 39.984375 6.78125 
Q 34.234375 0 25.640625 0 
Q 14.9375 0 9.078125 7.71875 
Q 3.21875 15.4375 3.21875 26.21875 
Q 3.21875 33.640625 5.90625 39.90625 
Q 8.59375 46.1875 13.6875 49.609375 
Q 18.796875 53.03125 25.6875 53.03125 
Q 34.859375 53.03125 40.828125 45.609375 
L 40.828125 51.859375 
L 48.921875 51.859375 
L 48.921875 7.03125 
Q 48.921875 -5.078125 46.453125 -10.125 
Q 44 -15.1875 38.640625 -18.109375 
Q 33.296875 -21.046875 25.484375 -21.046875 
Q 16.21875 -21.046875 10.5 -16.875 
Q 4.78125 -12.703125 4.984375 -4.296875 
z
M 12.25 26.859375 
Q 12.25 16.65625 16.296875 11.96875 
Q 20.359375 7.28125 26.46875 7.28125 
Q 32.515625 7.28125 36.609375 11.9375 
Q 40.71875 16.609375 40.71875 26.5625 
Q 40.71875 36.078125 36.5 40.90625 
Q 32.28125 45.75 26.3125 45.75 
Q 20.453125 45.75 16.34375 40.984375 
Q 12.25 36.234375 12.25 26.859375 
z
" id="ArialMT-103"/>
      <path d="M 40.234375 0 
L 40.234375 6.546875 
Q 35.296875 -1.171875 25.734375 -1.171875 
Q 19.53125 -1.171875 14.328125 2.25 
Q 9.125 5.671875 6.265625 11.796875 
Q 3.421875 17.921875 3.421875 25.875 
Q 3.421875 33.640625 6 39.96875 
Q 8.59375 46.296875 13.765625 49.65625 
Q 18.953125 53.03125 25.34375 53.03125 
Q 30.03125 53.03125 33.6875 51.046875 
Q 37.359375 49.078125 39.65625 45.90625 
L 39.65625 71.578125 
L 48.390625 71.578125 
L 48.390625 0 
z
M 12.453125 25.875 
Q 12.453125 15.921875 16.640625 10.984375 
Q 20.84375 6.0625 26.5625 6.0625 
Q 32.328125 6.0625 36.34375 10.765625 
Q 40.375 15.484375 40.375 25.140625 
Q 40.375 35.796875 36.265625 40.765625 
Q 32.171875 45.75 26.171875 45.75 
Q 20.3125 45.75 16.375 40.96875 
Q 12.453125 36.1875 12.453125 25.875 
z
" id="ArialMT-100"/>
      <path d="M 7.328125 0 
L 7.328125 71.578125 
L 34.1875 71.578125 
Q 42.390625 71.578125 47.34375 69.40625 
Q 52.296875 67.234375 55.09375 62.71875 
Q 57.90625 58.203125 57.90625 53.265625 
Q 57.90625 48.6875 55.421875 44.625 
Q 52.9375 40.578125 47.90625 38.09375 
Q 54.390625 36.1875 57.875 31.59375 
Q 61.375 27 61.375 20.75 
Q 61.375 15.71875 59.25 11.390625 
Q 57.125 7.078125 54 4.734375 
Q 50.875 2.390625 46.15625 1.1875 
Q 41.453125 0 34.625 0 
z
M 16.796875 41.5 
L 32.28125 41.5 
Q 38.578125 41.5 41.3125 42.328125 
Q 44.921875 43.40625 46.75 45.890625 
Q 48.578125 48.390625 48.578125 52.15625 
Q 48.578125 55.71875 46.875 58.421875 
Q 45.171875 61.140625 41.984375 62.140625 
Q 38.8125 63.140625 31.109375 63.140625 
L 16.796875 63.140625 
z
M 16.796875 8.453125 
L 34.625 8.453125 
Q 39.203125 8.453125 41.0625 8.796875 
Q 44.34375 9.375 46.53125 10.734375 
Q 48.734375 12.109375 50.140625 14.71875 
Q 51.5625 17.328125 51.5625 20.75 
Q 51.5625 24.75 49.515625 27.703125 
Q 47.46875 30.671875 43.828125 31.859375 
Q 40.1875 33.0625 33.34375 33.0625 
L 16.796875 33.0625 
z
" id="ArialMT-66"/>
      <path d="M 6.59375 0 
L 6.59375 51.859375 
L 14.453125 51.859375 
L 14.453125 44.578125 
Q 16.890625 48.390625 20.9375 50.703125 
Q 25 53.03125 30.171875 53.03125 
Q 35.9375 53.03125 39.625 50.640625 
Q 43.3125 48.25 44.828125 43.953125 
Q 50.984375 53.03125 60.84375 53.03125 
Q 68.5625 53.03125 72.703125 48.75 
Q 76.859375 44.484375 76.859375 35.59375 
L 76.859375 0 
L 68.109375 0 
L 68.109375 32.671875 
Q 68.109375 37.9375 67.25 40.25 
Q 66.40625 42.578125 64.15625 43.984375 
Q 61.921875 45.40625 58.890625 45.40625 
Q 53.421875 45.40625 49.796875 41.765625 
Q 46.1875 38.140625 46.1875 30.125 
L 46.1875 0 
L 37.40625 0 
L 37.40625 33.6875 
Q 37.40625 39.546875 35.25 42.46875 
Q 33.109375 45.40625 28.21875 45.40625 
Q 24.515625 45.40625 21.359375 43.453125 
Q 18.21875 41.5 16.796875 37.734375 
Q 15.375 33.984375 15.375 26.90625 
L 15.375 0 
z
" id="ArialMT-109"/>
      <path d="M 3.078125 15.484375 
L 11.765625 16.84375 
Q 12.5 11.625 15.84375 8.84375 
Q 19.1875 6.0625 25.203125 6.0625 
Q 31.25 6.0625 34.171875 8.515625 
Q 37.109375 10.984375 37.109375 14.3125 
Q 37.109375 17.28125 34.515625 19 
Q 32.71875 20.171875 25.53125 21.96875 
Q 15.875 24.421875 12.140625 26.203125 
Q 8.40625 27.984375 6.46875 31.125 
Q 4.546875 34.28125 4.546875 38.09375 
Q 4.546875 41.546875 6.125 44.5 
Q 7.71875 47.46875 10.453125 49.421875 
Q 12.5 50.921875 16.03125 51.96875 
Q 19.578125 53.03125 23.640625 53.03125 
Q 29.734375 53.03125 34.34375 51.265625 
Q 38.96875 49.515625 41.15625 46.5 
Q 43.359375 43.5 44.1875 38.484375 
L 35.59375 37.3125 
Q 35.015625 41.3125 32.203125 43.546875 
Q 29.390625 45.796875 24.265625 45.796875 
Q 18.21875 45.796875 15.625 43.796875 
Q 13.03125 41.796875 13.03125 39.109375 
Q 13.03125 37.40625 14.109375 36.03125 
Q 15.1875 34.625 17.484375 33.6875 
Q 18.796875 33.203125 25.25 31.453125 
Q 34.578125 28.953125 38.25 27.359375 
Q 41.9375 25.78125 44.03125 22.75 
Q 46.140625 19.734375 46.140625 15.234375 
Q 46.140625 10.84375 43.578125 6.953125 
Q 41.015625 3.078125 36.171875 0.953125 
Q 31.34375 -1.171875 25.25 -1.171875 
Q 15.140625 -1.171875 9.84375 3.03125 
Q 4.546875 7.234375 3.078125 15.484375 
z
" id="ArialMT-115"/>
      <path d="M 7.421875 0 
L 7.421875 71.578125 
L 21.6875 71.578125 
L 38.625 20.90625 
Q 40.96875 13.8125 42.046875 10.296875 
Q 43.265625 14.203125 45.84375 21.78125 
L 62.984375 71.578125 
L 75.734375 71.578125 
L 75.734375 0 
L 66.609375 0 
L 66.609375 59.90625 
L 45.796875 0 
L 37.25 0 
L 16.546875 60.9375 
L 16.546875 0 
z
" id="ArialMT-77"/>
      <path d="M 40.578125 0 
L 40.578125 7.625 
Q 34.515625 -1.171875 24.125 -1.171875 
Q 19.53125 -1.171875 15.546875 0.578125 
Q 11.578125 2.34375 9.640625 5 
Q 7.71875 7.671875 6.9375 11.53125 
Q 6.390625 14.109375 6.390625 19.734375 
L 6.390625 51.859375 
L 15.1875 51.859375 
L 15.1875 23.09375 
Q 15.1875 16.21875 15.71875 13.8125 
Q 16.546875 10.359375 19.234375 8.375 
Q 21.921875 6.390625 25.875 6.390625 
Q 29.828125 6.390625 33.296875 8.421875 
Q 36.765625 10.453125 38.203125 13.9375 
Q 39.65625 17.4375 39.65625 24.078125 
L 39.65625 51.859375 
L 48.4375 51.859375 
L 48.4375 0 
z
" id="ArialMT-117"/>
      <path d="M 40.4375 19 
L 49.078125 17.875 
Q 47.65625 8.9375 41.8125 3.875 
Q 35.984375 -1.171875 27.484375 -1.171875 
Q 16.84375 -1.171875 10.375 5.78125 
Q 3.90625 12.75 3.90625 25.734375 
Q 3.90625 34.125 6.6875 40.421875 
Q 9.46875 46.734375 15.15625 49.875 
Q 20.84375 53.03125 27.546875 53.03125 
Q 35.984375 53.03125 41.359375 48.75 
Q 46.734375 44.484375 48.25 36.625 
L 39.703125 35.296875 
Q 38.484375 40.53125 35.375 43.15625 
Q 32.28125 45.796875 27.875 45.796875 
Q 21.234375 45.796875 17.078125 41.03125 
Q 12.9375 36.28125 12.9375 25.984375 
Q 12.9375 15.53125 16.9375 10.796875 
Q 20.953125 6.0625 27.390625 6.0625 
Q 32.5625 6.0625 36.03125 9.234375 
Q 39.5 12.40625 40.4375 19 
z
" id="ArialMT-99"/>
      <path d="M 6.640625 0 
L 6.640625 71.578125 
L 15.4375 71.578125 
L 15.4375 30.765625 
L 36.234375 51.859375 
L 47.609375 51.859375 
L 27.78125 32.625 
L 49.609375 0 
L 38.765625 0 
L 21.625 26.515625 
L 15.4375 20.5625 
L 15.4375 0 
z
" id="ArialMT-107"/>
      <path d="M 8.6875 0 
L 8.6875 45.015625 
L 0.921875 45.015625 
L 0.921875 51.859375 
L 8.6875 51.859375 
L 8.6875 57.375 
Q 8.6875 62.59375 9.625 65.140625 
Q 10.890625 68.5625 14.078125 70.671875 
Q 17.28125 72.796875 23.046875 72.796875 
Q 26.765625 72.796875 31.25 71.921875 
L 29.9375 64.265625 
Q 27.203125 64.75 24.75 64.75 
Q 20.75 64.75 19.09375 63.03125 
Q 17.4375 61.328125 17.4375 56.640625 
L 17.4375 51.859375 
L 27.546875 51.859375 
L 27.546875 45.015625 
L 17.4375 45.015625 
L 17.4375 0 
z
" id="ArialMT-102"/>
      <path d="M 6.390625 0 
L 6.390625 71.578125 
L 15.1875 71.578125 
L 15.1875 0 
z
" id="ArialMT-108"/>
     </defs>
     <g style="fill:#262626;" transform="translate(33.624922 355.808125)rotate(-90)scale(0.18 -0.18)">
      <use xlink:href="#ArialMT-78"/>
      <use x="72.216797" xlink:href="#ArialMT-111"/>
      <use x="127.832031" xlink:href="#ArialMT-46"/>
      <use x="155.615234" xlink:href="#ArialMT-32"/>
      <use x="183.398438" xlink:href="#ArialMT-103"/>
      <use x="239.013672" xlink:href="#ArialMT-101"/>
      <use x="294.628906" xlink:href="#ArialMT-110"/>
      <use x="350.244141" xlink:href="#ArialMT-101"/>
      <use x="405.859375" xlink:href="#ArialMT-114"/>
      <use x="439.160156" xlink:href="#ArialMT-97"/>
      <use x="494.775391" xlink:href="#ArialMT-116"/>
      <use x="522.558594" xlink:href="#ArialMT-101"/>
      <use x="578.173828" xlink:href="#ArialMT-100"/>
      <use x="633.789062" xlink:href="#ArialMT-32"/>
      <use x="661.572266" xlink:href="#ArialMT-66"/>
      <use x="728.271484" xlink:href="#ArialMT-101"/>
      <use x="783.886719" xlink:href="#ArialMT-109"/>
      <use x="867.1875" xlink:href="#ArialMT-105"/>
      <use x="889.404297" xlink:href="#ArialMT-115"/>
      <use x="939.404297" xlink:href="#ArialMT-32"/>
      <use x="967.1875" xlink:href="#ArialMT-77"/>
      <use x="1050.488281" xlink:href="#ArialMT-117"/>
      <use x="1106.103516" xlink:href="#ArialMT-114"/>
      <use x="1139.404297" xlink:href="#ArialMT-99"/>
      <use x="1189.404297" xlink:href="#ArialMT-107"/>
      <use x="1239.404297" xlink:href="#ArialMT-111"/>
      <use x="1295.019531" xlink:href="#ArialMT-32"/>
      <use x="1322.802734" xlink:href="#ArialMT-115"/>
      <use x="1372.802734" xlink:href="#ArialMT-99"/>
      <use x="1422.802734" xlink:href="#ArialMT-97"/>
      <use x="1478.417969" xlink:href="#ArialMT-102"/>
      <use x="1506.185547" xlink:href="#ArialMT-102"/>
      <use x="1533.96875" xlink:href="#ArialMT-111"/>
      <use x="1589.583984" xlink:href="#ArialMT-108"/>
      <use x="1611.800781" xlink:href="#ArialMT-100"/>
      <use x="1667.416016" xlink:href="#ArialMT-115"/>
     </g>
    </g>
   </g>
   <g id="line2d_10">
    <path clip-path="url(#pb3f1f0d42d)" d="M 93.05242 348.35 
L 94.611134 347.710435 
L 102.404705 347.710435 
L 103.963419 346.431304 
L 107.080847 345.152174 
L 108.639561 343.873043 
L 111.75699 342.593913 
L 113.315704 341.314783 
L 116.433132 340.035652 
L 117.991846 338.756522 
L 119.55056 338.116957 
L 121.109274 336.837826 
L 122.667988 336.198261 
L 124.226703 336.198261 
L 125.785417 334.91913 
L 127.344131 334.279565 
L 128.902845 330.442174 
L 130.461559 329.802609 
L 132.020273 327.883913 
L 133.578987 323.406957 
L 135.137701 322.767391 
L 136.696416 320.848696 
L 138.25513 319.569565 
L 139.813844 318.93 
L 141.372558 318.93 
L 144.489986 316.371739 
L 147.607414 311.255217 
L 149.166128 309.976087 
L 150.724843 308.057391 
L 153.842271 305.49913 
L 155.400985 305.49913 
L 158.518413 302.94087 
L 160.077127 302.301304 
L 163.194556 302.301304 
L 164.75327 301.022174 
L 166.311984 300.382609 
L 167.870698 298.463913 
L 169.429412 297.824348 
L 170.988126 297.824348 
L 174.105554 296.545217 
L 175.664269 295.266087 
L 178.781697 295.266087 
L 180.340411 293.986957 
L 181.899125 293.986957 
L 186.575267 292.068261 
L 188.133981 292.068261 
L 189.692696 291.428696 
L 191.25141 291.428696 
L 192.810124 290.149565 
L 194.368838 289.51 
L 195.927552 289.51 
L 199.04498 288.23087 
L 203.721123 288.23087 
L 206.838551 286.951739 
L 213.073407 286.951739 
L 214.632121 285.672609 
L 227.101834 285.672609 
L 228.660549 285.033043 
L 233.336691 285.033043 
L 234.895405 283.753913 
L 236.454119 283.753913 
L 238.012833 283.114348 
L 242.688976 283.114348 
L 244.24769 282.474783 
L 248.923832 282.474783 
L 250.482546 281.835217 
L 252.04126 281.835217 
L 253.599974 281.195652 
L 267.628402 281.195652 
L 270.74583 279.916522 
L 281.656829 279.916522 
L 283.215543 279.276957 
L 284.774257 279.276957 
L 287.891685 277.997826 
L 295.685256 277.997826 
L 297.24397 277.358261 
L 303.478826 277.358261 
L 305.03754 276.718696 
L 314.389825 276.718696 
L 319.065967 274.8 
L 323.74211 274.8 
L 325.300824 274.160435 
L 325.300824 274.160435 
" style="fill:none;stroke:#1f77b4;stroke-linecap:round;stroke-width:2.25;"/>
   </g>
   <g id="line2d_11">
    <path clip-path="url(#pb3f1f0d42d)" d="M 93.05242 348.35 
L 96.169848 347.07087 
L 102.404705 347.07087 
L 103.963419 345.791739 
L 107.080847 344.512609 
L 108.639561 343.233478 
L 111.75699 341.954348 
L 113.315704 341.954348 
L 114.874418 340.675217 
L 116.433132 340.035652 
L 117.991846 340.035652 
L 122.667988 338.116957 
L 125.785417 335.558696 
L 127.344131 333.000435 
L 128.902845 331.081739 
L 130.461559 329.802609 
L 132.020273 327.244348 
L 133.578987 325.325652 
L 135.137701 324.046522 
L 136.696416 322.127826 
L 138.25513 322.127826 
L 139.813844 320.20913 
L 141.372558 318.93 
L 142.931272 318.290435 
L 144.489986 314.453043 
L 146.0487 312.534348 
L 147.607414 311.255217 
L 149.166128 309.336522 
L 150.724843 306.138696 
L 152.283557 304.859565 
L 153.842271 301.022174 
L 155.400985 299.743043 
L 156.959699 296.545217 
L 158.518413 295.266087 
L 160.077127 292.707826 
L 161.635841 292.068261 
L 163.194556 288.870435 
L 164.75327 288.870435 
L 166.311984 285.033043 
L 167.870698 283.114348 
L 170.988126 277.997826 
L 172.54684 276.718696 
L 174.105554 270.962609 
L 175.664269 267.764783 
L 178.781697 262.648261 
L 180.340411 262.008696 
L 181.899125 260.729565 
L 183.457839 260.09 
L 185.016553 260.09 
L 186.575267 256.252609 
L 188.133981 254.333913 
L 189.692696 253.694348 
L 191.25141 252.415217 
L 192.810124 250.496522 
L 194.368838 247.938261 
L 195.927552 246.65913 
L 199.04498 241.542609 
L 200.603694 237.065652 
L 202.162409 231.94913 
L 203.721123 231.309565 
L 205.279837 226.832609 
L 208.397265 224.274348 
L 209.955979 221.716087 
L 211.514693 220.436957 
L 213.073407 219.797391 
L 214.632121 217.878696 
L 216.190836 213.401739 
L 220.866978 211.483043 
L 222.425692 210.203913 
L 223.984406 207.006087 
L 225.54312 207.006087 
L 227.101834 202.52913 
L 228.660549 202.52913 
L 233.336691 198.691739 
L 234.895405 194.854348 
L 236.454119 192.935652 
L 239.571547 187.81913 
L 242.688976 187.81913 
L 244.24769 185.900435 
L 245.806404 184.621304 
L 247.365118 183.981739 
L 250.482546 180.144348 
L 252.04126 177.586087 
L 253.599974 175.667391 
L 255.158689 171.83 
L 256.717403 168.632174 
L 258.276117 167.353043 
L 259.834831 165.434348 
L 261.393545 164.155217 
L 262.952259 164.155217 
L 264.510973 161.596957 
L 266.069687 161.596957 
L 267.628402 159.038696 
L 269.187116 158.39913 
L 270.74583 156.480435 
L 272.304544 156.480435 
L 273.863258 153.922174 
L 276.980686 151.363913 
L 278.5394 149.445217 
L 280.098114 148.166087 
L 281.656829 147.526522 
L 283.215543 144.968261 
L 286.332971 142.41 
L 287.891685 142.41 
L 289.450399 140.491304 
L 291.009113 139.212174 
L 292.567827 139.212174 
L 295.685256 137.933043 
L 297.24397 137.933043 
L 298.802684 136.014348 
L 300.361398 135.374783 
L 301.920112 134.095652 
L 303.478826 132.176957 
L 305.03754 128.339565 
L 306.596255 128.339565 
L 308.154969 127.7 
L 309.713683 126.42087 
L 312.831111 126.42087 
L 314.389825 125.781304 
L 315.948539 124.502174 
L 317.507253 123.862609 
L 319.065967 121.943913 
L 320.624682 120.664783 
L 322.183396 120.664783 
L 325.300824 119.385652 
L 325.300824 119.385652 
" style="fill:none;stroke:#ff7f0e;stroke-linecap:round;stroke-width:2.25;"/>
   </g>
   <g id="line2d_12">
    <path clip-path="url(#pb3f1f0d42d)" d="M 93.05242 348.35 
L 96.169848 347.07087 
L 102.404705 347.07087 
L 103.963419 345.791739 
L 107.080847 344.512609 
L 108.639561 343.233478 
L 111.75699 341.954348 
L 113.315704 341.954348 
L 114.874418 340.675217 
L 116.433132 340.035652 
L 117.991846 340.035652 
L 122.667988 338.116957 
L 125.785417 335.558696 
L 127.344131 333.000435 
L 128.902845 331.081739 
L 130.461559 329.802609 
L 132.020273 327.244348 
L 133.578987 325.325652 
L 135.137701 324.046522 
L 136.696416 322.127826 
L 138.25513 322.127826 
L 139.813844 320.20913 
L 141.372558 318.93 
L 142.931272 318.290435 
L 144.489986 314.453043 
L 146.0487 312.534348 
L 147.607414 311.255217 
L 149.166128 309.336522 
L 150.724843 306.138696 
L 152.283557 304.859565 
L 153.842271 301.022174 
L 155.400985 299.743043 
L 156.959699 296.545217 
L 158.518413 295.266087 
L 160.077127 292.707826 
L 161.635841 290.78913 
L 163.194556 286.951739 
L 164.75327 286.312174 
L 166.311984 280.556087 
L 169.429412 276.718696 
L 170.988126 275.439565 
L 172.54684 273.52087 
L 174.105554 272.881304 
L 175.664269 270.323043 
L 177.222983 268.404348 
L 178.781697 264.566957 
L 181.899125 262.008696 
L 183.457839 261.36913 
L 185.016553 259.450435 
L 186.575267 255.613043 
L 188.133981 253.694348 
L 189.692696 251.136087 
L 191.25141 247.938261 
L 192.810124 246.019565 
L 194.368838 244.740435 
L 197.486266 240.903043 
L 199.04498 235.786522 
L 200.603694 232.588696 
L 202.162409 232.588696 
L 203.721123 231.309565 
L 206.838551 224.913913 
L 208.397265 222.355652 
L 209.955979 221.076522 
L 211.514693 218.518261 
L 214.632121 215.96 
L 217.74955 210.843478 
L 219.308264 209.564348 
L 220.866978 205.726957 
L 225.54312 201.889565 
L 227.101834 199.97087 
L 228.660549 196.773043 
L 230.219263 195.493913 
L 233.336691 191.656522 
L 234.895405 189.098261 
L 236.454119 185.900435 
L 238.012833 184.621304 
L 239.571547 183.981739 
L 241.130262 181.423478 
L 242.688976 179.504783 
L 244.24769 178.225652 
L 245.806404 176.306957 
L 247.365118 173.10913 
L 248.923832 171.190435 
L 250.482546 167.353043 
L 253.599974 166.073913 
L 255.158689 162.876087 
L 256.717403 160.957391 
L 258.276117 160.317826 
L 259.834831 158.39913 
L 261.393545 157.759565 
L 262.952259 156.480435 
L 264.510973 155.84087 
L 269.187116 152.003478 
L 270.74583 147.526522 
L 272.304544 147.526522 
L 275.421972 146.247391 
L 276.980686 144.328696 
L 278.5394 140.491304 
L 280.098114 138.572609 
L 281.656829 134.095652 
L 284.774257 130.258261 
L 286.332971 129.618696 
L 289.450399 127.060435 
L 291.009113 126.42087 
L 292.567827 125.141739 
L 294.126542 124.502174 
L 295.685256 121.304348 
L 297.24397 120.664783 
L 298.802684 119.385652 
L 300.361398 118.746087 
L 301.920112 116.827391 
L 303.478826 115.548261 
L 305.03754 114.908696 
L 306.596255 110.431739 
L 308.154969 109.152609 
L 309.713683 107.233913 
L 311.272397 104.675652 
L 312.831111 104.675652 
L 314.389825 103.396522 
L 315.948539 103.396522 
L 317.507253 102.117391 
L 319.065967 100.198696 
L 320.624682 97.640435 
L 322.183396 94.442609 
L 323.74211 91.884348 
L 325.300824 90.605217 
L 325.300824 90.605217 
" style="fill:none;stroke:#2ca02c;stroke-linecap:round;stroke-width:2.25;"/>
   </g>
   <g id="line2d_13">
    <path clip-path="url(#pb3f1f0d42d)" d="M 93.05242 348.35 
L 96.169848 347.07087 
L 102.404705 347.07087 
L 103.963419 345.791739 
L 107.080847 344.512609 
L 108.639561 343.233478 
L 111.75699 341.954348 
L 113.315704 341.954348 
L 114.874418 340.675217 
L 116.433132 340.035652 
L 117.991846 340.035652 
L 122.667988 338.116957 
L 125.785417 335.558696 
L 127.344131 333.000435 
L 128.902845 331.081739 
L 130.461559 329.802609 
L 132.020273 327.244348 
L 133.578987 325.325652 
L 135.137701 324.046522 
L 136.696416 322.127826 
L 138.25513 322.127826 
L 139.813844 320.20913 
L 141.372558 318.93 
L 142.931272 318.93 
L 144.489986 315.092609 
L 146.0487 313.813478 
L 147.607414 311.894783 
L 149.166128 311.255217 
L 150.724843 306.778261 
L 152.283557 304.859565 
L 153.842271 299.743043 
L 155.400985 297.184783 
L 156.959699 293.347391 
L 158.518413 292.068261 
L 160.077127 288.23087 
L 161.635841 286.312174 
L 163.194556 285.672609 
L 167.870698 281.835217 
L 169.429412 279.276957 
L 170.988126 277.997826 
L 172.54684 273.52087 
L 174.105554 272.241739 
L 175.664269 269.683478 
L 177.222983 267.764783 
L 180.340411 265.206522 
L 181.899125 262.648261 
L 183.457839 260.729565 
L 185.016553 257.531739 
L 186.575267 254.973478 
L 189.692696 248.577826 
L 191.25141 248.577826 
L 192.810124 247.298696 
L 194.368838 244.740435 
L 195.927552 240.263478 
L 197.486266 237.705217 
L 199.04498 235.786522 
L 200.603694 234.507391 
L 202.162409 233.867826 
L 203.721123 231.94913 
L 205.279837 230.67 
L 206.838551 230.67 
L 208.397265 230.030435 
L 209.955979 224.913913 
L 213.073407 222.355652 
L 217.74955 216.599565 
L 222.425692 212.762174 
L 225.54312 207.645652 
L 227.101834 204.447826 
L 228.660549 202.52913 
L 231.777977 199.97087 
L 234.895405 196.133478 
L 236.454119 193.575217 
L 239.571547 191.016957 
L 241.130262 190.377391 
L 244.24769 187.81913 
L 245.806404 185.26087 
L 247.365118 183.981739 
L 248.923832 182.063043 
L 250.482546 178.225652 
L 252.04126 176.306957 
L 253.599974 175.027826 
L 255.158689 175.027826 
L 256.717403 173.10913 
L 258.276117 169.911304 
L 259.834831 169.271739 
L 261.393545 167.992609 
L 262.952259 166.073913 
L 264.510973 164.794783 
L 266.069687 162.876087 
L 267.628402 160.317826 
L 269.187116 159.038696 
L 270.74583 155.84087 
L 272.304544 152.003478 
L 273.863258 150.084783 
L 275.421972 146.247391 
L 276.980686 143.68913 
L 278.5394 141.770435 
L 280.098114 140.491304 
L 281.656829 138.572609 
L 283.215543 134.735217 
L 284.774257 131.537391 
L 286.332971 129.618696 
L 287.891685 127.060435 
L 289.450399 127.060435 
L 291.009113 125.141739 
L 292.567827 125.141739 
L 295.685256 122.583478 
L 297.24397 120.664783 
L 298.802684 120.025217 
L 300.361398 116.827391 
L 301.920112 114.908696 
L 303.478826 112.350435 
L 305.03754 110.431739 
L 311.272397 100.198696 
L 312.831111 98.28 
L 314.389825 94.442609 
L 315.948539 93.163478 
L 317.507253 92.523913 
L 319.065967 89.326087 
L 323.74211 83.57 
L 325.300824 81.011739 
L 325.300824 81.011739 
" style="fill:none;stroke:#d62728;stroke-linecap:round;stroke-width:2.25;"/>
   </g>
   <g id="line2d_14">
    <path clip-path="url(#pb3f1f0d42d)" d="M 93.05242 348.35 
L 96.169848 347.07087 
L 102.404705 347.07087 
L 103.963419 345.791739 
L 107.080847 344.512609 
L 108.639561 343.233478 
L 111.75699 341.954348 
L 113.315704 341.954348 
L 114.874418 340.675217 
L 116.433132 340.035652 
L 117.991846 340.035652 
L 122.667988 338.116957 
L 125.785417 335.558696 
L 127.344131 333.000435 
L 128.902845 331.081739 
L 130.461559 329.802609 
L 133.578987 325.965217 
L 135.137701 324.686087 
L 136.696416 322.767391 
L 138.25513 322.767391 
L 139.813844 320.848696 
L 141.372558 319.569565 
L 142.931272 319.569565 
L 144.489986 315.092609 
L 146.0487 313.813478 
L 147.607414 309.976087 
L 149.166128 308.057391 
L 150.724843 306.778261 
L 152.283557 304.859565 
L 153.842271 304.22 
L 155.400985 301.022174 
L 158.518413 298.463913 
L 160.077127 297.824348 
L 161.635841 295.266087 
L 163.194556 292.068261 
L 164.75327 288.23087 
L 166.311984 286.951739 
L 169.429412 285.672609 
L 170.988126 282.474783 
L 172.54684 279.916522 
L 174.105554 276.07913 
L 175.664269 274.8 
L 178.781697 270.962609 
L 180.340411 269.683478 
L 181.899125 267.764783 
L 183.457839 267.125217 
L 185.016553 264.566957 
L 186.575267 263.927391 
L 194.368838 254.333913 
L 195.927552 251.136087 
L 197.486266 250.496522 
L 199.04498 249.217391 
L 200.603694 247.298696 
L 202.162409 246.65913 
L 203.721123 245.38 
L 205.279837 242.182174 
L 206.838551 242.182174 
L 208.397265 240.263478 
L 209.955979 237.705217 
L 211.514693 236.426087 
L 213.073407 234.507391 
L 214.632121 231.94913 
L 216.190836 231.94913 
L 217.74955 229.39087 
L 219.308264 228.111739 
L 222.425692 222.995217 
L 223.984406 218.518261 
L 225.54312 215.96 
L 227.101834 214.68087 
L 228.660549 212.762174 
L 230.219263 211.483043 
L 231.777977 208.924783 
L 233.336691 207.645652 
L 234.895405 205.087391 
L 236.454119 203.168696 
L 238.012833 196.773043 
L 239.571547 196.133478 
L 241.130262 192.296087 
L 242.688976 190.377391 
L 244.24769 189.737826 
L 245.806404 187.81913 
L 247.365118 184.621304 
L 248.923832 183.342174 
L 250.482546 182.702609 
L 252.04126 180.783913 
L 253.599974 177.586087 
L 255.158689 173.748696 
L 256.717403 173.10913 
L 259.834831 167.992609 
L 261.393545 166.073913 
L 262.952259 162.236522 
L 266.069687 155.84087 
L 267.628402 149.445217 
L 269.187116 148.166087 
L 270.74583 147.526522 
L 272.304544 145.607826 
L 273.863258 141.13087 
L 276.980686 136.014348 
L 278.5394 132.816522 
L 283.215543 125.141739 
L 284.774257 123.862609 
L 286.332971 120.664783 
L 289.450399 115.548261 
L 294.126542 109.792174 
L 295.685256 106.594348 
L 297.24397 104.036087 
L 301.920112 98.28 
L 303.478826 95.721739 
L 308.154969 86.128261 
L 309.713683 81.651304 
L 311.272397 79.732609 
L 314.389825 74.616087 
L 317.507253 66.941304 
L 319.065967 63.743478 
L 322.183396 58.626957 
L 323.74211 56.708261 
L 325.300824 54.15 
L 325.300824 54.15 
" style="fill:none;stroke:#9467bd;stroke-linecap:round;stroke-width:2.25;"/>
   </g>
   <g id="patch_3">
    <path d="M 81.44 363.06 
L 81.44 39.44 
" style="fill:none;stroke:#cccccc;stroke-linecap:square;stroke-linejoin:miter;stroke-width:1.875;"/>
   </g>
   <g id="patch_4">
    <path d="M 336.913244 363.06 
L 336.913244 39.44 
" style="fill:none;stroke:#cccccc;stroke-linecap:square;stroke-linejoin:miter;stroke-width:1.875;"/>
   </g>
   <g id="patch_5">
    <path d="M 81.44 363.06 
L 336.913244 363.06 
" style="fill:none;stroke:#cccccc;stroke-linecap:square;stroke-linejoin:miter;stroke-width:1.875;"/>
   </g>
   <g id="patch_6">
    <path d="M 81.44 39.44 
L 336.913244 39.44 
" style="fill:none;stroke:#cccccc;stroke-linecap:square;stroke-linejoin:miter;stroke-width:1.875;"/>
   </g>
   <g id="text_12">
    <!-- clogP -->
    <defs>
     <path d="M 7.71875 0 
L 7.71875 71.578125 
L 34.71875 71.578125 
Q 41.84375 71.578125 45.609375 70.90625 
Q 50.875 70.015625 54.4375 67.546875 
Q 58.015625 65.09375 60.1875 60.640625 
Q 62.359375 56.203125 62.359375 50.875 
Q 62.359375 41.75 56.546875 35.421875 
Q 50.734375 29.109375 35.546875 29.109375 
L 17.1875 29.109375 
L 17.1875 0 
z
M 17.1875 37.546875 
L 35.6875 37.546875 
Q 44.875 37.546875 48.734375 40.96875 
Q 52.59375 44.390625 52.59375 50.59375 
Q 52.59375 55.078125 50.3125 58.265625 
Q 48.046875 61.46875 44.34375 62.5 
Q 41.9375 63.140625 35.5 63.140625 
L 17.1875 63.140625 
z
" id="ArialMT-80"/>
    </defs>
    <g style="fill:#262626;" transform="translate(186.663966 33.44)scale(0.18 -0.18)">
     <use xlink:href="#ArialMT-99"/>
     <use x="50" xlink:href="#ArialMT-108"/>
     <use x="72.216797" xlink:href="#ArialMT-111"/>
     <use x="127.832031" xlink:href="#ArialMT-103"/>
     <use x="183.447266" xlink:href="#ArialMT-80"/>
    </g>
   </g>
  </g>
 </g>
 <defs>
  <clipPath id="pb3f1f0d42d">
   <rect height="323.62" width="255.473244" x="81.44" y="39.44"/>
  </clipPath>
 </defs>
</svg>
