<?xml version="1.0" encoding="utf-8" standalone="no"?>
<!DOCTYPE svg PUBLIC "-//W3C//DTD SVG 1.1//EN"
  "http://www.w3.org/Graphics/SVG/1.1/DTD/svg11.dtd">
<!-- Created with matplotlib (https://matplotlib.org/) -->
<svg height="432pt" version="1.1" viewBox="0 0 360 432" width="360pt" xmlns="http://www.w3.org/2000/svg" xmlns:xlink="http://www.w3.org/1999/xlink">
 <defs>
  <style type="text/css">
*{stroke-linecap:butt;stroke-linejoin:round;}
  </style>
 </defs>
 <g id="figure_1">
  <g id="patch_1">
   <path d="M 0 432 
L 360 432 
L 360 0 
L 0 0 
z
" style="fill:#ffffff;"/>
  </g>
  <g id="axes_1">
   <g id="patch_2">
    <path d="M 81.44 363.06 
L 336.926206 363.06 
L 336.926206 39.44 
L 81.44 39.44 
z
" style="fill:#ffffff;"/>
   </g>
   <g id="matplotlib.axis_1">
    <g id="xtick_1">
     <g id="line2d_1">
      <path clip-path="url(#p88e1dddde8)" d="M 93.053009 363.06 
L 93.053009 39.44 
" style="fill:none;stroke:#cccccc;stroke-linecap:round;stroke-width:1.5;"/>
     </g>
     <g id="text_1">
      <!-- 0 -->
      <defs>
       <path d="M 4.15625 35.296875 
Q 4.15625 48 6.765625 55.734375 
Q 9.375 63.484375 14.515625 67.671875 
Q 19.671875 71.875 27.484375 71.875 
Q 33.25 71.875 37.59375 69.546875 
Q 41.9375 67.234375 44.765625 62.859375 
Q 47.609375 58.5 49.21875 52.21875 
Q 50.828125 45.953125 50.828125 35.296875 
Q 50.828125 22.703125 48.234375 14.96875 
Q 45.65625 7.234375 40.5 3 
Q 35.359375 -1.21875 27.484375 -1.21875 
Q 17.140625 -1.21875 11.234375 6.203125 
Q 4.15625 15.140625 4.15625 35.296875 
z
M 13.1875 35.296875 
Q 13.1875 17.671875 17.3125 11.828125 
Q 21.4375 6 27.484375 6 
Q 33.546875 6 37.671875 11.859375 
Q 41.796875 17.71875 41.796875 35.296875 
Q 41.796875 52.984375 37.671875 58.78125 
Q 33.546875 64.59375 27.390625 64.59375 
Q 21.34375 64.59375 17.71875 59.46875 
Q 13.1875 52.9375 13.1875 35.296875 
z
" id="ArialMT-48"/>
      </defs>
      <g style="fill:#262626;" transform="translate(88.465236 387.370391)scale(0.165 -0.165)">
       <use xlink:href="#ArialMT-48"/>
      </g>
     </g>
    </g>
    <g id="xtick_2">
     <g id="line2d_2">
      <path clip-path="url(#p88e1dddde8)" d="M 170.99267 363.06 
L 170.99267 39.44 
" style="fill:none;stroke:#cccccc;stroke-linecap:round;stroke-width:1.5;"/>
     </g>
     <g id="text_2">
      <!-- 50 -->
      <defs>
       <path d="M 4.15625 18.75 
L 13.375 19.53125 
Q 14.40625 12.796875 18.140625 9.390625 
Q 21.875 6 27.15625 6 
Q 33.5 6 37.890625 10.78125 
Q 42.28125 15.578125 42.28125 23.484375 
Q 42.28125 31 38.0625 35.34375 
Q 33.84375 39.703125 27 39.703125 
Q 22.75 39.703125 19.328125 37.765625 
Q 15.921875 35.84375 13.96875 32.765625 
L 5.71875 33.84375 
L 12.640625 70.609375 
L 48.25 70.609375 
L 48.25 62.203125 
L 19.671875 62.203125 
L 15.828125 42.96875 
Q 22.265625 47.46875 29.34375 47.46875 
Q 38.71875 47.46875 45.15625 40.96875 
Q 51.609375 34.46875 51.609375 24.265625 
Q 51.609375 14.546875 45.953125 7.46875 
Q 39.0625 -1.21875 27.15625 -1.21875 
Q 17.390625 -1.21875 11.203125 4.25 
Q 5.03125 9.71875 4.15625 18.75 
z
" id="ArialMT-53"/>
      </defs>
      <g style="fill:#262626;" transform="translate(161.817123 387.370391)scale(0.165 -0.165)">
       <use xlink:href="#ArialMT-53"/>
       <use x="55.615234" xlink:href="#ArialMT-48"/>
      </g>
     </g>
    </g>
    <g id="xtick_3">
     <g id="line2d_3">
      <path clip-path="url(#p88e1dddde8)" d="M 248.93233 363.06 
L 248.93233 39.44 
" style="fill:none;stroke:#cccccc;stroke-linecap:round;stroke-width:1.5;"/>
     </g>
     <g id="text_3">
      <!-- 100 -->
      <defs>
       <path d="M 37.25 0 
L 28.46875 0 
L 28.46875 56 
Q 25.296875 52.984375 20.140625 49.953125 
Q 14.984375 46.921875 10.890625 45.40625 
L 10.890625 53.90625 
Q 18.265625 57.375 23.78125 62.296875 
Q 29.296875 67.234375 31.59375 71.875 
L 37.25 71.875 
z
" id="ArialMT-49"/>
      </defs>
      <g style="fill:#262626;" transform="translate(235.169009 387.370391)scale(0.165 -0.165)">
       <use xlink:href="#ArialMT-49"/>
       <use x="55.615234" xlink:href="#ArialMT-48"/>
       <use x="111.230469" xlink:href="#ArialMT-48"/>
      </g>
     </g>
    </g>
    <g id="xtick_4">
     <g id="line2d_4">
      <path clip-path="url(#p88e1dddde8)" d="M 326.87199 363.06 
L 326.87199 39.44 
" style="fill:none;stroke:#cccccc;stroke-linecap:round;stroke-width:1.5;"/>
     </g>
     <g id="text_4">
      <!-- 150 -->
      <g style="fill:#262626;" transform="translate(313.10867 387.370391)scale(0.165 -0.165)">
       <use xlink:href="#ArialMT-49"/>
       <use x="55.615234" xlink:href="#ArialMT-53"/>
       <use x="111.230469" xlink:href="#ArialMT-48"/>
      </g>
     </g>
    </g>
    <g id="text_5">
     <!-- Iteration -->
     <defs>
      <path d="M 9.328125 0 
L 9.328125 71.578125 
L 18.796875 71.578125 
L 18.796875 0 
z
" id="ArialMT-73"/>
      <path d="M 25.78125 7.859375 
L 27.046875 0.09375 
Q 23.34375 -0.6875 20.40625 -0.6875 
Q 15.625 -0.6875 12.984375 0.828125 
Q 10.359375 2.34375 9.28125 4.8125 
Q 8.203125 7.28125 8.203125 15.1875 
L 8.203125 45.015625 
L 1.765625 45.015625 
L 1.765625 51.859375 
L 8.203125 51.859375 
L 8.203125 64.703125 
L 16.9375 69.96875 
L 16.9375 51.859375 
L 25.78125 51.859375 
L 25.78125 45.015625 
L 16.9375 45.015625 
L 16.9375 14.703125 
Q 16.9375 10.9375 17.40625 9.859375 
Q 17.875 8.796875 18.921875 8.15625 
Q 19.96875 7.515625 21.921875 7.515625 
Q 23.390625 7.515625 25.78125 7.859375 
z
" id="ArialMT-116"/>
      <path d="M 42.09375 16.703125 
L 51.171875 15.578125 
Q 49.03125 7.625 43.21875 3.21875 
Q 37.40625 -1.171875 28.375 -1.171875 
Q 17 -1.171875 10.328125 5.828125 
Q 3.65625 12.84375 3.65625 25.484375 
Q 3.65625 38.578125 10.390625 45.796875 
Q 17.140625 53.03125 27.875 53.03125 
Q 38.28125 53.03125 44.875 45.953125 
Q 51.46875 38.875 51.46875 26.03125 
Q 51.46875 25.25 51.421875 23.6875 
L 12.75 23.6875 
Q 13.234375 15.140625 17.578125 10.59375 
Q 21.921875 6.0625 28.421875 6.0625 
Q 33.25 6.0625 36.671875 8.59375 
Q 40.09375 11.140625 42.09375 16.703125 
z
M 13.234375 30.90625 
L 42.1875 30.90625 
Q 41.609375 37.453125 38.875 40.71875 
Q 34.671875 45.796875 27.984375 45.796875 
Q 21.921875 45.796875 17.796875 41.75 
Q 13.671875 37.703125 13.234375 30.90625 
z
" id="ArialMT-101"/>
      <path d="M 6.5 0 
L 6.5 51.859375 
L 14.40625 51.859375 
L 14.40625 44 
Q 17.4375 49.515625 20 51.265625 
Q 22.5625 53.03125 25.640625 53.03125 
Q 30.078125 53.03125 34.671875 50.203125 
L 31.640625 42.046875 
Q 28.421875 43.953125 25.203125 43.953125 
Q 22.3125 43.953125 20.015625 42.21875 
Q 17.71875 40.484375 16.75 37.40625 
Q 15.28125 32.71875 15.28125 27.15625 
L 15.28125 0 
z
" id="ArialMT-114"/>
      <path d="M 40.4375 6.390625 
Q 35.546875 2.25 31.03125 0.53125 
Q 26.515625 -1.171875 21.34375 -1.171875 
Q 12.796875 -1.171875 8.203125 3 
Q 3.609375 7.171875 3.609375 13.671875 
Q 3.609375 17.484375 5.34375 20.625 
Q 7.078125 23.78125 9.890625 25.6875 
Q 12.703125 27.59375 16.21875 28.5625 
Q 18.796875 29.25 24.03125 29.890625 
Q 34.671875 31.15625 39.703125 32.90625 
Q 39.75 34.71875 39.75 35.203125 
Q 39.75 40.578125 37.25 42.78125 
Q 33.890625 45.75 27.25 45.75 
Q 21.046875 45.75 18.09375 43.578125 
Q 15.140625 41.40625 13.71875 35.890625 
L 5.125 37.0625 
Q 6.296875 42.578125 8.984375 45.96875 
Q 11.671875 49.359375 16.75 51.1875 
Q 21.828125 53.03125 28.515625 53.03125 
Q 35.15625 53.03125 39.296875 51.46875 
Q 43.453125 49.90625 45.40625 47.53125 
Q 47.359375 45.171875 48.140625 41.546875 
Q 48.578125 39.3125 48.578125 33.453125 
L 48.578125 21.734375 
Q 48.578125 9.46875 49.140625 6.21875 
Q 49.703125 2.984375 51.375 0 
L 42.1875 0 
Q 40.828125 2.734375 40.4375 6.390625 
z
M 39.703125 26.03125 
Q 34.90625 24.078125 25.34375 22.703125 
Q 19.921875 21.921875 17.671875 20.9375 
Q 15.4375 19.96875 14.203125 18.09375 
Q 12.984375 16.21875 12.984375 13.921875 
Q 12.984375 10.40625 15.640625 8.0625 
Q 18.3125 5.71875 23.4375 5.71875 
Q 28.515625 5.71875 32.46875 7.9375 
Q 36.421875 10.15625 38.28125 14.015625 
Q 39.703125 17 39.703125 22.796875 
z
" id="ArialMT-97"/>
      <path d="M 6.640625 61.46875 
L 6.640625 71.578125 
L 15.4375 71.578125 
L 15.4375 61.46875 
z
M 6.640625 0 
L 6.640625 51.859375 
L 15.4375 51.859375 
L 15.4375 0 
z
" id="ArialMT-105"/>
      <path d="M 3.328125 25.921875 
Q 3.328125 40.328125 11.328125 47.265625 
Q 18.015625 53.03125 27.640625 53.03125 
Q 38.328125 53.03125 45.109375 46.015625 
Q 51.90625 39.015625 51.90625 26.65625 
Q 51.90625 16.65625 48.90625 10.90625 
Q 45.90625 5.171875 40.15625 2 
Q 34.421875 -1.171875 27.640625 -1.171875 
Q 16.75 -1.171875 10.03125 5.8125 
Q 3.328125 12.796875 3.328125 25.921875 
z
M 12.359375 25.921875 
Q 12.359375 15.96875 16.703125 11.015625 
Q 21.046875 6.0625 27.640625 6.0625 
Q 34.1875 6.0625 38.53125 11.03125 
Q 42.875 16.015625 42.875 26.21875 
Q 42.875 35.84375 38.5 40.796875 
Q 34.125 45.75 27.640625 45.75 
Q 21.046875 45.75 16.703125 40.8125 
Q 12.359375 35.890625 12.359375 25.921875 
z
" id="ArialMT-111"/>
      <path d="M 6.59375 0 
L 6.59375 51.859375 
L 14.5 51.859375 
L 14.5 44.484375 
Q 20.21875 53.03125 31 53.03125 
Q 35.6875 53.03125 39.625 51.34375 
Q 43.5625 49.65625 45.515625 46.921875 
Q 47.46875 44.1875 48.25 40.4375 
Q 48.734375 37.984375 48.734375 31.890625 
L 48.734375 0 
L 39.9375 0 
L 39.9375 31.546875 
Q 39.9375 36.921875 38.90625 39.578125 
Q 37.890625 42.234375 35.28125 43.8125 
Q 32.671875 45.40625 29.15625 45.40625 
Q 23.53125 45.40625 19.453125 41.84375 
Q 15.375 38.28125 15.375 28.328125 
L 15.375 0 
z
" id="ArialMT-110"/>
     </defs>
     <g style="fill:#262626;" transform="translate(176.666384 407.533828)scale(0.18 -0.18)">
      <use xlink:href="#ArialMT-73"/>
      <use x="27.783203" xlink:href="#ArialMT-116"/>
      <use x="55.566406" xlink:href="#ArialMT-101"/>
      <use x="111.181641" xlink:href="#ArialMT-114"/>
      <use x="144.482422" xlink:href="#ArialMT-97"/>
      <use x="200.097656" xlink:href="#ArialMT-116"/>
      <use x="227.880859" xlink:href="#ArialMT-105"/>
      <use x="250.097656" xlink:href="#ArialMT-111"/>
      <use x="305.712891" xlink:href="#ArialMT-110"/>
     </g>
    </g>
   </g>
   <g id="matplotlib.axis_2">
    <g id="ytick_1">
     <g id="line2d_5">
      <path clip-path="url(#p88e1dddde8)" d="M 81.44 348.35 
L 336.926206 348.35 
" style="fill:none;stroke:#cccccc;stroke-linecap:round;stroke-width:1.5;"/>
     </g>
     <g id="text_6">
      <!-- 0 -->
      <g style="fill:#262626;" transform="translate(59.764453 354.255195)scale(0.165 -0.165)">
       <use xlink:href="#ArialMT-48"/>
      </g>
     </g>
    </g>
    <g id="ytick_2">
     <g id="line2d_6">
      <path clip-path="url(#p88e1dddde8)" d="M 81.44 297.273611 
L 336.926206 297.273611 
" style="fill:none;stroke:#cccccc;stroke-linecap:round;stroke-width:1.5;"/>
     </g>
     <g id="text_7">
      <!-- 50 -->
      <g style="fill:#262626;" transform="translate(50.588906 303.178806)scale(0.165 -0.165)">
       <use xlink:href="#ArialMT-53"/>
       <use x="55.615234" xlink:href="#ArialMT-48"/>
      </g>
     </g>
    </g>
    <g id="ytick_3">
     <g id="line2d_7">
      <path clip-path="url(#p88e1dddde8)" d="M 81.44 246.197222 
L 336.926206 246.197222 
" style="fill:none;stroke:#cccccc;stroke-linecap:round;stroke-width:1.5;"/>
     </g>
     <g id="text_8">
      <!-- 100 -->
      <g style="fill:#262626;" transform="translate(41.413359 252.102418)scale(0.165 -0.165)">
       <use xlink:href="#ArialMT-49"/>
       <use x="55.615234" xlink:href="#ArialMT-48"/>
       <use x="111.230469" xlink:href="#ArialMT-48"/>
      </g>
     </g>
    </g>
    <g id="ytick_4">
     <g id="line2d_8">
      <path clip-path="url(#p88e1dddde8)" d="M 81.44 195.120833 
L 336.926206 195.120833 
" style="fill:none;stroke:#cccccc;stroke-linecap:round;stroke-width:1.5;"/>
     </g>
     <g id="text_9">
      <!-- 150 -->
      <g style="fill:#262626;" transform="translate(41.413359 201.026029)scale(0.165 -0.165)">
       <use xlink:href="#ArialMT-49"/>
       <use x="55.615234" xlink:href="#ArialMT-53"/>
       <use x="111.230469" xlink:href="#ArialMT-48"/>
      </g>
     </g>
    </g>
    <g id="ytick_5">
     <g id="line2d_9">
      <path clip-path="url(#p88e1dddde8)" d="M 81.44 144.044444 
L 336.926206 144.044444 
" style="fill:none;stroke:#cccccc;stroke-linecap:round;stroke-width:1.5;"/>
     </g>
     <g id="text_10">
      <!-- 200 -->
      <defs>
       <path d="M 50.34375 8.453125 
L 50.34375 0 
L 3.03125 0 
Q 2.9375 3.171875 4.046875 6.109375 
Q 5.859375 10.9375 9.828125 15.625 
Q 13.8125 20.3125 21.34375 26.46875 
Q 33.015625 36.03125 37.109375 41.625 
Q 41.21875 47.21875 41.21875 52.203125 
Q 41.21875 57.421875 37.46875 61 
Q 33.734375 64.59375 27.734375 64.59375 
Q 21.390625 64.59375 17.578125 60.78125 
Q 13.765625 56.984375 13.71875 50.25 
L 4.6875 51.171875 
Q 5.609375 61.28125 11.65625 66.578125 
Q 17.71875 71.875 27.9375 71.875 
Q 38.234375 71.875 44.234375 66.15625 
Q 50.25 60.453125 50.25 52 
Q 50.25 47.703125 48.484375 43.546875 
Q 46.734375 39.40625 42.65625 34.8125 
Q 38.578125 30.21875 29.109375 22.21875 
Q 21.1875 15.578125 18.9375 13.203125 
Q 16.703125 10.84375 15.234375 8.453125 
z
" id="ArialMT-50"/>
      </defs>
      <g style="fill:#262626;" transform="translate(41.413359 149.94964)scale(0.165 -0.165)">
       <use xlink:href="#ArialMT-50"/>
       <use x="55.615234" xlink:href="#ArialMT-48"/>
       <use x="111.230469" xlink:href="#ArialMT-48"/>
      </g>
     </g>
    </g>
    <g id="ytick_6">
     <g id="line2d_10">
      <path clip-path="url(#p88e1dddde8)" d="M 81.44 92.968056 
L 336.926206 92.968056 
" style="fill:none;stroke:#cccccc;stroke-linecap:round;stroke-width:1.5;"/>
     </g>
     <g id="text_11">
      <!-- 250 -->
      <g style="fill:#262626;" transform="translate(41.413359 98.873251)scale(0.165 -0.165)">
       <use xlink:href="#ArialMT-50"/>
       <use x="55.615234" xlink:href="#ArialMT-53"/>
       <use x="111.230469" xlink:href="#ArialMT-48"/>
      </g>
     </g>
    </g>
    <g id="ytick_7">
     <g id="line2d_11">
      <path clip-path="url(#p88e1dddde8)" d="M 81.44 41.891667 
L 336.926206 41.891667 
" style="fill:none;stroke:#cccccc;stroke-linecap:round;stroke-width:1.5;"/>
     </g>
     <g id="text_12">
      <!-- 300 -->
      <defs>
       <path d="M 4.203125 18.890625 
L 12.984375 20.0625 
Q 14.5 12.59375 18.140625 9.296875 
Q 21.78125 6 27 6 
Q 33.203125 6 37.46875 10.296875 
Q 41.75 14.59375 41.75 20.953125 
Q 41.75 27 37.796875 30.921875 
Q 33.84375 34.859375 27.734375 34.859375 
Q 25.25 34.859375 21.53125 33.890625 
L 22.515625 41.609375 
Q 23.390625 41.5 23.921875 41.5 
Q 29.546875 41.5 34.03125 44.421875 
Q 38.53125 47.359375 38.53125 53.46875 
Q 38.53125 58.296875 35.25 61.46875 
Q 31.984375 64.65625 26.8125 64.65625 
Q 21.6875 64.65625 18.265625 61.421875 
Q 14.84375 58.203125 13.875 51.765625 
L 5.078125 53.328125 
Q 6.6875 62.15625 12.390625 67.015625 
Q 18.109375 71.875 26.609375 71.875 
Q 32.46875 71.875 37.390625 69.359375 
Q 42.328125 66.84375 44.9375 62.5 
Q 47.5625 58.15625 47.5625 53.265625 
Q 47.5625 48.640625 45.0625 44.828125 
Q 42.578125 41.015625 37.703125 38.765625 
Q 44.046875 37.3125 47.5625 32.6875 
Q 51.078125 28.078125 51.078125 21.140625 
Q 51.078125 11.765625 44.234375 5.25 
Q 37.40625 -1.265625 26.953125 -1.265625 
Q 17.53125 -1.265625 11.296875 4.34375 
Q 5.078125 9.96875 4.203125 18.890625 
z
" id="ArialMT-51"/>
      </defs>
      <g style="fill:#262626;" transform="translate(41.413359 47.796862)scale(0.165 -0.165)">
       <use xlink:href="#ArialMT-51"/>
       <use x="55.615234" xlink:href="#ArialMT-48"/>
       <use x="111.230469" xlink:href="#ArialMT-48"/>
      </g>
     </g>
    </g>
    <g id="text_13">
     <!-- No. generated carbon skeletons -->
     <defs>
      <path d="M 7.625 0 
L 7.625 71.578125 
L 17.328125 71.578125 
L 54.9375 15.375 
L 54.9375 71.578125 
L 64.015625 71.578125 
L 64.015625 0 
L 54.296875 0 
L 16.703125 56.25 
L 16.703125 0 
z
" id="ArialMT-78"/>
      <path d="M 9.078125 0 
L 9.078125 10.015625 
L 19.09375 10.015625 
L 19.09375 0 
z
" id="ArialMT-46"/>
      <path id="ArialMT-32"/>
      <path d="M 4.984375 -4.296875 
L 13.53125 -5.5625 
Q 14.0625 -9.515625 16.5 -11.328125 
Q 19.78125 -13.765625 25.4375 -13.765625 
Q 31.546875 -13.765625 34.859375 -11.328125 
Q 38.1875 -8.890625 39.359375 -4.5 
Q 40.046875 -1.8125 39.984375 6.78125 
Q 34.234375 0 25.640625 0 
Q 14.9375 0 9.078125 7.71875 
Q 3.21875 15.4375 3.21875 26.21875 
Q 3.21875 33.640625 5.90625 39.90625 
Q 8.59375 46.1875 13.6875 49.609375 
Q 18.796875 53.03125 25.6875 53.03125 
Q 34.859375 53.03125 40.828125 45.609375 
L 40.828125 51.859375 
L 48.921875 51.859375 
L 48.921875 7.03125 
Q 48.921875 -5.078125 46.453125 -10.125 
Q 44 -15.1875 38.640625 -18.109375 
Q 33.296875 -21.046875 25.484375 -21.046875 
Q 16.21875 -21.046875 10.5 -16.875 
Q 4.78125 -12.703125 4.984375 -4.296875 
z
M 12.25 26.859375 
Q 12.25 16.65625 16.296875 11.96875 
Q 20.359375 7.28125 26.46875 7.28125 
Q 32.515625 7.28125 36.609375 11.9375 
Q 40.71875 16.609375 40.71875 26.5625 
Q 40.71875 36.078125 36.5 40.90625 
Q 32.28125 45.75 26.3125 45.75 
Q 20.453125 45.75 16.34375 40.984375 
Q 12.25 36.234375 12.25 26.859375 
z
" id="ArialMT-103"/>
      <path d="M 40.234375 0 
L 40.234375 6.546875 
Q 35.296875 -1.171875 25.734375 -1.171875 
Q 19.53125 -1.171875 14.328125 2.25 
Q 9.125 5.671875 6.265625 11.796875 
Q 3.421875 17.921875 3.421875 25.875 
Q 3.421875 33.640625 6 39.96875 
Q 8.59375 46.296875 13.765625 49.65625 
Q 18.953125 53.03125 25.34375 53.03125 
Q 30.03125 53.03125 33.6875 51.046875 
Q 37.359375 49.078125 39.65625 45.90625 
L 39.65625 71.578125 
L 48.390625 71.578125 
L 48.390625 0 
z
M 12.453125 25.875 
Q 12.453125 15.921875 16.640625 10.984375 
Q 20.84375 6.0625 26.5625 6.0625 
Q 32.328125 6.0625 36.34375 10.765625 
Q 40.375 15.484375 40.375 25.140625 
Q 40.375 35.796875 36.265625 40.765625 
Q 32.171875 45.75 26.171875 45.75 
Q 20.3125 45.75 16.375 40.96875 
Q 12.453125 36.1875 12.453125 25.875 
z
" id="ArialMT-100"/>
      <path d="M 40.4375 19 
L 49.078125 17.875 
Q 47.65625 8.9375 41.8125 3.875 
Q 35.984375 -1.171875 27.484375 -1.171875 
Q 16.84375 -1.171875 10.375 5.78125 
Q 3.90625 12.75 3.90625 25.734375 
Q 3.90625 34.125 6.6875 40.421875 
Q 9.46875 46.734375 15.15625 49.875 
Q 20.84375 53.03125 27.546875 53.03125 
Q 35.984375 53.03125 41.359375 48.75 
Q 46.734375 44.484375 48.25 36.625 
L 39.703125 35.296875 
Q 38.484375 40.53125 35.375 43.15625 
Q 32.28125 45.796875 27.875 45.796875 
Q 21.234375 45.796875 17.078125 41.03125 
Q 12.9375 36.28125 12.9375 25.984375 
Q 12.9375 15.53125 16.9375 10.796875 
Q 20.953125 6.0625 27.390625 6.0625 
Q 32.5625 6.0625 36.03125 9.234375 
Q 39.5 12.40625 40.4375 19 
z
" id="ArialMT-99"/>
      <path d="M 14.703125 0 
L 6.546875 0 
L 6.546875 71.578125 
L 15.328125 71.578125 
L 15.328125 46.046875 
Q 20.90625 53.03125 29.546875 53.03125 
Q 34.328125 53.03125 38.59375 51.09375 
Q 42.875 49.171875 45.625 45.671875 
Q 48.390625 42.1875 49.953125 37.25 
Q 51.515625 32.328125 51.515625 26.703125 
Q 51.515625 13.375 44.921875 6.09375 
Q 38.328125 -1.171875 29.109375 -1.171875 
Q 19.921875 -1.171875 14.703125 6.5 
z
M 14.59375 26.3125 
Q 14.59375 17 17.140625 12.84375 
Q 21.296875 6.0625 28.375 6.0625 
Q 34.125 6.0625 38.328125 11.0625 
Q 42.53125 16.0625 42.53125 25.984375 
Q 42.53125 36.140625 38.5 40.96875 
Q 34.46875 45.796875 28.765625 45.796875 
Q 23 45.796875 18.796875 40.796875 
Q 14.59375 35.796875 14.59375 26.3125 
z
" id="ArialMT-98"/>
      <path d="M 3.078125 15.484375 
L 11.765625 16.84375 
Q 12.5 11.625 15.84375 8.84375 
Q 19.1875 6.0625 25.203125 6.0625 
Q 31.25 6.0625 34.171875 8.515625 
Q 37.109375 10.984375 37.109375 14.3125 
Q 37.109375 17.28125 34.515625 19 
Q 32.71875 20.171875 25.53125 21.96875 
Q 15.875 24.421875 12.140625 26.203125 
Q 8.40625 27.984375 6.46875 31.125 
Q 4.546875 34.28125 4.546875 38.09375 
Q 4.546875 41.546875 6.125 44.5 
Q 7.71875 47.46875 10.453125 49.421875 
Q 12.5 50.921875 16.03125 51.96875 
Q 19.578125 53.03125 23.640625 53.03125 
Q 29.734375 53.03125 34.34375 51.265625 
Q 38.96875 49.515625 41.15625 46.5 
Q 43.359375 43.5 44.1875 38.484375 
L 35.59375 37.3125 
Q 35.015625 41.3125 32.203125 43.546875 
Q 29.390625 45.796875 24.265625 45.796875 
Q 18.21875 45.796875 15.625 43.796875 
Q 13.03125 41.796875 13.03125 39.109375 
Q 13.03125 37.40625 14.109375 36.03125 
Q 15.1875 34.625 17.484375 33.6875 
Q 18.796875 33.203125 25.25 31.453125 
Q 34.578125 28.953125 38.25 27.359375 
Q 41.9375 25.78125 44.03125 22.75 
Q 46.140625 19.734375 46.140625 15.234375 
Q 46.140625 10.84375 43.578125 6.953125 
Q 41.015625 3.078125 36.171875 0.953125 
Q 31.34375 -1.171875 25.25 -1.171875 
Q 15.140625 -1.171875 9.84375 3.03125 
Q 4.546875 7.234375 3.078125 15.484375 
z
" id="ArialMT-115"/>
      <path d="M 6.640625 0 
L 6.640625 71.578125 
L 15.4375 71.578125 
L 15.4375 30.765625 
L 36.234375 51.859375 
L 47.609375 51.859375 
L 27.78125 32.625 
L 49.609375 0 
L 38.765625 0 
L 21.625 26.515625 
L 15.4375 20.5625 
L 15.4375 0 
z
" id="ArialMT-107"/>
      <path d="M 6.390625 0 
L 6.390625 71.578125 
L 15.1875 71.578125 
L 15.1875 0 
z
" id="ArialMT-108"/>
     </defs>
     <g style="fill:#262626;" transform="translate(33.624922 328.822187)rotate(-90)scale(0.18 -0.18)">
      <use xlink:href="#ArialMT-78"/>
      <use x="72.216797" xlink:href="#ArialMT-111"/>
      <use x="127.832031" xlink:href="#ArialMT-46"/>
      <use x="155.615234" xlink:href="#ArialMT-32"/>
      <use x="183.398438" xlink:href="#ArialMT-103"/>
      <use x="239.013672" xlink:href="#ArialMT-101"/>
      <use x="294.628906" xlink:href="#ArialMT-110"/>
      <use x="350.244141" xlink:href="#ArialMT-101"/>
      <use x="405.859375" xlink:href="#ArialMT-114"/>
      <use x="439.160156" xlink:href="#ArialMT-97"/>
      <use x="494.775391" xlink:href="#ArialMT-116"/>
      <use x="522.558594" xlink:href="#ArialMT-101"/>
      <use x="578.173828" xlink:href="#ArialMT-100"/>
      <use x="633.789062" xlink:href="#ArialMT-32"/>
      <use x="661.572266" xlink:href="#ArialMT-99"/>
      <use x="711.572266" xlink:href="#ArialMT-97"/>
      <use x="767.1875" xlink:href="#ArialMT-114"/>
      <use x="800.488281" xlink:href="#ArialMT-98"/>
      <use x="856.103516" xlink:href="#ArialMT-111"/>
      <use x="911.71875" xlink:href="#ArialMT-110"/>
      <use x="967.333984" xlink:href="#ArialMT-32"/>
      <use x="995.117188" xlink:href="#ArialMT-115"/>
      <use x="1045.117188" xlink:href="#ArialMT-107"/>
      <use x="1095.117188" xlink:href="#ArialMT-101"/>
      <use x="1150.732422" xlink:href="#ArialMT-108"/>
      <use x="1172.949219" xlink:href="#ArialMT-101"/>
      <use x="1228.564453" xlink:href="#ArialMT-116"/>
      <use x="1256.347656" xlink:href="#ArialMT-111"/>
      <use x="1311.962891" xlink:href="#ArialMT-110"/>
      <use x="1367.578125" xlink:href="#ArialMT-115"/>
     </g>
    </g>
   </g>
   <g id="line2d_12">
    <path clip-path="url(#p88e1dddde8)" d="M 93.053009 348.35 
L 94.611803 347.328472 
L 102.405769 347.328472 
L 103.964562 345.285417 
L 107.082148 343.242361 
L 108.640941 341.199306 
L 111.758528 339.15625 
L 113.317321 337.113194 
L 116.434907 335.070139 
L 117.993701 333.027083 
L 122.67008 329.9625 
L 124.228873 329.9625 
L 125.787667 327.919444 
L 127.34646 326.897917 
L 128.905253 320.76875 
L 130.464046 319.747222 
L 132.022839 316.682639 
L 133.581633 311.575 
L 135.140426 311.575 
L 138.258012 307.488889 
L 139.816805 306.467361 
L 141.375599 306.467361 
L 144.493185 302.38125 
L 146.051978 298.295139 
L 147.610771 295.230556 
L 149.169565 293.1875 
L 150.728358 290.122917 
L 153.845944 288.079861 
L 155.404738 288.079861 
L 156.963531 286.036806 
L 158.522324 285.015278 
L 163.198704 285.015278 
L 164.757497 283.99375 
L 166.31629 283.99375 
L 167.875083 280.929167 
L 169.433876 279.907639 
L 170.99267 279.907639 
L 174.110256 277.864583 
L 175.669049 275.821528 
L 178.786636 275.821528 
L 180.345429 273.778472 
L 181.904222 273.778472 
L 186.580602 270.713889 
L 191.256981 270.713889 
L 194.374568 268.670833 
L 195.933361 268.670833 
L 197.492154 267.649306 
L 203.727327 267.649306 
L 206.844913 265.60625 
L 213.080086 265.60625 
L 214.638879 264.584722 
L 227.109225 264.584722 
L 228.668018 263.563194 
L 233.344398 263.563194 
L 234.903191 261.520139 
L 236.461984 261.520139 
L 238.020777 260.498611 
L 242.697157 260.498611 
L 244.25595 259.477083 
L 252.049916 259.477083 
L 253.608709 258.455556 
L 267.637848 258.455556 
L 270.755435 256.4125 
L 281.666987 256.4125 
L 283.22578 255.390972 
L 284.784573 255.390972 
L 286.343367 254.369444 
L 295.696126 254.369444 
L 297.254919 253.347917 
L 314.401644 253.347917 
L 315.960437 252.326389 
L 323.754403 252.326389 
L 325.313197 251.304861 
L 325.313197 251.304861 
" style="fill:none;stroke:#1f77b4;stroke-linecap:round;stroke-width:2.25;"/>
   </g>
   <g id="line2d_13">
    <path clip-path="url(#p88e1dddde8)" d="M 93.053009 348.35 
L 96.170596 346.306944 
L 102.405769 346.306944 
L 103.964562 344.263889 
L 107.082148 342.220833 
L 108.640941 340.177778 
L 111.758528 338.134722 
L 113.317321 338.134722 
L 114.876114 336.091667 
L 116.434907 335.070139 
L 117.993701 335.070139 
L 122.67008 332.005556 
L 125.787667 327.919444 
L 127.34646 324.854861 
L 130.464046 320.76875 
L 133.581633 314.639583 
L 136.699219 310.553472 
L 138.258012 310.553472 
L 139.816805 307.488889 
L 141.375599 305.445833 
L 142.934392 305.445833 
L 144.493185 300.338194 
L 146.051978 297.273611 
L 147.610771 295.230556 
L 149.169565 292.165972 
L 152.287151 288.079861 
L 153.845944 281.950694 
L 155.404738 280.929167 
L 156.963531 277.864583 
L 158.522324 275.821528 
L 160.081117 272.756944 
L 161.63991 271.735417 
L 163.198704 269.692361 
L 164.757497 269.692361 
L 166.31629 265.60625 
L 167.875083 262.541667 
L 169.433876 260.498611 
L 170.99267 256.4125 
L 172.551463 255.390972 
L 174.110256 248.240278 
L 177.227842 242.111111 
L 180.345429 240.068056 
L 185.021808 240.068056 
L 186.580602 235.981944 
L 191.256981 235.981944 
L 192.815774 233.938889 
L 194.374568 230.874306 
L 195.933361 228.83125 
L 199.050947 222.702083 
L 200.60974 215.551389 
L 202.168534 211.465278 
L 203.727327 211.465278 
L 205.28612 207.379167 
L 208.403706 207.379167 
L 209.9625 205.336111 
L 211.521293 204.314583 
L 213.080086 204.314583 
L 214.638879 202.271528 
L 216.197672 196.142361 
L 219.315259 194.099306 
L 220.874052 194.099306 
L 223.991638 192.05625 
L 225.550432 192.05625 
L 227.109225 186.948611 
L 231.785604 186.948611 
L 233.344398 184.905556 
L 234.903191 181.840972 
L 236.461984 179.797917 
L 239.579571 173.66875 
L 242.697157 173.66875 
L 244.25595 171.625694 
L 245.814743 170.604167 
L 247.373537 170.604167 
L 248.93233 169.582639 
L 253.608709 163.453472 
L 255.167503 159.367361 
L 256.726296 156.302778 
L 259.843882 152.216667 
L 261.402675 151.195139 
L 262.961469 151.195139 
L 264.520262 150.173611 
L 266.079055 150.173611 
L 267.637848 148.130556 
L 269.196641 148.130556 
L 270.755435 145.065972 
L 272.314228 145.065972 
L 273.873021 142.001389 
L 275.431814 140.979861 
L 278.549401 136.89375 
L 280.108194 136.89375 
L 281.666987 135.872222 
L 287.90216 135.872222 
L 289.460953 134.850694 
L 291.019746 132.807639 
L 297.254919 132.807639 
L 298.813712 130.764583 
L 300.372505 129.743056 
L 301.931299 127.7 
L 303.490092 126.678472 
L 305.048885 123.613889 
L 306.607678 123.613889 
L 309.725265 121.570833 
L 314.401644 121.570833 
L 315.960437 120.549306 
L 317.519231 120.549306 
L 320.636817 116.463194 
L 322.19561 116.463194 
L 325.313197 114.420139 
L 325.313197 114.420139 
" style="fill:none;stroke:#ff7f0e;stroke-linecap:round;stroke-width:2.25;"/>
   </g>
   <g id="line2d_14">
    <path clip-path="url(#p88e1dddde8)" d="M 93.053009 348.35 
L 96.170596 346.306944 
L 102.405769 346.306944 
L 103.964562 344.263889 
L 107.082148 342.220833 
L 108.640941 340.177778 
L 111.758528 338.134722 
L 113.317321 338.134722 
L 114.876114 336.091667 
L 116.434907 335.070139 
L 117.993701 335.070139 
L 122.67008 332.005556 
L 125.787667 327.919444 
L 127.34646 324.854861 
L 130.464046 320.76875 
L 133.581633 314.639583 
L 136.699219 310.553472 
L 138.258012 310.553472 
L 139.816805 307.488889 
L 141.375599 305.445833 
L 142.934392 305.445833 
L 144.493185 300.338194 
L 146.051978 297.273611 
L 147.610771 295.230556 
L 149.169565 292.165972 
L 152.287151 288.079861 
L 153.845944 281.950694 
L 155.404738 280.929167 
L 156.963531 277.864583 
L 158.522324 275.821528 
L 163.198704 266.627778 
L 164.757497 266.627778 
L 166.31629 262.541667 
L 169.433876 258.455556 
L 174.110256 255.390972 
L 175.669049 252.326389 
L 177.227842 251.304861 
L 178.786636 249.261806 
L 180.345429 248.240278 
L 183.463015 248.240278 
L 185.021808 247.21875 
L 186.580602 244.154167 
L 188.139395 242.111111 
L 189.698188 238.025 
L 192.815774 231.895833 
L 195.933361 229.852778 
L 197.492154 229.852778 
L 199.050947 225.766667 
L 200.60974 222.702083 
L 202.168534 222.702083 
L 203.727327 220.659028 
L 208.403706 211.465278 
L 209.9625 210.44375 
L 211.521293 208.400694 
L 213.080086 207.379167 
L 214.638879 207.379167 
L 216.197672 206.357639 
L 217.756466 203.293056 
L 219.315259 203.293056 
L 220.874052 200.228472 
L 222.432845 199.206944 
L 223.991638 197.163889 
L 227.109225 197.163889 
L 228.668018 194.099306 
L 230.226811 193.077778 
L 231.785604 193.077778 
L 233.344398 192.05625 
L 234.903191 188.991667 
L 236.461984 187.970139 
L 239.579571 187.970139 
L 241.138364 184.905556 
L 242.697157 183.884028 
L 245.814743 179.797917 
L 247.373537 176.733333 
L 248.93233 174.690278 
L 250.491123 173.66875 
L 253.608709 173.66875 
L 255.167503 170.604167 
L 256.726296 169.582639 
L 258.285089 169.582639 
L 259.843882 167.539583 
L 261.402675 166.518056 
L 262.961469 164.475 
L 264.520262 164.475 
L 269.196641 161.410417 
L 270.755435 157.324306 
L 273.873021 157.324306 
L 275.431814 156.302778 
L 276.990607 154.259722 
L 278.549401 151.195139 
L 280.108194 149.152083 
L 281.666987 145.065972 
L 284.784573 140.979861 
L 287.90216 138.936806 
L 289.460953 136.89375 
L 292.578539 134.850694 
L 294.137333 134.850694 
L 295.696126 133.829167 
L 297.254919 133.829167 
L 298.813712 131.786111 
L 300.372505 130.764583 
L 303.490092 126.678472 
L 305.048885 125.656944 
L 306.607678 121.570833 
L 309.725265 119.527778 
L 311.284058 117.484722 
L 312.842851 117.484722 
L 314.401644 115.441667 
L 317.519231 115.441667 
L 319.078024 114.420139 
L 322.19561 106.247917 
L 323.754403 103.183333 
L 325.313197 102.161806 
L 325.313197 102.161806 
" style="fill:none;stroke:#2ca02c;stroke-linecap:round;stroke-width:2.25;"/>
   </g>
   <g id="line2d_15">
    <path clip-path="url(#p88e1dddde8)" d="M 93.053009 348.35 
L 96.170596 346.306944 
L 102.405769 346.306944 
L 103.964562 344.263889 
L 107.082148 342.220833 
L 108.640941 340.177778 
L 111.758528 338.134722 
L 113.317321 338.134722 
L 114.876114 336.091667 
L 116.434907 335.070139 
L 117.993701 335.070139 
L 122.67008 332.005556 
L 125.787667 327.919444 
L 127.34646 324.854861 
L 130.464046 320.76875 
L 133.581633 314.639583 
L 136.699219 310.553472 
L 138.258012 310.553472 
L 139.816805 307.488889 
L 141.375599 305.445833 
L 142.934392 305.445833 
L 144.493185 300.338194 
L 146.051978 298.295139 
L 147.610771 295.230556 
L 149.169565 294.209028 
L 150.728358 289.101389 
L 152.287151 286.036806 
L 153.845944 281.950694 
L 155.404738 279.907639 
L 156.963531 275.821528 
L 158.522324 274.8 
L 160.081117 271.735417 
L 164.757497 268.670833 
L 169.433876 262.541667 
L 170.99267 261.520139 
L 172.551463 259.477083 
L 175.669049 257.434028 
L 177.227842 255.390972 
L 180.345429 253.347917 
L 181.904222 251.304861 
L 183.463015 250.283333 
L 185.021808 248.240278 
L 186.580602 247.21875 
L 188.139395 244.154167 
L 189.698188 240.068056 
L 191.256981 240.068056 
L 194.374568 235.981944 
L 197.492154 229.852778 
L 199.050947 227.809722 
L 202.168534 225.766667 
L 203.727327 222.702083 
L 205.28612 221.680556 
L 208.403706 221.680556 
L 209.9625 217.594444 
L 213.080086 213.508333 
L 214.638879 212.486806 
L 216.197672 209.422222 
L 219.315259 207.379167 
L 223.991638 201.25 
L 228.668018 198.185417 
L 230.226811 198.185417 
L 231.785604 197.163889 
L 233.344398 195.120833 
L 234.903191 194.099306 
L 236.461984 191.034722 
L 238.020777 191.034722 
L 241.138364 188.991667 
L 242.697157 188.991667 
L 244.25595 186.948611 
L 245.814743 183.884028 
L 248.93233 181.840972 
L 250.491123 177.754861 
L 252.049916 174.690278 
L 253.608709 172.647222 
L 255.167503 172.647222 
L 256.726296 171.625694 
L 258.285089 168.561111 
L 259.843882 167.539583 
L 261.402675 165.496528 
L 262.961469 162.431944 
L 269.196641 154.259722 
L 270.755435 153.238194 
L 272.314228 149.152083 
L 273.873021 147.109028 
L 275.431814 140.979861 
L 276.990607 136.89375 
L 280.108194 134.850694 
L 281.666987 131.786111 
L 283.22578 126.678472 
L 284.784573 122.592361 
L 287.90216 118.50625 
L 289.460953 118.50625 
L 291.019746 115.441667 
L 292.578539 115.441667 
L 295.696126 111.355556 
L 297.254919 108.290972 
L 298.813712 107.269444 
L 300.372505 104.204861 
L 301.931299 103.183333 
L 303.490092 100.11875 
L 308.166471 93.989583 
L 311.284058 87.860417 
L 312.842851 85.817361 
L 314.401644 82.752778 
L 315.960437 80.709722 
L 317.519231 79.688194 
L 319.078024 74.580556 
L 322.19561 68.451389 
L 323.754403 66.408333 
L 325.313197 63.34375 
L 325.313197 63.34375 
" style="fill:none;stroke:#d62728;stroke-linecap:round;stroke-width:2.25;"/>
   </g>
   <g id="line2d_16">
    <path clip-path="url(#p88e1dddde8)" d="M 93.053009 348.35 
L 96.170596 346.306944 
L 102.405769 346.306944 
L 103.964562 344.263889 
L 107.082148 342.220833 
L 108.640941 340.177778 
L 111.758528 338.134722 
L 113.317321 338.134722 
L 114.876114 336.091667 
L 116.434907 335.070139 
L 117.993701 335.070139 
L 122.67008 332.005556 
L 125.787667 327.919444 
L 127.34646 324.854861 
L 132.022839 318.725694 
L 133.581633 315.661111 
L 136.699219 311.575 
L 138.258012 311.575 
L 139.816805 308.510417 
L 141.375599 306.467361 
L 142.934392 306.467361 
L 144.493185 299.316667 
L 146.051978 298.295139 
L 147.610771 293.1875 
L 149.169565 290.122917 
L 150.728358 290.122917 
L 152.287151 287.058333 
L 153.845944 287.058333 
L 155.404738 285.015278 
L 156.963531 283.99375 
L 158.522324 281.950694 
L 160.081117 280.929167 
L 161.63991 277.864583 
L 163.198704 273.778472 
L 164.757497 268.670833 
L 169.433876 265.60625 
L 170.99267 261.520139 
L 172.551463 258.455556 
L 174.110256 252.326389 
L 175.669049 250.283333 
L 177.227842 249.261806 
L 178.786636 247.21875 
L 180.345429 246.197222 
L 181.904222 244.154167 
L 183.463015 243.132639 
L 185.021808 240.068056 
L 191.256981 235.981944 
L 192.815774 232.917361 
L 194.374568 230.874306 
L 195.933361 227.809722 
L 197.492154 226.788194 
L 200.60974 222.702083 
L 205.28612 219.6375 
L 206.844913 219.6375 
L 209.9625 213.508333 
L 211.521293 212.486806 
L 213.080086 210.44375 
L 214.638879 209.422222 
L 216.197672 209.422222 
L 217.756466 206.357639 
L 219.315259 204.314583 
L 220.874052 201.25 
L 222.432845 199.206944 
L 223.991638 196.142361 
L 225.550432 195.120833 
L 227.109225 195.120833 
L 228.668018 193.077778 
L 230.226811 192.05625 
L 231.785604 188.991667 
L 233.344398 187.970139 
L 234.903191 185.927083 
L 236.461984 184.905556 
L 238.020777 178.776389 
L 239.579571 177.754861 
L 242.697157 173.66875 
L 244.25595 173.66875 
L 245.814743 171.625694 
L 247.373537 170.604167 
L 248.93233 168.561111 
L 250.491123 167.539583 
L 252.049916 165.496528 
L 255.167503 157.324306 
L 256.726296 156.302778 
L 258.285089 154.259722 
L 259.843882 150.173611 
L 262.961469 150.173611 
L 264.520262 146.0875 
L 266.079055 144.044444 
L 267.637848 137.915278 
L 270.755435 135.872222 
L 272.314228 133.829167 
L 273.873021 127.7 
L 275.431814 126.678472 
L 276.990607 124.635417 
L 278.549401 120.549306 
L 281.666987 114.420139 
L 283.22578 113.398611 
L 284.784573 111.355556 
L 286.343367 108.290972 
L 287.90216 106.247917 
L 289.460953 103.183333 
L 291.019746 101.140278 
L 292.578539 100.11875 
L 294.137333 100.11875 
L 295.696126 96.032639 
L 298.813712 91.946528 
L 300.372505 91.946528 
L 301.931299 90.925 
L 303.490092 87.860417 
L 305.048885 86.838889 
L 306.607678 84.795833 
L 308.166471 81.73125 
L 311.284058 79.688194 
L 312.842851 76.623611 
L 315.960437 72.5375 
L 320.636817 60.279167 
L 325.313197 54.15 
L 325.313197 54.15 
" style="fill:none;stroke:#9467bd;stroke-linecap:round;stroke-width:2.25;"/>
   </g>
   <g id="patch_3">
    <path d="M 81.44 363.06 
L 81.44 39.44 
" style="fill:none;stroke:#cccccc;stroke-linecap:square;stroke-linejoin:miter;stroke-width:1.875;"/>
   </g>
   <g id="patch_4">
    <path d="M 336.926206 363.06 
L 336.926206 39.44 
" style="fill:none;stroke:#cccccc;stroke-linecap:square;stroke-linejoin:miter;stroke-width:1.875;"/>
   </g>
   <g id="patch_5">
    <path d="M 81.44 363.06 
L 336.926206 363.06 
" style="fill:none;stroke:#cccccc;stroke-linecap:square;stroke-linejoin:miter;stroke-width:1.875;"/>
   </g>
   <g id="patch_6">
    <path d="M 81.44 39.44 
L 336.926206 39.44 
" style="fill:none;stroke:#cccccc;stroke-linecap:square;stroke-linejoin:miter;stroke-width:1.875;"/>
   </g>
   <g id="text_14">
    <!-- clogP -->
    <defs>
     <path d="M 7.71875 0 
L 7.71875 71.578125 
L 34.71875 71.578125 
Q 41.84375 71.578125 45.609375 70.90625 
Q 50.875 70.015625 54.4375 67.546875 
Q 58.015625 65.09375 60.1875 60.640625 
Q 62.359375 56.203125 62.359375 50.875 
Q 62.359375 41.75 56.546875 35.421875 
Q 50.734375 29.109375 35.546875 29.109375 
L 17.1875 29.109375 
L 17.1875 0 
z
M 17.1875 37.546875 
L 35.6875 37.546875 
Q 44.875 37.546875 48.734375 40.96875 
Q 52.59375 44.390625 52.59375 50.59375 
Q 52.59375 55.078125 50.3125 58.265625 
Q 48.046875 61.46875 44.34375 62.5 
Q 41.9375 63.140625 35.5 63.140625 
L 17.1875 63.140625 
z
" id="ArialMT-80"/>
    </defs>
    <g style="fill:#262626;" transform="translate(186.670447 33.44)scale(0.18 -0.18)">
     <use xlink:href="#ArialMT-99"/>
     <use x="50" xlink:href="#ArialMT-108"/>
     <use x="72.216797" xlink:href="#ArialMT-111"/>
     <use x="127.832031" xlink:href="#ArialMT-103"/>
     <use x="183.447266" xlink:href="#ArialMT-80"/>
    </g>
   </g>
  </g>
 </g>
 <defs>
  <clipPath id="p88e1dddde8">
   <rect height="323.62" width="255.486206" x="81.44" y="39.44"/>
  </clipPath>
 </defs>
</svg>
