<?xml version="1.0" encoding="utf-8" standalone="no"?>
<!DOCTYPE svg PUBLIC "-//W3C//DTD SVG 1.1//EN"
  "http://www.w3.org/Graphics/SVG/1.1/DTD/svg11.dtd">
<!-- Created with matplotlib (https://matplotlib.org/) -->
<svg height="432pt" version="1.1" viewBox="0 0 360 432" width="360pt" xmlns="http://www.w3.org/2000/svg" xmlns:xlink="http://www.w3.org/1999/xlink">
 <defs>
  <style type="text/css">
*{stroke-linecap:butt;stroke-linejoin:round;}
  </style>
 </defs>
 <g id="figure_1">
  <g id="patch_1">
   <path d="M 0 432 
L 360 432 
L 360 0 
L 0 0 
z
" style="fill:#ffffff;"/>
  </g>
  <g id="axes_1">
   <g id="patch_2">
    <path d="M 90.565 363.06 
L 338.706036 363.06 
L 338.706036 39.44 
L 90.565 39.44 
z
" style="fill:#ffffff;"/>
   </g>
   <g id="matplotlib.axis_1">
    <g id="xtick_1">
     <g id="line2d_1">
      <path clip-path="url(#p7a3ab3ee03)" d="M 101.844138 363.06 
L 101.844138 39.44 
" style="fill:none;stroke:#cccccc;stroke-linecap:round;stroke-width:1.5;"/>
     </g>
     <g id="text_1">
      <!-- 0 -->
      <defs>
       <path d="M 4.15625 35.296875 
Q 4.15625 48 6.765625 55.734375 
Q 9.375 63.484375 14.515625 67.671875 
Q 19.671875 71.875 27.484375 71.875 
Q 33.25 71.875 37.59375 69.546875 
Q 41.9375 67.234375 44.765625 62.859375 
Q 47.609375 58.5 49.21875 52.21875 
Q 50.828125 45.953125 50.828125 35.296875 
Q 50.828125 22.703125 48.234375 14.96875 
Q 45.65625 7.234375 40.5 3 
Q 35.359375 -1.21875 27.484375 -1.21875 
Q 17.140625 -1.21875 11.234375 6.203125 
Q 4.15625 15.140625 4.15625 35.296875 
z
M 13.1875 35.296875 
Q 13.1875 17.671875 17.3125 11.828125 
Q 21.4375 6 27.484375 6 
Q 33.546875 6 37.671875 11.859375 
Q 41.796875 17.71875 41.796875 35.296875 
Q 41.796875 52.984375 37.671875 58.78125 
Q 33.546875 64.59375 27.390625 64.59375 
Q 21.34375 64.59375 17.71875 59.46875 
Q 13.1875 52.9375 13.1875 35.296875 
z
" id="ArialMT-48"/>
      </defs>
      <g style="fill:#262626;" transform="translate(97.256365 387.370391)scale(0.165 -0.165)">
       <use xlink:href="#ArialMT-48"/>
      </g>
     </g>
    </g>
    <g id="xtick_2">
     <g id="line2d_2">
      <path clip-path="url(#p7a3ab3ee03)" d="M 177.289877 363.06 
L 177.289877 39.44 
" style="fill:none;stroke:#cccccc;stroke-linecap:round;stroke-width:1.5;"/>
     </g>
     <g id="text_2">
      <!-- 100 -->
      <defs>
       <path d="M 37.25 0 
L 28.46875 0 
L 28.46875 56 
Q 25.296875 52.984375 20.140625 49.953125 
Q 14.984375 46.921875 10.890625 45.40625 
L 10.890625 53.90625 
Q 18.265625 57.375 23.78125 62.296875 
Q 29.296875 67.234375 31.59375 71.875 
L 37.25 71.875 
z
" id="ArialMT-49"/>
      </defs>
      <g style="fill:#262626;" transform="translate(163.526557 387.370391)scale(0.165 -0.165)">
       <use xlink:href="#ArialMT-49"/>
       <use x="55.615234" xlink:href="#ArialMT-48"/>
       <use x="111.230469" xlink:href="#ArialMT-48"/>
      </g>
     </g>
    </g>
    <g id="xtick_3">
     <g id="line2d_3">
      <path clip-path="url(#p7a3ab3ee03)" d="M 252.735616 363.06 
L 252.735616 39.44 
" style="fill:none;stroke:#cccccc;stroke-linecap:round;stroke-width:1.5;"/>
     </g>
     <g id="text_3">
      <!-- 200 -->
      <defs>
       <path d="M 50.34375 8.453125 
L 50.34375 0 
L 3.03125 0 
Q 2.9375 3.171875 4.046875 6.109375 
Q 5.859375 10.9375 9.828125 15.625 
Q 13.8125 20.3125 21.34375 26.46875 
Q 33.015625 36.03125 37.109375 41.625 
Q 41.21875 47.21875 41.21875 52.203125 
Q 41.21875 57.421875 37.46875 61 
Q 33.734375 64.59375 27.734375 64.59375 
Q 21.390625 64.59375 17.578125 60.78125 
Q 13.765625 56.984375 13.71875 50.25 
L 4.6875 51.171875 
Q 5.609375 61.28125 11.65625 66.578125 
Q 17.71875 71.875 27.9375 71.875 
Q 38.234375 71.875 44.234375 66.15625 
Q 50.25 60.453125 50.25 52 
Q 50.25 47.703125 48.484375 43.546875 
Q 46.734375 39.40625 42.65625 34.8125 
Q 38.578125 30.21875 29.109375 22.21875 
Q 21.1875 15.578125 18.9375 13.203125 
Q 16.703125 10.84375 15.234375 8.453125 
z
" id="ArialMT-50"/>
      </defs>
      <g style="fill:#262626;" transform="translate(238.972296 387.370391)scale(0.165 -0.165)">
       <use xlink:href="#ArialMT-50"/>
       <use x="55.615234" xlink:href="#ArialMT-48"/>
       <use x="111.230469" xlink:href="#ArialMT-48"/>
      </g>
     </g>
    </g>
    <g id="xtick_4">
     <g id="line2d_4">
      <path clip-path="url(#p7a3ab3ee03)" d="M 328.181355 363.06 
L 328.181355 39.44 
" style="fill:none;stroke:#cccccc;stroke-linecap:round;stroke-width:1.5;"/>
     </g>
     <g id="text_4">
      <!-- 300 -->
      <defs>
       <path d="M 4.203125 18.890625 
L 12.984375 20.0625 
Q 14.5 12.59375 18.140625 9.296875 
Q 21.78125 6 27 6 
Q 33.203125 6 37.46875 10.296875 
Q 41.75 14.59375 41.75 20.953125 
Q 41.75 27 37.796875 30.921875 
Q 33.84375 34.859375 27.734375 34.859375 
Q 25.25 34.859375 21.53125 33.890625 
L 22.515625 41.609375 
Q 23.390625 41.5 23.921875 41.5 
Q 29.546875 41.5 34.03125 44.421875 
Q 38.53125 47.359375 38.53125 53.46875 
Q 38.53125 58.296875 35.25 61.46875 
Q 31.984375 64.65625 26.8125 64.65625 
Q 21.6875 64.65625 18.265625 61.421875 
Q 14.84375 58.203125 13.875 51.765625 
L 5.078125 53.328125 
Q 6.6875 62.15625 12.390625 67.015625 
Q 18.109375 71.875 26.609375 71.875 
Q 32.46875 71.875 37.390625 69.359375 
Q 42.328125 66.84375 44.9375 62.5 
Q 47.5625 58.15625 47.5625 53.265625 
Q 47.5625 48.640625 45.0625 44.828125 
Q 42.578125 41.015625 37.703125 38.765625 
Q 44.046875 37.3125 47.5625 32.6875 
Q 51.078125 28.078125 51.078125 21.140625 
Q 51.078125 11.765625 44.234375 5.25 
Q 37.40625 -1.265625 26.953125 -1.265625 
Q 17.53125 -1.265625 11.296875 4.34375 
Q 5.078125 9.96875 4.203125 18.890625 
z
" id="ArialMT-51"/>
      </defs>
      <g style="fill:#262626;" transform="translate(314.418035 387.370391)scale(0.165 -0.165)">
       <use xlink:href="#ArialMT-51"/>
       <use x="55.615234" xlink:href="#ArialMT-48"/>
       <use x="111.230469" xlink:href="#ArialMT-48"/>
      </g>
     </g>
    </g>
    <g id="text_5">
     <!-- Iteration -->
     <defs>
      <path d="M 9.328125 0 
L 9.328125 71.578125 
L 18.796875 71.578125 
L 18.796875 0 
z
" id="ArialMT-73"/>
      <path d="M 25.78125 7.859375 
L 27.046875 0.09375 
Q 23.34375 -0.6875 20.40625 -0.6875 
Q 15.625 -0.6875 12.984375 0.828125 
Q 10.359375 2.34375 9.28125 4.8125 
Q 8.203125 7.28125 8.203125 15.1875 
L 8.203125 45.015625 
L 1.765625 45.015625 
L 1.765625 51.859375 
L 8.203125 51.859375 
L 8.203125 64.703125 
L 16.9375 69.96875 
L 16.9375 51.859375 
L 25.78125 51.859375 
L 25.78125 45.015625 
L 16.9375 45.015625 
L 16.9375 14.703125 
Q 16.9375 10.9375 17.40625 9.859375 
Q 17.875 8.796875 18.921875 8.15625 
Q 19.96875 7.515625 21.921875 7.515625 
Q 23.390625 7.515625 25.78125 7.859375 
z
" id="ArialMT-116"/>
      <path d="M 42.09375 16.703125 
L 51.171875 15.578125 
Q 49.03125 7.625 43.21875 3.21875 
Q 37.40625 -1.171875 28.375 -1.171875 
Q 17 -1.171875 10.328125 5.828125 
Q 3.65625 12.84375 3.65625 25.484375 
Q 3.65625 38.578125 10.390625 45.796875 
Q 17.140625 53.03125 27.875 53.03125 
Q 38.28125 53.03125 44.875 45.953125 
Q 51.46875 38.875 51.46875 26.03125 
Q 51.46875 25.25 51.421875 23.6875 
L 12.75 23.6875 
Q 13.234375 15.140625 17.578125 10.59375 
Q 21.921875 6.0625 28.421875 6.0625 
Q 33.25 6.0625 36.671875 8.59375 
Q 40.09375 11.140625 42.09375 16.703125 
z
M 13.234375 30.90625 
L 42.1875 30.90625 
Q 41.609375 37.453125 38.875 40.71875 
Q 34.671875 45.796875 27.984375 45.796875 
Q 21.921875 45.796875 17.796875 41.75 
Q 13.671875 37.703125 13.234375 30.90625 
z
" id="ArialMT-101"/>
      <path d="M 6.5 0 
L 6.5 51.859375 
L 14.40625 51.859375 
L 14.40625 44 
Q 17.4375 49.515625 20 51.265625 
Q 22.5625 53.03125 25.640625 53.03125 
Q 30.078125 53.03125 34.671875 50.203125 
L 31.640625 42.046875 
Q 28.421875 43.953125 25.203125 43.953125 
Q 22.3125 43.953125 20.015625 42.21875 
Q 17.71875 40.484375 16.75 37.40625 
Q 15.28125 32.71875 15.28125 27.15625 
L 15.28125 0 
z
" id="ArialMT-114"/>
      <path d="M 40.4375 6.390625 
Q 35.546875 2.25 31.03125 0.53125 
Q 26.515625 -1.171875 21.34375 -1.171875 
Q 12.796875 -1.171875 8.203125 3 
Q 3.609375 7.171875 3.609375 13.671875 
Q 3.609375 17.484375 5.34375 20.625 
Q 7.078125 23.78125 9.890625 25.6875 
Q 12.703125 27.59375 16.21875 28.5625 
Q 18.796875 29.25 24.03125 29.890625 
Q 34.671875 31.15625 39.703125 32.90625 
Q 39.75 34.71875 39.75 35.203125 
Q 39.75 40.578125 37.25 42.78125 
Q 33.890625 45.75 27.25 45.75 
Q 21.046875 45.75 18.09375 43.578125 
Q 15.140625 41.40625 13.71875 35.890625 
L 5.125 37.0625 
Q 6.296875 42.578125 8.984375 45.96875 
Q 11.671875 49.359375 16.75 51.1875 
Q 21.828125 53.03125 28.515625 53.03125 
Q 35.15625 53.03125 39.296875 51.46875 
Q 43.453125 49.90625 45.40625 47.53125 
Q 47.359375 45.171875 48.140625 41.546875 
Q 48.578125 39.3125 48.578125 33.453125 
L 48.578125 21.734375 
Q 48.578125 9.46875 49.140625 6.21875 
Q 49.703125 2.984375 51.375 0 
L 42.1875 0 
Q 40.828125 2.734375 40.4375 6.390625 
z
M 39.703125 26.03125 
Q 34.90625 24.078125 25.34375 22.703125 
Q 19.921875 21.921875 17.671875 20.9375 
Q 15.4375 19.96875 14.203125 18.09375 
Q 12.984375 16.21875 12.984375 13.921875 
Q 12.984375 10.40625 15.640625 8.0625 
Q 18.3125 5.71875 23.4375 5.71875 
Q 28.515625 5.71875 32.46875 7.9375 
Q 36.421875 10.15625 38.28125 14.015625 
Q 39.703125 17 39.703125 22.796875 
z
" id="ArialMT-97"/>
      <path d="M 6.640625 61.46875 
L 6.640625 71.578125 
L 15.4375 71.578125 
L 15.4375 61.46875 
z
M 6.640625 0 
L 6.640625 51.859375 
L 15.4375 51.859375 
L 15.4375 0 
z
" id="ArialMT-105"/>
      <path d="M 3.328125 25.921875 
Q 3.328125 40.328125 11.328125 47.265625 
Q 18.015625 53.03125 27.640625 53.03125 
Q 38.328125 53.03125 45.109375 46.015625 
Q 51.90625 39.015625 51.90625 26.65625 
Q 51.90625 16.65625 48.90625 10.90625 
Q 45.90625 5.171875 40.15625 2 
Q 34.421875 -1.171875 27.640625 -1.171875 
Q 16.75 -1.171875 10.03125 5.8125 
Q 3.328125 12.796875 3.328125 25.921875 
z
M 12.359375 25.921875 
Q 12.359375 15.96875 16.703125 11.015625 
Q 21.046875 6.0625 27.640625 6.0625 
Q 34.1875 6.0625 38.53125 11.03125 
Q 42.875 16.015625 42.875 26.21875 
Q 42.875 35.84375 38.5 40.796875 
Q 34.125 45.75 27.640625 45.75 
Q 21.046875 45.75 16.703125 40.8125 
Q 12.359375 35.890625 12.359375 25.921875 
z
" id="ArialMT-111"/>
      <path d="M 6.59375 0 
L 6.59375 51.859375 
L 14.5 51.859375 
L 14.5 44.484375 
Q 20.21875 53.03125 31 53.03125 
Q 35.6875 53.03125 39.625 51.34375 
Q 43.5625 49.65625 45.515625 46.921875 
Q 47.46875 44.1875 48.25 40.4375 
Q 48.734375 37.984375 48.734375 31.890625 
L 48.734375 0 
L 39.9375 0 
L 39.9375 31.546875 
Q 39.9375 36.921875 38.90625 39.578125 
Q 37.890625 42.234375 35.28125 43.8125 
Q 32.671875 45.40625 29.15625 45.40625 
Q 23.53125 45.40625 19.453125 41.84375 
Q 15.375 38.28125 15.375 28.328125 
L 15.375 0 
z
" id="ArialMT-110"/>
     </defs>
     <g style="fill:#262626;" transform="translate(182.118799 407.533828)scale(0.18 -0.18)">
      <use xlink:href="#ArialMT-73"/>
      <use x="27.783203" xlink:href="#ArialMT-116"/>
      <use x="55.566406" xlink:href="#ArialMT-101"/>
      <use x="111.181641" xlink:href="#ArialMT-114"/>
      <use x="144.482422" xlink:href="#ArialMT-97"/>
      <use x="200.097656" xlink:href="#ArialMT-116"/>
      <use x="227.880859" xlink:href="#ArialMT-105"/>
      <use x="250.097656" xlink:href="#ArialMT-111"/>
      <use x="305.712891" xlink:href="#ArialMT-110"/>
     </g>
    </g>
   </g>
   <g id="matplotlib.axis_2">
    <g id="ytick_1">
     <g id="line2d_5">
      <path clip-path="url(#p7a3ab3ee03)" d="M 90.565 348.35 
L 338.706036 348.35 
" style="fill:none;stroke:#cccccc;stroke-linecap:round;stroke-width:1.5;"/>
     </g>
     <g id="text_6">
      <!-- 0 -->
      <g style="fill:#262626;" transform="translate(68.889453 354.255195)scale(0.165 -0.165)">
       <use xlink:href="#ArialMT-48"/>
      </g>
     </g>
    </g>
    <g id="ytick_2">
     <g id="line2d_6">
      <path clip-path="url(#p7a3ab3ee03)" d="M 90.565 310.112412 
L 338.706036 310.112412 
" style="fill:none;stroke:#cccccc;stroke-linecap:round;stroke-width:1.5;"/>
     </g>
     <g id="text_7">
      <!-- 1000 -->
      <g style="fill:#262626;" transform="translate(41.362812 316.017608)scale(0.165 -0.165)">
       <use xlink:href="#ArialMT-49"/>
       <use x="55.615234" xlink:href="#ArialMT-48"/>
       <use x="111.230469" xlink:href="#ArialMT-48"/>
       <use x="166.845703" xlink:href="#ArialMT-48"/>
      </g>
     </g>
    </g>
    <g id="ytick_3">
     <g id="line2d_7">
      <path clip-path="url(#p7a3ab3ee03)" d="M 90.565 271.874825 
L 338.706036 271.874825 
" style="fill:none;stroke:#cccccc;stroke-linecap:round;stroke-width:1.5;"/>
     </g>
     <g id="text_8">
      <!-- 2000 -->
      <g style="fill:#262626;" transform="translate(41.362812 277.78002)scale(0.165 -0.165)">
       <use xlink:href="#ArialMT-50"/>
       <use x="55.615234" xlink:href="#ArialMT-48"/>
       <use x="111.230469" xlink:href="#ArialMT-48"/>
       <use x="166.845703" xlink:href="#ArialMT-48"/>
      </g>
     </g>
    </g>
    <g id="ytick_4">
     <g id="line2d_8">
      <path clip-path="url(#p7a3ab3ee03)" d="M 90.565 233.637237 
L 338.706036 233.637237 
" style="fill:none;stroke:#cccccc;stroke-linecap:round;stroke-width:1.5;"/>
     </g>
     <g id="text_9">
      <!-- 3000 -->
      <g style="fill:#262626;" transform="translate(41.362812 239.542432)scale(0.165 -0.165)">
       <use xlink:href="#ArialMT-51"/>
       <use x="55.615234" xlink:href="#ArialMT-48"/>
       <use x="111.230469" xlink:href="#ArialMT-48"/>
       <use x="166.845703" xlink:href="#ArialMT-48"/>
      </g>
     </g>
    </g>
    <g id="ytick_5">
     <g id="line2d_9">
      <path clip-path="url(#p7a3ab3ee03)" d="M 90.565 195.399649 
L 338.706036 195.399649 
" style="fill:none;stroke:#cccccc;stroke-linecap:round;stroke-width:1.5;"/>
     </g>
     <g id="text_10">
      <!-- 4000 -->
      <defs>
       <path d="M 32.328125 0 
L 32.328125 17.140625 
L 1.265625 17.140625 
L 1.265625 25.203125 
L 33.9375 71.578125 
L 41.109375 71.578125 
L 41.109375 25.203125 
L 50.78125 25.203125 
L 50.78125 17.140625 
L 41.109375 17.140625 
L 41.109375 0 
z
M 32.328125 25.203125 
L 32.328125 57.46875 
L 9.90625 25.203125 
z
" id="ArialMT-52"/>
      </defs>
      <g style="fill:#262626;" transform="translate(41.362812 201.304844)scale(0.165 -0.165)">
       <use xlink:href="#ArialMT-52"/>
       <use x="55.615234" xlink:href="#ArialMT-48"/>
       <use x="111.230469" xlink:href="#ArialMT-48"/>
       <use x="166.845703" xlink:href="#ArialMT-48"/>
      </g>
     </g>
    </g>
    <g id="ytick_6">
     <g id="line2d_10">
      <path clip-path="url(#p7a3ab3ee03)" d="M 90.565 157.162061 
L 338.706036 157.162061 
" style="fill:none;stroke:#cccccc;stroke-linecap:round;stroke-width:1.5;"/>
     </g>
     <g id="text_11">
      <!-- 5000 -->
      <defs>
       <path d="M 4.15625 18.75 
L 13.375 19.53125 
Q 14.40625 12.796875 18.140625 9.390625 
Q 21.875 6 27.15625 6 
Q 33.5 6 37.890625 10.78125 
Q 42.28125 15.578125 42.28125 23.484375 
Q 42.28125 31 38.0625 35.34375 
Q 33.84375 39.703125 27 39.703125 
Q 22.75 39.703125 19.328125 37.765625 
Q 15.921875 35.84375 13.96875 32.765625 
L 5.71875 33.84375 
L 12.640625 70.609375 
L 48.25 70.609375 
L 48.25 62.203125 
L 19.671875 62.203125 
L 15.828125 42.96875 
Q 22.265625 47.46875 29.34375 47.46875 
Q 38.71875 47.46875 45.15625 40.96875 
Q 51.609375 34.46875 51.609375 24.265625 
Q 51.609375 14.546875 45.953125 7.46875 
Q 39.0625 -1.21875 27.15625 -1.21875 
Q 17.390625 -1.21875 11.203125 4.25 
Q 5.03125 9.71875 4.15625 18.75 
z
" id="ArialMT-53"/>
      </defs>
      <g style="fill:#262626;" transform="translate(41.362812 163.067257)scale(0.165 -0.165)">
       <use xlink:href="#ArialMT-53"/>
       <use x="55.615234" xlink:href="#ArialMT-48"/>
       <use x="111.230469" xlink:href="#ArialMT-48"/>
       <use x="166.845703" xlink:href="#ArialMT-48"/>
      </g>
     </g>
    </g>
    <g id="ytick_7">
     <g id="line2d_11">
      <path clip-path="url(#p7a3ab3ee03)" d="M 90.565 118.924474 
L 338.706036 118.924474 
" style="fill:none;stroke:#cccccc;stroke-linecap:round;stroke-width:1.5;"/>
     </g>
     <g id="text_12">
      <!-- 6000 -->
      <defs>
       <path d="M 49.75 54.046875 
L 41.015625 53.375 
Q 39.84375 58.546875 37.703125 60.890625 
Q 34.125 64.65625 28.90625 64.65625 
Q 24.703125 64.65625 21.53125 62.3125 
Q 17.390625 59.28125 14.984375 53.46875 
Q 12.59375 47.65625 12.5 36.921875 
Q 15.671875 41.75 20.265625 44.09375 
Q 24.859375 46.4375 29.890625 46.4375 
Q 38.671875 46.4375 44.84375 39.96875 
Q 51.03125 33.5 51.03125 23.25 
Q 51.03125 16.5 48.125 10.71875 
Q 45.21875 4.9375 40.140625 1.859375 
Q 35.0625 -1.21875 28.609375 -1.21875 
Q 17.625 -1.21875 10.6875 6.859375 
Q 3.765625 14.9375 3.765625 33.5 
Q 3.765625 54.25 11.421875 63.671875 
Q 18.109375 71.875 29.4375 71.875 
Q 37.890625 71.875 43.28125 67.140625 
Q 48.6875 62.40625 49.75 54.046875 
z
M 13.875 23.1875 
Q 13.875 18.65625 15.796875 14.5 
Q 17.71875 10.359375 21.1875 8.171875 
Q 24.65625 6 28.46875 6 
Q 34.03125 6 38.03125 10.484375 
Q 42.046875 14.984375 42.046875 22.703125 
Q 42.046875 30.125 38.078125 34.390625 
Q 34.125 38.671875 28.125 38.671875 
Q 22.171875 38.671875 18.015625 34.390625 
Q 13.875 30.125 13.875 23.1875 
z
" id="ArialMT-54"/>
      </defs>
      <g style="fill:#262626;" transform="translate(41.362812 124.829669)scale(0.165 -0.165)">
       <use xlink:href="#ArialMT-54"/>
       <use x="55.615234" xlink:href="#ArialMT-48"/>
       <use x="111.230469" xlink:href="#ArialMT-48"/>
       <use x="166.845703" xlink:href="#ArialMT-48"/>
      </g>
     </g>
    </g>
    <g id="ytick_8">
     <g id="line2d_12">
      <path clip-path="url(#p7a3ab3ee03)" d="M 90.565 80.686886 
L 338.706036 80.686886 
" style="fill:none;stroke:#cccccc;stroke-linecap:round;stroke-width:1.5;"/>
     </g>
     <g id="text_13">
      <!-- 7000 -->
      <defs>
       <path d="M 4.734375 62.203125 
L 4.734375 70.65625 
L 51.078125 70.65625 
L 51.078125 63.8125 
Q 44.234375 56.546875 37.515625 44.484375 
Q 30.8125 32.421875 27.15625 19.671875 
Q 24.515625 10.6875 23.78125 0 
L 14.75 0 
Q 14.890625 8.453125 18.0625 20.40625 
Q 21.234375 32.375 27.171875 43.484375 
Q 33.109375 54.59375 39.796875 62.203125 
z
" id="ArialMT-55"/>
      </defs>
      <g style="fill:#262626;" transform="translate(41.362812 86.592081)scale(0.165 -0.165)">
       <use xlink:href="#ArialMT-55"/>
       <use x="55.615234" xlink:href="#ArialMT-48"/>
       <use x="111.230469" xlink:href="#ArialMT-48"/>
       <use x="166.845703" xlink:href="#ArialMT-48"/>
      </g>
     </g>
    </g>
    <g id="ytick_9">
     <g id="line2d_13">
      <path clip-path="url(#p7a3ab3ee03)" d="M 90.565 42.449298 
L 338.706036 42.449298 
" style="fill:none;stroke:#cccccc;stroke-linecap:round;stroke-width:1.5;"/>
     </g>
     <g id="text_14">
      <!-- 8000 -->
      <defs>
       <path d="M 17.671875 38.8125 
Q 12.203125 40.828125 9.5625 44.53125 
Q 6.9375 48.25 6.9375 53.421875 
Q 6.9375 61.234375 12.546875 66.546875 
Q 18.171875 71.875 27.484375 71.875 
Q 36.859375 71.875 42.578125 66.421875 
Q 48.296875 60.984375 48.296875 53.171875 
Q 48.296875 48.1875 45.671875 44.5 
Q 43.0625 40.828125 37.75 38.8125 
Q 44.34375 36.671875 47.78125 31.875 
Q 51.21875 27.09375 51.21875 20.453125 
Q 51.21875 11.28125 44.71875 5.03125 
Q 38.234375 -1.21875 27.640625 -1.21875 
Q 17.046875 -1.21875 10.546875 5.046875 
Q 4.046875 11.328125 4.046875 20.703125 
Q 4.046875 27.6875 7.59375 32.390625 
Q 11.140625 37.109375 17.671875 38.8125 
z
M 15.921875 53.71875 
Q 15.921875 48.640625 19.1875 45.40625 
Q 22.46875 42.1875 27.6875 42.1875 
Q 32.765625 42.1875 36.015625 45.375 
Q 39.265625 48.578125 39.265625 53.21875 
Q 39.265625 58.0625 35.90625 61.359375 
Q 32.5625 64.65625 27.59375 64.65625 
Q 22.5625 64.65625 19.234375 61.421875 
Q 15.921875 58.203125 15.921875 53.71875 
z
M 13.09375 20.65625 
Q 13.09375 16.890625 14.875 13.375 
Q 16.65625 9.859375 20.171875 7.921875 
Q 23.6875 6 27.734375 6 
Q 34.03125 6 38.125 10.046875 
Q 42.234375 14.109375 42.234375 20.359375 
Q 42.234375 26.703125 38.015625 30.859375 
Q 33.796875 35.015625 27.4375 35.015625 
Q 21.234375 35.015625 17.15625 30.90625 
Q 13.09375 26.8125 13.09375 20.65625 
z
" id="ArialMT-56"/>
      </defs>
      <g style="fill:#262626;" transform="translate(41.362812 48.354493)scale(0.165 -0.165)">
       <use xlink:href="#ArialMT-56"/>
       <use x="55.615234" xlink:href="#ArialMT-48"/>
       <use x="111.230469" xlink:href="#ArialMT-48"/>
       <use x="166.845703" xlink:href="#ArialMT-48"/>
      </g>
     </g>
    </g>
    <g id="text_15">
     <!-- No. generated ECFP6 analogs -->
     <defs>
      <path d="M 7.625 0 
L 7.625 71.578125 
L 17.328125 71.578125 
L 54.9375 15.375 
L 54.9375 71.578125 
L 64.015625 71.578125 
L 64.015625 0 
L 54.296875 0 
L 16.703125 56.25 
L 16.703125 0 
z
" id="ArialMT-78"/>
      <path d="M 9.078125 0 
L 9.078125 10.015625 
L 19.09375 10.015625 
L 19.09375 0 
z
" id="ArialMT-46"/>
      <path id="ArialMT-32"/>
      <path d="M 4.984375 -4.296875 
L 13.53125 -5.5625 
Q 14.0625 -9.515625 16.5 -11.328125 
Q 19.78125 -13.765625 25.4375 -13.765625 
Q 31.546875 -13.765625 34.859375 -11.328125 
Q 38.1875 -8.890625 39.359375 -4.5 
Q 40.046875 -1.8125 39.984375 6.78125 
Q 34.234375 0 25.640625 0 
Q 14.9375 0 9.078125 7.71875 
Q 3.21875 15.4375 3.21875 26.21875 
Q 3.21875 33.640625 5.90625 39.90625 
Q 8.59375 46.1875 13.6875 49.609375 
Q 18.796875 53.03125 25.6875 53.03125 
Q 34.859375 53.03125 40.828125 45.609375 
L 40.828125 51.859375 
L 48.921875 51.859375 
L 48.921875 7.03125 
Q 48.921875 -5.078125 46.453125 -10.125 
Q 44 -15.1875 38.640625 -18.109375 
Q 33.296875 -21.046875 25.484375 -21.046875 
Q 16.21875 -21.046875 10.5 -16.875 
Q 4.78125 -12.703125 4.984375 -4.296875 
z
M 12.25 26.859375 
Q 12.25 16.65625 16.296875 11.96875 
Q 20.359375 7.28125 26.46875 7.28125 
Q 32.515625 7.28125 36.609375 11.9375 
Q 40.71875 16.609375 40.71875 26.5625 
Q 40.71875 36.078125 36.5 40.90625 
Q 32.28125 45.75 26.3125 45.75 
Q 20.453125 45.75 16.34375 40.984375 
Q 12.25 36.234375 12.25 26.859375 
z
" id="ArialMT-103"/>
      <path d="M 40.234375 0 
L 40.234375 6.546875 
Q 35.296875 -1.171875 25.734375 -1.171875 
Q 19.53125 -1.171875 14.328125 2.25 
Q 9.125 5.671875 6.265625 11.796875 
Q 3.421875 17.921875 3.421875 25.875 
Q 3.421875 33.640625 6 39.96875 
Q 8.59375 46.296875 13.765625 49.65625 
Q 18.953125 53.03125 25.34375 53.03125 
Q 30.03125 53.03125 33.6875 51.046875 
Q 37.359375 49.078125 39.65625 45.90625 
L 39.65625 71.578125 
L 48.390625 71.578125 
L 48.390625 0 
z
M 12.453125 25.875 
Q 12.453125 15.921875 16.640625 10.984375 
Q 20.84375 6.0625 26.5625 6.0625 
Q 32.328125 6.0625 36.34375 10.765625 
Q 40.375 15.484375 40.375 25.140625 
Q 40.375 35.796875 36.265625 40.765625 
Q 32.171875 45.75 26.171875 45.75 
Q 20.3125 45.75 16.375 40.96875 
Q 12.453125 36.1875 12.453125 25.875 
z
" id="ArialMT-100"/>
      <path d="M 7.90625 0 
L 7.90625 71.578125 
L 59.671875 71.578125 
L 59.671875 63.140625 
L 17.390625 63.140625 
L 17.390625 41.21875 
L 56.984375 41.21875 
L 56.984375 32.8125 
L 17.390625 32.8125 
L 17.390625 8.453125 
L 61.328125 8.453125 
L 61.328125 0 
z
" id="ArialMT-69"/>
      <path d="M 58.796875 25.09375 
L 68.265625 22.703125 
Q 65.28125 11.03125 57.546875 4.90625 
Q 49.8125 -1.21875 38.625 -1.21875 
Q 27.046875 -1.21875 19.796875 3.484375 
Q 12.546875 8.203125 8.765625 17.140625 
Q 4.984375 26.078125 4.984375 36.328125 
Q 4.984375 47.515625 9.25 55.828125 
Q 13.53125 64.15625 21.40625 68.46875 
Q 29.296875 72.796875 38.765625 72.796875 
Q 49.515625 72.796875 56.828125 67.328125 
Q 64.15625 61.859375 67.046875 51.953125 
L 57.71875 49.75 
Q 55.21875 57.5625 50.484375 61.125 
Q 45.75 64.703125 38.578125 64.703125 
Q 30.328125 64.703125 24.78125 60.734375 
Q 19.234375 56.78125 16.984375 50.109375 
Q 14.75 43.453125 14.75 36.375 
Q 14.75 27.25 17.40625 20.4375 
Q 20.0625 13.625 25.671875 10.25 
Q 31.296875 6.890625 37.84375 6.890625 
Q 45.796875 6.890625 51.3125 11.46875 
Q 56.84375 16.0625 58.796875 25.09375 
z
" id="ArialMT-67"/>
      <path d="M 8.203125 0 
L 8.203125 71.578125 
L 56.5 71.578125 
L 56.5 63.140625 
L 17.671875 63.140625 
L 17.671875 40.96875 
L 51.265625 40.96875 
L 51.265625 32.515625 
L 17.671875 32.515625 
L 17.671875 0 
z
" id="ArialMT-70"/>
      <path d="M 7.71875 0 
L 7.71875 71.578125 
L 34.71875 71.578125 
Q 41.84375 71.578125 45.609375 70.90625 
Q 50.875 70.015625 54.4375 67.546875 
Q 58.015625 65.09375 60.1875 60.640625 
Q 62.359375 56.203125 62.359375 50.875 
Q 62.359375 41.75 56.546875 35.421875 
Q 50.734375 29.109375 35.546875 29.109375 
L 17.1875 29.109375 
L 17.1875 0 
z
M 17.1875 37.546875 
L 35.6875 37.546875 
Q 44.875 37.546875 48.734375 40.96875 
Q 52.59375 44.390625 52.59375 50.59375 
Q 52.59375 55.078125 50.3125 58.265625 
Q 48.046875 61.46875 44.34375 62.5 
Q 41.9375 63.140625 35.5 63.140625 
L 17.1875 63.140625 
z
" id="ArialMT-80"/>
      <path d="M 6.390625 0 
L 6.390625 71.578125 
L 15.1875 71.578125 
L 15.1875 0 
z
" id="ArialMT-108"/>
      <path d="M 3.078125 15.484375 
L 11.765625 16.84375 
Q 12.5 11.625 15.84375 8.84375 
Q 19.1875 6.0625 25.203125 6.0625 
Q 31.25 6.0625 34.171875 8.515625 
Q 37.109375 10.984375 37.109375 14.3125 
Q 37.109375 17.28125 34.515625 19 
Q 32.71875 20.171875 25.53125 21.96875 
Q 15.875 24.421875 12.140625 26.203125 
Q 8.40625 27.984375 6.46875 31.125 
Q 4.546875 34.28125 4.546875 38.09375 
Q 4.546875 41.546875 6.125 44.5 
Q 7.71875 47.46875 10.453125 49.421875 
Q 12.5 50.921875 16.03125 51.96875 
Q 19.578125 53.03125 23.640625 53.03125 
Q 29.734375 53.03125 34.34375 51.265625 
Q 38.96875 49.515625 41.15625 46.5 
Q 43.359375 43.5 44.1875 38.484375 
L 35.59375 37.3125 
Q 35.015625 41.3125 32.203125 43.546875 
Q 29.390625 45.796875 24.265625 45.796875 
Q 18.21875 45.796875 15.625 43.796875 
Q 13.03125 41.796875 13.03125 39.109375 
Q 13.03125 37.40625 14.109375 36.03125 
Q 15.1875 34.625 17.484375 33.6875 
Q 18.796875 33.203125 25.25 31.453125 
Q 34.578125 28.953125 38.25 27.359375 
Q 41.9375 25.78125 44.03125 22.75 
Q 46.140625 19.734375 46.140625 15.234375 
Q 46.140625 10.84375 43.578125 6.953125 
Q 41.015625 3.078125 36.171875 0.953125 
Q 31.34375 -1.171875 25.25 -1.171875 
Q 15.140625 -1.171875 9.84375 3.03125 
Q 4.546875 7.234375 3.078125 15.484375 
z
" id="ArialMT-115"/>
     </defs>
     <g style="fill:#262626;" transform="translate(33.574375 323.81875)rotate(-90)scale(0.18 -0.18)">
      <use xlink:href="#ArialMT-78"/>
      <use x="72.216797" xlink:href="#ArialMT-111"/>
      <use x="127.832031" xlink:href="#ArialMT-46"/>
      <use x="155.615234" xlink:href="#ArialMT-32"/>
      <use x="183.398438" xlink:href="#ArialMT-103"/>
      <use x="239.013672" xlink:href="#ArialMT-101"/>
      <use x="294.628906" xlink:href="#ArialMT-110"/>
      <use x="350.244141" xlink:href="#ArialMT-101"/>
      <use x="405.859375" xlink:href="#ArialMT-114"/>
      <use x="439.160156" xlink:href="#ArialMT-97"/>
      <use x="494.775391" xlink:href="#ArialMT-116"/>
      <use x="522.558594" xlink:href="#ArialMT-101"/>
      <use x="578.173828" xlink:href="#ArialMT-100"/>
      <use x="633.789062" xlink:href="#ArialMT-32"/>
      <use x="661.572266" xlink:href="#ArialMT-69"/>
      <use x="728.271484" xlink:href="#ArialMT-67"/>
      <use x="800.488281" xlink:href="#ArialMT-70"/>
      <use x="861.572266" xlink:href="#ArialMT-80"/>
      <use x="928.271484" xlink:href="#ArialMT-54"/>
      <use x="983.886719" xlink:href="#ArialMT-32"/>
      <use x="1011.669922" xlink:href="#ArialMT-97"/>
      <use x="1067.285156" xlink:href="#ArialMT-110"/>
      <use x="1122.900391" xlink:href="#ArialMT-97"/>
      <use x="1178.515625" xlink:href="#ArialMT-108"/>
      <use x="1200.732422" xlink:href="#ArialMT-111"/>
      <use x="1256.347656" xlink:href="#ArialMT-103"/>
      <use x="1311.962891" xlink:href="#ArialMT-115"/>
     </g>
    </g>
   </g>
   <g id="line2d_14">
    <path clip-path="url(#p7a3ab3ee03)" d="M 101.844138 348.35 
L 110.897627 348.273525 
L 111.652084 348.235287 
L 112.406541 348.082337 
L 114.669914 347.929387 
L 116.178828 347.623486 
L 116.933286 347.547011 
L 118.442201 347.164635 
L 119.196658 347.08816 
L 120.705573 346.705784 
L 121.46003 346.552833 
L 122.214488 346.208695 
L 122.968945 345.711606 
L 123.723402 345.558656 
L 124.47786 345.252755 
L 125.986775 344.296816 
L 132.776891 342.346699 
L 133.531348 342.155511 
L 135.794721 342.00256 
L 136.549178 342.00256 
L 137.303635 341.887848 
L 138.058093 341.543709 
L 141.83038 338.981791 
L 142.584837 338.752365 
L 143.339295 338.140564 
L 145.602667 337.337575 
L 146.357124 336.725773 
L 147.866039 336.266922 
L 149.374954 335.578646 
L 153.147241 334.355043 
L 156.919528 333.666766 
L 159.1829 333.628529 
L 160.691815 333.475578 
L 162.200729 333.437341 
L 165.218559 333.207915 
L 175.026505 332.672589 
L 176.53542 332.443164 
L 178.798792 332.290213 
L 196.905769 331.296036 
L 199.923599 330.951898 
L 201.432514 330.607759 
L 202.941428 330.493047 
L 203.695886 330.493047 
L 205.204801 330.340096 
L 207.468173 330.263621 
L 211.24046 329.95772 
L 214.258289 329.881245 
L 216.521661 329.613582 
L 218.030576 329.269444 
L 221.048406 328.772355 
L 225.57515 327.701703 
L 226.329608 327.58699 
L 227.838522 327.128139 
L 228.59298 327.089901 
L 230.101895 326.745763 
L 232.365267 326.439862 
L 237.646468 325.713348 
L 239.155383 325.67511 
L 239.909841 325.52216 
L 240.664298 325.483923 
L 241.418755 325.330972 
L 242.92767 325.254497 
L 244.436585 325.139784 
L 246.699957 325.063309 
L 247.454415 324.872121 
L 248.963329 324.642696 
L 250.472244 324.375032 
L 251.981159 323.877944 
L 254.244531 323.495568 
L 255.753446 323.419093 
L 265.561392 322.34844 
L 267.824764 321.813114 
L 268.579221 321.354263 
L 274.614881 319.327671 
L 275.369338 319.174721 
L 276.878253 318.409969 
L 277.63271 317.91288 
L 280.65054 316.918703 
L 281.404997 316.574565 
L 282.159455 316.383377 
L 284.422827 315.465675 
L 285.177284 314.853873 
L 285.931742 314.43326 
L 286.686199 313.668508 
L 287.440656 313.094944 
L 289.704028 312.941994 
L 292.721858 312.865519 
L 301.775347 312.330192 
L 304.793176 312.100767 
L 307.056548 312.024292 
L 307.811006 311.909579 
L 310.828835 311.871341 
L 313.092208 311.718391 
L 316.110037 311.680153 
L 317.618952 311.603678 
L 319.882324 311.527203 
L 322.900154 311.297777 
L 325.917983 311.221302 
L 327.426898 311.183065 
L 327.426898 311.183065 
" style="fill:none;stroke:#1f77b4;stroke-linecap:round;stroke-width:2.25;"/>
   </g>
   <g id="line2d_15">
    <path clip-path="url(#p7a3ab3ee03)" d="M 101.844138 348.35 
L 110.897627 348.273525 
L 113.915456 347.929387 
L 115.424371 347.547011 
L 116.178828 347.317585 
L 119.951115 345.290993 
L 122.214488 343.379114 
L 122.968945 342.308461 
L 123.723402 341.467234 
L 125.232317 339.211217 
L 125.986775 338.217039 
L 126.741232 337.796426 
L 128.250147 336.037497 
L 131.267976 332.328451 
L 132.022434 331.640174 
L 132.776891 330.684234 
L 133.531348 330.110671 
L 135.794721 328.963543 
L 137.303635 328.466454 
L 138.058093 328.313504 
L 138.81255 327.892891 
L 140.321465 327.472277 
L 141.075922 327.242852 
L 142.584837 326.439862 
L 147.866039 322.654341 
L 149.374954 321.23955 
L 153.147241 319.633572 
L 154.656155 318.907057 
L 156.16507 317.951118 
L 157.673985 317.301079 
L 160.691815 314.73916 
L 161.446272 313.744983 
L 162.955187 312.330192 
L 165.218559 309.844749 
L 168.990846 307.206356 
L 169.745303 306.785742 
L 170.499761 306.135703 
L 172.008675 305.409189 
L 172.763133 304.988576 
L 173.51759 304.75915 
L 175.026505 303.956161 
L 175.780962 303.879685 
L 176.53542 303.191409 
L 178.044335 302.235469 
L 179.553249 301.050104 
L 180.307707 300.629491 
L 182.571079 298.602898 
L 186.343366 294.664427 
L 188.606738 291.796608 
L 190.115653 289.349402 
L 191.624568 286.863959 
L 192.379025 285.908019 
L 193.133482 284.302041 
L 195.396855 280.440044 
L 198.414684 277.266324 
L 199.923599 275.086782 
L 200.678056 274.130842 
L 202.941428 270.03942 
L 203.695886 268.586392 
L 205.959258 265.183247 
L 206.713715 263.806694 
L 207.468173 262.888991 
L 208.22263 262.162477 
L 210.486002 259.562321 
L 211.24046 259.218183 
L 211.994917 258.721094 
L 214.258289 257.879867 
L 215.012747 257.306304 
L 218.030576 256.082701 
L 218.785034 255.509137 
L 219.539491 255.126761 
L 221.802863 253.635495 
L 222.557321 252.679555 
L 224.066235 251.876566 
L 224.820693 251.226527 
L 225.57515 250.805914 
L 226.329608 250.576488 
L 227.838522 249.467598 
L 230.101895 248.052807 
L 231.610809 246.676254 
L 232.365267 246.179166 
L 233.874181 244.879088 
L 234.628639 244.611424 
L 236.137554 243.57901 
L 238.400926 242.317169 
L 239.909841 240.787666 
L 240.664298 240.214102 
L 242.92767 236.581531 
L 243.682128 234.975552 
L 245.191042 232.337159 
L 245.9455 230.845893 
L 246.699957 229.77524 
L 248.208872 226.525045 
L 248.963329 224.498453 
L 250.472244 220.865883 
L 251.981159 217.386262 
L 253.490074 214.594918 
L 254.244531 213.753691 
L 254.998988 212.644801 
L 255.753446 211.115298 
L 257.262361 208.897518 
L 258.771275 206.985638 
L 259.525733 206.259124 
L 261.034648 204.385482 
L 262.543562 202.894216 
L 264.052477 201.058812 
L 264.806935 200.29406 
L 265.561392 199.299883 
L 267.070307 196.96739 
L 267.824764 196.126163 
L 268.579221 194.90256 
L 269.333679 193.984858 
L 270.088136 193.449532 
L 270.842594 192.761256 
L 271.597051 191.843553 
L 273.105966 190.772901 
L 275.369338 189.166922 
L 277.63271 187.216805 
L 279.141625 185.266688 
L 281.404997 182.895958 
L 282.159455 181.825305 
L 282.913912 181.366454 
L 284.422827 179.569288 
L 285.177284 178.919249 
L 286.686199 177.045607 
L 287.440656 176.472043 
L 289.704028 173.83365 
L 291.212943 172.304146 
L 293.476315 170.468742 
L 294.230773 170.124604 
L 295.739688 169.092189 
L 296.494145 168.44215 
L 297.248602 168.212724 
L 299.511975 166.147894 
L 301.775347 163.624214 
L 303.284262 161.521146 
L 304.793176 158.92099 
L 308.565463 154.408955 
L 311.583293 151.388186 
L 313.092208 149.399831 
L 314.601122 147.029101 
L 318.373409 139.649246 
L 322.145696 133.607707 
L 322.900154 132.728243 
L 325.163526 129.28686 
L 327.426898 125.463101 
L 327.426898 125.463101 
" style="fill:none;stroke:#ff7f0e;stroke-linecap:round;stroke-width:2.25;"/>
   </g>
   <g id="line2d_16">
    <path clip-path="url(#p7a3ab3ee03)" d="M 101.844138 348.35 
L 110.897627 348.273525 
L 113.915456 347.929387 
L 115.424371 347.547011 
L 116.178828 347.317585 
L 121.46003 344.526241 
L 122.214488 343.952677 
L 122.968945 343.149688 
L 123.723402 342.079036 
L 124.47786 340.778958 
L 125.232317 339.746543 
L 125.986775 338.943553 
L 130.513519 332.557876 
L 133.531348 327.089901 
L 135.040263 324.642696 
L 137.303635 321.851352 
L 138.81255 319.442384 
L 139.567008 318.371731 
L 141.075922 316.727515 
L 142.584837 314.165597 
L 144.848209 311.297777 
L 145.602667 310.800689 
L 147.866039 307.512256 
L 152.392783 297.761671 
L 155.410613 292.484884 
L 156.16507 291.299519 
L 158.428442 286.519821 
L 159.937357 283.460814 
L 165.218559 273.327853 
L 167.481931 268.77758 
L 168.990846 265.909761 
L 172.763133 259.753509 
L 175.026505 256.73274 
L 179.553249 251.111814 
L 180.307707 250.576488 
L 182.571079 247.708669 
L 183.325536 247.05863 
L 184.834451 245.605602 
L 187.852281 243.426059 
L 188.606738 242.699545 
L 190.115653 241.705368 
L 191.624568 240.252339 
L 192.379025 239.6023 
L 193.133482 238.799311 
L 193.88794 238.18751 
L 195.396855 237.652184 
L 196.151312 237.193332 
L 198.414684 236.428581 
L 203.695886 234.019613 
L 205.204801 232.94896 
L 205.959258 232.834247 
L 207.468173 232.145971 
L 208.22263 231.572407 
L 210.486002 230.234091 
L 211.24046 230.042904 
L 212.749375 229.316389 
L 213.503832 228.895776 
L 215.012747 228.36045 
L 219.539491 225.875006 
L 221.048406 225.377918 
L 223.311778 224.804354 
L 224.820693 224.421978 
L 225.57515 224.07784 
L 226.329608 223.963127 
L 227.838522 223.351326 
L 228.59298 222.892475 
L 231.610809 219.221666 
L 233.119724 216.965649 
L 234.628639 215.053769 
L 235.383096 214.174305 
L 236.137554 213.562503 
L 236.892011 212.453613 
L 237.646468 211.765337 
L 239.155383 209.776982 
L 241.418755 206.48855 
L 242.92767 203.888394 
L 245.191042 201.058812 
L 246.699957 199.682259 
L 247.454415 199.299883 
L 248.208872 198.726319 
L 250.472244 197.388004 
L 254.244531 193.334819 
L 254.998988 191.958266 
L 257.262361 186.413816 
L 258.771275 182.245919 
L 261.034648 175.898479 
L 262.543562 172.457096 
L 263.29802 171.080543 
L 265.561392 167.945061 
L 267.070307 165.536093 
L 267.824764 163.853639 
L 268.579221 162.591799 
L 272.351508 154.33248 
L 273.860423 150.852859 
L 275.369338 148.214466 
L 276.878253 145.155459 
L 279.896082 140.108097 
L 282.913912 133.760658 
L 283.668369 131.581115 
L 286.686199 124.583637 
L 287.440656 123.168846 
L 291.967401 113.150598 
L 292.721858 111.888757 
L 294.230773 109.135651 
L 294.98523 107.912048 
L 296.494145 105.19718 
L 298.757517 101.449896 
L 299.511975 100.952807 
L 300.266432 100.11158 
L 301.020889 99.079166 
L 303.284262 96.746673 
L 305.547634 93.917091 
L 307.811006 90.513946 
L 310.074378 86.575474 
L 311.583293 83.860606 
L 313.092208 81.795776 
L 315.35558 78.507343 
L 318.373409 72.656992 
L 319.127867 71.318677 
L 321.391239 66.309553 
L 322.145696 65.009475 
L 325.163526 58.547323 
L 325.917983 56.941344 
L 326.672441 55.679504 
L 327.426898 54.15 
L 327.426898 54.15 
" style="fill:none;stroke:#2ca02c;stroke-linecap:round;stroke-width:2.25;"/>
   </g>
   <g id="line2d_17">
    <path clip-path="url(#p7a3ab3ee03)" d="M 101.844138 348.35 
L 110.897627 348.273525 
L 113.915456 347.929387 
L 115.424371 347.547011 
L 116.178828 347.317585 
L 121.46003 344.526241 
L 122.214488 343.952677 
L 122.968945 343.149688 
L 123.723402 342.079036 
L 124.47786 340.778958 
L 125.232317 339.746543 
L 125.986775 338.943553 
L 130.513519 332.557876 
L 133.531348 327.089901 
L 135.040263 324.642696 
L 137.303635 321.851352 
L 138.81255 319.442384 
L 139.567008 318.371731 
L 141.075922 316.727515 
L 142.584837 314.165597 
L 144.848209 311.297777 
L 145.602667 310.800689 
L 147.866039 307.512256 
L 150.129411 302.617845 
L 151.638326 300.208877 
L 152.392783 299.023512 
L 153.147241 298.25876 
L 153.901698 297.14987 
L 159.1829 291.108331 
L 162.200729 286.711009 
L 162.955187 285.028555 
L 163.709644 283.652002 
L 166.727474 276.807473 
L 167.481931 275.469158 
L 168.236388 274.360268 
L 169.745303 271.836587 
L 170.499761 270.957122 
L 172.008675 268.77758 
L 175.026505 265.565623 
L 176.53542 263.844931 
L 178.044335 261.971289 
L 178.798792 261.32125 
L 182.571079 258.912282 
L 184.079994 257.306304 
L 185.588908 255.164999 
L 187.097823 251.914804 
L 188.606738 248.32047 
L 190.87011 242.317169 
L 191.624568 239.908201 
L 192.379025 237.116857 
L 193.88794 232.834247 
L 194.642397 230.310567 
L 196.151312 226.29562 
L 198.414684 220.062893 
L 199.923599 215.894996 
L 202.186971 211.650624 
L 203.695886 209.394606 
L 204.450343 208.209241 
L 205.204801 207.368014 
L 209.731545 199.911684 
L 210.486002 198.87927 
L 211.24046 197.464479 
L 212.749375 195.093748 
L 216.521661 188.861022 
L 218.030576 185.993202 
L 218.785034 184.807837 
L 220.293948 181.863543 
L 222.557321 177.695646 
L 223.311778 175.936717 
L 224.066235 174.521926 
L 224.820693 172.762997 
L 225.57515 171.424682 
L 227.084065 167.945061 
L 227.838522 166.644983 
L 228.59298 164.847816 
L 231.610809 160.259306 
L 234.628639 156.091409 
L 235.383096 155.326657 
L 236.892011 153.261827 
L 237.646468 151.961749 
L 239.155383 149.89692 
L 242.173213 145.117221 
L 247.454415 135.557824 
L 249.717787 132.078204 
L 251.226701 129.095672 
L 251.981159 128.33092 
L 252.735616 127.298505 
L 254.244531 125.921952 
L 255.753446 124.966012 
L 256.507903 124.660112 
L 258.016818 123.551222 
L 258.771275 123.054133 
L 259.525733 122.327619 
L 260.28019 121.409917 
L 261.034648 120.683403 
L 261.789105 120.148076 
L 264.052477 117.662633 
L 264.806935 116.897881 
L 265.561392 116.477268 
L 266.315849 115.903704 
L 267.824764 115.215428 
L 268.579221 114.794814 
L 270.088136 113.341786 
L 273.860423 110.512204 
L 274.614881 109.63274 
L 278.387168 106.688446 
L 283.668369 103.782389 
L 285.931742 102.864687 
L 287.440656 101.411658 
L 288.195114 100.493956 
L 290.458486 96.670198 
L 291.212943 95.217169 
L 292.721858 92.922914 
L 294.98523 90.055095 
L 297.248602 88.525591 
L 298.00306 88.181453 
L 299.511975 87.110801 
L 301.020889 86.728425 
L 304.038719 85.772485 
L 305.547634 85.69601 
L 307.056548 85.198921 
L 307.811006 85.045971 
L 313.092208 82.637003 
L 316.110037 80.036847 
L 317.618952 79.004432 
L 319.127867 77.972017 
L 319.882324 77.666116 
L 320.636782 77.092553 
L 322.145696 75.601287 
L 323.654611 74.224734 
L 324.409068 73.307031 
L 325.163526 72.618755 
L 327.426898 72.236379 
L 327.426898 72.236379 
" style="fill:none;stroke:#d62728;stroke-linecap:round;stroke-width:2.25;"/>
   </g>
   <g id="line2d_18">
    <path clip-path="url(#p7a3ab3ee03)" d="M 101.844138 348.35 
L 110.897627 348.273525 
L 113.915456 347.929387 
L 115.424371 347.547011 
L 116.178828 347.317585 
L 121.46003 344.526241 
L 122.214488 343.952677 
L 122.968945 343.149688 
L 128.250147 335.540408 
L 132.022434 329.345919 
L 132.776891 328.351742 
L 133.531348 327.013426 
L 134.285806 326.133962 
L 135.040263 324.986834 
L 137.303635 322.654341 
L 138.81255 321.0866 
L 144.093752 314.280309 
L 144.848209 313.247894 
L 145.602667 312.444905 
L 146.357124 311.450728 
L 150.129411 307.397544 
L 153.147241 305.944515 
L 153.901698 305.753327 
L 154.656155 305.71509 
L 156.16507 305.447427 
L 159.1829 305.065051 
L 160.691815 304.6062 
L 163.709644 303.688498 
L 164.464101 303.267884 
L 165.218559 302.464895 
L 165.973016 301.853093 
L 168.236388 299.482363 
L 170.499761 295.849792 
L 172.008675 294.129101 
L 175.780962 289.846491 
L 178.044335 288.011087 
L 178.798792 287.513998 
L 181.062164 284.913842 
L 182.571079 282.849012 
L 186.343366 276.119197 
L 187.097823 275.086782 
L 187.852281 273.824942 
L 188.606738 272.945477 
L 190.115653 270.765934 
L 190.87011 269.924708 
L 196.151312 266.292137 
L 198.414684 265.297959 
L 199.923599 264.227307 
L 201.432514 263.271367 
L 202.186971 262.927229 
L 202.941428 262.43014 
L 204.450343 261.780101 
L 207.468173 260.174123 
L 210.486002 258.338718 
L 211.24046 257.650442 
L 211.994917 257.191591 
L 213.503832 256.082701 
L 214.258289 255.92975 
L 215.767204 254.973811 
L 216.521661 254.438485 
L 217.276119 253.482545 
L 218.030576 252.985456 
L 219.539491 251.455953 
L 221.048406 250.23235 
L 221.802863 249.467598 
L 222.557321 248.970509 
L 223.311778 248.282233 
L 224.820693 246.676254 
L 226.329608 245.299701 
L 227.838522 243.961385 
L 228.59298 243.617247 
L 230.101895 242.584832 
L 234.628639 240.367052 
L 235.383096 240.137627 
L 236.892011 239.105212 
L 237.646468 238.378698 
L 239.909841 236.810957 
L 240.664298 236.007967 
L 241.418755 235.01379 
L 242.92767 233.598999 
L 243.682128 232.64306 
L 244.436585 231.954783 
L 247.454415 228.36045 
L 249.717787 224.957304 
L 250.472244 223.886652 
L 253.490074 220.827645 
L 254.244531 219.756992 
L 254.998988 219.221666 
L 257.262361 216.850936 
L 260.28019 214.900819 
L 262.543562 213.218365 
L 264.806935 210.235833 
L 265.561392 208.973993 
L 266.315849 208.018053 
L 267.824764 205.723798 
L 271.597051 198.649844 
L 273.105966 195.093748 
L 273.860423 193.526007 
L 276.123795 188.09627 
L 276.878253 186.681479 
L 278.387168 184.654887 
L 279.141625 183.698947 
L 279.896082 183.278334 
L 280.65054 182.513582 
L 282.159455 180.372277 
L 284.422827 176.892657 
L 286.686199 172.533572 
L 288.195114 170.048128 
L 290.458486 167.103834 
L 294.230773 159.073941 
L 295.739688 156.664973 
L 296.494145 155.173707 
L 301.775347 147.908565 
L 303.284262 146.799675 
L 304.793176 144.773083 
L 307.811006 140.452236 
L 312.33775 131.160502 
L 314.601122 127.06908 
L 317.618952 122.671757 
L 322.145696 117.318495 
L 322.900154 115.980179 
L 323.654611 114.871289 
L 325.163526 112.156421 
L 327.426898 108.6768 
L 327.426898 108.6768 
" style="fill:none;stroke:#9467bd;stroke-linecap:round;stroke-width:2.25;"/>
   </g>
   <g id="patch_3">
    <path d="M 90.565 363.06 
L 90.565 39.44 
" style="fill:none;stroke:#cccccc;stroke-linecap:square;stroke-linejoin:miter;stroke-width:1.875;"/>
   </g>
   <g id="patch_4">
    <path d="M 338.706036 363.06 
L 338.706036 39.44 
" style="fill:none;stroke:#cccccc;stroke-linecap:square;stroke-linejoin:miter;stroke-width:1.875;"/>
   </g>
   <g id="patch_5">
    <path d="M 90.565 363.06 
L 338.706036 363.06 
" style="fill:none;stroke:#cccccc;stroke-linecap:square;stroke-linejoin:miter;stroke-width:1.875;"/>
   </g>
   <g id="patch_6">
    <path d="M 90.565 39.44 
L 338.706036 39.44 
" style="fill:none;stroke:#cccccc;stroke-linecap:square;stroke-linejoin:miter;stroke-width:1.875;"/>
   </g>
   <g id="text_16">
    <!-- DRD2 -->
    <defs>
     <path d="M 7.71875 0 
L 7.71875 71.578125 
L 32.375 71.578125 
Q 40.71875 71.578125 45.125 70.5625 
Q 51.265625 69.140625 55.609375 65.4375 
Q 61.28125 60.640625 64.078125 53.1875 
Q 66.890625 45.75 66.890625 36.1875 
Q 66.890625 28.03125 64.984375 21.734375 
Q 63.09375 15.4375 60.109375 11.296875 
Q 57.125 7.171875 53.578125 4.796875 
Q 50.046875 2.4375 45.046875 1.21875 
Q 40.046875 0 33.546875 0 
z
M 17.1875 8.453125 
L 32.46875 8.453125 
Q 39.546875 8.453125 43.578125 9.765625 
Q 47.609375 11.078125 50 13.484375 
Q 53.375 16.84375 55.25 22.53125 
Q 57.125 28.21875 57.125 36.328125 
Q 57.125 47.5625 53.4375 53.59375 
Q 49.75 59.625 44.484375 61.671875 
Q 40.671875 63.140625 32.234375 63.140625 
L 17.1875 63.140625 
z
" id="ArialMT-68"/>
     <path d="M 7.859375 0 
L 7.859375 71.578125 
L 39.59375 71.578125 
Q 49.171875 71.578125 54.140625 69.640625 
Q 59.125 67.71875 62.109375 62.828125 
Q 65.09375 57.953125 65.09375 52.046875 
Q 65.09375 44.4375 60.15625 39.203125 
Q 55.21875 33.984375 44.921875 32.5625 
Q 48.6875 30.765625 50.640625 29 
Q 54.78125 25.203125 58.5 19.484375 
L 70.953125 0 
L 59.03125 0 
L 49.5625 14.890625 
Q 45.40625 21.34375 42.71875 24.75 
Q 40.046875 28.171875 37.921875 29.53125 
Q 35.796875 30.90625 33.59375 31.453125 
Q 31.984375 31.78125 28.328125 31.78125 
L 17.328125 31.78125 
L 17.328125 0 
z
M 17.328125 39.984375 
L 37.703125 39.984375 
Q 44.1875 39.984375 47.84375 41.328125 
Q 51.515625 42.671875 53.421875 45.625 
Q 55.328125 48.578125 55.328125 52.046875 
Q 55.328125 57.125 51.640625 60.390625 
Q 47.953125 63.671875 39.984375 63.671875 
L 17.328125 63.671875 
z
" id="ArialMT-82"/>
    </defs>
    <g style="fill:#262626;" transform="translate(190.131612 33.44)scale(0.18 -0.18)">
     <use xlink:href="#ArialMT-68"/>
     <use x="72.216797" xlink:href="#ArialMT-82"/>
     <use x="144.433594" xlink:href="#ArialMT-68"/>
     <use x="216.650391" xlink:href="#ArialMT-50"/>
    </g>
   </g>
  </g>
 </g>
 <defs>
  <clipPath id="p7a3ab3ee03">
   <rect height="323.62" width="248.141036" x="90.565" y="39.44"/>
  </clipPath>
 </defs>
</svg>
