<?xml version="1.0" encoding="utf-8" standalone="no"?>
<!DOCTYPE svg PUBLIC "-//W3C//DTD SVG 1.1//EN"
  "http://www.w3.org/Graphics/SVG/1.1/DTD/svg11.dtd">
<!-- Created with matplotlib (https://matplotlib.org/) -->
<svg height="432pt" version="1.1" viewBox="0 0 360 432" width="360pt" xmlns="http://www.w3.org/2000/svg" xmlns:xlink="http://www.w3.org/1999/xlink">
 <defs>
  <style type="text/css">
*{stroke-linecap:butt;stroke-linejoin:round;}
  </style>
 </defs>
 <g id="figure_1">
  <g id="patch_1">
   <path d="M 0 432 
L 360 432 
L 360 0 
L 0 0 
z
" style="fill:#ffffff;"/>
  </g>
  <g id="axes_1">
   <g id="patch_2">
    <path d="M 90.565 363.06 
L 337.341667 363.06 
L 337.341667 39.44 
L 90.565 39.44 
z
" style="fill:#ffffff;"/>
   </g>
   <g id="matplotlib.axis_1">
    <g id="xtick_1">
     <g id="line2d_1">
      <path clip-path="url(#pdf58b74ebb)" d="M 101.782121 363.06 
L 101.782121 39.44 
" style="fill:none;stroke:#cccccc;stroke-linecap:round;stroke-width:1.5;"/>
     </g>
     <g id="text_1">
      <!-- 0 -->
      <defs>
       <path d="M 4.15625 35.296875 
Q 4.15625 48 6.765625 55.734375 
Q 9.375 63.484375 14.515625 67.671875 
Q 19.671875 71.875 27.484375 71.875 
Q 33.25 71.875 37.59375 69.546875 
Q 41.9375 67.234375 44.765625 62.859375 
Q 47.609375 58.5 49.21875 52.21875 
Q 50.828125 45.953125 50.828125 35.296875 
Q 50.828125 22.703125 48.234375 14.96875 
Q 45.65625 7.234375 40.5 3 
Q 35.359375 -1.21875 27.484375 -1.21875 
Q 17.140625 -1.21875 11.234375 6.203125 
Q 4.15625 15.140625 4.15625 35.296875 
z
M 13.1875 35.296875 
Q 13.1875 17.671875 17.3125 11.828125 
Q 21.4375 6 27.484375 6 
Q 33.546875 6 37.671875 11.859375 
Q 41.796875 17.71875 41.796875 35.296875 
Q 41.796875 52.984375 37.671875 58.78125 
Q 33.546875 64.59375 27.390625 64.59375 
Q 21.34375 64.59375 17.71875 59.46875 
Q 13.1875 52.9375 13.1875 35.296875 
z
" id="ArialMT-48"/>
      </defs>
      <g style="fill:#262626;" transform="translate(97.194348 387.370391)scale(0.165 -0.165)">
       <use xlink:href="#ArialMT-48"/>
      </g>
     </g>
    </g>
    <g id="xtick_2">
     <g id="line2d_2">
      <path clip-path="url(#pdf58b74ebb)" d="M 176.813032 363.06 
L 176.813032 39.44 
" style="fill:none;stroke:#cccccc;stroke-linecap:round;stroke-width:1.5;"/>
     </g>
     <g id="text_2">
      <!-- 100 -->
      <defs>
       <path d="M 37.25 0 
L 28.46875 0 
L 28.46875 56 
Q 25.296875 52.984375 20.140625 49.953125 
Q 14.984375 46.921875 10.890625 45.40625 
L 10.890625 53.90625 
Q 18.265625 57.375 23.78125 62.296875 
Q 29.296875 67.234375 31.59375 71.875 
L 37.25 71.875 
z
" id="ArialMT-49"/>
      </defs>
      <g style="fill:#262626;" transform="translate(163.049712 387.370391)scale(0.165 -0.165)">
       <use xlink:href="#ArialMT-49"/>
       <use x="55.615234" xlink:href="#ArialMT-48"/>
       <use x="111.230469" xlink:href="#ArialMT-48"/>
      </g>
     </g>
    </g>
    <g id="xtick_3">
     <g id="line2d_3">
      <path clip-path="url(#pdf58b74ebb)" d="M 251.843943 363.06 
L 251.843943 39.44 
" style="fill:none;stroke:#cccccc;stroke-linecap:round;stroke-width:1.5;"/>
     </g>
     <g id="text_3">
      <!-- 200 -->
      <defs>
       <path d="M 50.34375 8.453125 
L 50.34375 0 
L 3.03125 0 
Q 2.9375 3.171875 4.046875 6.109375 
Q 5.859375 10.9375 9.828125 15.625 
Q 13.8125 20.3125 21.34375 26.46875 
Q 33.015625 36.03125 37.109375 41.625 
Q 41.21875 47.21875 41.21875 52.203125 
Q 41.21875 57.421875 37.46875 61 
Q 33.734375 64.59375 27.734375 64.59375 
Q 21.390625 64.59375 17.578125 60.78125 
Q 13.765625 56.984375 13.71875 50.25 
L 4.6875 51.171875 
Q 5.609375 61.28125 11.65625 66.578125 
Q 17.71875 71.875 27.9375 71.875 
Q 38.234375 71.875 44.234375 66.15625 
Q 50.25 60.453125 50.25 52 
Q 50.25 47.703125 48.484375 43.546875 
Q 46.734375 39.40625 42.65625 34.8125 
Q 38.578125 30.21875 29.109375 22.21875 
Q 21.1875 15.578125 18.9375 13.203125 
Q 16.703125 10.84375 15.234375 8.453125 
z
" id="ArialMT-50"/>
      </defs>
      <g style="fill:#262626;" transform="translate(238.080623 387.370391)scale(0.165 -0.165)">
       <use xlink:href="#ArialMT-50"/>
       <use x="55.615234" xlink:href="#ArialMT-48"/>
       <use x="111.230469" xlink:href="#ArialMT-48"/>
      </g>
     </g>
    </g>
    <g id="xtick_4">
     <g id="line2d_4">
      <path clip-path="url(#pdf58b74ebb)" d="M 326.874855 363.06 
L 326.874855 39.44 
" style="fill:none;stroke:#cccccc;stroke-linecap:round;stroke-width:1.5;"/>
     </g>
     <g id="text_4">
      <!-- 300 -->
      <defs>
       <path d="M 4.203125 18.890625 
L 12.984375 20.0625 
Q 14.5 12.59375 18.140625 9.296875 
Q 21.78125 6 27 6 
Q 33.203125 6 37.46875 10.296875 
Q 41.75 14.59375 41.75 20.953125 
Q 41.75 27 37.796875 30.921875 
Q 33.84375 34.859375 27.734375 34.859375 
Q 25.25 34.859375 21.53125 33.890625 
L 22.515625 41.609375 
Q 23.390625 41.5 23.921875 41.5 
Q 29.546875 41.5 34.03125 44.421875 
Q 38.53125 47.359375 38.53125 53.46875 
Q 38.53125 58.296875 35.25 61.46875 
Q 31.984375 64.65625 26.8125 64.65625 
Q 21.6875 64.65625 18.265625 61.421875 
Q 14.84375 58.203125 13.875 51.765625 
L 5.078125 53.328125 
Q 6.6875 62.15625 12.390625 67.015625 
Q 18.109375 71.875 26.609375 71.875 
Q 32.46875 71.875 37.390625 69.359375 
Q 42.328125 66.84375 44.9375 62.5 
Q 47.5625 58.15625 47.5625 53.265625 
Q 47.5625 48.640625 45.0625 44.828125 
Q 42.578125 41.015625 37.703125 38.765625 
Q 44.046875 37.3125 47.5625 32.6875 
Q 51.078125 28.078125 51.078125 21.140625 
Q 51.078125 11.765625 44.234375 5.25 
Q 37.40625 -1.265625 26.953125 -1.265625 
Q 17.53125 -1.265625 11.296875 4.34375 
Q 5.078125 9.96875 4.203125 18.890625 
z
" id="ArialMT-51"/>
      </defs>
      <g style="fill:#262626;" transform="translate(313.111534 387.370391)scale(0.165 -0.165)">
       <use xlink:href="#ArialMT-51"/>
       <use x="55.615234" xlink:href="#ArialMT-48"/>
       <use x="111.230469" xlink:href="#ArialMT-48"/>
      </g>
     </g>
    </g>
    <g id="text_5">
     <!-- Iteration -->
     <defs>
      <path d="M 9.328125 0 
L 9.328125 71.578125 
L 18.796875 71.578125 
L 18.796875 0 
z
" id="ArialMT-73"/>
      <path d="M 25.78125 7.859375 
L 27.046875 0.09375 
Q 23.34375 -0.6875 20.40625 -0.6875 
Q 15.625 -0.6875 12.984375 0.828125 
Q 10.359375 2.34375 9.28125 4.8125 
Q 8.203125 7.28125 8.203125 15.1875 
L 8.203125 45.015625 
L 1.765625 45.015625 
L 1.765625 51.859375 
L 8.203125 51.859375 
L 8.203125 64.703125 
L 16.9375 69.96875 
L 16.9375 51.859375 
L 25.78125 51.859375 
L 25.78125 45.015625 
L 16.9375 45.015625 
L 16.9375 14.703125 
Q 16.9375 10.9375 17.40625 9.859375 
Q 17.875 8.796875 18.921875 8.15625 
Q 19.96875 7.515625 21.921875 7.515625 
Q 23.390625 7.515625 25.78125 7.859375 
z
" id="ArialMT-116"/>
      <path d="M 42.09375 16.703125 
L 51.171875 15.578125 
Q 49.03125 7.625 43.21875 3.21875 
Q 37.40625 -1.171875 28.375 -1.171875 
Q 17 -1.171875 10.328125 5.828125 
Q 3.65625 12.84375 3.65625 25.484375 
Q 3.65625 38.578125 10.390625 45.796875 
Q 17.140625 53.03125 27.875 53.03125 
Q 38.28125 53.03125 44.875 45.953125 
Q 51.46875 38.875 51.46875 26.03125 
Q 51.46875 25.25 51.421875 23.6875 
L 12.75 23.6875 
Q 13.234375 15.140625 17.578125 10.59375 
Q 21.921875 6.0625 28.421875 6.0625 
Q 33.25 6.0625 36.671875 8.59375 
Q 40.09375 11.140625 42.09375 16.703125 
z
M 13.234375 30.90625 
L 42.1875 30.90625 
Q 41.609375 37.453125 38.875 40.71875 
Q 34.671875 45.796875 27.984375 45.796875 
Q 21.921875 45.796875 17.796875 41.75 
Q 13.671875 37.703125 13.234375 30.90625 
z
" id="ArialMT-101"/>
      <path d="M 6.5 0 
L 6.5 51.859375 
L 14.40625 51.859375 
L 14.40625 44 
Q 17.4375 49.515625 20 51.265625 
Q 22.5625 53.03125 25.640625 53.03125 
Q 30.078125 53.03125 34.671875 50.203125 
L 31.640625 42.046875 
Q 28.421875 43.953125 25.203125 43.953125 
Q 22.3125 43.953125 20.015625 42.21875 
Q 17.71875 40.484375 16.75 37.40625 
Q 15.28125 32.71875 15.28125 27.15625 
L 15.28125 0 
z
" id="ArialMT-114"/>
      <path d="M 40.4375 6.390625 
Q 35.546875 2.25 31.03125 0.53125 
Q 26.515625 -1.171875 21.34375 -1.171875 
Q 12.796875 -1.171875 8.203125 3 
Q 3.609375 7.171875 3.609375 13.671875 
Q 3.609375 17.484375 5.34375 20.625 
Q 7.078125 23.78125 9.890625 25.6875 
Q 12.703125 27.59375 16.21875 28.5625 
Q 18.796875 29.25 24.03125 29.890625 
Q 34.671875 31.15625 39.703125 32.90625 
Q 39.75 34.71875 39.75 35.203125 
Q 39.75 40.578125 37.25 42.78125 
Q 33.890625 45.75 27.25 45.75 
Q 21.046875 45.75 18.09375 43.578125 
Q 15.140625 41.40625 13.71875 35.890625 
L 5.125 37.0625 
Q 6.296875 42.578125 8.984375 45.96875 
Q 11.671875 49.359375 16.75 51.1875 
Q 21.828125 53.03125 28.515625 53.03125 
Q 35.15625 53.03125 39.296875 51.46875 
Q 43.453125 49.90625 45.40625 47.53125 
Q 47.359375 45.171875 48.140625 41.546875 
Q 48.578125 39.3125 48.578125 33.453125 
L 48.578125 21.734375 
Q 48.578125 9.46875 49.140625 6.21875 
Q 49.703125 2.984375 51.375 0 
L 42.1875 0 
Q 40.828125 2.734375 40.4375 6.390625 
z
M 39.703125 26.03125 
Q 34.90625 24.078125 25.34375 22.703125 
Q 19.921875 21.921875 17.671875 20.9375 
Q 15.4375 19.96875 14.203125 18.09375 
Q 12.984375 16.21875 12.984375 13.921875 
Q 12.984375 10.40625 15.640625 8.0625 
Q 18.3125 5.71875 23.4375 5.71875 
Q 28.515625 5.71875 32.46875 7.9375 
Q 36.421875 10.15625 38.28125 14.015625 
Q 39.703125 17 39.703125 22.796875 
z
" id="ArialMT-97"/>
      <path d="M 6.640625 61.46875 
L 6.640625 71.578125 
L 15.4375 71.578125 
L 15.4375 61.46875 
z
M 6.640625 0 
L 6.640625 51.859375 
L 15.4375 51.859375 
L 15.4375 0 
z
" id="ArialMT-105"/>
      <path d="M 3.328125 25.921875 
Q 3.328125 40.328125 11.328125 47.265625 
Q 18.015625 53.03125 27.640625 53.03125 
Q 38.328125 53.03125 45.109375 46.015625 
Q 51.90625 39.015625 51.90625 26.65625 
Q 51.90625 16.65625 48.90625 10.90625 
Q 45.90625 5.171875 40.15625 2 
Q 34.421875 -1.171875 27.640625 -1.171875 
Q 16.75 -1.171875 10.03125 5.8125 
Q 3.328125 12.796875 3.328125 25.921875 
z
M 12.359375 25.921875 
Q 12.359375 15.96875 16.703125 11.015625 
Q 21.046875 6.0625 27.640625 6.0625 
Q 34.1875 6.0625 38.53125 11.03125 
Q 42.875 16.015625 42.875 26.21875 
Q 42.875 35.84375 38.5 40.796875 
Q 34.125 45.75 27.640625 45.75 
Q 21.046875 45.75 16.703125 40.8125 
Q 12.359375 35.890625 12.359375 25.921875 
z
" id="ArialMT-111"/>
      <path d="M 6.59375 0 
L 6.59375 51.859375 
L 14.5 51.859375 
L 14.5 44.484375 
Q 20.21875 53.03125 31 53.03125 
Q 35.6875 53.03125 39.625 51.34375 
Q 43.5625 49.65625 45.515625 46.921875 
Q 47.46875 44.1875 48.25 40.4375 
Q 48.734375 37.984375 48.734375 31.890625 
L 48.734375 0 
L 39.9375 0 
L 39.9375 31.546875 
Q 39.9375 36.921875 38.90625 39.578125 
Q 37.890625 42.234375 35.28125 43.8125 
Q 32.671875 45.40625 29.15625 45.40625 
Q 23.53125 45.40625 19.453125 41.84375 
Q 15.375 38.28125 15.375 28.328125 
L 15.375 0 
z
" id="ArialMT-110"/>
     </defs>
     <g style="fill:#262626;" transform="translate(181.436615 407.533828)scale(0.18 -0.18)">
      <use xlink:href="#ArialMT-73"/>
      <use x="27.783203" xlink:href="#ArialMT-116"/>
      <use x="55.566406" xlink:href="#ArialMT-101"/>
      <use x="111.181641" xlink:href="#ArialMT-114"/>
      <use x="144.482422" xlink:href="#ArialMT-97"/>
      <use x="200.097656" xlink:href="#ArialMT-116"/>
      <use x="227.880859" xlink:href="#ArialMT-105"/>
      <use x="250.097656" xlink:href="#ArialMT-111"/>
      <use x="305.712891" xlink:href="#ArialMT-110"/>
     </g>
    </g>
   </g>
   <g id="matplotlib.axis_2">
    <g id="ytick_1">
     <g id="line2d_5">
      <path clip-path="url(#pdf58b74ebb)" d="M 90.565 348.35 
L 337.341667 348.35 
" style="fill:none;stroke:#cccccc;stroke-linecap:round;stroke-width:1.5;"/>
     </g>
     <g id="text_6">
      <!-- 0 -->
      <g style="fill:#262626;" transform="translate(68.889453 354.255195)scale(0.165 -0.165)">
       <use xlink:href="#ArialMT-48"/>
      </g>
     </g>
    </g>
    <g id="ytick_2">
     <g id="line2d_6">
      <path clip-path="url(#pdf58b74ebb)" d="M 90.565 309.882427 
L 337.341667 309.882427 
" style="fill:none;stroke:#cccccc;stroke-linecap:round;stroke-width:1.5;"/>
     </g>
     <g id="text_7">
      <!-- 500 -->
      <defs>
       <path d="M 4.15625 18.75 
L 13.375 19.53125 
Q 14.40625 12.796875 18.140625 9.390625 
Q 21.875 6 27.15625 6 
Q 33.5 6 37.890625 10.78125 
Q 42.28125 15.578125 42.28125 23.484375 
Q 42.28125 31 38.0625 35.34375 
Q 33.84375 39.703125 27 39.703125 
Q 22.75 39.703125 19.328125 37.765625 
Q 15.921875 35.84375 13.96875 32.765625 
L 5.71875 33.84375 
L 12.640625 70.609375 
L 48.25 70.609375 
L 48.25 62.203125 
L 19.671875 62.203125 
L 15.828125 42.96875 
Q 22.265625 47.46875 29.34375 47.46875 
Q 38.71875 47.46875 45.15625 40.96875 
Q 51.609375 34.46875 51.609375 24.265625 
Q 51.609375 14.546875 45.953125 7.46875 
Q 39.0625 -1.21875 27.15625 -1.21875 
Q 17.390625 -1.21875 11.203125 4.25 
Q 5.03125 9.71875 4.15625 18.75 
z
" id="ArialMT-53"/>
      </defs>
      <g style="fill:#262626;" transform="translate(50.538359 315.787622)scale(0.165 -0.165)">
       <use xlink:href="#ArialMT-53"/>
       <use x="55.615234" xlink:href="#ArialMT-48"/>
       <use x="111.230469" xlink:href="#ArialMT-48"/>
      </g>
     </g>
    </g>
    <g id="ytick_3">
     <g id="line2d_7">
      <path clip-path="url(#pdf58b74ebb)" d="M 90.565 271.414854 
L 337.341667 271.414854 
" style="fill:none;stroke:#cccccc;stroke-linecap:round;stroke-width:1.5;"/>
     </g>
     <g id="text_8">
      <!-- 1000 -->
      <g style="fill:#262626;" transform="translate(41.362812 277.320049)scale(0.165 -0.165)">
       <use xlink:href="#ArialMT-49"/>
       <use x="55.615234" xlink:href="#ArialMT-48"/>
       <use x="111.230469" xlink:href="#ArialMT-48"/>
       <use x="166.845703" xlink:href="#ArialMT-48"/>
      </g>
     </g>
    </g>
    <g id="ytick_4">
     <g id="line2d_8">
      <path clip-path="url(#pdf58b74ebb)" d="M 90.565 232.94728 
L 337.341667 232.94728 
" style="fill:none;stroke:#cccccc;stroke-linecap:round;stroke-width:1.5;"/>
     </g>
     <g id="text_9">
      <!-- 1500 -->
      <g style="fill:#262626;" transform="translate(41.362812 238.852476)scale(0.165 -0.165)">
       <use xlink:href="#ArialMT-49"/>
       <use x="55.615234" xlink:href="#ArialMT-53"/>
       <use x="111.230469" xlink:href="#ArialMT-48"/>
       <use x="166.845703" xlink:href="#ArialMT-48"/>
      </g>
     </g>
    </g>
    <g id="ytick_5">
     <g id="line2d_9">
      <path clip-path="url(#pdf58b74ebb)" d="M 90.565 194.479707 
L 337.341667 194.479707 
" style="fill:none;stroke:#cccccc;stroke-linecap:round;stroke-width:1.5;"/>
     </g>
     <g id="text_10">
      <!-- 2000 -->
      <g style="fill:#262626;" transform="translate(41.362812 200.384902)scale(0.165 -0.165)">
       <use xlink:href="#ArialMT-50"/>
       <use x="55.615234" xlink:href="#ArialMT-48"/>
       <use x="111.230469" xlink:href="#ArialMT-48"/>
       <use x="166.845703" xlink:href="#ArialMT-48"/>
      </g>
     </g>
    </g>
    <g id="ytick_6">
     <g id="line2d_10">
      <path clip-path="url(#pdf58b74ebb)" d="M 90.565 156.012134 
L 337.341667 156.012134 
" style="fill:none;stroke:#cccccc;stroke-linecap:round;stroke-width:1.5;"/>
     </g>
     <g id="text_11">
      <!-- 2500 -->
      <g style="fill:#262626;" transform="translate(41.362812 161.917329)scale(0.165 -0.165)">
       <use xlink:href="#ArialMT-50"/>
       <use x="55.615234" xlink:href="#ArialMT-53"/>
       <use x="111.230469" xlink:href="#ArialMT-48"/>
       <use x="166.845703" xlink:href="#ArialMT-48"/>
      </g>
     </g>
    </g>
    <g id="ytick_7">
     <g id="line2d_11">
      <path clip-path="url(#pdf58b74ebb)" d="M 90.565 117.544561 
L 337.341667 117.544561 
" style="fill:none;stroke:#cccccc;stroke-linecap:round;stroke-width:1.5;"/>
     </g>
     <g id="text_12">
      <!-- 3000 -->
      <g style="fill:#262626;" transform="translate(41.362812 123.449756)scale(0.165 -0.165)">
       <use xlink:href="#ArialMT-51"/>
       <use x="55.615234" xlink:href="#ArialMT-48"/>
       <use x="111.230469" xlink:href="#ArialMT-48"/>
       <use x="166.845703" xlink:href="#ArialMT-48"/>
      </g>
     </g>
    </g>
    <g id="ytick_8">
     <g id="line2d_12">
      <path clip-path="url(#pdf58b74ebb)" d="M 90.565 79.076987 
L 337.341667 79.076987 
" style="fill:none;stroke:#cccccc;stroke-linecap:round;stroke-width:1.5;"/>
     </g>
     <g id="text_13">
      <!-- 3500 -->
      <g style="fill:#262626;" transform="translate(41.362812 84.982183)scale(0.165 -0.165)">
       <use xlink:href="#ArialMT-51"/>
       <use x="55.615234" xlink:href="#ArialMT-53"/>
       <use x="111.230469" xlink:href="#ArialMT-48"/>
       <use x="166.845703" xlink:href="#ArialMT-48"/>
      </g>
     </g>
    </g>
    <g id="ytick_9">
     <g id="line2d_13">
      <path clip-path="url(#pdf58b74ebb)" d="M 90.565 40.609414 
L 337.341667 40.609414 
" style="fill:none;stroke:#cccccc;stroke-linecap:round;stroke-width:1.5;"/>
     </g>
     <g id="text_14">
      <!-- 4000 -->
      <defs>
       <path d="M 32.328125 0 
L 32.328125 17.140625 
L 1.265625 17.140625 
L 1.265625 25.203125 
L 33.9375 71.578125 
L 41.109375 71.578125 
L 41.109375 25.203125 
L 50.78125 25.203125 
L 50.78125 17.140625 
L 41.109375 17.140625 
L 41.109375 0 
z
M 32.328125 25.203125 
L 32.328125 57.46875 
L 9.90625 25.203125 
z
" id="ArialMT-52"/>
      </defs>
      <g style="fill:#262626;" transform="translate(41.362812 46.51461)scale(0.165 -0.165)">
       <use xlink:href="#ArialMT-52"/>
       <use x="55.615234" xlink:href="#ArialMT-48"/>
       <use x="111.230469" xlink:href="#ArialMT-48"/>
       <use x="166.845703" xlink:href="#ArialMT-48"/>
      </g>
     </g>
    </g>
    <g id="text_15">
     <!-- No. generated carbon skeletons -->
     <defs>
      <path d="M 7.625 0 
L 7.625 71.578125 
L 17.328125 71.578125 
L 54.9375 15.375 
L 54.9375 71.578125 
L 64.015625 71.578125 
L 64.015625 0 
L 54.296875 0 
L 16.703125 56.25 
L 16.703125 0 
z
" id="ArialMT-78"/>
      <path d="M 9.078125 0 
L 9.078125 10.015625 
L 19.09375 10.015625 
L 19.09375 0 
z
" id="ArialMT-46"/>
      <path id="ArialMT-32"/>
      <path d="M 4.984375 -4.296875 
L 13.53125 -5.5625 
Q 14.0625 -9.515625 16.5 -11.328125 
Q 19.78125 -13.765625 25.4375 -13.765625 
Q 31.546875 -13.765625 34.859375 -11.328125 
Q 38.1875 -8.890625 39.359375 -4.5 
Q 40.046875 -1.8125 39.984375 6.78125 
Q 34.234375 0 25.640625 0 
Q 14.9375 0 9.078125 7.71875 
Q 3.21875 15.4375 3.21875 26.21875 
Q 3.21875 33.640625 5.90625 39.90625 
Q 8.59375 46.1875 13.6875 49.609375 
Q 18.796875 53.03125 25.6875 53.03125 
Q 34.859375 53.03125 40.828125 45.609375 
L 40.828125 51.859375 
L 48.921875 51.859375 
L 48.921875 7.03125 
Q 48.921875 -5.078125 46.453125 -10.125 
Q 44 -15.1875 38.640625 -18.109375 
Q 33.296875 -21.046875 25.484375 -21.046875 
Q 16.21875 -21.046875 10.5 -16.875 
Q 4.78125 -12.703125 4.984375 -4.296875 
z
M 12.25 26.859375 
Q 12.25 16.65625 16.296875 11.96875 
Q 20.359375 7.28125 26.46875 7.28125 
Q 32.515625 7.28125 36.609375 11.9375 
Q 40.71875 16.609375 40.71875 26.5625 
Q 40.71875 36.078125 36.5 40.90625 
Q 32.28125 45.75 26.3125 45.75 
Q 20.453125 45.75 16.34375 40.984375 
Q 12.25 36.234375 12.25 26.859375 
z
" id="ArialMT-103"/>
      <path d="M 40.234375 0 
L 40.234375 6.546875 
Q 35.296875 -1.171875 25.734375 -1.171875 
Q 19.53125 -1.171875 14.328125 2.25 
Q 9.125 5.671875 6.265625 11.796875 
Q 3.421875 17.921875 3.421875 25.875 
Q 3.421875 33.640625 6 39.96875 
Q 8.59375 46.296875 13.765625 49.65625 
Q 18.953125 53.03125 25.34375 53.03125 
Q 30.03125 53.03125 33.6875 51.046875 
Q 37.359375 49.078125 39.65625 45.90625 
L 39.65625 71.578125 
L 48.390625 71.578125 
L 48.390625 0 
z
M 12.453125 25.875 
Q 12.453125 15.921875 16.640625 10.984375 
Q 20.84375 6.0625 26.5625 6.0625 
Q 32.328125 6.0625 36.34375 10.765625 
Q 40.375 15.484375 40.375 25.140625 
Q 40.375 35.796875 36.265625 40.765625 
Q 32.171875 45.75 26.171875 45.75 
Q 20.3125 45.75 16.375 40.96875 
Q 12.453125 36.1875 12.453125 25.875 
z
" id="ArialMT-100"/>
      <path d="M 40.4375 19 
L 49.078125 17.875 
Q 47.65625 8.9375 41.8125 3.875 
Q 35.984375 -1.171875 27.484375 -1.171875 
Q 16.84375 -1.171875 10.375 5.78125 
Q 3.90625 12.75 3.90625 25.734375 
Q 3.90625 34.125 6.6875 40.421875 
Q 9.46875 46.734375 15.15625 49.875 
Q 20.84375 53.03125 27.546875 53.03125 
Q 35.984375 53.03125 41.359375 48.75 
Q 46.734375 44.484375 48.25 36.625 
L 39.703125 35.296875 
Q 38.484375 40.53125 35.375 43.15625 
Q 32.28125 45.796875 27.875 45.796875 
Q 21.234375 45.796875 17.078125 41.03125 
Q 12.9375 36.28125 12.9375 25.984375 
Q 12.9375 15.53125 16.9375 10.796875 
Q 20.953125 6.0625 27.390625 6.0625 
Q 32.5625 6.0625 36.03125 9.234375 
Q 39.5 12.40625 40.4375 19 
z
" id="ArialMT-99"/>
      <path d="M 14.703125 0 
L 6.546875 0 
L 6.546875 71.578125 
L 15.328125 71.578125 
L 15.328125 46.046875 
Q 20.90625 53.03125 29.546875 53.03125 
Q 34.328125 53.03125 38.59375 51.09375 
Q 42.875 49.171875 45.625 45.671875 
Q 48.390625 42.1875 49.953125 37.25 
Q 51.515625 32.328125 51.515625 26.703125 
Q 51.515625 13.375 44.921875 6.09375 
Q 38.328125 -1.171875 29.109375 -1.171875 
Q 19.921875 -1.171875 14.703125 6.5 
z
M 14.59375 26.3125 
Q 14.59375 17 17.140625 12.84375 
Q 21.296875 6.0625 28.375 6.0625 
Q 34.125 6.0625 38.328125 11.0625 
Q 42.53125 16.0625 42.53125 25.984375 
Q 42.53125 36.140625 38.5 40.96875 
Q 34.46875 45.796875 28.765625 45.796875 
Q 23 45.796875 18.796875 40.796875 
Q 14.59375 35.796875 14.59375 26.3125 
z
" id="ArialMT-98"/>
      <path d="M 3.078125 15.484375 
L 11.765625 16.84375 
Q 12.5 11.625 15.84375 8.84375 
Q 19.1875 6.0625 25.203125 6.0625 
Q 31.25 6.0625 34.171875 8.515625 
Q 37.109375 10.984375 37.109375 14.3125 
Q 37.109375 17.28125 34.515625 19 
Q 32.71875 20.171875 25.53125 21.96875 
Q 15.875 24.421875 12.140625 26.203125 
Q 8.40625 27.984375 6.46875 31.125 
Q 4.546875 34.28125 4.546875 38.09375 
Q 4.546875 41.546875 6.125 44.5 
Q 7.71875 47.46875 10.453125 49.421875 
Q 12.5 50.921875 16.03125 51.96875 
Q 19.578125 53.03125 23.640625 53.03125 
Q 29.734375 53.03125 34.34375 51.265625 
Q 38.96875 49.515625 41.15625 46.5 
Q 43.359375 43.5 44.1875 38.484375 
L 35.59375 37.3125 
Q 35.015625 41.3125 32.203125 43.546875 
Q 29.390625 45.796875 24.265625 45.796875 
Q 18.21875 45.796875 15.625 43.796875 
Q 13.03125 41.796875 13.03125 39.109375 
Q 13.03125 37.40625 14.109375 36.03125 
Q 15.1875 34.625 17.484375 33.6875 
Q 18.796875 33.203125 25.25 31.453125 
Q 34.578125 28.953125 38.25 27.359375 
Q 41.9375 25.78125 44.03125 22.75 
Q 46.140625 19.734375 46.140625 15.234375 
Q 46.140625 10.84375 43.578125 6.953125 
Q 41.015625 3.078125 36.171875 0.953125 
Q 31.34375 -1.171875 25.25 -1.171875 
Q 15.140625 -1.171875 9.84375 3.03125 
Q 4.546875 7.234375 3.078125 15.484375 
z
" id="ArialMT-115"/>
      <path d="M 6.640625 0 
L 6.640625 71.578125 
L 15.4375 71.578125 
L 15.4375 30.765625 
L 36.234375 51.859375 
L 47.609375 51.859375 
L 27.78125 32.625 
L 49.609375 0 
L 38.765625 0 
L 21.625 26.515625 
L 15.4375 20.5625 
L 15.4375 0 
z
" id="ArialMT-107"/>
      <path d="M 6.390625 0 
L 6.390625 71.578125 
L 15.1875 71.578125 
L 15.1875 0 
z
" id="ArialMT-108"/>
     </defs>
     <g style="fill:#262626;" transform="translate(33.574375 328.822187)rotate(-90)scale(0.18 -0.18)">
      <use xlink:href="#ArialMT-78"/>
      <use x="72.216797" xlink:href="#ArialMT-111"/>
      <use x="127.832031" xlink:href="#ArialMT-46"/>
      <use x="155.615234" xlink:href="#ArialMT-32"/>
      <use x="183.398438" xlink:href="#ArialMT-103"/>
      <use x="239.013672" xlink:href="#ArialMT-101"/>
      <use x="294.628906" xlink:href="#ArialMT-110"/>
      <use x="350.244141" xlink:href="#ArialMT-101"/>
      <use x="405.859375" xlink:href="#ArialMT-114"/>
      <use x="439.160156" xlink:href="#ArialMT-97"/>
      <use x="494.775391" xlink:href="#ArialMT-116"/>
      <use x="522.558594" xlink:href="#ArialMT-101"/>
      <use x="578.173828" xlink:href="#ArialMT-100"/>
      <use x="633.789062" xlink:href="#ArialMT-32"/>
      <use x="661.572266" xlink:href="#ArialMT-99"/>
      <use x="711.572266" xlink:href="#ArialMT-97"/>
      <use x="767.1875" xlink:href="#ArialMT-114"/>
      <use x="800.488281" xlink:href="#ArialMT-98"/>
      <use x="856.103516" xlink:href="#ArialMT-111"/>
      <use x="911.71875" xlink:href="#ArialMT-110"/>
      <use x="967.333984" xlink:href="#ArialMT-32"/>
      <use x="995.117188" xlink:href="#ArialMT-115"/>
      <use x="1045.117188" xlink:href="#ArialMT-107"/>
      <use x="1095.117188" xlink:href="#ArialMT-101"/>
      <use x="1150.732422" xlink:href="#ArialMT-108"/>
      <use x="1172.949219" xlink:href="#ArialMT-101"/>
      <use x="1228.564453" xlink:href="#ArialMT-116"/>
      <use x="1256.347656" xlink:href="#ArialMT-111"/>
      <use x="1311.962891" xlink:href="#ArialMT-110"/>
      <use x="1367.578125" xlink:href="#ArialMT-115"/>
     </g>
    </g>
   </g>
   <g id="line2d_14">
    <path clip-path="url(#pdf58b74ebb)" d="M 101.782121 348.35 
L 108.534903 348.273065 
L 110.035521 348.19613 
L 111.53614 348.119195 
L 112.286449 347.811454 
L 114.537376 347.503713 
L 115.287685 347.119038 
L 116.788303 346.734362 
L 117.538613 346.272751 
L 118.288922 345.96501 
L 119.039231 345.81114 
L 119.78954 345.349529 
L 121.290158 344.734048 
L 122.790776 343.426151 
L 123.541085 343.195345 
L 124.291395 342.733734 
L 125.041704 342.118253 
L 125.792013 341.348902 
L 127.292631 341.041161 
L 128.04294 340.57955 
L 129.543558 340.27181 
L 131.794486 338.963912 
L 132.544795 338.886977 
L 134.045413 338.502301 
L 134.795722 338.502301 
L 135.546031 338.348431 
L 137.046649 338.271496 
L 137.796959 337.73295 
L 138.547268 337.579079 
L 139.297577 337.040533 
L 140.798195 336.271182 
L 141.548504 336.117312 
L 142.298813 335.809571 
L 143.799431 334.963285 
L 144.549741 334.655544 
L 146.800668 334.270868 
L 147.550977 334.193933 
L 149.051595 333.809257 
L 152.052832 333.424582 
L 156.554686 332.578295 
L 158.805614 332.50136 
L 160.306232 332.270554 
L 162.557159 332.193619 
L 166.308705 331.885879 
L 167.809323 331.808944 
L 172.311178 331.424268 
L 173.811796 331.424268 
L 175.312414 331.193462 
L 180.564578 331.116527 
L 182.815505 330.962657 
L 188.067669 330.885722 
L 191.068905 330.654916 
L 193.319833 330.577981 
L 196.321069 330.347176 
L 198.571997 330.347176 
L 200.072615 329.9625 
L 201.573233 329.731695 
L 209.826633 329.654759 
L 211.327251 329.577824 
L 215.078797 329.500889 
L 221.831579 328.808473 
L 222.581888 328.577667 
L 225.583125 328.500732 
L 227.083743 328.116056 
L 229.33467 327.962186 
L 233.836525 327.885251 
L 236.837761 327.654446 
L 241.339616 327.57751 
L 244.340852 327.346705 
L 245.841471 327.26977 
L 246.59178 327.1159 
L 248.092398 327.038964 
L 248.842707 326.885094 
L 249.593016 326.885094 
L 251.093634 326.577354 
L 254.094871 326.500418 
L 256.345798 326.346548 
L 258.596725 326.269613 
L 263.09858 325.884937 
L 264.599198 325.808002 
L 270.601671 325.269456 
L 271.35198 325.269456 
L 272.102289 325.115586 
L 273.602908 325.038651 
L 276.604144 324.807845 
L 278.104762 324.73091 
L 279.605381 324.500105 
L 284.107235 324.423169 
L 287.858781 324.115429 
L 291.610326 324.038494 
L 296.112181 323.653818 
L 305.866199 323.576883 
L 307.366818 323.499948 
L 323.873618 323.423013 
L 325.374236 323.346077 
L 326.124545 323.346077 
L 326.124545 323.346077 
" style="fill:none;stroke:#1f77b4;stroke-linecap:round;stroke-width:2.25;"/>
   </g>
   <g id="line2d_15">
    <path clip-path="url(#pdf58b74ebb)" d="M 101.782121 348.35 
L 108.534903 348.273065 
L 110.035521 348.19613 
L 110.785831 348.19613 
L 113.787067 347.503713 
L 114.537376 347.195973 
L 116.037994 346.272751 
L 117.538613 344.810983 
L 118.288922 344.195502 
L 119.039231 343.426151 
L 122.040467 338.963912 
L 122.790776 337.040533 
L 123.541085 335.578766 
L 124.291395 333.655387 
L 125.792013 330.654916 
L 126.542322 330.11637 
L 129.543558 324.961715 
L 131.044177 321.730439 
L 131.794486 320.499477 
L 132.544795 319.037709 
L 133.295104 318.345293 
L 134.795722 317.345136 
L 135.546031 316.729655 
L 136.29634 316.268044 
L 137.046649 315.960303 
L 137.796959 315.806433 
L 138.547268 314.960146 
L 139.297577 314.575471 
L 140.047886 314.4216 
L 141.548504 313.575314 
L 144.549741 310.344038 
L 146.050359 308.805335 
L 147.550977 307.189697 
L 149.051595 304.804707 
L 152.052832 302.419718 
L 152.803141 302.188912 
L 154.303759 301.342626 
L 155.054068 300.496339 
L 155.804377 299.880858 
L 157.304995 299.034571 
L 158.805614 296.957322 
L 160.306232 295.264749 
L 161.056541 293.572176 
L 162.557159 291.494927 
L 163.307468 290.571705 
L 164.808087 287.648169 
L 167.809323 284.032218 
L 169.309941 282.647385 
L 170.06025 281.647228 
L 171.560869 280.724006 
L 172.311178 279.954655 
L 173.061487 279.569979 
L 174.562105 278.262082 
L 175.312414 278.108211 
L 176.062723 277.031119 
L 176.813032 276.492573 
L 177.563341 275.800157 
L 178.313651 274.876935 
L 179.814269 273.722908 
L 181.314887 272.10727 
L 185.066433 267.414226 
L 187.31736 264.029079 
L 188.067669 263.105858 
L 188.817978 261.951831 
L 190.318596 259.2591 
L 191.819215 257.104916 
L 193.319833 254.258316 
L 194.820451 252.258002 
L 195.57076 251.719456 
L 197.071378 250.103818 
L 197.821687 249.642207 
L 200.072615 247.488023 
L 200.822924 246.949477 
L 203.073851 243.718201 
L 204.574469 242.025628 
L 205.324779 241.025471 
L 206.075088 239.563703 
L 206.825397 238.640481 
L 207.575706 237.948065 
L 209.076324 236.024686 
L 209.826633 235.1784 
L 210.576942 234.870659 
L 211.327251 234.255178 
L 212.077561 233.947437 
L 212.82787 233.793567 
L 213.578179 233.408891 
L 214.328488 232.716475 
L 215.078797 232.408734 
L 215.829106 232.331799 
L 217.329724 231.485513 
L 218.080033 230.870031 
L 218.830343 230.485356 
L 221.831579 227.792626 
L 222.581888 227.331015 
L 223.332197 227.100209 
L 224.082506 226.561663 
L 225.583125 225.946182 
L 227.083743 224.946025 
L 229.33467 223.561192 
L 230.835288 222.253295 
L 231.585597 222.02249 
L 233.086216 220.791527 
L 233.836525 220.714592 
L 234.586834 220.022176 
L 235.337143 219.48363 
L 236.837761 218.791213 
L 237.58807 218.637343 
L 239.088689 217.021705 
L 239.838998 216.7909 
L 240.589307 215.867678 
L 242.089925 213.405753 
L 243.590543 210.097542 
L 244.340852 208.943515 
L 245.091161 207.174006 
L 245.841471 206.32772 
L 246.59178 205.019822 
L 248.842707 200.403713 
L 249.593016 198.172594 
L 250.343325 196.787762 
L 251.093634 195.710669 
L 252.594253 192.710199 
L 253.344562 192.094718 
L 254.84518 189.709728 
L 255.595489 188.017155 
L 257.096107 186.324582 
L 257.846416 185.786036 
L 258.596725 185.093619 
L 259.347035 184.093462 
L 260.097344 183.554916 
L 260.847653 183.170241 
L 263.09858 180.785251 
L 263.848889 180.32364 
L 264.599198 179.477354 
L 266.099817 177.246234 
L 266.850126 176.630753 
L 267.600435 175.707531 
L 268.350744 175.399791 
L 272.102289 171.629969 
L 272.852599 171.014487 
L 273.602908 170.552877 
L 275.103526 168.706433 
L 275.853835 168.090952 
L 276.604144 167.3216 
L 277.354453 165.936768 
L 278.104762 164.936611 
L 278.855071 164.32113 
L 279.605381 163.244038 
L 280.35569 162.551621 
L 281.105999 161.320659 
L 281.856308 160.628243 
L 283.356926 158.474059 
L 284.107235 157.781642 
L 284.857544 156.935356 
L 285.607853 155.781328 
L 287.858781 153.319404 
L 288.60909 152.934728 
L 290.860017 151.088285 
L 291.610326 150.857479 
L 293.861254 149.318776 
L 295.361872 148.47249 
L 296.86249 147.626203 
L 299.863727 144.625732 
L 300.614036 144.010251 
L 301.364345 143.163964 
L 302.114654 142.548483 
L 303.615272 140.625105 
L 305.11589 138.932531 
L 306.616509 136.932218 
L 308.867436 134.008682 
L 309.617745 133.393201 
L 310.368054 132.546914 
L 311.868672 130.23886 
L 312.618981 129.315638 
L 313.369291 128.623222 
L 314.869909 126.238232 
L 315.620218 125.31501 
L 316.370527 123.853243 
L 317.871145 121.468253 
L 318.621454 120.775837 
L 319.371763 119.62181 
L 320.122073 118.775523 
L 320.872382 117.313755 
L 321.622691 116.621339 
L 322.373 115.775052 
L 323.123309 114.467155 
L 323.873618 113.466998 
L 326.124545 111.312814 
L 326.124545 111.312814 
" style="fill:none;stroke:#ff7f0e;stroke-linecap:round;stroke-width:2.25;"/>
   </g>
   <g id="line2d_16">
    <path clip-path="url(#pdf58b74ebb)" d="M 101.782121 348.35 
L 108.534903 348.273065 
L 110.035521 348.19613 
L 110.785831 348.19613 
L 113.787067 347.503713 
L 114.537376 347.195973 
L 116.037994 346.272751 
L 118.288922 344.041632 
L 119.039231 343.656956 
L 120.539849 342.272123 
L 122.040467 339.887134 
L 122.790776 338.348431 
L 123.541085 336.348117 
L 124.291395 333.732322 
L 125.041704 332.039749 
L 125.792013 330.654916 
L 127.292631 326.577354 
L 128.04294 324.57704 
L 128.793249 323.269142 
L 130.293867 319.807061 
L 131.794486 314.960146 
L 134.795722 306.881956 
L 137.046649 303.342939 
L 138.547268 300.265533 
L 139.297577 299.034571 
L 140.047886 298.57296 
L 140.798195 297.188128 
L 141.548504 295.418619 
L 142.298813 293.956851 
L 143.799431 291.802667 
L 144.549741 290.725575 
L 145.30005 290.033159 
L 147.550977 286.878818 
L 148.301286 285.493985 
L 149.051595 284.493828 
L 149.801904 282.72432 
L 150.552213 281.647228 
L 151.302523 279.87772 
L 153.55345 276.569508 
L 154.303759 276.107897 
L 155.054068 275.338546 
L 155.804377 274.184519 
L 158.055305 271.799529 
L 159.555923 270.337762 
L 160.306232 269.491475 
L 161.80685 268.414383 
L 162.557159 267.414226 
L 166.308705 263.413598 
L 167.059014 262.567312 
L 167.809323 262.105701 
L 168.559632 260.874738 
L 169.309941 260.490063 
L 172.311178 258.258944 
L 173.811796 256.951046 
L 175.312414 255.489278 
L 176.813032 254.873797 
L 177.563341 254.258316 
L 179.06396 253.335094 
L 179.814269 253.027354 
L 180.564578 252.873483 
L 181.314887 252.104132 
L 182.065196 251.719456 
L 184.316123 250.950105 
L 186.567051 250.103818 
L 187.31736 250.026883 
L 188.067669 249.488337 
L 190.318596 248.872856 
L 191.819215 248.64205 
L 192.569524 248.33431 
L 193.319833 248.180439 
L 194.820451 248.180439 
L 195.57076 247.872699 
L 197.071378 247.564958 
L 198.571997 246.872542 
L 199.322306 246.487866 
L 200.822924 246.10319 
L 202.323542 245.718515 
L 203.82416 245.179969 
L 204.574469 244.949163 
L 205.324779 244.949163 
L 206.825397 244.487552 
L 207.575706 244.410617 
L 209.076324 243.718201 
L 209.826633 243.564331 
L 211.327251 243.564331 
L 212.077561 243.333525 
L 213.578179 243.333525 
L 215.829106 242.871914 
L 216.579415 242.564174 
L 218.080033 242.179498 
L 218.830343 241.871757 
L 219.580652 241.717887 
L 221.08127 241.640952 
L 221.831579 241.487082 
L 222.581888 241.102406 
L 223.332197 241.102406 
L 224.082506 240.948536 
L 224.832815 240.56386 
L 227.083743 240.256119 
L 229.33467 239.255962 
L 231.585597 237.409519 
L 235.337143 235.409205 
L 236.087452 234.639854 
L 236.837761 234.409048 
L 239.838998 231.716318 
L 240.589307 231.254707 
L 242.089925 229.792939 
L 242.840234 229.177458 
L 243.590543 228.408107 
L 244.340852 227.40795 
L 245.091161 226.869404 
L 246.59178 226.407793 
L 247.342089 225.946182 
L 248.842707 225.253766 
L 250.343325 224.330544 
L 251.093634 223.484257 
L 251.843943 223.176517 
L 253.344562 222.253295 
L 254.094871 221.407008 
L 255.595489 220.099111 
L 256.345798 219.252824 
L 257.096107 218.714278 
L 257.846416 217.021705 
L 258.596725 216.406224 
L 259.347035 215.483002 
L 260.847653 212.790272 
L 262.348271 210.097542 
L 263.848889 208.097228 
L 264.599198 207.327877 
L 266.099817 205.404498 
L 266.850126 203.78886 
L 267.600435 202.865638 
L 268.350744 202.250157 
L 269.101053 201.788546 
L 269.851362 201.173065 
L 270.601671 200.403713 
L 271.35198 200.019038 
L 272.102289 199.403556 
L 273.602908 198.55727 
L 276.604144 195.710669 
L 277.354453 195.249059 
L 279.605381 192.787134 
L 280.35569 192.171653 
L 281.856308 191.325366 
L 282.606617 190.479079 
L 284.107235 189.478923 
L 284.857544 189.248117 
L 285.607853 188.632636 
L 286.358163 187.863285 
L 287.108472 187.478609 
L 287.858781 186.709257 
L 288.60909 186.324582 
L 289.359399 185.7091 
L 290.109708 184.632008 
L 291.610326 183.324111 
L 292.360635 182.400889 
L 293.110945 181.708473 
L 293.861254 180.708316 
L 294.611563 179.323483 
L 297.612799 175.476726 
L 298.363108 175.322856 
L 299.863727 174.553504 
L 301.364345 173.168672 
L 302.114654 172.630126 
L 303.615272 171.937709 
L 304.365581 171.322228 
L 305.11589 170.475941 
L 306.616509 169.629655 
L 308.117127 168.167887 
L 310.368054 165.013546 
L 311.868672 164.32113 
L 313.369291 163.397908 
L 314.869909 162.09001 
L 315.620218 161.78227 
L 317.871145 160.320502 
L 321.622691 156.473745 
L 326.124545 150.395868 
L 326.124545 150.395868 
" style="fill:none;stroke:#2ca02c;stroke-linecap:round;stroke-width:2.25;"/>
   </g>
   <g id="line2d_17">
    <path clip-path="url(#pdf58b74ebb)" d="M 101.782121 348.35 
L 108.534903 348.273065 
L 110.035521 348.19613 
L 110.785831 348.19613 
L 113.787067 347.503713 
L 114.537376 347.195973 
L 116.037994 346.272751 
L 118.288922 344.041632 
L 119.039231 343.656956 
L 120.539849 342.272123 
L 122.040467 339.887134 
L 122.790776 338.348431 
L 123.541085 336.348117 
L 124.291395 333.732322 
L 125.041704 332.039749 
L 125.792013 330.654916 
L 127.292631 326.577354 
L 128.04294 324.57704 
L 128.793249 323.269142 
L 130.293867 319.807061 
L 131.794486 314.960146 
L 134.795722 306.881956 
L 137.046649 303.342939 
L 138.547268 300.265533 
L 139.297577 299.034571 
L 140.047886 298.57296 
L 140.798195 297.188128 
L 141.548504 295.418619 
L 142.298813 293.956851 
L 143.799431 291.802667 
L 144.549741 290.725575 
L 145.30005 290.033159 
L 147.550977 286.878818 
L 148.301286 285.493985 
L 149.051595 284.493828 
L 151.302523 280.108525 
L 152.052832 278.723692 
L 152.803141 277.723536 
L 153.55345 276.415638 
L 154.303759 275.569351 
L 155.054068 275.107741 
L 156.554686 273.492103 
L 157.304995 272.184205 
L 158.055305 271.414854 
L 159.555923 268.414383 
L 160.306232 266.491004 
L 161.80685 264.106015 
L 162.557159 261.64409 
L 164.057777 258.182008 
L 164.808087 256.874111 
L 165.558396 255.950889 
L 167.059014 253.258159 
L 168.559632 251.873326 
L 169.309941 251.33478 
L 170.06025 250.950105 
L 170.810559 250.026883 
L 173.061487 248.026569 
L 173.811796 247.564958 
L 174.562105 247.257218 
L 175.312414 246.718672 
L 177.563341 244.333682 
L 182.815505 241.025471 
L 183.565814 240.333054 
L 185.066433 238.640481 
L 187.31736 234.639854 
L 190.318596 227.946496 
L 191.068905 225.792312 
L 191.819215 223.176517 
L 192.569524 221.714749 
L 193.319833 219.79137 
L 194.070142 217.560251 
L 197.071378 211.482374 
L 197.821687 209.558996 
L 199.322306 205.019822 
L 200.072615 203.865795 
L 203.82416 197.095502 
L 204.574469 196.249215 
L 207.575706 190.017469 
L 209.076324 186.555387 
L 209.826633 185.093619 
L 210.576942 182.8625 
L 211.327251 181.246862 
L 212.077561 179.323483 
L 212.82787 177.861715 
L 213.578179 176.707688 
L 217.329724 167.475471 
L 218.830343 165.013546 
L 219.580652 163.320973 
L 220.330961 162.243881 
L 221.08127 160.935983 
L 227.083743 144.087186 
L 227.834052 141.779132 
L 228.584361 140.548169 
L 229.33467 138.932531 
L 230.084979 136.932218 
L 231.585597 134.547228 
L 232.335907 133.239331 
L 233.086216 132.393044 
L 233.836525 131.239017 
L 234.586834 130.700471 
L 235.337143 129.854184 
L 237.58807 128.007741 
L 238.338379 127.54613 
L 242.089925 123.160826 
L 245.841471 118.160042 
L 248.842707 115.082636 
L 250.343325 112.466841 
L 251.843943 111.158944 
L 253.344562 110.312657 
L 254.84518 109.15863 
L 255.595489 108.927824 
L 258.596725 106.542835 
L 259.347035 105.388808 
L 260.097344 104.696391 
L 260.847653 104.157845 
L 262.348271 102.542207 
L 263.848889 101.618985 
L 264.599198 101.003504 
L 266.850126 99.926412 
L 267.600435 99.618672 
L 269.101053 98.003033 
L 269.851362 97.618358 
L 270.601671 97.002877 
L 271.35198 96.541266 
L 274.353217 95.310303 
L 275.103526 94.848692 
L 275.853835 94.771757 
L 279.605381 93.30999 
L 280.35569 93.233054 
L 281.105999 92.771444 
L 283.356926 91.925157 
L 284.107235 91.694351 
L 284.857544 91.232741 
L 285.607853 90.232584 
L 286.358163 89.540167 
L 288.60909 86.155021 
L 289.359399 84.924059 
L 290.109708 83.15455 
L 290.860017 81.923588 
L 292.360635 80.000209 
L 293.861254 77.692155 
L 295.361872 76.384257 
L 296.112181 75.461036 
L 296.86249 75.07636 
L 298.363108 73.691527 
L 300.614036 72.922176 
L 302.114654 72.38363 
L 302.864963 72.152824 
L 304.365581 72.075889 
L 305.11589 71.614278 
L 306.616509 71.229603 
L 308.867436 69.84477 
L 309.617745 69.613964 
L 310.368054 69.075418 
L 311.868672 68.306067 
L 313.369291 66.690429 
L 314.1196 65.536402 
L 315.620218 64.536245 
L 317.120836 62.382061 
L 317.871145 61.689644 
L 318.621454 61.151098 
L 322.373 56.84273 
L 323.123309 55.457897 
L 323.873618 54.611611 
L 324.623927 54.30387 
L 326.124545 54.15 
L 326.124545 54.15 
" style="fill:none;stroke:#d62728;stroke-linecap:round;stroke-width:2.25;"/>
   </g>
   <g id="line2d_18">
    <path clip-path="url(#pdf58b74ebb)" d="M 101.782121 348.35 
L 108.534903 348.273065 
L 110.035521 348.19613 
L 110.785831 348.19613 
L 113.787067 347.503713 
L 114.537376 347.195973 
L 116.037994 346.272751 
L 118.288922 344.041632 
L 119.039231 343.656956 
L 120.539849 342.272123 
L 122.040467 339.887134 
L 122.790776 338.348431 
L 123.541085 336.348117 
L 124.291395 333.963128 
L 125.792013 330.501046 
L 126.542322 328.731538 
L 127.292631 327.26977 
L 128.04294 324.73091 
L 129.543558 321.268828 
L 130.293867 319.34545 
L 131.044177 317.114331 
L 132.544795 313.95999 
L 133.295104 311.575 
L 135.546031 307.882113 
L 136.29634 306.958891 
L 137.796959 303.958421 
L 139.297577 300.95795 
L 143.799431 291.648797 
L 144.549741 289.879289 
L 149.801904 280.570136 
L 152.803141 278.031276 
L 153.55345 277.800471 
L 154.303759 277.723536 
L 156.554686 277.108054 
L 157.304995 277.108054 
L 159.555923 276.184833 
L 160.306232 275.646287 
L 161.80685 275.107741 
L 162.557159 274.569195 
L 163.307468 274.184519 
L 164.057777 273.569038 
L 164.808087 272.491946 
L 165.558396 271.799529 
L 166.308705 270.645502 
L 167.059014 269.72228 
L 167.809323 269.029864 
L 170.06025 265.029236 
L 171.560869 262.951987 
L 173.061487 261.336349 
L 173.811796 259.874582 
L 176.062723 257.412657 
L 176.813032 256.874111 
L 178.313651 255.489278 
L 179.06396 254.181381 
L 179.814269 253.258159 
L 181.314887 250.796234 
L 184.316123 244.256747 
L 185.816742 240.56386 
L 186.567051 239.409833 
L 187.31736 237.794195 
L 188.067669 236.794038 
L 188.817978 235.255335 
L 190.318596 233.024215 
L 191.068905 232.331799 
L 194.070142 228.946653 
L 194.820451 228.638912 
L 195.57076 228.100366 
L 196.321069 227.71569 
L 197.071378 227.100209 
L 197.821687 226.638598 
L 198.571997 225.946182 
L 200.072615 225.02296 
L 200.822924 224.407479 
L 202.323542 223.715063 
L 203.073851 223.561192 
L 204.574469 222.561036 
L 205.324779 222.407165 
L 209.076324 220.868462 
L 210.576942 219.560565 
L 211.327251 219.175889 
L 212.077561 218.483473 
L 212.82787 218.098797 
L 213.578179 217.867992 
L 215.829106 216.175418 
L 216.579415 215.098326 
L 217.329724 214.636715 
L 218.080033 213.944299 
L 218.830343 212.944142 
L 219.580652 212.328661 
L 221.08127 210.482218 
L 221.831579 209.866736 
L 222.581888 208.943515 
L 224.082506 206.63546 
L 224.832815 206.096914 
L 226.333434 204.712082 
L 227.083743 204.404341 
L 227.834052 204.250471 
L 228.584361 203.865795 
L 229.33467 203.327249 
L 230.835288 203.250314 
L 231.585597 202.942573 
L 232.335907 202.480962 
L 233.086216 202.327092 
L 233.836525 201.942416 
L 234.586834 201.865481 
L 236.087452 200.942259 
L 236.837761 200.019038 
L 237.58807 199.326621 
L 238.338379 199.018881 
L 240.589307 195.941475 
L 241.339616 195.479864 
L 242.089925 194.864383 
L 242.840234 193.556485 
L 243.590543 192.941004 
L 245.841471 189.863598 
L 246.59178 189.325052 
L 247.342089 187.863285 
L 248.842707 186.016841 
L 249.593016 184.632008 
L 250.343325 183.785722 
L 251.093634 182.554759 
L 251.843943 181.785408 
L 253.344562 179.015743 
L 254.094871 178.477197 
L 255.595489 176.707688 
L 256.345798 175.630596 
L 257.096107 174.861245 
L 257.846416 174.476569 
L 258.596725 173.553347 
L 260.097344 172.24545 
L 260.847653 171.245293 
L 261.597962 170.552877 
L 263.848889 166.783054 
L 264.599198 165.167416 
L 266.099817 162.628556 
L 266.850126 160.935983 
L 267.600435 158.935669 
L 268.350744 157.704707 
L 271.35198 151.780701 
L 272.852599 147.933944 
L 274.353217 143.317835 
L 275.853835 139.548013 
L 277.354453 137.086088 
L 278.104762 136.085931 
L 278.855071 135.393515 
L 280.35569 132.77772 
L 281.856308 129.161768 
L 282.606617 127.85387 
L 284.857544 122.083734 
L 285.607853 120.468096 
L 287.858781 116.929079 
L 289.359399 115.313441 
L 290.109708 113.466998 
L 290.860017 112.236036 
L 293.861254 106.61977 
L 294.611563 105.465743 
L 295.361872 104.003975 
L 296.112181 103.311559 
L 296.86249 102.157531 
L 297.612799 101.38818 
L 298.363108 100.388023 
L 299.113417 99.772542 
L 299.863727 98.69545 
L 301.364345 97.079812 
L 302.114654 96.618201 
L 302.864963 95.156433 
L 303.615272 94.079341 
L 305.11589 91.617416 
L 305.866199 90.463389 
L 310.368054 81.385042 
L 311.118363 80.154079 
L 314.1196 76.461192 
L 315.620218 74.307008 
L 316.370527 73.768462 
L 317.120836 72.999111 
L 317.871145 71.998954 
L 319.371763 70.844927 
L 320.122073 69.6909 
L 323.873618 65.921077 
L 324.623927 65.305596 
L 326.124545 63.459153 
L 326.124545 63.459153 
" style="fill:none;stroke:#9467bd;stroke-linecap:round;stroke-width:2.25;"/>
   </g>
   <g id="patch_3">
    <path d="M 90.565 363.06 
L 90.565 39.44 
" style="fill:none;stroke:#cccccc;stroke-linecap:square;stroke-linejoin:miter;stroke-width:1.875;"/>
   </g>
   <g id="patch_4">
    <path d="M 337.341667 363.06 
L 337.341667 39.44 
" style="fill:none;stroke:#cccccc;stroke-linecap:square;stroke-linejoin:miter;stroke-width:1.875;"/>
   </g>
   <g id="patch_5">
    <path d="M 90.565 363.06 
L 337.341667 363.06 
" style="fill:none;stroke:#cccccc;stroke-linecap:square;stroke-linejoin:miter;stroke-width:1.875;"/>
   </g>
   <g id="patch_6">
    <path d="M 90.565 39.44 
L 337.341667 39.44 
" style="fill:none;stroke:#cccccc;stroke-linecap:square;stroke-linejoin:miter;stroke-width:1.875;"/>
   </g>
   <g id="text_16">
    <!-- DRD2 -->
    <defs>
     <path d="M 7.71875 0 
L 7.71875 71.578125 
L 32.375 71.578125 
Q 40.71875 71.578125 45.125 70.5625 
Q 51.265625 69.140625 55.609375 65.4375 
Q 61.28125 60.640625 64.078125 53.1875 
Q 66.890625 45.75 66.890625 36.1875 
Q 66.890625 28.03125 64.984375 21.734375 
Q 63.09375 15.4375 60.109375 11.296875 
Q 57.125 7.171875 53.578125 4.796875 
Q 50.046875 2.4375 45.046875 1.21875 
Q 40.046875 0 33.546875 0 
z
M 17.1875 8.453125 
L 32.46875 8.453125 
Q 39.546875 8.453125 43.578125 9.765625 
Q 47.609375 11.078125 50 13.484375 
Q 53.375 16.84375 55.25 22.53125 
Q 57.125 28.21875 57.125 36.328125 
Q 57.125 47.5625 53.4375 53.59375 
Q 49.75 59.625 44.484375 61.671875 
Q 40.671875 63.140625 32.234375 63.140625 
L 17.1875 63.140625 
z
" id="ArialMT-68"/>
     <path d="M 7.859375 0 
L 7.859375 71.578125 
L 39.59375 71.578125 
Q 49.171875 71.578125 54.140625 69.640625 
Q 59.125 67.71875 62.109375 62.828125 
Q 65.09375 57.953125 65.09375 52.046875 
Q 65.09375 44.4375 60.15625 39.203125 
Q 55.21875 33.984375 44.921875 32.5625 
Q 48.6875 30.765625 50.640625 29 
Q 54.78125 25.203125 58.5 19.484375 
L 70.953125 0 
L 59.03125 0 
L 49.5625 14.890625 
Q 45.40625 21.34375 42.71875 24.75 
Q 40.046875 28.171875 37.921875 29.53125 
Q 35.796875 30.90625 33.59375 31.453125 
Q 31.984375 31.78125 28.328125 31.78125 
L 17.328125 31.78125 
L 17.328125 0 
z
M 17.328125 39.984375 
L 37.703125 39.984375 
Q 44.1875 39.984375 47.84375 41.328125 
Q 51.515625 42.671875 53.421875 45.625 
Q 55.328125 48.578125 55.328125 52.046875 
Q 55.328125 57.125 51.640625 60.390625 
Q 47.953125 63.671875 39.984375 63.671875 
L 17.328125 63.671875 
z
" id="ArialMT-82"/>
    </defs>
    <g style="fill:#262626;" transform="translate(189.449427 33.44)scale(0.18 -0.18)">
     <use xlink:href="#ArialMT-68"/>
     <use x="72.216797" xlink:href="#ArialMT-82"/>
     <use x="144.433594" xlink:href="#ArialMT-68"/>
     <use x="216.650391" xlink:href="#ArialMT-50"/>
    </g>
   </g>
  </g>
 </g>
 <defs>
  <clipPath id="pdf58b74ebb">
   <rect height="323.62" width="246.776667" x="90.565" y="39.44"/>
  </clipPath>
 </defs>
</svg>
