<?xml version="1.0" encoding="utf-8" standalone="no"?>
<!DOCTYPE svg PUBLIC "-//W3C//DTD SVG 1.1//EN"
  "http://www.w3.org/Graphics/SVG/1.1/DTD/svg11.dtd">
<!-- Created with matplotlib (https://matplotlib.org/) -->
<svg height="432pt" version="1.1" viewBox="0 0 360 432" width="360pt" xmlns="http://www.w3.org/2000/svg" xmlns:xlink="http://www.w3.org/1999/xlink">
 <defs>
  <style type="text/css">
*{stroke-linecap:butt;stroke-linejoin:round;}
  </style>
 </defs>
 <g id="figure_1">
  <g id="patch_1">
   <path d="M 0 432 
L 360 432 
L 360 0 
L 0 0 
z
" style="fill:#ffffff;"/>
  </g>
  <g id="axes_1">
   <g id="patch_2">
    <path d="M 90.565 363.06 
L 337.397181 363.06 
L 337.397181 39.44 
L 90.565 39.44 
z
" style="fill:#ffffff;"/>
   </g>
   <g id="matplotlib.axis_1">
    <g id="xtick_1">
     <g id="line2d_1">
      <path clip-path="url(#p6afcfdbd56)" d="M 101.784645 363.06 
L 101.784645 39.44 
" style="fill:none;stroke:#cccccc;stroke-linecap:round;stroke-width:1.5;"/>
     </g>
     <g id="text_1">
      <!-- 0 -->
      <defs>
       <path d="M 4.15625 35.296875 
Q 4.15625 48 6.765625 55.734375 
Q 9.375 63.484375 14.515625 67.671875 
Q 19.671875 71.875 27.484375 71.875 
Q 33.25 71.875 37.59375 69.546875 
Q 41.9375 67.234375 44.765625 62.859375 
Q 47.609375 58.5 49.21875 52.21875 
Q 50.828125 45.953125 50.828125 35.296875 
Q 50.828125 22.703125 48.234375 14.96875 
Q 45.65625 7.234375 40.5 3 
Q 35.359375 -1.21875 27.484375 -1.21875 
Q 17.140625 -1.21875 11.234375 6.203125 
Q 4.15625 15.140625 4.15625 35.296875 
z
M 13.1875 35.296875 
Q 13.1875 17.671875 17.3125 11.828125 
Q 21.4375 6 27.484375 6 
Q 33.546875 6 37.671875 11.859375 
Q 41.796875 17.71875 41.796875 35.296875 
Q 41.796875 52.984375 37.671875 58.78125 
Q 33.546875 64.59375 27.390625 64.59375 
Q 21.34375 64.59375 17.71875 59.46875 
Q 13.1875 52.9375 13.1875 35.296875 
z
" id="ArialMT-48"/>
      </defs>
      <g style="fill:#262626;" transform="translate(97.196871 387.370391)scale(0.165 -0.165)">
       <use xlink:href="#ArialMT-48"/>
      </g>
     </g>
    </g>
    <g id="xtick_2">
     <g id="line2d_2">
      <path clip-path="url(#p6afcfdbd56)" d="M 176.832434 363.06 
L 176.832434 39.44 
" style="fill:none;stroke:#cccccc;stroke-linecap:round;stroke-width:1.5;"/>
     </g>
     <g id="text_2">
      <!-- 100 -->
      <defs>
       <path d="M 37.25 0 
L 28.46875 0 
L 28.46875 56 
Q 25.296875 52.984375 20.140625 49.953125 
Q 14.984375 46.921875 10.890625 45.40625 
L 10.890625 53.90625 
Q 18.265625 57.375 23.78125 62.296875 
Q 29.296875 67.234375 31.59375 71.875 
L 37.25 71.875 
z
" id="ArialMT-49"/>
      </defs>
      <g style="fill:#262626;" transform="translate(163.069114 387.370391)scale(0.165 -0.165)">
       <use xlink:href="#ArialMT-49"/>
       <use x="55.615234" xlink:href="#ArialMT-48"/>
       <use x="111.230469" xlink:href="#ArialMT-48"/>
      </g>
     </g>
    </g>
    <g id="xtick_3">
     <g id="line2d_3">
      <path clip-path="url(#p6afcfdbd56)" d="M 251.880224 363.06 
L 251.880224 39.44 
" style="fill:none;stroke:#cccccc;stroke-linecap:round;stroke-width:1.5;"/>
     </g>
     <g id="text_3">
      <!-- 200 -->
      <defs>
       <path d="M 50.34375 8.453125 
L 50.34375 0 
L 3.03125 0 
Q 2.9375 3.171875 4.046875 6.109375 
Q 5.859375 10.9375 9.828125 15.625 
Q 13.8125 20.3125 21.34375 26.46875 
Q 33.015625 36.03125 37.109375 41.625 
Q 41.21875 47.21875 41.21875 52.203125 
Q 41.21875 57.421875 37.46875 61 
Q 33.734375 64.59375 27.734375 64.59375 
Q 21.390625 64.59375 17.578125 60.78125 
Q 13.765625 56.984375 13.71875 50.25 
L 4.6875 51.171875 
Q 5.609375 61.28125 11.65625 66.578125 
Q 17.71875 71.875 27.9375 71.875 
Q 38.234375 71.875 44.234375 66.15625 
Q 50.25 60.453125 50.25 52 
Q 50.25 47.703125 48.484375 43.546875 
Q 46.734375 39.40625 42.65625 34.8125 
Q 38.578125 30.21875 29.109375 22.21875 
Q 21.1875 15.578125 18.9375 13.203125 
Q 16.703125 10.84375 15.234375 8.453125 
z
" id="ArialMT-50"/>
      </defs>
      <g style="fill:#262626;" transform="translate(238.116904 387.370391)scale(0.165 -0.165)">
       <use xlink:href="#ArialMT-50"/>
       <use x="55.615234" xlink:href="#ArialMT-48"/>
       <use x="111.230469" xlink:href="#ArialMT-48"/>
      </g>
     </g>
    </g>
    <g id="xtick_4">
     <g id="line2d_4">
      <path clip-path="url(#p6afcfdbd56)" d="M 326.928014 363.06 
L 326.928014 39.44 
" style="fill:none;stroke:#cccccc;stroke-linecap:round;stroke-width:1.5;"/>
     </g>
     <g id="text_4">
      <!-- 300 -->
      <defs>
       <path d="M 4.203125 18.890625 
L 12.984375 20.0625 
Q 14.5 12.59375 18.140625 9.296875 
Q 21.78125 6 27 6 
Q 33.203125 6 37.46875 10.296875 
Q 41.75 14.59375 41.75 20.953125 
Q 41.75 27 37.796875 30.921875 
Q 33.84375 34.859375 27.734375 34.859375 
Q 25.25 34.859375 21.53125 33.890625 
L 22.515625 41.609375 
Q 23.390625 41.5 23.921875 41.5 
Q 29.546875 41.5 34.03125 44.421875 
Q 38.53125 47.359375 38.53125 53.46875 
Q 38.53125 58.296875 35.25 61.46875 
Q 31.984375 64.65625 26.8125 64.65625 
Q 21.6875 64.65625 18.265625 61.421875 
Q 14.84375 58.203125 13.875 51.765625 
L 5.078125 53.328125 
Q 6.6875 62.15625 12.390625 67.015625 
Q 18.109375 71.875 26.609375 71.875 
Q 32.46875 71.875 37.390625 69.359375 
Q 42.328125 66.84375 44.9375 62.5 
Q 47.5625 58.15625 47.5625 53.265625 
Q 47.5625 48.640625 45.0625 44.828125 
Q 42.578125 41.015625 37.703125 38.765625 
Q 44.046875 37.3125 47.5625 32.6875 
Q 51.078125 28.078125 51.078125 21.140625 
Q 51.078125 11.765625 44.234375 5.25 
Q 37.40625 -1.265625 26.953125 -1.265625 
Q 17.53125 -1.265625 11.296875 4.34375 
Q 5.078125 9.96875 4.203125 18.890625 
z
" id="ArialMT-51"/>
      </defs>
      <g style="fill:#262626;" transform="translate(313.164694 387.370391)scale(0.165 -0.165)">
       <use xlink:href="#ArialMT-51"/>
       <use x="55.615234" xlink:href="#ArialMT-48"/>
       <use x="111.230469" xlink:href="#ArialMT-48"/>
      </g>
     </g>
    </g>
    <g id="text_5">
     <!-- Iteration -->
     <defs>
      <path d="M 9.328125 0 
L 9.328125 71.578125 
L 18.796875 71.578125 
L 18.796875 0 
z
" id="ArialMT-73"/>
      <path d="M 25.78125 7.859375 
L 27.046875 0.09375 
Q 23.34375 -0.6875 20.40625 -0.6875 
Q 15.625 -0.6875 12.984375 0.828125 
Q 10.359375 2.34375 9.28125 4.8125 
Q 8.203125 7.28125 8.203125 15.1875 
L 8.203125 45.015625 
L 1.765625 45.015625 
L 1.765625 51.859375 
L 8.203125 51.859375 
L 8.203125 64.703125 
L 16.9375 69.96875 
L 16.9375 51.859375 
L 25.78125 51.859375 
L 25.78125 45.015625 
L 16.9375 45.015625 
L 16.9375 14.703125 
Q 16.9375 10.9375 17.40625 9.859375 
Q 17.875 8.796875 18.921875 8.15625 
Q 19.96875 7.515625 21.921875 7.515625 
Q 23.390625 7.515625 25.78125 7.859375 
z
" id="ArialMT-116"/>
      <path d="M 42.09375 16.703125 
L 51.171875 15.578125 
Q 49.03125 7.625 43.21875 3.21875 
Q 37.40625 -1.171875 28.375 -1.171875 
Q 17 -1.171875 10.328125 5.828125 
Q 3.65625 12.84375 3.65625 25.484375 
Q 3.65625 38.578125 10.390625 45.796875 
Q 17.140625 53.03125 27.875 53.03125 
Q 38.28125 53.03125 44.875 45.953125 
Q 51.46875 38.875 51.46875 26.03125 
Q 51.46875 25.25 51.421875 23.6875 
L 12.75 23.6875 
Q 13.234375 15.140625 17.578125 10.59375 
Q 21.921875 6.0625 28.421875 6.0625 
Q 33.25 6.0625 36.671875 8.59375 
Q 40.09375 11.140625 42.09375 16.703125 
z
M 13.234375 30.90625 
L 42.1875 30.90625 
Q 41.609375 37.453125 38.875 40.71875 
Q 34.671875 45.796875 27.984375 45.796875 
Q 21.921875 45.796875 17.796875 41.75 
Q 13.671875 37.703125 13.234375 30.90625 
z
" id="ArialMT-101"/>
      <path d="M 6.5 0 
L 6.5 51.859375 
L 14.40625 51.859375 
L 14.40625 44 
Q 17.4375 49.515625 20 51.265625 
Q 22.5625 53.03125 25.640625 53.03125 
Q 30.078125 53.03125 34.671875 50.203125 
L 31.640625 42.046875 
Q 28.421875 43.953125 25.203125 43.953125 
Q 22.3125 43.953125 20.015625 42.21875 
Q 17.71875 40.484375 16.75 37.40625 
Q 15.28125 32.71875 15.28125 27.15625 
L 15.28125 0 
z
" id="ArialMT-114"/>
      <path d="M 40.4375 6.390625 
Q 35.546875 2.25 31.03125 0.53125 
Q 26.515625 -1.171875 21.34375 -1.171875 
Q 12.796875 -1.171875 8.203125 3 
Q 3.609375 7.171875 3.609375 13.671875 
Q 3.609375 17.484375 5.34375 20.625 
Q 7.078125 23.78125 9.890625 25.6875 
Q 12.703125 27.59375 16.21875 28.5625 
Q 18.796875 29.25 24.03125 29.890625 
Q 34.671875 31.15625 39.703125 32.90625 
Q 39.75 34.71875 39.75 35.203125 
Q 39.75 40.578125 37.25 42.78125 
Q 33.890625 45.75 27.25 45.75 
Q 21.046875 45.75 18.09375 43.578125 
Q 15.140625 41.40625 13.71875 35.890625 
L 5.125 37.0625 
Q 6.296875 42.578125 8.984375 45.96875 
Q 11.671875 49.359375 16.75 51.1875 
Q 21.828125 53.03125 28.515625 53.03125 
Q 35.15625 53.03125 39.296875 51.46875 
Q 43.453125 49.90625 45.40625 47.53125 
Q 47.359375 45.171875 48.140625 41.546875 
Q 48.578125 39.3125 48.578125 33.453125 
L 48.578125 21.734375 
Q 48.578125 9.46875 49.140625 6.21875 
Q 49.703125 2.984375 51.375 0 
L 42.1875 0 
Q 40.828125 2.734375 40.4375 6.390625 
z
M 39.703125 26.03125 
Q 34.90625 24.078125 25.34375 22.703125 
Q 19.921875 21.921875 17.671875 20.9375 
Q 15.4375 19.96875 14.203125 18.09375 
Q 12.984375 16.21875 12.984375 13.921875 
Q 12.984375 10.40625 15.640625 8.0625 
Q 18.3125 5.71875 23.4375 5.71875 
Q 28.515625 5.71875 32.46875 7.9375 
Q 36.421875 10.15625 38.28125 14.015625 
Q 39.703125 17 39.703125 22.796875 
z
" id="ArialMT-97"/>
      <path d="M 6.640625 61.46875 
L 6.640625 71.578125 
L 15.4375 71.578125 
L 15.4375 61.46875 
z
M 6.640625 0 
L 6.640625 51.859375 
L 15.4375 51.859375 
L 15.4375 0 
z
" id="ArialMT-105"/>
      <path d="M 3.328125 25.921875 
Q 3.328125 40.328125 11.328125 47.265625 
Q 18.015625 53.03125 27.640625 53.03125 
Q 38.328125 53.03125 45.109375 46.015625 
Q 51.90625 39.015625 51.90625 26.65625 
Q 51.90625 16.65625 48.90625 10.90625 
Q 45.90625 5.171875 40.15625 2 
Q 34.421875 -1.171875 27.640625 -1.171875 
Q 16.75 -1.171875 10.03125 5.8125 
Q 3.328125 12.796875 3.328125 25.921875 
z
M 12.359375 25.921875 
Q 12.359375 15.96875 16.703125 11.015625 
Q 21.046875 6.0625 27.640625 6.0625 
Q 34.1875 6.0625 38.53125 11.03125 
Q 42.875 16.015625 42.875 26.21875 
Q 42.875 35.84375 38.5 40.796875 
Q 34.125 45.75 27.640625 45.75 
Q 21.046875 45.75 16.703125 40.8125 
Q 12.359375 35.890625 12.359375 25.921875 
z
" id="ArialMT-111"/>
      <path d="M 6.59375 0 
L 6.59375 51.859375 
L 14.5 51.859375 
L 14.5 44.484375 
Q 20.21875 53.03125 31 53.03125 
Q 35.6875 53.03125 39.625 51.34375 
Q 43.5625 49.65625 45.515625 46.921875 
Q 47.46875 44.1875 48.25 40.4375 
Q 48.734375 37.984375 48.734375 31.890625 
L 48.734375 0 
L 39.9375 0 
L 39.9375 31.546875 
Q 39.9375 36.921875 38.90625 39.578125 
Q 37.890625 42.234375 35.28125 43.8125 
Q 32.671875 45.40625 29.15625 45.40625 
Q 23.53125 45.40625 19.453125 41.84375 
Q 15.375 38.28125 15.375 28.328125 
L 15.375 0 
z
" id="ArialMT-110"/>
     </defs>
     <g style="fill:#262626;" transform="translate(181.464372 407.533828)scale(0.18 -0.18)">
      <use xlink:href="#ArialMT-73"/>
      <use x="27.783203" xlink:href="#ArialMT-116"/>
      <use x="55.566406" xlink:href="#ArialMT-101"/>
      <use x="111.181641" xlink:href="#ArialMT-114"/>
      <use x="144.482422" xlink:href="#ArialMT-97"/>
      <use x="200.097656" xlink:href="#ArialMT-116"/>
      <use x="227.880859" xlink:href="#ArialMT-105"/>
      <use x="250.097656" xlink:href="#ArialMT-111"/>
      <use x="305.712891" xlink:href="#ArialMT-110"/>
     </g>
    </g>
   </g>
   <g id="matplotlib.axis_2">
    <g id="ytick_1">
     <g id="line2d_5">
      <path clip-path="url(#p6afcfdbd56)" d="M 90.565 348.35 
L 337.397181 348.35 
" style="fill:none;stroke:#cccccc;stroke-linecap:round;stroke-width:1.5;"/>
     </g>
     <g id="text_6">
      <!-- 0 -->
      <g style="fill:#262626;" transform="translate(68.889453 354.255195)scale(0.165 -0.165)">
       <use xlink:href="#ArialMT-48"/>
      </g>
     </g>
    </g>
    <g id="ytick_2">
     <g id="line2d_6">
      <path clip-path="url(#p6afcfdbd56)" d="M 90.565 297.800172 
L 337.397181 297.800172 
" style="fill:none;stroke:#cccccc;stroke-linecap:round;stroke-width:1.5;"/>
     </g>
     <g id="text_7">
      <!-- 1000 -->
      <g style="fill:#262626;" transform="translate(41.362813 303.705367)scale(0.165 -0.165)">
       <use xlink:href="#ArialMT-49"/>
       <use x="55.615234" xlink:href="#ArialMT-48"/>
       <use x="111.230469" xlink:href="#ArialMT-48"/>
       <use x="166.845703" xlink:href="#ArialMT-48"/>
      </g>
     </g>
    </g>
    <g id="ytick_3">
     <g id="line2d_7">
      <path clip-path="url(#p6afcfdbd56)" d="M 90.565 247.250344 
L 337.397181 247.250344 
" style="fill:none;stroke:#cccccc;stroke-linecap:round;stroke-width:1.5;"/>
     </g>
     <g id="text_8">
      <!-- 2000 -->
      <g style="fill:#262626;" transform="translate(41.362813 253.155539)scale(0.165 -0.165)">
       <use xlink:href="#ArialMT-50"/>
       <use x="55.615234" xlink:href="#ArialMT-48"/>
       <use x="111.230469" xlink:href="#ArialMT-48"/>
       <use x="166.845703" xlink:href="#ArialMT-48"/>
      </g>
     </g>
    </g>
    <g id="ytick_4">
     <g id="line2d_8">
      <path clip-path="url(#p6afcfdbd56)" d="M 90.565 196.700515 
L 337.397181 196.700515 
" style="fill:none;stroke:#cccccc;stroke-linecap:round;stroke-width:1.5;"/>
     </g>
     <g id="text_9">
      <!-- 3000 -->
      <g style="fill:#262626;" transform="translate(41.362813 202.605711)scale(0.165 -0.165)">
       <use xlink:href="#ArialMT-51"/>
       <use x="55.615234" xlink:href="#ArialMT-48"/>
       <use x="111.230469" xlink:href="#ArialMT-48"/>
       <use x="166.845703" xlink:href="#ArialMT-48"/>
      </g>
     </g>
    </g>
    <g id="ytick_5">
     <g id="line2d_9">
      <path clip-path="url(#p6afcfdbd56)" d="M 90.565 146.150687 
L 337.397181 146.150687 
" style="fill:none;stroke:#cccccc;stroke-linecap:round;stroke-width:1.5;"/>
     </g>
     <g id="text_10">
      <!-- 4000 -->
      <defs>
       <path d="M 32.328125 0 
L 32.328125 17.140625 
L 1.265625 17.140625 
L 1.265625 25.203125 
L 33.9375 71.578125 
L 41.109375 71.578125 
L 41.109375 25.203125 
L 50.78125 25.203125 
L 50.78125 17.140625 
L 41.109375 17.140625 
L 41.109375 0 
z
M 32.328125 25.203125 
L 32.328125 57.46875 
L 9.90625 25.203125 
z
" id="ArialMT-52"/>
      </defs>
      <g style="fill:#262626;" transform="translate(41.362813 152.055883)scale(0.165 -0.165)">
       <use xlink:href="#ArialMT-52"/>
       <use x="55.615234" xlink:href="#ArialMT-48"/>
       <use x="111.230469" xlink:href="#ArialMT-48"/>
       <use x="166.845703" xlink:href="#ArialMT-48"/>
      </g>
     </g>
    </g>
    <g id="ytick_6">
     <g id="line2d_10">
      <path clip-path="url(#p6afcfdbd56)" d="M 90.565 95.600859 
L 337.397181 95.600859 
" style="fill:none;stroke:#cccccc;stroke-linecap:round;stroke-width:1.5;"/>
     </g>
     <g id="text_11">
      <!-- 5000 -->
      <defs>
       <path d="M 4.15625 18.75 
L 13.375 19.53125 
Q 14.40625 12.796875 18.140625 9.390625 
Q 21.875 6 27.15625 6 
Q 33.5 6 37.890625 10.78125 
Q 42.28125 15.578125 42.28125 23.484375 
Q 42.28125 31 38.0625 35.34375 
Q 33.84375 39.703125 27 39.703125 
Q 22.75 39.703125 19.328125 37.765625 
Q 15.921875 35.84375 13.96875 32.765625 
L 5.71875 33.84375 
L 12.640625 70.609375 
L 48.25 70.609375 
L 48.25 62.203125 
L 19.671875 62.203125 
L 15.828125 42.96875 
Q 22.265625 47.46875 29.34375 47.46875 
Q 38.71875 47.46875 45.15625 40.96875 
Q 51.609375 34.46875 51.609375 24.265625 
Q 51.609375 14.546875 45.953125 7.46875 
Q 39.0625 -1.21875 27.15625 -1.21875 
Q 17.390625 -1.21875 11.203125 4.25 
Q 5.03125 9.71875 4.15625 18.75 
z
" id="ArialMT-53"/>
      </defs>
      <g style="fill:#262626;" transform="translate(41.362813 101.506054)scale(0.165 -0.165)">
       <use xlink:href="#ArialMT-53"/>
       <use x="55.615234" xlink:href="#ArialMT-48"/>
       <use x="111.230469" xlink:href="#ArialMT-48"/>
       <use x="166.845703" xlink:href="#ArialMT-48"/>
      </g>
     </g>
    </g>
    <g id="ytick_7">
     <g id="line2d_11">
      <path clip-path="url(#p6afcfdbd56)" d="M 90.565 45.051031 
L 337.397181 45.051031 
" style="fill:none;stroke:#cccccc;stroke-linecap:round;stroke-width:1.5;"/>
     </g>
     <g id="text_12">
      <!-- 6000 -->
      <defs>
       <path d="M 49.75 54.046875 
L 41.015625 53.375 
Q 39.84375 58.546875 37.703125 60.890625 
Q 34.125 64.65625 28.90625 64.65625 
Q 24.703125 64.65625 21.53125 62.3125 
Q 17.390625 59.28125 14.984375 53.46875 
Q 12.59375 47.65625 12.5 36.921875 
Q 15.671875 41.75 20.265625 44.09375 
Q 24.859375 46.4375 29.890625 46.4375 
Q 38.671875 46.4375 44.84375 39.96875 
Q 51.03125 33.5 51.03125 23.25 
Q 51.03125 16.5 48.125 10.71875 
Q 45.21875 4.9375 40.140625 1.859375 
Q 35.0625 -1.21875 28.609375 -1.21875 
Q 17.625 -1.21875 10.6875 6.859375 
Q 3.765625 14.9375 3.765625 33.5 
Q 3.765625 54.25 11.421875 63.671875 
Q 18.109375 71.875 29.4375 71.875 
Q 37.890625 71.875 43.28125 67.140625 
Q 48.6875 62.40625 49.75 54.046875 
z
M 13.875 23.1875 
Q 13.875 18.65625 15.796875 14.5 
Q 17.71875 10.359375 21.1875 8.171875 
Q 24.65625 6 28.46875 6 
Q 34.03125 6 38.03125 10.484375 
Q 42.046875 14.984375 42.046875 22.703125 
Q 42.046875 30.125 38.078125 34.390625 
Q 34.125 38.671875 28.125 38.671875 
Q 22.171875 38.671875 18.015625 34.390625 
Q 13.875 30.125 13.875 23.1875 
z
" id="ArialMT-54"/>
      </defs>
      <g style="fill:#262626;" transform="translate(41.362813 50.956226)scale(0.165 -0.165)">
       <use xlink:href="#ArialMT-54"/>
       <use x="55.615234" xlink:href="#ArialMT-48"/>
       <use x="111.230469" xlink:href="#ArialMT-48"/>
       <use x="166.845703" xlink:href="#ArialMT-48"/>
      </g>
     </g>
    </g>
    <g id="text_13">
     <!-- No. generated Bemis Murcko scaffolds -->
     <defs>
      <path d="M 7.625 0 
L 7.625 71.578125 
L 17.328125 71.578125 
L 54.9375 15.375 
L 54.9375 71.578125 
L 64.015625 71.578125 
L 64.015625 0 
L 54.296875 0 
L 16.703125 56.25 
L 16.703125 0 
z
" id="ArialMT-78"/>
      <path d="M 9.078125 0 
L 9.078125 10.015625 
L 19.09375 10.015625 
L 19.09375 0 
z
" id="ArialMT-46"/>
      <path id="ArialMT-32"/>
      <path d="M 4.984375 -4.296875 
L 13.53125 -5.5625 
Q 14.0625 -9.515625 16.5 -11.328125 
Q 19.78125 -13.765625 25.4375 -13.765625 
Q 31.546875 -13.765625 34.859375 -11.328125 
Q 38.1875 -8.890625 39.359375 -4.5 
Q 40.046875 -1.8125 39.984375 6.78125 
Q 34.234375 0 25.640625 0 
Q 14.9375 0 9.078125 7.71875 
Q 3.21875 15.4375 3.21875 26.21875 
Q 3.21875 33.640625 5.90625 39.90625 
Q 8.59375 46.1875 13.6875 49.609375 
Q 18.796875 53.03125 25.6875 53.03125 
Q 34.859375 53.03125 40.828125 45.609375 
L 40.828125 51.859375 
L 48.921875 51.859375 
L 48.921875 7.03125 
Q 48.921875 -5.078125 46.453125 -10.125 
Q 44 -15.1875 38.640625 -18.109375 
Q 33.296875 -21.046875 25.484375 -21.046875 
Q 16.21875 -21.046875 10.5 -16.875 
Q 4.78125 -12.703125 4.984375 -4.296875 
z
M 12.25 26.859375 
Q 12.25 16.65625 16.296875 11.96875 
Q 20.359375 7.28125 26.46875 7.28125 
Q 32.515625 7.28125 36.609375 11.9375 
Q 40.71875 16.609375 40.71875 26.5625 
Q 40.71875 36.078125 36.5 40.90625 
Q 32.28125 45.75 26.3125 45.75 
Q 20.453125 45.75 16.34375 40.984375 
Q 12.25 36.234375 12.25 26.859375 
z
" id="ArialMT-103"/>
      <path d="M 40.234375 0 
L 40.234375 6.546875 
Q 35.296875 -1.171875 25.734375 -1.171875 
Q 19.53125 -1.171875 14.328125 2.25 
Q 9.125 5.671875 6.265625 11.796875 
Q 3.421875 17.921875 3.421875 25.875 
Q 3.421875 33.640625 6 39.96875 
Q 8.59375 46.296875 13.765625 49.65625 
Q 18.953125 53.03125 25.34375 53.03125 
Q 30.03125 53.03125 33.6875 51.046875 
Q 37.359375 49.078125 39.65625 45.90625 
L 39.65625 71.578125 
L 48.390625 71.578125 
L 48.390625 0 
z
M 12.453125 25.875 
Q 12.453125 15.921875 16.640625 10.984375 
Q 20.84375 6.0625 26.5625 6.0625 
Q 32.328125 6.0625 36.34375 10.765625 
Q 40.375 15.484375 40.375 25.140625 
Q 40.375 35.796875 36.265625 40.765625 
Q 32.171875 45.75 26.171875 45.75 
Q 20.3125 45.75 16.375 40.96875 
Q 12.453125 36.1875 12.453125 25.875 
z
" id="ArialMT-100"/>
      <path d="M 7.328125 0 
L 7.328125 71.578125 
L 34.1875 71.578125 
Q 42.390625 71.578125 47.34375 69.40625 
Q 52.296875 67.234375 55.09375 62.71875 
Q 57.90625 58.203125 57.90625 53.265625 
Q 57.90625 48.6875 55.421875 44.625 
Q 52.9375 40.578125 47.90625 38.09375 
Q 54.390625 36.1875 57.875 31.59375 
Q 61.375 27 61.375 20.75 
Q 61.375 15.71875 59.25 11.390625 
Q 57.125 7.078125 54 4.734375 
Q 50.875 2.390625 46.15625 1.1875 
Q 41.453125 0 34.625 0 
z
M 16.796875 41.5 
L 32.28125 41.5 
Q 38.578125 41.5 41.3125 42.328125 
Q 44.921875 43.40625 46.75 45.890625 
Q 48.578125 48.390625 48.578125 52.15625 
Q 48.578125 55.71875 46.875 58.421875 
Q 45.171875 61.140625 41.984375 62.140625 
Q 38.8125 63.140625 31.109375 63.140625 
L 16.796875 63.140625 
z
M 16.796875 8.453125 
L 34.625 8.453125 
Q 39.203125 8.453125 41.0625 8.796875 
Q 44.34375 9.375 46.53125 10.734375 
Q 48.734375 12.109375 50.140625 14.71875 
Q 51.5625 17.328125 51.5625 20.75 
Q 51.5625 24.75 49.515625 27.703125 
Q 47.46875 30.671875 43.828125 31.859375 
Q 40.1875 33.0625 33.34375 33.0625 
L 16.796875 33.0625 
z
" id="ArialMT-66"/>
      <path d="M 6.59375 0 
L 6.59375 51.859375 
L 14.453125 51.859375 
L 14.453125 44.578125 
Q 16.890625 48.390625 20.9375 50.703125 
Q 25 53.03125 30.171875 53.03125 
Q 35.9375 53.03125 39.625 50.640625 
Q 43.3125 48.25 44.828125 43.953125 
Q 50.984375 53.03125 60.84375 53.03125 
Q 68.5625 53.03125 72.703125 48.75 
Q 76.859375 44.484375 76.859375 35.59375 
L 76.859375 0 
L 68.109375 0 
L 68.109375 32.671875 
Q 68.109375 37.9375 67.25 40.25 
Q 66.40625 42.578125 64.15625 43.984375 
Q 61.921875 45.40625 58.890625 45.40625 
Q 53.421875 45.40625 49.796875 41.765625 
Q 46.1875 38.140625 46.1875 30.125 
L 46.1875 0 
L 37.40625 0 
L 37.40625 33.6875 
Q 37.40625 39.546875 35.25 42.46875 
Q 33.109375 45.40625 28.21875 45.40625 
Q 24.515625 45.40625 21.359375 43.453125 
Q 18.21875 41.5 16.796875 37.734375 
Q 15.375 33.984375 15.375 26.90625 
L 15.375 0 
z
" id="ArialMT-109"/>
      <path d="M 3.078125 15.484375 
L 11.765625 16.84375 
Q 12.5 11.625 15.84375 8.84375 
Q 19.1875 6.0625 25.203125 6.0625 
Q 31.25 6.0625 34.171875 8.515625 
Q 37.109375 10.984375 37.109375 14.3125 
Q 37.109375 17.28125 34.515625 19 
Q 32.71875 20.171875 25.53125 21.96875 
Q 15.875 24.421875 12.140625 26.203125 
Q 8.40625 27.984375 6.46875 31.125 
Q 4.546875 34.28125 4.546875 38.09375 
Q 4.546875 41.546875 6.125 44.5 
Q 7.71875 47.46875 10.453125 49.421875 
Q 12.5 50.921875 16.03125 51.96875 
Q 19.578125 53.03125 23.640625 53.03125 
Q 29.734375 53.03125 34.34375 51.265625 
Q 38.96875 49.515625 41.15625 46.5 
Q 43.359375 43.5 44.1875 38.484375 
L 35.59375 37.3125 
Q 35.015625 41.3125 32.203125 43.546875 
Q 29.390625 45.796875 24.265625 45.796875 
Q 18.21875 45.796875 15.625 43.796875 
Q 13.03125 41.796875 13.03125 39.109375 
Q 13.03125 37.40625 14.109375 36.03125 
Q 15.1875 34.625 17.484375 33.6875 
Q 18.796875 33.203125 25.25 31.453125 
Q 34.578125 28.953125 38.25 27.359375 
Q 41.9375 25.78125 44.03125 22.75 
Q 46.140625 19.734375 46.140625 15.234375 
Q 46.140625 10.84375 43.578125 6.953125 
Q 41.015625 3.078125 36.171875 0.953125 
Q 31.34375 -1.171875 25.25 -1.171875 
Q 15.140625 -1.171875 9.84375 3.03125 
Q 4.546875 7.234375 3.078125 15.484375 
z
" id="ArialMT-115"/>
      <path d="M 7.421875 0 
L 7.421875 71.578125 
L 21.6875 71.578125 
L 38.625 20.90625 
Q 40.96875 13.8125 42.046875 10.296875 
Q 43.265625 14.203125 45.84375 21.78125 
L 62.984375 71.578125 
L 75.734375 71.578125 
L 75.734375 0 
L 66.609375 0 
L 66.609375 59.90625 
L 45.796875 0 
L 37.25 0 
L 16.546875 60.9375 
L 16.546875 0 
z
" id="ArialMT-77"/>
      <path d="M 40.578125 0 
L 40.578125 7.625 
Q 34.515625 -1.171875 24.125 -1.171875 
Q 19.53125 -1.171875 15.546875 0.578125 
Q 11.578125 2.34375 9.640625 5 
Q 7.71875 7.671875 6.9375 11.53125 
Q 6.390625 14.109375 6.390625 19.734375 
L 6.390625 51.859375 
L 15.1875 51.859375 
L 15.1875 23.09375 
Q 15.1875 16.21875 15.71875 13.8125 
Q 16.546875 10.359375 19.234375 8.375 
Q 21.921875 6.390625 25.875 6.390625 
Q 29.828125 6.390625 33.296875 8.421875 
Q 36.765625 10.453125 38.203125 13.9375 
Q 39.65625 17.4375 39.65625 24.078125 
L 39.65625 51.859375 
L 48.4375 51.859375 
L 48.4375 0 
z
" id="ArialMT-117"/>
      <path d="M 40.4375 19 
L 49.078125 17.875 
Q 47.65625 8.9375 41.8125 3.875 
Q 35.984375 -1.171875 27.484375 -1.171875 
Q 16.84375 -1.171875 10.375 5.78125 
Q 3.90625 12.75 3.90625 25.734375 
Q 3.90625 34.125 6.6875 40.421875 
Q 9.46875 46.734375 15.15625 49.875 
Q 20.84375 53.03125 27.546875 53.03125 
Q 35.984375 53.03125 41.359375 48.75 
Q 46.734375 44.484375 48.25 36.625 
L 39.703125 35.296875 
Q 38.484375 40.53125 35.375 43.15625 
Q 32.28125 45.796875 27.875 45.796875 
Q 21.234375 45.796875 17.078125 41.03125 
Q 12.9375 36.28125 12.9375 25.984375 
Q 12.9375 15.53125 16.9375 10.796875 
Q 20.953125 6.0625 27.390625 6.0625 
Q 32.5625 6.0625 36.03125 9.234375 
Q 39.5 12.40625 40.4375 19 
z
" id="ArialMT-99"/>
      <path d="M 6.640625 0 
L 6.640625 71.578125 
L 15.4375 71.578125 
L 15.4375 30.765625 
L 36.234375 51.859375 
L 47.609375 51.859375 
L 27.78125 32.625 
L 49.609375 0 
L 38.765625 0 
L 21.625 26.515625 
L 15.4375 20.5625 
L 15.4375 0 
z
" id="ArialMT-107"/>
      <path d="M 8.6875 0 
L 8.6875 45.015625 
L 0.921875 45.015625 
L 0.921875 51.859375 
L 8.6875 51.859375 
L 8.6875 57.375 
Q 8.6875 62.59375 9.625 65.140625 
Q 10.890625 68.5625 14.078125 70.671875 
Q 17.28125 72.796875 23.046875 72.796875 
Q 26.765625 72.796875 31.25 71.921875 
L 29.9375 64.265625 
Q 27.203125 64.75 24.75 64.75 
Q 20.75 64.75 19.09375 63.03125 
Q 17.4375 61.328125 17.4375 56.640625 
L 17.4375 51.859375 
L 27.546875 51.859375 
L 27.546875 45.015625 
L 17.4375 45.015625 
L 17.4375 0 
z
" id="ArialMT-102"/>
      <path d="M 6.390625 0 
L 6.390625 71.578125 
L 15.1875 71.578125 
L 15.1875 0 
z
" id="ArialMT-108"/>
     </defs>
     <g style="fill:#262626;" transform="translate(33.574375 355.808125)rotate(-90)scale(0.18 -0.18)">
      <use xlink:href="#ArialMT-78"/>
      <use x="72.216797" xlink:href="#ArialMT-111"/>
      <use x="127.832031" xlink:href="#ArialMT-46"/>
      <use x="155.615234" xlink:href="#ArialMT-32"/>
      <use x="183.398438" xlink:href="#ArialMT-103"/>
      <use x="239.013672" xlink:href="#ArialMT-101"/>
      <use x="294.628906" xlink:href="#ArialMT-110"/>
      <use x="350.244141" xlink:href="#ArialMT-101"/>
      <use x="405.859375" xlink:href="#ArialMT-114"/>
      <use x="439.160156" xlink:href="#ArialMT-97"/>
      <use x="494.775391" xlink:href="#ArialMT-116"/>
      <use x="522.558594" xlink:href="#ArialMT-101"/>
      <use x="578.173828" xlink:href="#ArialMT-100"/>
      <use x="633.789062" xlink:href="#ArialMT-32"/>
      <use x="661.572266" xlink:href="#ArialMT-66"/>
      <use x="728.271484" xlink:href="#ArialMT-101"/>
      <use x="783.886719" xlink:href="#ArialMT-109"/>
      <use x="867.1875" xlink:href="#ArialMT-105"/>
      <use x="889.404297" xlink:href="#ArialMT-115"/>
      <use x="939.404297" xlink:href="#ArialMT-32"/>
      <use x="967.1875" xlink:href="#ArialMT-77"/>
      <use x="1050.488281" xlink:href="#ArialMT-117"/>
      <use x="1106.103516" xlink:href="#ArialMT-114"/>
      <use x="1139.404297" xlink:href="#ArialMT-99"/>
      <use x="1189.404297" xlink:href="#ArialMT-107"/>
      <use x="1239.404297" xlink:href="#ArialMT-111"/>
      <use x="1295.019531" xlink:href="#ArialMT-32"/>
      <use x="1322.802734" xlink:href="#ArialMT-115"/>
      <use x="1372.802734" xlink:href="#ArialMT-99"/>
      <use x="1422.802734" xlink:href="#ArialMT-97"/>
      <use x="1478.417969" xlink:href="#ArialMT-102"/>
      <use x="1506.185547" xlink:href="#ArialMT-102"/>
      <use x="1533.96875" xlink:href="#ArialMT-111"/>
      <use x="1589.583984" xlink:href="#ArialMT-108"/>
      <use x="1611.800781" xlink:href="#ArialMT-100"/>
      <use x="1667.416016" xlink:href="#ArialMT-115"/>
     </g>
    </g>
   </g>
   <g id="line2d_12">
    <path clip-path="url(#p6afcfdbd56)" d="M 101.784645 348.35 
L 110.790379 348.2489 
L 111.540857 348.198351 
L 112.291335 347.996151 
L 114.542769 347.793952 
L 116.043725 347.389553 
L 116.794203 347.288454 
L 118.295158 346.782955 
L 119.045636 346.681856 
L 120.546592 346.176357 
L 121.29707 345.974158 
L 122.798026 344.963162 
L 123.548504 344.811512 
L 124.298982 344.508213 
L 125.799937 343.497216 
L 127.300893 343.193918 
L 128.051371 342.789519 
L 129.552327 342.58732 
L 131.80376 341.677423 
L 132.554238 341.626873 
L 134.055194 341.323574 
L 136.306628 341.222474 
L 137.057106 341.121375 
L 137.807584 340.666426 
L 138.558062 340.514777 
L 139.308539 340.059828 
L 141.559973 339.40268 
L 142.310451 339.200481 
L 143.811407 338.593883 
L 146.062841 337.987285 
L 147.563796 337.886186 
L 149.064752 337.582887 
L 153.56762 336.875189 
L 156.569531 336.319141 
L 158.820965 336.268591 
L 160.321921 336.066392 
L 162.573354 335.965292 
L 179.083868 334.954296 
L 182.836258 334.853196 
L 184.337213 334.701546 
L 188.089603 334.600447 
L 196.34486 334.145498 
L 198.596293 334.145498 
L 200.847727 333.791649 
L 203.849639 333.69055 
L 207.602028 333.58945 
L 211.354418 333.437801 
L 215.106807 333.387251 
L 223.362064 332.325704 
L 225.613498 332.224605 
L 227.114454 331.971856 
L 230.866843 331.820206 
L 234.619232 331.719107 
L 236.120188 331.567457 
L 241.373534 331.466357 
L 249.62879 330.859759 
L 251.129746 330.60701 
L 254.882136 330.505911 
L 257.133569 330.455361 
L 258.634525 330.404811 
L 261.636437 330.101512 
L 266.139304 329.747663 
L 267.64026 329.545464 
L 272.143127 329.039966 
L 287.903163 328.079519 
L 293.156509 327.978419 
L 297.659376 327.77622 
L 301.411765 327.67512 
L 302.912721 327.574021 
L 305.914633 327.574021 
L 306.665111 327.422371 
L 323.926102 327.321271 
L 326.177536 327.270722 
L 326.177536 327.270722 
" style="fill:none;stroke:#1f77b4;stroke-linecap:round;stroke-width:2.25;"/>
   </g>
   <g id="line2d_13">
    <path clip-path="url(#p6afcfdbd56)" d="M 101.784645 348.35 
L 110.790379 348.2489 
L 113.792291 347.793952 
L 115.293247 347.288454 
L 116.043725 346.985155 
L 117.54468 346.024708 
L 119.045636 345.114811 
L 122.047548 341.930172 
L 122.798026 340.565326 
L 123.548504 339.55433 
L 124.298982 338.037835 
L 125.799937 335.510344 
L 126.550415 335.004845 
L 128.801849 331.618007 
L 129.552327 330.60701 
L 131.053283 328.079519 
L 131.80376 327.220172 
L 132.554238 326.006976 
L 134.055194 324.74323 
L 135.55615 323.782784 
L 136.306628 323.428935 
L 137.807584 323.075086 
L 138.558062 322.519038 
L 139.308539 322.165189 
L 140.059017 322.01354 
L 140.809495 321.710241 
L 142.310451 320.699244 
L 145.312363 317.969553 
L 146.813318 316.756357 
L 147.563796 316.09921 
L 149.064752 314.380515 
L 152.066664 312.560722 
L 152.817142 312.358522 
L 154.318097 311.448625 
L 155.819053 310.18488 
L 157.320009 309.325533 
L 159.571443 306.899141 
L 160.321921 306.140893 
L 161.072399 304.877148 
L 162.573354 303.107904 
L 164.824788 299.973814 
L 165.575266 299.316667 
L 166.325744 298.811168 
L 168.577177 296.789175 
L 169.327655 296.233127 
L 170.078133 295.42433 
L 171.579089 294.615533 
L 172.329567 294.110034 
L 173.080045 293.806735 
L 174.581001 292.947388 
L 175.331479 292.846289 
L 176.081956 291.986942 
L 176.832434 291.531993 
L 177.582912 290.925395 
L 179.083868 289.45945 
L 179.834346 289.004502 
L 180.584824 288.145155 
L 182.08578 286.729759 
L 186.588647 281.422027 
L 187.339125 280.512131 
L 188.840081 278.186838 
L 189.590559 276.771443 
L 191.091514 274.496701 
L 191.841992 273.637354 
L 192.59247 272.171409 
L 194.093426 270.199966 
L 194.843904 269.290069 
L 196.34486 268.076873 
L 197.845816 266.762577 
L 199.346771 265.195533 
L 200.097249 264.740584 
L 200.847727 263.931787 
L 202.348683 261.859244 
L 203.099161 260.595498 
L 204.600117 258.876804 
L 205.350594 257.916357 
L 206.101072 256.652612 
L 206.85155 255.692165 
L 207.602028 255.085567 
L 209.853462 252.608625 
L 210.60394 252.355876 
L 211.354418 251.799828 
L 213.605851 250.991031 
L 214.356329 250.384433 
L 216.607763 249.525086 
L 217.358241 249.171237 
L 218.108719 248.46354 
L 218.859197 248.109691 
L 221.861108 245.632749 
L 223.362064 245.076701 
L 224.112542 244.470103 
L 224.86302 244.065704 
L 225.613498 243.812955 
L 227.114454 242.801959 
L 230.866843 240.173368 
L 231.617321 239.920619 
L 232.367799 239.263471 
L 233.118277 238.808522 
L 233.868755 238.707423 
L 234.619232 238.050275 
L 235.36971 237.544777 
L 237.621144 236.68543 
L 239.1221 235.371134 
L 239.872578 235.017285 
L 240.623056 234.157938 
L 242.874489 230.316151 
L 245.125923 226.373265 
L 245.876401 225.615017 
L 248.878313 220.661134 
L 249.62879 219.04354 
L 250.379268 217.729244 
L 251.129746 216.718247 
L 252.630702 214.039107 
L 253.38118 213.432509 
L 254.131658 212.522612 
L 255.632614 209.792921 
L 257.133569 208.023677 
L 258.634525 206.911581 
L 259.385003 206.052234 
L 260.135481 205.647835 
L 260.885959 205.091787 
L 262.386915 203.524742 
L 263.137393 202.614845 
L 264.638348 201.047801 
L 267.64026 197.206014 
L 268.390738 196.700515 
L 269.891694 195.33567 
L 270.642172 194.425773 
L 272.143127 193.162027 
L 273.644083 191.999381 
L 276.645995 188.915842 
L 278.146951 186.944399 
L 278.897428 186.287251 
L 279.647906 185.427904 
L 280.398384 184.770756 
L 281.148862 183.45646 
L 281.89934 182.950962 
L 283.400296 180.979519 
L 284.150774 180.322371 
L 287.152685 176.733333 
L 287.903163 175.722337 
L 290.154597 173.295945 
L 290.905075 172.790447 
L 292.406031 171.526701 
L 294.657464 170.060756 
L 295.407942 169.251959 
L 296.15842 168.99921 
L 299.91081 165.359622 
L 300.661288 164.500275 
L 303.663199 159.95079 
L 304.413677 159.192543 
L 307.415589 155.401306 
L 309.667022 153.025464 
L 310.4175 152.115567 
L 313.419412 147.161684 
L 314.16989 145.544089 
L 315.670845 142.713299 
L 316.421323 141.045155 
L 319.423235 135.737423 
L 320.924191 133.311031 
L 321.674669 132.552784 
L 322.425147 131.592337 
L 323.175624 130.227491 
L 323.926102 129.267045 
L 324.67658 127.952749 
L 326.177536 125.930756 
L 326.177536 125.930756 
" style="fill:none;stroke:#ff7f0e;stroke-linecap:round;stroke-width:2.25;"/>
   </g>
   <g id="line2d_14">
    <path clip-path="url(#p6afcfdbd56)" d="M 101.784645 348.35 
L 110.790379 348.2489 
L 113.792291 347.793952 
L 115.293247 347.288454 
L 116.043725 346.985155 
L 118.295158 345.51921 
L 119.045636 345.165361 
L 120.546592 344.154364 
L 122.047548 342.58732 
L 122.798026 341.525773 
L 123.548504 340.110378 
L 124.298982 338.391684 
L 125.049459 337.127938 
L 125.799937 336.167491 
L 128.051371 332.072955 
L 128.801849 331.061959 
L 130.302805 328.382818 
L 132.554238 323.075086 
L 134.805672 318.424502 
L 136.306628 316.351959 
L 138.558062 312.206873 
L 139.308539 310.842027 
L 140.809495 308.769485 
L 142.310451 305.534296 
L 143.811407 303.310103 
L 144.561885 302.147457 
L 145.312363 301.641959 
L 147.563796 297.699072 
L 148.314274 295.929828 
L 149.064752 294.463883 
L 149.81523 292.644089 
L 152.817142 287.336357 
L 153.56762 286.274811 
L 154.318097 285.567113 
L 155.819053 283.59567 
L 158.070487 279.349485 
L 160.321921 275.558247 
L 161.072399 274.446151 
L 161.822876 273.738454 
L 162.573354 272.424158 
L 166.325744 267.268076 
L 167.076222 266.10543 
L 167.8267 265.246082 
L 170.078133 261.657045 
L 176.081956 254.832818 
L 177.582912 253.265773 
L 179.083868 251.850378 
L 179.834346 251.496529 
L 182.08578 248.918488 
L 183.586735 247.958041 
L 184.337213 247.351443 
L 186.588647 246.289897 
L 187.339125 246.087698 
L 188.089603 245.531649 
L 190.341037 244.369003 
L 191.841992 243.560206 
L 192.59247 242.852509 
L 194.093426 242.245911 
L 194.843904 242.144811 
L 196.34486 241.538213 
L 197.845816 241.083265 
L 199.346771 240.325017 
L 203.849639 238.707423 
L 204.600117 238.404124 
L 206.101072 238.201924 
L 207.602028 237.797526 
L 208.352506 237.443677 
L 209.102984 237.241478 
L 209.853462 236.735979 
L 211.354418 236.58433 
L 212.104896 236.230481 
L 212.855373 236.078832 
L 213.605851 236.078832 
L 215.857285 235.371134 
L 216.607763 234.966735 
L 218.108719 234.562337 
L 219.609675 233.955739 
L 221.861108 233.55134 
L 223.362064 233.146942 
L 224.112542 232.944742 
L 224.86302 232.540344 
L 225.613498 232.439244 
L 227.864931 231.630447 
L 229.365887 230.61945 
L 230.866843 229.102955 
L 231.617321 228.142509 
L 233.868755 226.120515 
L 235.36971 225.058969 
L 236.120188 224.098522 
L 236.870666 223.744674 
L 239.1221 221.77323 
L 239.872578 221.116082 
L 240.623056 220.610584 
L 242.124011 218.94244 
L 242.874489 218.285292 
L 245.125923 215.8589 
L 246.626879 215.100653 
L 248.127835 214.089656 
L 249.62879 213.12921 
L 251.129746 211.713814 
L 251.880224 211.359966 
L 252.630702 210.450069 
L 253.38118 209.99512 
L 255.632614 206.052234 
L 257.133569 203.676392 
L 260.885959 194.880722 
L 261.636437 193.010378 
L 262.386915 191.493883 
L 263.887871 189.219141 
L 266.139304 185.731203 
L 266.889782 183.911409 
L 271.392649 176.177285 
L 272.893605 173.851993 
L 274.394561 172.588247 
L 275.145039 171.122302 
L 279.647906 164.904674 
L 281.148862 162.781581 
L 281.89934 161.821134 
L 282.649818 160.456289 
L 284.150774 158.687045 
L 284.901252 157.827698 
L 286.402207 155.704605 
L 287.152685 155.047457 
L 290.154597 151.660619 
L 290.905075 150.700172 
L 291.655553 149.992474 
L 297.659376 141.752852 
L 299.160332 140.944055 
L 300.661288 139.174811 
L 302.162243 137.809966 
L 302.912721 137.001168 
L 303.663199 136.39457 
L 306.665111 132.148385 
L 308.166066 129.671443 
L 309.667022 127.346151 
L 310.4175 126.031856 
L 311.918456 124.262612 
L 314.16989 121.73512 
L 314.920368 120.623024 
L 317.922279 117.691134 
L 319.423235 115.517491 
L 321.674669 112.181203 
L 323.926102 108.288866 
L 324.67658 106.97457 
L 325.427058 105.963574 
L 326.177536 104.750378 
L 326.177536 104.750378 
" style="fill:none;stroke:#2ca02c;stroke-linecap:round;stroke-width:2.25;"/>
   </g>
   <g id="line2d_15">
    <path clip-path="url(#p6afcfdbd56)" d="M 101.784645 348.35 
L 110.790379 348.2489 
L 113.792291 347.793952 
L 115.293247 347.288454 
L 116.043725 346.985155 
L 118.295158 345.51921 
L 119.045636 345.165361 
L 120.546592 344.154364 
L 122.047548 342.58732 
L 122.798026 341.525773 
L 123.548504 340.110378 
L 124.298982 338.391684 
L 125.049459 337.127938 
L 125.799937 336.167491 
L 128.051371 332.072955 
L 128.801849 331.061959 
L 130.302805 328.382818 
L 132.554238 323.075086 
L 134.805672 318.424502 
L 136.306628 316.351959 
L 138.558062 312.206873 
L 139.308539 310.842027 
L 140.809495 308.769485 
L 142.310451 305.534296 
L 143.811407 303.310103 
L 144.561885 302.147457 
L 145.312363 301.641959 
L 147.563796 297.699072 
L 148.314274 295.929828 
L 151.316186 290.268247 
L 152.066664 288.852852 
L 152.817142 287.993505 
L 153.56762 286.830859 
L 158.070487 282.281375 
L 159.571443 280.158282 
L 160.321921 278.793436 
L 161.822876 276.923093 
L 162.573354 275.153849 
L 164.824788 271.059313 
L 165.575266 269.997766 
L 167.076222 267.419725 
L 167.8267 266.610928 
L 169.327655 264.487835 
L 170.078133 263.931787 
L 170.828611 262.97134 
L 176.832434 256.753711 
L 177.582912 255.793265 
L 182.08578 252.709725 
L 182.836258 251.951478 
L 184.337213 249.727285 
L 185.087691 248.564639 
L 186.588647 244.672302 
L 188.840081 238.151375 
L 191.091514 231.124948 
L 191.841992 228.091959 
L 194.093426 221.014983 
L 194.843904 219.144639 
L 195.594382 217.577595 
L 197.095338 213.230309 
L 198.596293 209.388522 
L 199.346771 207.11378 
L 200.097249 205.445636 
L 200.847727 204.08079 
L 201.598205 202.362096 
L 203.849639 198.014811 
L 204.600117 197.003814 
L 205.350594 195.38622 
L 206.101072 194.071924 
L 209.102984 188.056495 
L 209.853462 186.843299 
L 210.60394 185.175155 
L 212.855373 181.232268 
L 213.605851 180.069622 
L 216.607763 174.054192 
L 218.108719 171.425601 
L 218.859197 170.212405 
L 219.609675 168.544261 
L 220.360152 167.432165 
L 221.861108 164.601375 
L 222.611586 162.629931 
L 223.362064 161.265086 
L 224.112542 159.243093 
L 224.86302 157.726598 
L 225.613498 155.603505 
L 227.864931 150.497973 
L 229.365887 148.27378 
L 230.116365 146.757285 
L 233.868755 141.601203 
L 234.619232 141.045155 
L 235.36971 140.084708 
L 236.120188 139.42756 
L 237.621144 137.658316 
L 239.872578 135.383574 
L 245.125923 126.689003 
L 245.876401 125.273608 
L 246.626879 124.110962 
L 248.127835 122.240619 
L 249.62879 119.763677 
L 250.379268 118.247182 
L 251.129746 117.640584 
L 251.880224 116.831787 
L 254.882136 114.506495 
L 255.632614 114.203196 
L 257.133569 112.737251 
L 257.884047 112.080103 
L 263.887871 105.306426 
L 266.139304 103.891031 
L 267.64026 103.183333 
L 270.642172 100.453643 
L 271.392649 100.049244 
L 272.143127 99.493196 
L 272.893605 99.088797 
L 273.644083 98.128351 
L 275.895517 96.763505 
L 276.645995 95.954708 
L 278.897428 94.236014 
L 280.398384 93.528316 
L 281.148862 92.921718 
L 284.901252 90.899725 
L 286.402207 89.130481 
L 287.152685 87.917285 
L 289.404119 83.165601 
L 290.154597 81.345808 
L 292.406031 77.150172 
L 293.906986 74.67323 
L 297.659376 71.539141 
L 298.409854 70.881993 
L 299.91081 70.477595 
L 302.912721 69.314948 
L 304.413677 69.213849 
L 305.914633 68.556701 
L 306.665111 68.354502 
L 311.918456 65.82701 
L 313.419412 64.462165 
L 314.16989 63.501718 
L 314.920368 62.94567 
L 315.670845 62.541271 
L 317.171801 61.125876 
L 319.423235 59.659931 
L 320.924191 57.890687 
L 321.674669 57.23354 
L 322.425147 56.424742 
L 323.175624 55.363196 
L 323.926102 54.503849 
L 324.67658 54.301649 
L 326.177536 54.15 
L 326.177536 54.15 
" style="fill:none;stroke:#d62728;stroke-linecap:round;stroke-width:2.25;"/>
   </g>
   <g id="line2d_16">
    <path clip-path="url(#p6afcfdbd56)" d="M 101.784645 348.35 
L 110.790379 348.2489 
L 113.792291 347.793952 
L 115.293247 347.288454 
L 116.043725 346.985155 
L 118.295158 345.51921 
L 119.045636 345.165361 
L 120.546592 344.154364 
L 122.047548 342.58732 
L 122.798026 341.525773 
L 125.799937 336.015842 
L 127.300893 333.64 
L 128.801849 330.354261 
L 130.302805 327.574021 
L 131.053283 325.905876 
L 132.554238 323.378385 
L 133.304716 321.609141 
L 134.055194 320.497045 
L 134.805672 319.081649 
L 137.807584 315.088213 
L 139.308539 312.91457 
L 144.561885 304.371649 
L 145.312363 303.461753 
L 146.062841 302.198007 
L 149.81523 297.294674 
L 151.316186 296.384777 
L 152.817142 295.52543 
L 153.56762 295.32323 
L 154.318097 295.27268 
L 155.819053 294.918832 
L 158.820965 294.413333 
L 160.321921 293.806735 
L 163.323832 292.59354 
L 164.07431 292.037491 
L 164.824788 291.026495 
L 165.575266 290.419897 
L 167.076222 288.600103 
L 167.8267 287.993505 
L 170.078133 284.252818 
L 170.828611 283.393471 
L 172.329567 281.422027 
L 173.080045 280.56268 
L 173.830523 279.400034 
L 176.081956 277.074742 
L 177.582912 275.760447 
L 178.33339 275.254948 
L 181.335302 271.059313 
L 182.08578 269.745017 
L 183.586735 266.661478 
L 185.087691 263.628488 
L 185.838169 262.162543 
L 186.588647 261.050447 
L 187.339125 259.736151 
L 188.089603 258.826254 
L 188.840081 257.410859 
L 190.341037 255.439416 
L 194.093426 251.900928 
L 197.845816 249.878935 
L 199.346771 248.817388 
L 200.097249 248.36244 
L 200.847727 247.755842 
L 206.85155 244.520653 
L 208.352506 243.408557 
L 209.102984 243.004158 
L 212.104896 240.274467 
L 212.855373 239.718419 
L 213.605851 239.51622 
L 214.356329 239.010722 
L 215.857285 237.746976 
L 216.607763 236.63488 
L 217.358241 236.028282 
L 219.609675 233.60189 
L 220.360152 232.894192 
L 221.11063 231.933746 
L 221.861108 231.327148 
L 222.611586 230.467801 
L 223.362064 229.406254 
L 226.363976 226.322715 
L 229.365887 224.502921 
L 230.116365 224.199622 
L 230.866843 224.047973 
L 231.617321 223.643574 
L 232.367799 223.087526 
L 235.36971 221.571031 
L 236.120188 220.964433 
L 236.870666 220.003986 
L 238.371622 219.04354 
L 239.872578 217.375395 
L 240.623056 216.212749 
L 242.124011 214.696254 
L 242.874489 213.634708 
L 244.375445 212.017113 
L 245.876401 209.691821 
L 246.626879 208.832474 
L 248.127835 206.001684 
L 248.878313 204.990687 
L 249.62879 203.726942 
L 253.38118 198.874158 
L 254.882136 197.357663 
L 255.632614 196.447766 
L 256.383092 195.28512 
L 257.133569 194.678522 
L 257.884047 194.223574 
L 259.385003 192.858729 
L 260.135481 192.30268 
L 261.636437 190.988385 
L 262.386915 189.876289 
L 266.889782 181.889416 
L 267.64026 180.170722 
L 268.390738 178.856426 
L 269.141216 177.137732 
L 269.891694 175.772887 
L 270.642172 174.003643 
L 272.143127 170.010206 
L 272.893605 168.291512 
L 275.145039 162.326632 
L 275.895517 160.810137 
L 277.396473 158.585945 
L 278.146951 157.574948 
L 278.897428 157.06945 
L 279.647906 156.159553 
L 280.398384 154.946357 
L 281.89934 152.166117 
L 282.649818 151.054021 
L 286.402207 142.713299 
L 289.404119 138.315464 
L 290.905075 135.029725 
L 292.406031 131.794536 
L 293.156509 129.873643 
L 294.657464 127.194502 
L 295.407942 125.576907 
L 296.908898 123.201065 
L 299.160332 120.066976 
L 300.661288 117.741684 
L 302.162243 116.528488 
L 302.912721 115.163643 
L 304.413677 112.8889 
L 306.665111 109.198763 
L 309.667022 102.728385 
L 311.167978 100.200893 
L 314.16989 95.29756 
L 314.920368 94.236014 
L 317.171801 91.809622 
L 318.672757 90.343677 
L 319.423235 89.737079 
L 320.173713 88.877732 
L 320.924191 88.271134 
L 321.674669 87.159038 
L 324.67658 84.126048 
L 325.427058 83.115052 
L 326.177536 82.306254 
L 326.177536 82.306254 
" style="fill:none;stroke:#9467bd;stroke-linecap:round;stroke-width:2.25;"/>
   </g>
   <g id="patch_3">
    <path d="M 90.565 363.06 
L 90.565 39.44 
" style="fill:none;stroke:#cccccc;stroke-linecap:square;stroke-linejoin:miter;stroke-width:1.875;"/>
   </g>
   <g id="patch_4">
    <path d="M 337.397181 363.06 
L 337.397181 39.44 
" style="fill:none;stroke:#cccccc;stroke-linecap:square;stroke-linejoin:miter;stroke-width:1.875;"/>
   </g>
   <g id="patch_5">
    <path d="M 90.565 363.06 
L 337.397181 363.06 
" style="fill:none;stroke:#cccccc;stroke-linecap:square;stroke-linejoin:miter;stroke-width:1.875;"/>
   </g>
   <g id="patch_6">
    <path d="M 90.565 39.44 
L 337.397181 39.44 
" style="fill:none;stroke:#cccccc;stroke-linecap:square;stroke-linejoin:miter;stroke-width:1.875;"/>
   </g>
   <g id="text_14">
    <!-- DRD2 -->
    <defs>
     <path d="M 7.71875 0 
L 7.71875 71.578125 
L 32.375 71.578125 
Q 40.71875 71.578125 45.125 70.5625 
Q 51.265625 69.140625 55.609375 65.4375 
Q 61.28125 60.640625 64.078125 53.1875 
Q 66.890625 45.75 66.890625 36.1875 
Q 66.890625 28.03125 64.984375 21.734375 
Q 63.09375 15.4375 60.109375 11.296875 
Q 57.125 7.171875 53.578125 4.796875 
Q 50.046875 2.4375 45.046875 1.21875 
Q 40.046875 0 33.546875 0 
z
M 17.1875 8.453125 
L 32.46875 8.453125 
Q 39.546875 8.453125 43.578125 9.765625 
Q 47.609375 11.078125 50 13.484375 
Q 53.375 16.84375 55.25 22.53125 
Q 57.125 28.21875 57.125 36.328125 
Q 57.125 47.5625 53.4375 53.59375 
Q 49.75 59.625 44.484375 61.671875 
Q 40.671875 63.140625 32.234375 63.140625 
L 17.1875 63.140625 
z
" id="ArialMT-68"/>
     <path d="M 7.859375 0 
L 7.859375 71.578125 
L 39.59375 71.578125 
Q 49.171875 71.578125 54.140625 69.640625 
Q 59.125 67.71875 62.109375 62.828125 
Q 65.09375 57.953125 65.09375 52.046875 
Q 65.09375 44.4375 60.15625 39.203125 
Q 55.21875 33.984375 44.921875 32.5625 
Q 48.6875 30.765625 50.640625 29 
Q 54.78125 25.203125 58.5 19.484375 
L 70.953125 0 
L 59.03125 0 
L 49.5625 14.890625 
Q 45.40625 21.34375 42.71875 24.75 
Q 40.046875 28.171875 37.921875 29.53125 
Q 35.796875 30.90625 33.59375 31.453125 
Q 31.984375 31.78125 28.328125 31.78125 
L 17.328125 31.78125 
L 17.328125 0 
z
M 17.328125 39.984375 
L 37.703125 39.984375 
Q 44.1875 39.984375 47.84375 41.328125 
Q 51.515625 42.671875 53.421875 45.625 
Q 55.328125 48.578125 55.328125 52.046875 
Q 55.328125 57.125 51.640625 60.390625 
Q 47.953125 63.671875 39.984375 63.671875 
L 17.328125 63.671875 
z
" id="ArialMT-82"/>
    </defs>
    <g style="fill:#262626;" transform="translate(189.477184 33.44)scale(0.18 -0.18)">
     <use xlink:href="#ArialMT-68"/>
     <use x="72.216797" xlink:href="#ArialMT-82"/>
     <use x="144.433594" xlink:href="#ArialMT-68"/>
     <use x="216.650391" xlink:href="#ArialMT-50"/>
    </g>
   </g>
  </g>
 </g>
 <defs>
  <clipPath id="p6afcfdbd56">
   <rect height="323.62" width="246.832181" x="90.565" y="39.44"/>
  </clipPath>
 </defs>
</svg>
