<?xml version="1.0" encoding="utf-8" standalone="no"?>
<!DOCTYPE svg PUBLIC "-//W3C//DTD SVG 1.1//EN"
  "http://www.w3.org/Graphics/SVG/1.1/DTD/svg11.dtd">
<!-- Created with matplotlib (https://matplotlib.org/) -->
<svg height="432pt" version="1.1" viewBox="0 0 360 432" width="360pt" xmlns="http://www.w3.org/2000/svg" xmlns:xlink="http://www.w3.org/1999/xlink">
 <defs>
  <style type="text/css">
*{stroke-linecap:butt;stroke-linejoin:round;}
  </style>
 </defs>
 <g id="figure_1">
  <g id="patch_1">
   <path d="M 0 432 
L 360 432 
L 360 0 
L 0 0 
z
" style="fill:#ffffff;"/>
  </g>
  <g id="axes_1">
   <g id="patch_2">
    <path d="M 90.565 363.06 
L 337.339312 363.06 
L 337.339312 39.44 
L 90.565 39.44 
z
" style="fill:#ffffff;"/>
   </g>
   <g id="matplotlib.axis_1">
    <g id="xtick_1">
     <g id="line2d_1">
      <path clip-path="url(#pe21aa38839)" d="M 101.782014 363.06 
L 101.782014 39.44 
" style="fill:none;stroke:#cccccc;stroke-linecap:round;stroke-width:1.5;"/>
     </g>
     <g id="text_1">
      <!-- 0 -->
      <defs>
       <path d="M 4.15625 35.296875 
Q 4.15625 48 6.765625 55.734375 
Q 9.375 63.484375 14.515625 67.671875 
Q 19.671875 71.875 27.484375 71.875 
Q 33.25 71.875 37.59375 69.546875 
Q 41.9375 67.234375 44.765625 62.859375 
Q 47.609375 58.5 49.21875 52.21875 
Q 50.828125 45.953125 50.828125 35.296875 
Q 50.828125 22.703125 48.234375 14.96875 
Q 45.65625 7.234375 40.5 3 
Q 35.359375 -1.21875 27.484375 -1.21875 
Q 17.140625 -1.21875 11.234375 6.203125 
Q 4.15625 15.140625 4.15625 35.296875 
z
M 13.1875 35.296875 
Q 13.1875 17.671875 17.3125 11.828125 
Q 21.4375 6 27.484375 6 
Q 33.546875 6 37.671875 11.859375 
Q 41.796875 17.71875 41.796875 35.296875 
Q 41.796875 52.984375 37.671875 58.78125 
Q 33.546875 64.59375 27.390625 64.59375 
Q 21.34375 64.59375 17.71875 59.46875 
Q 13.1875 52.9375 13.1875 35.296875 
z
" id="ArialMT-48"/>
      </defs>
      <g style="fill:#262626;" transform="translate(97.194241 387.370391)scale(0.165 -0.165)">
       <use xlink:href="#ArialMT-48"/>
      </g>
     </g>
    </g>
    <g id="xtick_2">
     <g id="line2d_2">
      <path clip-path="url(#pe21aa38839)" d="M 176.812209 363.06 
L 176.812209 39.44 
" style="fill:none;stroke:#cccccc;stroke-linecap:round;stroke-width:1.5;"/>
     </g>
     <g id="text_2">
      <!-- 100 -->
      <defs>
       <path d="M 37.25 0 
L 28.46875 0 
L 28.46875 56 
Q 25.296875 52.984375 20.140625 49.953125 
Q 14.984375 46.921875 10.890625 45.40625 
L 10.890625 53.90625 
Q 18.265625 57.375 23.78125 62.296875 
Q 29.296875 67.234375 31.59375 71.875 
L 37.25 71.875 
z
" id="ArialMT-49"/>
      </defs>
      <g style="fill:#262626;" transform="translate(163.048889 387.370391)scale(0.165 -0.165)">
       <use xlink:href="#ArialMT-49"/>
       <use x="55.615234" xlink:href="#ArialMT-48"/>
       <use x="111.230469" xlink:href="#ArialMT-48"/>
      </g>
     </g>
    </g>
    <g id="xtick_3">
     <g id="line2d_3">
      <path clip-path="url(#pe21aa38839)" d="M 251.842405 363.06 
L 251.842405 39.44 
" style="fill:none;stroke:#cccccc;stroke-linecap:round;stroke-width:1.5;"/>
     </g>
     <g id="text_3">
      <!-- 200 -->
      <defs>
       <path d="M 50.34375 8.453125 
L 50.34375 0 
L 3.03125 0 
Q 2.9375 3.171875 4.046875 6.109375 
Q 5.859375 10.9375 9.828125 15.625 
Q 13.8125 20.3125 21.34375 26.46875 
Q 33.015625 36.03125 37.109375 41.625 
Q 41.21875 47.21875 41.21875 52.203125 
Q 41.21875 57.421875 37.46875 61 
Q 33.734375 64.59375 27.734375 64.59375 
Q 21.390625 64.59375 17.578125 60.78125 
Q 13.765625 56.984375 13.71875 50.25 
L 4.6875 51.171875 
Q 5.609375 61.28125 11.65625 66.578125 
Q 17.71875 71.875 27.9375 71.875 
Q 38.234375 71.875 44.234375 66.15625 
Q 50.25 60.453125 50.25 52 
Q 50.25 47.703125 48.484375 43.546875 
Q 46.734375 39.40625 42.65625 34.8125 
Q 38.578125 30.21875 29.109375 22.21875 
Q 21.1875 15.578125 18.9375 13.203125 
Q 16.703125 10.84375 15.234375 8.453125 
z
" id="ArialMT-50"/>
      </defs>
      <g style="fill:#262626;" transform="translate(238.079084 387.370391)scale(0.165 -0.165)">
       <use xlink:href="#ArialMT-50"/>
       <use x="55.615234" xlink:href="#ArialMT-48"/>
       <use x="111.230469" xlink:href="#ArialMT-48"/>
      </g>
     </g>
    </g>
    <g id="xtick_4">
     <g id="line2d_4">
      <path clip-path="url(#pe21aa38839)" d="M 326.8726 363.06 
L 326.8726 39.44 
" style="fill:none;stroke:#cccccc;stroke-linecap:round;stroke-width:1.5;"/>
     </g>
     <g id="text_4">
      <!-- 300 -->
      <defs>
       <path d="M 4.203125 18.890625 
L 12.984375 20.0625 
Q 14.5 12.59375 18.140625 9.296875 
Q 21.78125 6 27 6 
Q 33.203125 6 37.46875 10.296875 
Q 41.75 14.59375 41.75 20.953125 
Q 41.75 27 37.796875 30.921875 
Q 33.84375 34.859375 27.734375 34.859375 
Q 25.25 34.859375 21.53125 33.890625 
L 22.515625 41.609375 
Q 23.390625 41.5 23.921875 41.5 
Q 29.546875 41.5 34.03125 44.421875 
Q 38.53125 47.359375 38.53125 53.46875 
Q 38.53125 58.296875 35.25 61.46875 
Q 31.984375 64.65625 26.8125 64.65625 
Q 21.6875 64.65625 18.265625 61.421875 
Q 14.84375 58.203125 13.875 51.765625 
L 5.078125 53.328125 
Q 6.6875 62.15625 12.390625 67.015625 
Q 18.109375 71.875 26.609375 71.875 
Q 32.46875 71.875 37.390625 69.359375 
Q 42.328125 66.84375 44.9375 62.5 
Q 47.5625 58.15625 47.5625 53.265625 
Q 47.5625 48.640625 45.0625 44.828125 
Q 42.578125 41.015625 37.703125 38.765625 
Q 44.046875 37.3125 47.5625 32.6875 
Q 51.078125 28.078125 51.078125 21.140625 
Q 51.078125 11.765625 44.234375 5.25 
Q 37.40625 -1.265625 26.953125 -1.265625 
Q 17.53125 -1.265625 11.296875 4.34375 
Q 5.078125 9.96875 4.203125 18.890625 
z
" id="ArialMT-51"/>
      </defs>
      <g style="fill:#262626;" transform="translate(313.10928 387.370391)scale(0.165 -0.165)">
       <use xlink:href="#ArialMT-51"/>
       <use x="55.615234" xlink:href="#ArialMT-48"/>
       <use x="111.230469" xlink:href="#ArialMT-48"/>
      </g>
     </g>
    </g>
    <g id="text_5">
     <!-- Iteration -->
     <defs>
      <path d="M 9.328125 0 
L 9.328125 71.578125 
L 18.796875 71.578125 
L 18.796875 0 
z
" id="ArialMT-73"/>
      <path d="M 25.78125 7.859375 
L 27.046875 0.09375 
Q 23.34375 -0.6875 20.40625 -0.6875 
Q 15.625 -0.6875 12.984375 0.828125 
Q 10.359375 2.34375 9.28125 4.8125 
Q 8.203125 7.28125 8.203125 15.1875 
L 8.203125 45.015625 
L 1.765625 45.015625 
L 1.765625 51.859375 
L 8.203125 51.859375 
L 8.203125 64.703125 
L 16.9375 69.96875 
L 16.9375 51.859375 
L 25.78125 51.859375 
L 25.78125 45.015625 
L 16.9375 45.015625 
L 16.9375 14.703125 
Q 16.9375 10.9375 17.40625 9.859375 
Q 17.875 8.796875 18.921875 8.15625 
Q 19.96875 7.515625 21.921875 7.515625 
Q 23.390625 7.515625 25.78125 7.859375 
z
" id="ArialMT-116"/>
      <path d="M 42.09375 16.703125 
L 51.171875 15.578125 
Q 49.03125 7.625 43.21875 3.21875 
Q 37.40625 -1.171875 28.375 -1.171875 
Q 17 -1.171875 10.328125 5.828125 
Q 3.65625 12.84375 3.65625 25.484375 
Q 3.65625 38.578125 10.390625 45.796875 
Q 17.140625 53.03125 27.875 53.03125 
Q 38.28125 53.03125 44.875 45.953125 
Q 51.46875 38.875 51.46875 26.03125 
Q 51.46875 25.25 51.421875 23.6875 
L 12.75 23.6875 
Q 13.234375 15.140625 17.578125 10.59375 
Q 21.921875 6.0625 28.421875 6.0625 
Q 33.25 6.0625 36.671875 8.59375 
Q 40.09375 11.140625 42.09375 16.703125 
z
M 13.234375 30.90625 
L 42.1875 30.90625 
Q 41.609375 37.453125 38.875 40.71875 
Q 34.671875 45.796875 27.984375 45.796875 
Q 21.921875 45.796875 17.796875 41.75 
Q 13.671875 37.703125 13.234375 30.90625 
z
" id="ArialMT-101"/>
      <path d="M 6.5 0 
L 6.5 51.859375 
L 14.40625 51.859375 
L 14.40625 44 
Q 17.4375 49.515625 20 51.265625 
Q 22.5625 53.03125 25.640625 53.03125 
Q 30.078125 53.03125 34.671875 50.203125 
L 31.640625 42.046875 
Q 28.421875 43.953125 25.203125 43.953125 
Q 22.3125 43.953125 20.015625 42.21875 
Q 17.71875 40.484375 16.75 37.40625 
Q 15.28125 32.71875 15.28125 27.15625 
L 15.28125 0 
z
" id="ArialMT-114"/>
      <path d="M 40.4375 6.390625 
Q 35.546875 2.25 31.03125 0.53125 
Q 26.515625 -1.171875 21.34375 -1.171875 
Q 12.796875 -1.171875 8.203125 3 
Q 3.609375 7.171875 3.609375 13.671875 
Q 3.609375 17.484375 5.34375 20.625 
Q 7.078125 23.78125 9.890625 25.6875 
Q 12.703125 27.59375 16.21875 28.5625 
Q 18.796875 29.25 24.03125 29.890625 
Q 34.671875 31.15625 39.703125 32.90625 
Q 39.75 34.71875 39.75 35.203125 
Q 39.75 40.578125 37.25 42.78125 
Q 33.890625 45.75 27.25 45.75 
Q 21.046875 45.75 18.09375 43.578125 
Q 15.140625 41.40625 13.71875 35.890625 
L 5.125 37.0625 
Q 6.296875 42.578125 8.984375 45.96875 
Q 11.671875 49.359375 16.75 51.1875 
Q 21.828125 53.03125 28.515625 53.03125 
Q 35.15625 53.03125 39.296875 51.46875 
Q 43.453125 49.90625 45.40625 47.53125 
Q 47.359375 45.171875 48.140625 41.546875 
Q 48.578125 39.3125 48.578125 33.453125 
L 48.578125 21.734375 
Q 48.578125 9.46875 49.140625 6.21875 
Q 49.703125 2.984375 51.375 0 
L 42.1875 0 
Q 40.828125 2.734375 40.4375 6.390625 
z
M 39.703125 26.03125 
Q 34.90625 24.078125 25.34375 22.703125 
Q 19.921875 21.921875 17.671875 20.9375 
Q 15.4375 19.96875 14.203125 18.09375 
Q 12.984375 16.21875 12.984375 13.921875 
Q 12.984375 10.40625 15.640625 8.0625 
Q 18.3125 5.71875 23.4375 5.71875 
Q 28.515625 5.71875 32.46875 7.9375 
Q 36.421875 10.15625 38.28125 14.015625 
Q 39.703125 17 39.703125 22.796875 
z
" id="ArialMT-97"/>
      <path d="M 6.640625 61.46875 
L 6.640625 71.578125 
L 15.4375 71.578125 
L 15.4375 61.46875 
z
M 6.640625 0 
L 6.640625 51.859375 
L 15.4375 51.859375 
L 15.4375 0 
z
" id="ArialMT-105"/>
      <path d="M 3.328125 25.921875 
Q 3.328125 40.328125 11.328125 47.265625 
Q 18.015625 53.03125 27.640625 53.03125 
Q 38.328125 53.03125 45.109375 46.015625 
Q 51.90625 39.015625 51.90625 26.65625 
Q 51.90625 16.65625 48.90625 10.90625 
Q 45.90625 5.171875 40.15625 2 
Q 34.421875 -1.171875 27.640625 -1.171875 
Q 16.75 -1.171875 10.03125 5.8125 
Q 3.328125 12.796875 3.328125 25.921875 
z
M 12.359375 25.921875 
Q 12.359375 15.96875 16.703125 11.015625 
Q 21.046875 6.0625 27.640625 6.0625 
Q 34.1875 6.0625 38.53125 11.03125 
Q 42.875 16.015625 42.875 26.21875 
Q 42.875 35.84375 38.5 40.796875 
Q 34.125 45.75 27.640625 45.75 
Q 21.046875 45.75 16.703125 40.8125 
Q 12.359375 35.890625 12.359375 25.921875 
z
" id="ArialMT-111"/>
      <path d="M 6.59375 0 
L 6.59375 51.859375 
L 14.5 51.859375 
L 14.5 44.484375 
Q 20.21875 53.03125 31 53.03125 
Q 35.6875 53.03125 39.625 51.34375 
Q 43.5625 49.65625 45.515625 46.921875 
Q 47.46875 44.1875 48.25 40.4375 
Q 48.734375 37.984375 48.734375 31.890625 
L 48.734375 0 
L 39.9375 0 
L 39.9375 31.546875 
Q 39.9375 36.921875 38.90625 39.578125 
Q 37.890625 42.234375 35.28125 43.8125 
Q 32.671875 45.40625 29.15625 45.40625 
Q 23.53125 45.40625 19.453125 41.84375 
Q 15.375 38.28125 15.375 28.328125 
L 15.375 0 
z
" id="ArialMT-110"/>
     </defs>
     <g style="fill:#262626;" transform="translate(181.435437 407.533828)scale(0.18 -0.18)">
      <use xlink:href="#ArialMT-73"/>
      <use x="27.783203" xlink:href="#ArialMT-116"/>
      <use x="55.566406" xlink:href="#ArialMT-101"/>
      <use x="111.181641" xlink:href="#ArialMT-114"/>
      <use x="144.482422" xlink:href="#ArialMT-97"/>
      <use x="200.097656" xlink:href="#ArialMT-116"/>
      <use x="227.880859" xlink:href="#ArialMT-105"/>
      <use x="250.097656" xlink:href="#ArialMT-111"/>
      <use x="305.712891" xlink:href="#ArialMT-110"/>
     </g>
    </g>
   </g>
   <g id="matplotlib.axis_2">
    <g id="ytick_1">
     <g id="line2d_5">
      <path clip-path="url(#pe21aa38839)" d="M 90.565 348.35 
L 337.339312 348.35 
" style="fill:none;stroke:#cccccc;stroke-linecap:round;stroke-width:1.5;"/>
     </g>
     <g id="text_6">
      <!-- 0 -->
      <g style="fill:#262626;" transform="translate(68.889453 354.255195)scale(0.165 -0.165)">
       <use xlink:href="#ArialMT-48"/>
      </g>
     </g>
    </g>
    <g id="ytick_2">
     <g id="line2d_6">
      <path clip-path="url(#pe21aa38839)" d="M 90.565 298.059402 
L 337.339312 298.059402 
" style="fill:none;stroke:#cccccc;stroke-linecap:round;stroke-width:1.5;"/>
     </g>
     <g id="text_7">
      <!-- 1000 -->
      <g style="fill:#262626;" transform="translate(41.362812 303.964597)scale(0.165 -0.165)">
       <use xlink:href="#ArialMT-49"/>
       <use x="55.615234" xlink:href="#ArialMT-48"/>
       <use x="111.230469" xlink:href="#ArialMT-48"/>
       <use x="166.845703" xlink:href="#ArialMT-48"/>
      </g>
     </g>
    </g>
    <g id="ytick_3">
     <g id="line2d_7">
      <path clip-path="url(#pe21aa38839)" d="M 90.565 247.768803 
L 337.339312 247.768803 
" style="fill:none;stroke:#cccccc;stroke-linecap:round;stroke-width:1.5;"/>
     </g>
     <g id="text_8">
      <!-- 2000 -->
      <g style="fill:#262626;" transform="translate(41.362812 253.673999)scale(0.165 -0.165)">
       <use xlink:href="#ArialMT-50"/>
       <use x="55.615234" xlink:href="#ArialMT-48"/>
       <use x="111.230469" xlink:href="#ArialMT-48"/>
       <use x="166.845703" xlink:href="#ArialMT-48"/>
      </g>
     </g>
    </g>
    <g id="ytick_4">
     <g id="line2d_8">
      <path clip-path="url(#pe21aa38839)" d="M 90.565 197.478205 
L 337.339312 197.478205 
" style="fill:none;stroke:#cccccc;stroke-linecap:round;stroke-width:1.5;"/>
     </g>
     <g id="text_9">
      <!-- 3000 -->
      <g style="fill:#262626;" transform="translate(41.362812 203.3834)scale(0.165 -0.165)">
       <use xlink:href="#ArialMT-51"/>
       <use x="55.615234" xlink:href="#ArialMT-48"/>
       <use x="111.230469" xlink:href="#ArialMT-48"/>
       <use x="166.845703" xlink:href="#ArialMT-48"/>
      </g>
     </g>
    </g>
    <g id="ytick_5">
     <g id="line2d_9">
      <path clip-path="url(#pe21aa38839)" d="M 90.565 147.187607 
L 337.339312 147.187607 
" style="fill:none;stroke:#cccccc;stroke-linecap:round;stroke-width:1.5;"/>
     </g>
     <g id="text_10">
      <!-- 4000 -->
      <defs>
       <path d="M 32.328125 0 
L 32.328125 17.140625 
L 1.265625 17.140625 
L 1.265625 25.203125 
L 33.9375 71.578125 
L 41.109375 71.578125 
L 41.109375 25.203125 
L 50.78125 25.203125 
L 50.78125 17.140625 
L 41.109375 17.140625 
L 41.109375 0 
z
M 32.328125 25.203125 
L 32.328125 57.46875 
L 9.90625 25.203125 
z
" id="ArialMT-52"/>
      </defs>
      <g style="fill:#262626;" transform="translate(41.362812 153.092802)scale(0.165 -0.165)">
       <use xlink:href="#ArialMT-52"/>
       <use x="55.615234" xlink:href="#ArialMT-48"/>
       <use x="111.230469" xlink:href="#ArialMT-48"/>
       <use x="166.845703" xlink:href="#ArialMT-48"/>
      </g>
     </g>
    </g>
    <g id="ytick_6">
     <g id="line2d_10">
      <path clip-path="url(#pe21aa38839)" d="M 90.565 96.897009 
L 337.339312 96.897009 
" style="fill:none;stroke:#cccccc;stroke-linecap:round;stroke-width:1.5;"/>
     </g>
     <g id="text_11">
      <!-- 5000 -->
      <defs>
       <path d="M 4.15625 18.75 
L 13.375 19.53125 
Q 14.40625 12.796875 18.140625 9.390625 
Q 21.875 6 27.15625 6 
Q 33.5 6 37.890625 10.78125 
Q 42.28125 15.578125 42.28125 23.484375 
Q 42.28125 31 38.0625 35.34375 
Q 33.84375 39.703125 27 39.703125 
Q 22.75 39.703125 19.328125 37.765625 
Q 15.921875 35.84375 13.96875 32.765625 
L 5.71875 33.84375 
L 12.640625 70.609375 
L 48.25 70.609375 
L 48.25 62.203125 
L 19.671875 62.203125 
L 15.828125 42.96875 
Q 22.265625 47.46875 29.34375 47.46875 
Q 38.71875 47.46875 45.15625 40.96875 
Q 51.609375 34.46875 51.609375 24.265625 
Q 51.609375 14.546875 45.953125 7.46875 
Q 39.0625 -1.21875 27.15625 -1.21875 
Q 17.390625 -1.21875 11.203125 4.25 
Q 5.03125 9.71875 4.15625 18.75 
z
" id="ArialMT-53"/>
      </defs>
      <g style="fill:#262626;" transform="translate(41.362812 102.802204)scale(0.165 -0.165)">
       <use xlink:href="#ArialMT-53"/>
       <use x="55.615234" xlink:href="#ArialMT-48"/>
       <use x="111.230469" xlink:href="#ArialMT-48"/>
       <use x="166.845703" xlink:href="#ArialMT-48"/>
      </g>
     </g>
    </g>
    <g id="ytick_7">
     <g id="line2d_11">
      <path clip-path="url(#pe21aa38839)" d="M 90.565 46.60641 
L 337.339312 46.60641 
" style="fill:none;stroke:#cccccc;stroke-linecap:round;stroke-width:1.5;"/>
     </g>
     <g id="text_12">
      <!-- 6000 -->
      <defs>
       <path d="M 49.75 54.046875 
L 41.015625 53.375 
Q 39.84375 58.546875 37.703125 60.890625 
Q 34.125 64.65625 28.90625 64.65625 
Q 24.703125 64.65625 21.53125 62.3125 
Q 17.390625 59.28125 14.984375 53.46875 
Q 12.59375 47.65625 12.5 36.921875 
Q 15.671875 41.75 20.265625 44.09375 
Q 24.859375 46.4375 29.890625 46.4375 
Q 38.671875 46.4375 44.84375 39.96875 
Q 51.03125 33.5 51.03125 23.25 
Q 51.03125 16.5 48.125 10.71875 
Q 45.21875 4.9375 40.140625 1.859375 
Q 35.0625 -1.21875 28.609375 -1.21875 
Q 17.625 -1.21875 10.6875 6.859375 
Q 3.765625 14.9375 3.765625 33.5 
Q 3.765625 54.25 11.421875 63.671875 
Q 18.109375 71.875 29.4375 71.875 
Q 37.890625 71.875 43.28125 67.140625 
Q 48.6875 62.40625 49.75 54.046875 
z
M 13.875 23.1875 
Q 13.875 18.65625 15.796875 14.5 
Q 17.71875 10.359375 21.1875 8.171875 
Q 24.65625 6 28.46875 6 
Q 34.03125 6 38.03125 10.484375 
Q 42.046875 14.984375 42.046875 22.703125 
Q 42.046875 30.125 38.078125 34.390625 
Q 34.125 38.671875 28.125 38.671875 
Q 22.171875 38.671875 18.015625 34.390625 
Q 13.875 30.125 13.875 23.1875 
z
" id="ArialMT-54"/>
      </defs>
      <g style="fill:#262626;" transform="translate(41.362812 52.511606)scale(0.165 -0.165)">
       <use xlink:href="#ArialMT-54"/>
       <use x="55.615234" xlink:href="#ArialMT-48"/>
       <use x="111.230469" xlink:href="#ArialMT-48"/>
       <use x="166.845703" xlink:href="#ArialMT-48"/>
      </g>
     </g>
    </g>
    <g id="text_13">
     <!-- No. generated ECFP6 analogs -->
     <defs>
      <path d="M 7.625 0 
L 7.625 71.578125 
L 17.328125 71.578125 
L 54.9375 15.375 
L 54.9375 71.578125 
L 64.015625 71.578125 
L 64.015625 0 
L 54.296875 0 
L 16.703125 56.25 
L 16.703125 0 
z
" id="ArialMT-78"/>
      <path d="M 9.078125 0 
L 9.078125 10.015625 
L 19.09375 10.015625 
L 19.09375 0 
z
" id="ArialMT-46"/>
      <path id="ArialMT-32"/>
      <path d="M 4.984375 -4.296875 
L 13.53125 -5.5625 
Q 14.0625 -9.515625 16.5 -11.328125 
Q 19.78125 -13.765625 25.4375 -13.765625 
Q 31.546875 -13.765625 34.859375 -11.328125 
Q 38.1875 -8.890625 39.359375 -4.5 
Q 40.046875 -1.8125 39.984375 6.78125 
Q 34.234375 0 25.640625 0 
Q 14.9375 0 9.078125 7.71875 
Q 3.21875 15.4375 3.21875 26.21875 
Q 3.21875 33.640625 5.90625 39.90625 
Q 8.59375 46.1875 13.6875 49.609375 
Q 18.796875 53.03125 25.6875 53.03125 
Q 34.859375 53.03125 40.828125 45.609375 
L 40.828125 51.859375 
L 48.921875 51.859375 
L 48.921875 7.03125 
Q 48.921875 -5.078125 46.453125 -10.125 
Q 44 -15.1875 38.640625 -18.109375 
Q 33.296875 -21.046875 25.484375 -21.046875 
Q 16.21875 -21.046875 10.5 -16.875 
Q 4.78125 -12.703125 4.984375 -4.296875 
z
M 12.25 26.859375 
Q 12.25 16.65625 16.296875 11.96875 
Q 20.359375 7.28125 26.46875 7.28125 
Q 32.515625 7.28125 36.609375 11.9375 
Q 40.71875 16.609375 40.71875 26.5625 
Q 40.71875 36.078125 36.5 40.90625 
Q 32.28125 45.75 26.3125 45.75 
Q 20.453125 45.75 16.34375 40.984375 
Q 12.25 36.234375 12.25 26.859375 
z
" id="ArialMT-103"/>
      <path d="M 40.234375 0 
L 40.234375 6.546875 
Q 35.296875 -1.171875 25.734375 -1.171875 
Q 19.53125 -1.171875 14.328125 2.25 
Q 9.125 5.671875 6.265625 11.796875 
Q 3.421875 17.921875 3.421875 25.875 
Q 3.421875 33.640625 6 39.96875 
Q 8.59375 46.296875 13.765625 49.65625 
Q 18.953125 53.03125 25.34375 53.03125 
Q 30.03125 53.03125 33.6875 51.046875 
Q 37.359375 49.078125 39.65625 45.90625 
L 39.65625 71.578125 
L 48.390625 71.578125 
L 48.390625 0 
z
M 12.453125 25.875 
Q 12.453125 15.921875 16.640625 10.984375 
Q 20.84375 6.0625 26.5625 6.0625 
Q 32.328125 6.0625 36.34375 10.765625 
Q 40.375 15.484375 40.375 25.140625 
Q 40.375 35.796875 36.265625 40.765625 
Q 32.171875 45.75 26.171875 45.75 
Q 20.3125 45.75 16.375 40.96875 
Q 12.453125 36.1875 12.453125 25.875 
z
" id="ArialMT-100"/>
      <path d="M 7.90625 0 
L 7.90625 71.578125 
L 59.671875 71.578125 
L 59.671875 63.140625 
L 17.390625 63.140625 
L 17.390625 41.21875 
L 56.984375 41.21875 
L 56.984375 32.8125 
L 17.390625 32.8125 
L 17.390625 8.453125 
L 61.328125 8.453125 
L 61.328125 0 
z
" id="ArialMT-69"/>
      <path d="M 58.796875 25.09375 
L 68.265625 22.703125 
Q 65.28125 11.03125 57.546875 4.90625 
Q 49.8125 -1.21875 38.625 -1.21875 
Q 27.046875 -1.21875 19.796875 3.484375 
Q 12.546875 8.203125 8.765625 17.140625 
Q 4.984375 26.078125 4.984375 36.328125 
Q 4.984375 47.515625 9.25 55.828125 
Q 13.53125 64.15625 21.40625 68.46875 
Q 29.296875 72.796875 38.765625 72.796875 
Q 49.515625 72.796875 56.828125 67.328125 
Q 64.15625 61.859375 67.046875 51.953125 
L 57.71875 49.75 
Q 55.21875 57.5625 50.484375 61.125 
Q 45.75 64.703125 38.578125 64.703125 
Q 30.328125 64.703125 24.78125 60.734375 
Q 19.234375 56.78125 16.984375 50.109375 
Q 14.75 43.453125 14.75 36.375 
Q 14.75 27.25 17.40625 20.4375 
Q 20.0625 13.625 25.671875 10.25 
Q 31.296875 6.890625 37.84375 6.890625 
Q 45.796875 6.890625 51.3125 11.46875 
Q 56.84375 16.0625 58.796875 25.09375 
z
" id="ArialMT-67"/>
      <path d="M 8.203125 0 
L 8.203125 71.578125 
L 56.5 71.578125 
L 56.5 63.140625 
L 17.671875 63.140625 
L 17.671875 40.96875 
L 51.265625 40.96875 
L 51.265625 32.515625 
L 17.671875 32.515625 
L 17.671875 0 
z
" id="ArialMT-70"/>
      <path d="M 7.71875 0 
L 7.71875 71.578125 
L 34.71875 71.578125 
Q 41.84375 71.578125 45.609375 70.90625 
Q 50.875 70.015625 54.4375 67.546875 
Q 58.015625 65.09375 60.1875 60.640625 
Q 62.359375 56.203125 62.359375 50.875 
Q 62.359375 41.75 56.546875 35.421875 
Q 50.734375 29.109375 35.546875 29.109375 
L 17.1875 29.109375 
L 17.1875 0 
z
M 17.1875 37.546875 
L 35.6875 37.546875 
Q 44.875 37.546875 48.734375 40.96875 
Q 52.59375 44.390625 52.59375 50.59375 
Q 52.59375 55.078125 50.3125 58.265625 
Q 48.046875 61.46875 44.34375 62.5 
Q 41.9375 63.140625 35.5 63.140625 
L 17.1875 63.140625 
z
" id="ArialMT-80"/>
      <path d="M 6.390625 0 
L 6.390625 71.578125 
L 15.1875 71.578125 
L 15.1875 0 
z
" id="ArialMT-108"/>
      <path d="M 3.078125 15.484375 
L 11.765625 16.84375 
Q 12.5 11.625 15.84375 8.84375 
Q 19.1875 6.0625 25.203125 6.0625 
Q 31.25 6.0625 34.171875 8.515625 
Q 37.109375 10.984375 37.109375 14.3125 
Q 37.109375 17.28125 34.515625 19 
Q 32.71875 20.171875 25.53125 21.96875 
Q 15.875 24.421875 12.140625 26.203125 
Q 8.40625 27.984375 6.46875 31.125 
Q 4.546875 34.28125 4.546875 38.09375 
Q 4.546875 41.546875 6.125 44.5 
Q 7.71875 47.46875 10.453125 49.421875 
Q 12.5 50.921875 16.03125 51.96875 
Q 19.578125 53.03125 23.640625 53.03125 
Q 29.734375 53.03125 34.34375 51.265625 
Q 38.96875 49.515625 41.15625 46.5 
Q 43.359375 43.5 44.1875 38.484375 
L 35.59375 37.3125 
Q 35.015625 41.3125 32.203125 43.546875 
Q 29.390625 45.796875 24.265625 45.796875 
Q 18.21875 45.796875 15.625 43.796875 
Q 13.03125 41.796875 13.03125 39.109375 
Q 13.03125 37.40625 14.109375 36.03125 
Q 15.1875 34.625 17.484375 33.6875 
Q 18.796875 33.203125 25.25 31.453125 
Q 34.578125 28.953125 38.25 27.359375 
Q 41.9375 25.78125 44.03125 22.75 
Q 46.140625 19.734375 46.140625 15.234375 
Q 46.140625 10.84375 43.578125 6.953125 
Q 41.015625 3.078125 36.171875 0.953125 
Q 31.34375 -1.171875 25.25 -1.171875 
Q 15.140625 -1.171875 9.84375 3.03125 
Q 4.546875 7.234375 3.078125 15.484375 
z
" id="ArialMT-115"/>
     </defs>
     <g style="fill:#262626;" transform="translate(33.574375 323.81875)rotate(-90)scale(0.18 -0.18)">
      <use xlink:href="#ArialMT-78"/>
      <use x="72.216797" xlink:href="#ArialMT-111"/>
      <use x="127.832031" xlink:href="#ArialMT-46"/>
      <use x="155.615234" xlink:href="#ArialMT-32"/>
      <use x="183.398438" xlink:href="#ArialMT-103"/>
      <use x="239.013672" xlink:href="#ArialMT-101"/>
      <use x="294.628906" xlink:href="#ArialMT-110"/>
      <use x="350.244141" xlink:href="#ArialMT-101"/>
      <use x="405.859375" xlink:href="#ArialMT-114"/>
      <use x="439.160156" xlink:href="#ArialMT-97"/>
      <use x="494.775391" xlink:href="#ArialMT-116"/>
      <use x="522.558594" xlink:href="#ArialMT-101"/>
      <use x="578.173828" xlink:href="#ArialMT-100"/>
      <use x="633.789062" xlink:href="#ArialMT-32"/>
      <use x="661.572266" xlink:href="#ArialMT-69"/>
      <use x="728.271484" xlink:href="#ArialMT-67"/>
      <use x="800.488281" xlink:href="#ArialMT-70"/>
      <use x="861.572266" xlink:href="#ArialMT-80"/>
      <use x="928.271484" xlink:href="#ArialMT-54"/>
      <use x="983.886719" xlink:href="#ArialMT-32"/>
      <use x="1011.669922" xlink:href="#ArialMT-97"/>
      <use x="1067.285156" xlink:href="#ArialMT-110"/>
      <use x="1122.900391" xlink:href="#ArialMT-97"/>
      <use x="1178.515625" xlink:href="#ArialMT-108"/>
      <use x="1200.732422" xlink:href="#ArialMT-111"/>
      <use x="1256.347656" xlink:href="#ArialMT-103"/>
      <use x="1311.962891" xlink:href="#ArialMT-115"/>
     </g>
    </g>
   </g>
   <g id="line2d_12">
    <path clip-path="url(#pe21aa38839)" d="M 101.782014 348.35 
L 119.038959 348.249419 
L 121.289865 348.199128 
L 129.543186 348.098547 
L 134.044998 347.897385 
L 135.545602 347.847094 
L 137.046206 347.696222 
L 139.297112 347.595641 
L 149.801339 346.790991 
L 150.551641 346.589829 
L 153.552849 346.288085 
L 157.304359 345.734889 
L 158.804963 345.181692 
L 160.305566 345.030821 
L 161.055868 344.729077 
L 161.80617 344.678786 
L 163.306774 344.226171 
L 164.057076 343.723265 
L 165.55768 343.220359 
L 166.307982 342.968906 
L 167.058284 342.516291 
L 169.30919 341.66135 
L 170.809794 340.957282 
L 171.560096 340.253214 
L 172.310398 339.850889 
L 173.0607 339.700017 
L 173.811002 339.297692 
L 174.561304 339.09653 
L 176.061907 338.141009 
L 176.812209 337.43694 
L 177.562511 337.084906 
L 178.312813 336.582 
L 179.063115 336.280256 
L 180.563719 335.375026 
L 181.314021 335.073282 
L 182.064323 334.620667 
L 182.814625 334.419504 
L 185.065531 333.111949 
L 187.316437 331.402068 
L 188.066739 330.446547 
L 190.317645 329.340154 
L 192.56855 327.831436 
L 194.069154 326.574171 
L 194.819456 326.222137 
L 195.569758 325.467778 
L 196.32006 325.166034 
L 198.570966 323.003538 
L 199.321268 322.148598 
L 200.07157 321.595402 
L 200.821872 320.891333 
L 202.322476 320.086684 
L 203.072778 319.382615 
L 205.323684 317.823607 
L 206.073986 317.018957 
L 208.324891 315.459949 
L 209.825495 314.655299 
L 212.076401 312.895128 
L 212.826703 312.392222 
L 215.827911 311.084667 
L 216.578213 310.782923 
L 219.579421 308.87188 
L 220.329723 308.570137 
L 221.080025 308.067231 
L 221.830327 307.916359 
L 225.581836 305.703573 
L 227.08244 304.446308 
L 228.583044 303.691949 
L 230.83395 302.13294 
L 231.584252 301.529453 
L 232.334554 301.076838 
L 233.835158 300.47335 
L 234.58546 299.869863 
L 235.335762 299.115504 
L 236.836366 297.958821 
L 237.586668 297.10388 
L 239.837573 295.695744 
L 241.338177 295.041966 
L 242.838781 293.432667 
L 244.339385 292.577726 
L 245.089687 292.02453 
L 246.590291 291.270171 
L 248.090895 289.761453 
L 249.591499 288.101863 
L 250.341801 287.347504 
L 251.092103 286.391983 
L 252.592707 285.28559 
L 254.09331 283.726581 
L 255.593914 282.871641 
L 256.344216 282.217863 
L 258.595122 279.854205 
L 262.346632 277.037932 
L 263.847236 275.277761 
L 264.597538 275.026308 
L 265.34784 274.322239 
L 266.098142 273.869624 
L 269.09935 271.304803 
L 271.350255 269.544632 
L 273.601161 267.331846 
L 274.351463 266.426615 
L 275.101765 265.823128 
L 275.852067 264.867607 
L 276.602369 264.515573 
L 277.352671 264.012667 
L 278.102973 263.660632 
L 278.853275 263.107436 
L 282.604785 259.486513 
L 283.355087 259.23506 
L 284.105389 258.681863 
L 284.855691 258.38012 
L 286.356294 257.273726 
L 287.106596 257.072564 
L 287.856898 256.469077 
L 288.6072 256.167333 
L 290.107804 255.111231 
L 290.858106 254.407162 
L 292.35871 253.451641 
L 293.859314 252.043504 
L 294.609616 251.741761 
L 296.860522 250.434205 
L 298.361126 249.17694 
L 299.86173 248.271709 
L 300.612032 247.869385 
L 301.362333 247.064735 
L 302.862937 245.857761 
L 303.613239 245.505726 
L 305.864145 243.795846 
L 306.614447 243.29294 
L 307.364749 242.639162 
L 308.115051 242.287128 
L 308.865353 241.63335 
L 310.365957 241.029863 
L 312.616863 239.772598 
L 315.618071 237.760974 
L 317.868976 235.548188 
L 318.619278 234.994991 
L 320.119882 234.240632 
L 320.870184 233.737726 
L 323.871392 232.832496 
L 324.621694 232.631333 
L 326.122298 231.726103 
L 326.122298 231.726103 
" style="fill:none;stroke:#1f77b4;stroke-linecap:round;stroke-width:2.25;"/>
   </g>
   <g id="line2d_13">
    <path clip-path="url(#pe21aa38839)" d="M 101.782014 348.35 
L 119.038959 348.249419 
L 121.289865 348.199128 
L 129.543186 348.098547 
L 134.044998 347.897385 
L 135.545602 347.847094 
L 137.046206 347.696222 
L 139.297112 347.595641 
L 149.801339 346.790991 
L 150.551641 346.589829 
L 152.802547 346.388667 
L 154.303151 346.137214 
L 155.803755 345.986342 
L 158.054661 345.282274 
L 159.555265 344.879949 
L 163.306774 343.823846 
L 164.057076 343.220359 
L 164.807378 343.019197 
L 170.059492 340.605248 
L 170.809794 340.404085 
L 171.560096 340.052051 
L 172.310398 339.347983 
L 176.061907 336.883744 
L 176.812209 336.481419 
L 177.562511 336.229966 
L 179.063115 335.224154 
L 180.563719 334.369214 
L 185.065531 330.295675 
L 185.815833 329.641897 
L 186.566135 329.138991 
L 187.316437 328.434923 
L 188.066739 327.529692 
L 188.817041 327.026786 
L 189.567343 326.373009 
L 190.317645 325.870103 
L 191.067947 325.015162 
L 191.818248 324.461966 
L 192.56855 323.657316 
L 194.069154 321.595402 
L 197.070362 318.879709 
L 197.820664 318.326513 
L 199.321268 316.868085 
L 200.07157 316.41547 
L 203.072778 313.85065 
L 203.82308 313.347744 
L 205.323684 311.939607 
L 206.073986 311.436701 
L 206.824288 310.53147 
L 208.324891 309.173624 
L 209.075193 308.620427 
L 213.577005 303.390205 
L 215.827911 300.322479 
L 216.578213 299.668701 
L 218.078817 297.858239 
L 218.829119 296.651265 
L 221.830327 293.130923 
L 227.08244 286.190821 
L 228.583044 284.531231 
L 230.083648 281.91612 
L 232.334554 279.250718 
L 235.335762 275.177179 
L 236.836366 273.417009 
L 238.336969 271.355094 
L 239.087271 270.600735 
L 241.338177 267.231265 
L 242.088479 266.426615 
L 244.339385 264.515573 
L 245.839989 262.705111 
L 248.090895 260.94494 
L 250.341801 258.631573 
L 251.092103 257.977795 
L 251.842405 256.921692 
L 256.344216 253.35106 
L 258.595122 251.942923 
L 259.345424 251.540598 
L 260.095726 250.937111 
L 263.847236 249.076359 
L 266.098142 247.366479 
L 266.848444 246.561829 
L 267.598746 245.505726 
L 268.349048 244.851949 
L 269.849651 244.14788 
L 275.852067 238.666205 
L 276.602369 238.113009 
L 278.853275 235.950513 
L 279.603577 234.944701 
L 281.104181 233.637145 
L 281.854483 232.681624 
L 282.604785 231.977556 
L 283.355087 230.820872 
L 284.855691 229.463026 
L 287.106596 226.546171 
L 287.856898 225.339197 
L 288.6072 224.635128 
L 291.608408 220.61188 
L 292.35871 219.254034 
L 293.109012 218.147641 
L 294.609616 215.431949 
L 297.610824 210.805214 
L 298.361126 208.994752 
L 300.612032 205.323538 
L 303.613239 199.389248 
L 304.363541 197.578786 
L 305.113843 196.522684 
L 305.864145 194.712222 
L 306.614447 193.605829 
L 307.364749 192.147402 
L 308.865353 189.783744 
L 309.615655 188.928803 
L 310.365957 187.369795 
L 312.616863 183.547709 
L 313.367165 181.837829 
L 314.117467 180.832017 
L 315.618071 177.864872 
L 317.868976 174.093077 
L 318.619278 172.584359 
L 319.36958 171.528256 
L 320.119882 170.17041 
L 321.620486 168.309658 
L 322.370788 167.102684 
L 324.621694 164.386991 
L 325.371996 163.984667 
L 326.122298 163.029145 
L 326.122298 163.029145 
" style="fill:none;stroke:#ff7f0e;stroke-linecap:round;stroke-width:2.25;"/>
   </g>
   <g id="line2d_14">
    <path clip-path="url(#pe21aa38839)" d="M 101.782014 348.35 
L 119.038959 348.249419 
L 121.289865 348.199128 
L 129.543186 348.098547 
L 134.044998 347.897385 
L 135.545602 347.847094 
L 137.046206 347.696222 
L 139.297112 347.595641 
L 149.801339 346.790991 
L 150.551641 346.589829 
L 152.802547 346.388667 
L 154.303151 346.137214 
L 155.803755 345.986342 
L 158.054661 345.282274 
L 159.555265 344.879949 
L 163.306774 343.823846 
L 164.057076 343.220359 
L 164.807378 343.019197 
L 170.059492 340.605248 
L 170.809794 340.404085 
L 171.560096 340.052051 
L 172.310398 339.347983 
L 176.812209 336.229966 
L 177.562511 335.475607 
L 178.312813 334.972701 
L 179.063115 334.218342 
L 179.813417 333.866308 
L 180.563719 332.961077 
L 181.314021 332.508462 
L 185.815833 326.825624 
L 186.566135 326.071265 
L 187.316437 325.568359 
L 188.817041 323.657316 
L 190.317645 321.796564 
L 191.067947 320.438718 
L 191.818248 319.634068 
L 192.56855 318.577966 
L 193.318852 317.773316 
L 195.569758 314.554718 
L 196.32006 312.995709 
L 198.570966 309.877692 
L 200.821872 306.407641 
L 203.072778 302.13294 
L 203.82308 301.227709 
L 205.323684 298.914342 
L 214.327307 284.48094 
L 215.827911 282.620188 
L 218.829119 278.194615 
L 221.080025 275.780667 
L 221.830327 274.322239 
L 222.580629 273.467299 
L 223.33093 272.360906 
L 224.081232 271.556256 
L 225.581836 269.594923 
L 226.332138 268.790274 
L 227.08244 268.186786 
L 228.583044 266.074581 
L 229.333346 265.672256 
L 230.083648 264.515573 
L 230.83395 263.057145 
L 231.584252 262.503949 
L 235.335762 258.681863 
L 236.836366 256.871402 
L 238.336969 255.463265 
L 239.087271 254.457453 
L 242.088479 251.389726 
L 243.589083 249.830718 
L 244.339385 248.975778 
L 245.089687 247.869385 
L 245.839989 247.316188 
L 249.591499 243.393521 
L 253.343009 238.465043 
L 254.843612 236.302547 
L 255.593914 234.944701 
L 256.344216 233.888598 
L 257.094518 232.128427 
L 257.84482 231.072325 
L 258.595122 229.312154 
L 260.846028 225.288906 
L 262.346632 222.27147 
L 263.096934 221.014205 
L 264.597538 217.896188 
L 266.848444 212.867128 
L 269.09935 206.832256 
L 269.849651 204.971504 
L 272.100557 198.73547 
L 274.351463 192.700598 
L 275.101765 190.990718 
L 275.852067 188.979094 
L 277.352671 184.553521 
L 278.102973 182.391026 
L 278.853275 180.580564 
L 279.603577 178.166615 
L 280.353879 176.305863 
L 281.104181 173.891915 
L 282.604785 170.421863 
L 284.105389 166.951812 
L 284.855691 165.694547 
L 286.356294 161.973043 
L 287.106596 160.414034 
L 288.6072 156.843402 
L 290.107804 153.775675 
L 291.608408 150.858821 
L 293.109012 148.344291 
L 294.609616 145.528017 
L 296.11022 143.26494 
L 296.860522 142.309419 
L 297.610824 141.001863 
L 299.86173 137.682684 
L 302.112635 134.363504 
L 305.113843 130.239675 
L 305.864145 129.284154 
L 306.614447 128.026889 
L 307.364749 127.071368 
L 308.865353 125.61294 
L 314.117467 118.874 
L 316.368373 115.605111 
L 317.118674 114.750171 
L 317.868976 113.643778 
L 318.619278 112.084769 
L 319.36958 111.28012 
L 320.870184 108.76559 
L 321.620486 107.709487 
L 323.12109 105.39612 
L 324.621694 103.183333 
L 326.122298 101.171709 
L 326.122298 101.171709 
" style="fill:none;stroke:#2ca02c;stroke-linecap:round;stroke-width:2.25;"/>
   </g>
   <g id="line2d_15">
    <path clip-path="url(#pe21aa38839)" d="M 101.782014 348.35 
L 119.038959 348.249419 
L 121.289865 348.199128 
L 129.543186 348.098547 
L 134.044998 347.897385 
L 135.545602 347.847094 
L 137.046206 347.696222 
L 139.297112 347.595641 
L 149.801339 346.790991 
L 150.551641 346.589829 
L 152.802547 346.388667 
L 154.303151 346.137214 
L 155.803755 345.986342 
L 158.054661 345.282274 
L 159.555265 344.879949 
L 163.306774 343.823846 
L 164.057076 343.220359 
L 164.807378 343.019197 
L 170.059492 340.605248 
L 170.809794 340.404085 
L 171.560096 340.052051 
L 172.310398 339.347983 
L 176.812209 336.229966 
L 177.562511 335.475607 
L 178.312813 334.972701 
L 179.063115 334.218342 
L 179.813417 333.866308 
L 180.563719 332.961077 
L 181.314021 332.508462 
L 185.815833 326.825624 
L 186.566135 326.071265 
L 187.316437 325.568359 
L 188.817041 323.657316 
L 190.317645 321.796564 
L 191.067947 320.438718 
L 191.818248 319.634068 
L 192.56855 318.577966 
L 193.318852 317.773316 
L 195.569758 314.554718 
L 196.32006 312.995709 
L 198.570966 309.877692 
L 200.821872 306.407641 
L 203.072778 302.13294 
L 203.82308 301.227709 
L 205.323684 298.914342 
L 214.327307 284.48094 
L 215.827911 282.620188 
L 218.829119 278.043744 
L 221.080025 275.277761 
L 221.830327 273.668462 
L 222.580629 272.562068 
L 224.081232 271.00306 
L 225.581836 268.790274 
L 226.332138 268.086205 
L 229.333346 264.364701 
L 230.083648 263.057145 
L 231.584252 261.699299 
L 232.334554 260.693487 
L 233.084856 260.09 
L 233.835158 258.933316 
L 234.58546 258.178957 
L 241.338177 249.277521 
L 242.088479 248.774615 
L 245.089687 245.505726 
L 245.839989 245.002821 
L 247.340593 243.544393 
L 248.090895 243.24265 
L 248.841197 242.639162 
L 251.092103 240.376085 
L 251.842405 239.973761 
L 252.592707 238.967949 
L 253.343009 238.26388 
L 254.09331 237.157487 
L 254.843612 236.352838 
L 255.593914 235.849932 
L 257.094518 234.391504 
L 259.345424 231.776393 
L 260.095726 231.122615 
L 260.846028 230.267675 
L 261.59633 229.714479 
L 266.848444 224.283094 
L 268.349048 222.472632 
L 269.09935 221.768564 
L 269.849651 220.511299 
L 270.599953 219.606068 
L 271.350255 218.348803 
L 273.601161 215.683402 
L 275.101765 213.219162 
L 277.352671 209.950274 
L 278.853275 207.838068 
L 279.603577 206.882547 
L 280.353879 205.072085 
L 284.855691 198.936632 
L 285.605992 197.578786 
L 288.6072 193.806991 
L 292.35871 188.777932 
L 294.609616 184.955846 
L 295.359918 183.245966 
L 298.361126 178.56894 
L 299.111428 176.959641 
L 299.86173 175.853248 
L 300.612032 175.048598 
L 301.362333 173.841624 
L 302.112635 172.886103 
L 303.613239 170.623026 
L 305.113843 168.963436 
L 305.864145 167.65588 
L 306.614447 167.002103 
L 308.115051 165.292222 
L 308.865353 164.638444 
L 311.866561 161.419846 
L 312.616863 160.86665 
L 313.367165 159.860838 
L 314.117467 159.25735 
L 314.867769 158.502991 
L 315.618071 157.346308 
L 317.118674 155.83759 
L 317.868976 155.334684 
L 319.36958 153.825966 
L 320.870184 151.613179 
L 322.370788 150.104462 
L 323.12109 149.551265 
L 326.122298 145.678889 
L 326.122298 145.678889 
" style="fill:none;stroke:#d62728;stroke-linecap:round;stroke-width:2.25;"/>
   </g>
   <g id="line2d_16">
    <path clip-path="url(#pe21aa38839)" d="M 101.782014 348.35 
L 119.038959 348.249419 
L 121.289865 348.199128 
L 129.543186 348.098547 
L 134.044998 347.897385 
L 135.545602 347.847094 
L 137.046206 347.696222 
L 139.297112 347.595641 
L 149.801339 346.790991 
L 150.551641 346.589829 
L 152.802547 346.388667 
L 154.303151 346.137214 
L 155.803755 345.986342 
L 158.054661 345.282274 
L 159.555265 344.879949 
L 163.306774 343.823846 
L 164.057076 343.220359 
L 164.807378 343.019197 
L 170.059492 340.605248 
L 170.809794 340.404085 
L 171.560096 340.052051 
L 172.310398 339.347983 
L 176.812209 336.229966 
L 177.562511 335.475607 
L 178.312813 334.972701 
L 179.063115 334.218342 
L 179.813417 333.866308 
L 180.563719 332.961077 
L 181.314021 332.508462 
L 182.064323 331.55294 
L 182.814625 330.798581 
L 183.564927 329.792769 
L 184.315229 329.03841 
L 185.065531 328.485214 
L 185.815833 327.32853 
L 188.066739 324.814 
L 188.817041 323.908769 
L 191.067947 320.63988 
L 191.818248 320.187265 
L 192.56855 319.181453 
L 193.318852 317.823607 
L 194.819456 315.811983 
L 195.569758 314.856462 
L 197.070362 312.24135 
L 200.821872 306.659094 
L 203.072778 302.585556 
L 203.82308 300.775094 
L 209.075193 291.823368 
L 209.825495 289.962615 
L 210.575797 288.755641 
L 214.327307 280.860017 
L 215.077609 279.753624 
L 217.328515 275.126889 
L 218.078817 273.718752 
L 218.829119 272.008872 
L 219.579421 270.751607 
L 221.080025 267.68388 
L 221.830327 266.527197 
L 222.580629 264.565863 
L 223.33093 263.811504 
L 224.081232 262.252496 
L 224.831534 260.995231 
L 225.581836 259.486513 
L 229.333346 253.602513 
L 231.584252 250.484496 
L 232.334554 249.780427 
L 233.084856 248.171128 
L 233.835158 247.115026 
L 235.335762 244.14788 
L 236.836366 242.035675 
L 238.336969 238.716496 
L 239.837573 236.352838 
L 240.587875 235.196154 
L 244.339385 227.250239 
L 246.590291 221.718274 
L 248.090895 218.248222 
L 250.341801 212.313932 
L 251.842405 208.944462 
L 253.343009 205.172667 
L 254.843612 202.708427 
L 255.593914 200.897966 
L 257.094518 197.930821 
L 266.848444 175.048598 
L 267.598746 172.785521 
L 268.349048 171.327094 
L 271.350255 164.135538 
L 272.850859 160.564906 
L 273.601161 158.502991 
L 276.602369 152.568701 
L 277.352671 150.456496 
L 278.853275 146.885863 
L 279.603577 145.477726 
L 280.353879 143.516393 
L 281.104181 142.108256 
L 283.355087 136.878034 
L 285.605992 131.748393 
L 287.856898 127.574274 
L 290.107804 122.444632 
L 291.608408 119.879812 
L 295.359918 111.581863 
L 299.111428 104.440598 
L 299.86173 102.579846 
L 302.112635 97.701658 
L 303.613239 94.432769 
L 305.864145 90.359231 
L 306.614447 88.397897 
L 307.364749 87.190923 
L 308.115051 85.682205 
L 309.615655 83.217966 
L 310.365957 81.457795 
L 314.867769 74.266239 
L 316.368373 71.198513 
L 318.619278 67.527299 
L 320.870184 63.956667 
L 321.620486 62.950855 
L 323.12109 60.084291 
L 323.871392 58.827026 
L 326.122298 54.15 
L 326.122298 54.15 
" style="fill:none;stroke:#9467bd;stroke-linecap:round;stroke-width:2.25;"/>
   </g>
   <g id="patch_3">
    <path d="M 90.565 363.06 
L 90.565 39.44 
" style="fill:none;stroke:#cccccc;stroke-linecap:square;stroke-linejoin:miter;stroke-width:1.875;"/>
   </g>
   <g id="patch_4">
    <path d="M 337.339312 363.06 
L 337.339312 39.44 
" style="fill:none;stroke:#cccccc;stroke-linecap:square;stroke-linejoin:miter;stroke-width:1.875;"/>
   </g>
   <g id="patch_5">
    <path d="M 90.565 363.06 
L 337.339312 363.06 
" style="fill:none;stroke:#cccccc;stroke-linecap:square;stroke-linejoin:miter;stroke-width:1.875;"/>
   </g>
   <g id="patch_6">
    <path d="M 90.565 39.44 
L 337.339312 39.44 
" style="fill:none;stroke:#cccccc;stroke-linecap:square;stroke-linejoin:miter;stroke-width:1.875;"/>
   </g>
   <g id="text_14">
    <!-- HTR1A -->
    <defs>
     <path d="M 8.015625 0 
L 8.015625 71.578125 
L 17.484375 71.578125 
L 17.484375 42.1875 
L 54.6875 42.1875 
L 54.6875 71.578125 
L 64.15625 71.578125 
L 64.15625 0 
L 54.6875 0 
L 54.6875 33.734375 
L 17.484375 33.734375 
L 17.484375 0 
z
" id="ArialMT-72"/>
     <path d="M 25.921875 0 
L 25.921875 63.140625 
L 2.34375 63.140625 
L 2.34375 71.578125 
L 59.078125 71.578125 
L 59.078125 63.140625 
L 35.40625 63.140625 
L 35.40625 0 
z
" id="ArialMT-84"/>
     <path d="M 7.859375 0 
L 7.859375 71.578125 
L 39.59375 71.578125 
Q 49.171875 71.578125 54.140625 69.640625 
Q 59.125 67.71875 62.109375 62.828125 
Q 65.09375 57.953125 65.09375 52.046875 
Q 65.09375 44.4375 60.15625 39.203125 
Q 55.21875 33.984375 44.921875 32.5625 
Q 48.6875 30.765625 50.640625 29 
Q 54.78125 25.203125 58.5 19.484375 
L 70.953125 0 
L 59.03125 0 
L 49.5625 14.890625 
Q 45.40625 21.34375 42.71875 24.75 
Q 40.046875 28.171875 37.921875 29.53125 
Q 35.796875 30.90625 33.59375 31.453125 
Q 31.984375 31.78125 28.328125 31.78125 
L 17.328125 31.78125 
L 17.328125 0 
z
M 17.328125 39.984375 
L 37.703125 39.984375 
Q 44.1875 39.984375 47.84375 41.328125 
Q 51.515625 42.671875 53.421875 45.625 
Q 55.328125 48.578125 55.328125 52.046875 
Q 55.328125 57.125 51.640625 60.390625 
Q 47.953125 63.671875 39.984375 63.671875 
L 17.328125 63.671875 
z
" id="ArialMT-82"/>
     <path d="M -0.140625 0 
L 27.34375 71.578125 
L 37.546875 71.578125 
L 66.84375 0 
L 56.0625 0 
L 47.703125 21.6875 
L 17.78125 21.6875 
L 9.90625 0 
z
M 20.515625 29.390625 
L 44.78125 29.390625 
L 37.3125 49.21875 
Q 33.890625 58.25 32.234375 64.0625 
Q 30.859375 57.171875 28.375 50.390625 
z
" id="ArialMT-65"/>
    </defs>
    <g style="fill:#262626;" transform="translate(184.447625 33.44)scale(0.18 -0.18)">
     <use xlink:href="#ArialMT-72"/>
     <use x="72.216797" xlink:href="#ArialMT-84"/>
     <use x="133.300781" xlink:href="#ArialMT-82"/>
     <use x="205.517578" xlink:href="#ArialMT-49"/>
     <use x="261.132812" xlink:href="#ArialMT-65"/>
    </g>
   </g>
  </g>
 </g>
 <defs>
  <clipPath id="pe21aa38839">
   <rect height="323.62" width="246.774312" x="90.565" y="39.44"/>
  </clipPath>
 </defs>
</svg>
