<?xml version="1.0" encoding="utf-8" standalone="no"?>
<!DOCTYPE svg PUBLIC "-//W3C//DTD SVG 1.1//EN"
  "http://www.w3.org/Graphics/SVG/1.1/DTD/svg11.dtd">
<!-- Created with matplotlib (https://matplotlib.org/) -->
<svg height="432pt" version="1.1" viewBox="0 0 360 432" width="360pt" xmlns="http://www.w3.org/2000/svg" xmlns:xlink="http://www.w3.org/1999/xlink">
 <defs>
  <style type="text/css">
*{stroke-linecap:butt;stroke-linejoin:round;}
  </style>
 </defs>
 <g id="figure_1">
  <g id="patch_1">
   <path d="M 0 432 
L 360 432 
L 360 0 
L 0 0 
z
" style="fill:#ffffff;"/>
  </g>
  <g id="axes_1">
   <g id="patch_2">
    <path d="M 90.565 363.06 
L 337.339212 363.06 
L 337.339212 39.44 
L 90.565 39.44 
z
" style="fill:#ffffff;"/>
   </g>
   <g id="matplotlib.axis_1">
    <g id="xtick_1">
     <g id="line2d_1">
      <path clip-path="url(#p9f1f028d07)" d="M 101.78201 363.06 
L 101.78201 39.44 
" style="fill:none;stroke:#cccccc;stroke-linecap:round;stroke-width:1.5;"/>
     </g>
     <g id="text_1">
      <!-- 0 -->
      <defs>
       <path d="M 4.15625 35.296875 
Q 4.15625 48 6.765625 55.734375 
Q 9.375 63.484375 14.515625 67.671875 
Q 19.671875 71.875 27.484375 71.875 
Q 33.25 71.875 37.59375 69.546875 
Q 41.9375 67.234375 44.765625 62.859375 
Q 47.609375 58.5 49.21875 52.21875 
Q 50.828125 45.953125 50.828125 35.296875 
Q 50.828125 22.703125 48.234375 14.96875 
Q 45.65625 7.234375 40.5 3 
Q 35.359375 -1.21875 27.484375 -1.21875 
Q 17.140625 -1.21875 11.234375 6.203125 
Q 4.15625 15.140625 4.15625 35.296875 
z
M 13.1875 35.296875 
Q 13.1875 17.671875 17.3125 11.828125 
Q 21.4375 6 27.484375 6 
Q 33.546875 6 37.671875 11.859375 
Q 41.796875 17.71875 41.796875 35.296875 
Q 41.796875 52.984375 37.671875 58.78125 
Q 33.546875 64.59375 27.390625 64.59375 
Q 21.34375 64.59375 17.71875 59.46875 
Q 13.1875 52.9375 13.1875 35.296875 
z
" id="ArialMT-48"/>
      </defs>
      <g style="fill:#262626;" transform="translate(97.194236 387.370391)scale(0.165 -0.165)">
       <use xlink:href="#ArialMT-48"/>
      </g>
     </g>
    </g>
    <g id="xtick_2">
     <g id="line2d_2">
      <path clip-path="url(#p9f1f028d07)" d="M 176.812175 363.06 
L 176.812175 39.44 
" style="fill:none;stroke:#cccccc;stroke-linecap:round;stroke-width:1.5;"/>
     </g>
     <g id="text_2">
      <!-- 100 -->
      <defs>
       <path d="M 37.25 0 
L 28.46875 0 
L 28.46875 56 
Q 25.296875 52.984375 20.140625 49.953125 
Q 14.984375 46.921875 10.890625 45.40625 
L 10.890625 53.90625 
Q 18.265625 57.375 23.78125 62.296875 
Q 29.296875 67.234375 31.59375 71.875 
L 37.25 71.875 
z
" id="ArialMT-49"/>
      </defs>
      <g style="fill:#262626;" transform="translate(163.048854 387.370391)scale(0.165 -0.165)">
       <use xlink:href="#ArialMT-49"/>
       <use x="55.615234" xlink:href="#ArialMT-48"/>
       <use x="111.230469" xlink:href="#ArialMT-48"/>
      </g>
     </g>
    </g>
    <g id="xtick_3">
     <g id="line2d_3">
      <path clip-path="url(#p9f1f028d07)" d="M 251.842339 363.06 
L 251.842339 39.44 
" style="fill:none;stroke:#cccccc;stroke-linecap:round;stroke-width:1.5;"/>
     </g>
     <g id="text_3">
      <!-- 200 -->
      <defs>
       <path d="M 50.34375 8.453125 
L 50.34375 0 
L 3.03125 0 
Q 2.9375 3.171875 4.046875 6.109375 
Q 5.859375 10.9375 9.828125 15.625 
Q 13.8125 20.3125 21.34375 26.46875 
Q 33.015625 36.03125 37.109375 41.625 
Q 41.21875 47.21875 41.21875 52.203125 
Q 41.21875 57.421875 37.46875 61 
Q 33.734375 64.59375 27.734375 64.59375 
Q 21.390625 64.59375 17.578125 60.78125 
Q 13.765625 56.984375 13.71875 50.25 
L 4.6875 51.171875 
Q 5.609375 61.28125 11.65625 66.578125 
Q 17.71875 71.875 27.9375 71.875 
Q 38.234375 71.875 44.234375 66.15625 
Q 50.25 60.453125 50.25 52 
Q 50.25 47.703125 48.484375 43.546875 
Q 46.734375 39.40625 42.65625 34.8125 
Q 38.578125 30.21875 29.109375 22.21875 
Q 21.1875 15.578125 18.9375 13.203125 
Q 16.703125 10.84375 15.234375 8.453125 
z
" id="ArialMT-50"/>
      </defs>
      <g style="fill:#262626;" transform="translate(238.079019 387.370391)scale(0.165 -0.165)">
       <use xlink:href="#ArialMT-50"/>
       <use x="55.615234" xlink:href="#ArialMT-48"/>
       <use x="111.230469" xlink:href="#ArialMT-48"/>
      </g>
     </g>
    </g>
    <g id="xtick_4">
     <g id="line2d_4">
      <path clip-path="url(#p9f1f028d07)" d="M 326.872504 363.06 
L 326.872504 39.44 
" style="fill:none;stroke:#cccccc;stroke-linecap:round;stroke-width:1.5;"/>
     </g>
     <g id="text_4">
      <!-- 300 -->
      <defs>
       <path d="M 4.203125 18.890625 
L 12.984375 20.0625 
Q 14.5 12.59375 18.140625 9.296875 
Q 21.78125 6 27 6 
Q 33.203125 6 37.46875 10.296875 
Q 41.75 14.59375 41.75 20.953125 
Q 41.75 27 37.796875 30.921875 
Q 33.84375 34.859375 27.734375 34.859375 
Q 25.25 34.859375 21.53125 33.890625 
L 22.515625 41.609375 
Q 23.390625 41.5 23.921875 41.5 
Q 29.546875 41.5 34.03125 44.421875 
Q 38.53125 47.359375 38.53125 53.46875 
Q 38.53125 58.296875 35.25 61.46875 
Q 31.984375 64.65625 26.8125 64.65625 
Q 21.6875 64.65625 18.265625 61.421875 
Q 14.84375 58.203125 13.875 51.765625 
L 5.078125 53.328125 
Q 6.6875 62.15625 12.390625 67.015625 
Q 18.109375 71.875 26.609375 71.875 
Q 32.46875 71.875 37.390625 69.359375 
Q 42.328125 66.84375 44.9375 62.5 
Q 47.5625 58.15625 47.5625 53.265625 
Q 47.5625 48.640625 45.0625 44.828125 
Q 42.578125 41.015625 37.703125 38.765625 
Q 44.046875 37.3125 47.5625 32.6875 
Q 51.078125 28.078125 51.078125 21.140625 
Q 51.078125 11.765625 44.234375 5.25 
Q 37.40625 -1.265625 26.953125 -1.265625 
Q 17.53125 -1.265625 11.296875 4.34375 
Q 5.078125 9.96875 4.203125 18.890625 
z
" id="ArialMT-51"/>
      </defs>
      <g style="fill:#262626;" transform="translate(313.109184 387.370391)scale(0.165 -0.165)">
       <use xlink:href="#ArialMT-51"/>
       <use x="55.615234" xlink:href="#ArialMT-48"/>
       <use x="111.230469" xlink:href="#ArialMT-48"/>
      </g>
     </g>
    </g>
    <g id="text_5">
     <!-- Iteration -->
     <defs>
      <path d="M 9.328125 0 
L 9.328125 71.578125 
L 18.796875 71.578125 
L 18.796875 0 
z
" id="ArialMT-73"/>
      <path d="M 25.78125 7.859375 
L 27.046875 0.09375 
Q 23.34375 -0.6875 20.40625 -0.6875 
Q 15.625 -0.6875 12.984375 0.828125 
Q 10.359375 2.34375 9.28125 4.8125 
Q 8.203125 7.28125 8.203125 15.1875 
L 8.203125 45.015625 
L 1.765625 45.015625 
L 1.765625 51.859375 
L 8.203125 51.859375 
L 8.203125 64.703125 
L 16.9375 69.96875 
L 16.9375 51.859375 
L 25.78125 51.859375 
L 25.78125 45.015625 
L 16.9375 45.015625 
L 16.9375 14.703125 
Q 16.9375 10.9375 17.40625 9.859375 
Q 17.875 8.796875 18.921875 8.15625 
Q 19.96875 7.515625 21.921875 7.515625 
Q 23.390625 7.515625 25.78125 7.859375 
z
" id="ArialMT-116"/>
      <path d="M 42.09375 16.703125 
L 51.171875 15.578125 
Q 49.03125 7.625 43.21875 3.21875 
Q 37.40625 -1.171875 28.375 -1.171875 
Q 17 -1.171875 10.328125 5.828125 
Q 3.65625 12.84375 3.65625 25.484375 
Q 3.65625 38.578125 10.390625 45.796875 
Q 17.140625 53.03125 27.875 53.03125 
Q 38.28125 53.03125 44.875 45.953125 
Q 51.46875 38.875 51.46875 26.03125 
Q 51.46875 25.25 51.421875 23.6875 
L 12.75 23.6875 
Q 13.234375 15.140625 17.578125 10.59375 
Q 21.921875 6.0625 28.421875 6.0625 
Q 33.25 6.0625 36.671875 8.59375 
Q 40.09375 11.140625 42.09375 16.703125 
z
M 13.234375 30.90625 
L 42.1875 30.90625 
Q 41.609375 37.453125 38.875 40.71875 
Q 34.671875 45.796875 27.984375 45.796875 
Q 21.921875 45.796875 17.796875 41.75 
Q 13.671875 37.703125 13.234375 30.90625 
z
" id="ArialMT-101"/>
      <path d="M 6.5 0 
L 6.5 51.859375 
L 14.40625 51.859375 
L 14.40625 44 
Q 17.4375 49.515625 20 51.265625 
Q 22.5625 53.03125 25.640625 53.03125 
Q 30.078125 53.03125 34.671875 50.203125 
L 31.640625 42.046875 
Q 28.421875 43.953125 25.203125 43.953125 
Q 22.3125 43.953125 20.015625 42.21875 
Q 17.71875 40.484375 16.75 37.40625 
Q 15.28125 32.71875 15.28125 27.15625 
L 15.28125 0 
z
" id="ArialMT-114"/>
      <path d="M 40.4375 6.390625 
Q 35.546875 2.25 31.03125 0.53125 
Q 26.515625 -1.171875 21.34375 -1.171875 
Q 12.796875 -1.171875 8.203125 3 
Q 3.609375 7.171875 3.609375 13.671875 
Q 3.609375 17.484375 5.34375 20.625 
Q 7.078125 23.78125 9.890625 25.6875 
Q 12.703125 27.59375 16.21875 28.5625 
Q 18.796875 29.25 24.03125 29.890625 
Q 34.671875 31.15625 39.703125 32.90625 
Q 39.75 34.71875 39.75 35.203125 
Q 39.75 40.578125 37.25 42.78125 
Q 33.890625 45.75 27.25 45.75 
Q 21.046875 45.75 18.09375 43.578125 
Q 15.140625 41.40625 13.71875 35.890625 
L 5.125 37.0625 
Q 6.296875 42.578125 8.984375 45.96875 
Q 11.671875 49.359375 16.75 51.1875 
Q 21.828125 53.03125 28.515625 53.03125 
Q 35.15625 53.03125 39.296875 51.46875 
Q 43.453125 49.90625 45.40625 47.53125 
Q 47.359375 45.171875 48.140625 41.546875 
Q 48.578125 39.3125 48.578125 33.453125 
L 48.578125 21.734375 
Q 48.578125 9.46875 49.140625 6.21875 
Q 49.703125 2.984375 51.375 0 
L 42.1875 0 
Q 40.828125 2.734375 40.4375 6.390625 
z
M 39.703125 26.03125 
Q 34.90625 24.078125 25.34375 22.703125 
Q 19.921875 21.921875 17.671875 20.9375 
Q 15.4375 19.96875 14.203125 18.09375 
Q 12.984375 16.21875 12.984375 13.921875 
Q 12.984375 10.40625 15.640625 8.0625 
Q 18.3125 5.71875 23.4375 5.71875 
Q 28.515625 5.71875 32.46875 7.9375 
Q 36.421875 10.15625 38.28125 14.015625 
Q 39.703125 17 39.703125 22.796875 
z
" id="ArialMT-97"/>
      <path d="M 6.640625 61.46875 
L 6.640625 71.578125 
L 15.4375 71.578125 
L 15.4375 61.46875 
z
M 6.640625 0 
L 6.640625 51.859375 
L 15.4375 51.859375 
L 15.4375 0 
z
" id="ArialMT-105"/>
      <path d="M 3.328125 25.921875 
Q 3.328125 40.328125 11.328125 47.265625 
Q 18.015625 53.03125 27.640625 53.03125 
Q 38.328125 53.03125 45.109375 46.015625 
Q 51.90625 39.015625 51.90625 26.65625 
Q 51.90625 16.65625 48.90625 10.90625 
Q 45.90625 5.171875 40.15625 2 
Q 34.421875 -1.171875 27.640625 -1.171875 
Q 16.75 -1.171875 10.03125 5.8125 
Q 3.328125 12.796875 3.328125 25.921875 
z
M 12.359375 25.921875 
Q 12.359375 15.96875 16.703125 11.015625 
Q 21.046875 6.0625 27.640625 6.0625 
Q 34.1875 6.0625 38.53125 11.03125 
Q 42.875 16.015625 42.875 26.21875 
Q 42.875 35.84375 38.5 40.796875 
Q 34.125 45.75 27.640625 45.75 
Q 21.046875 45.75 16.703125 40.8125 
Q 12.359375 35.890625 12.359375 25.921875 
z
" id="ArialMT-111"/>
      <path d="M 6.59375 0 
L 6.59375 51.859375 
L 14.5 51.859375 
L 14.5 44.484375 
Q 20.21875 53.03125 31 53.03125 
Q 35.6875 53.03125 39.625 51.34375 
Q 43.5625 49.65625 45.515625 46.921875 
Q 47.46875 44.1875 48.25 40.4375 
Q 48.734375 37.984375 48.734375 31.890625 
L 48.734375 0 
L 39.9375 0 
L 39.9375 31.546875 
Q 39.9375 36.921875 38.90625 39.578125 
Q 37.890625 42.234375 35.28125 43.8125 
Q 32.671875 45.40625 29.15625 45.40625 
Q 23.53125 45.40625 19.453125 41.84375 
Q 15.375 38.28125 15.375 28.328125 
L 15.375 0 
z
" id="ArialMT-110"/>
     </defs>
     <g style="fill:#262626;" transform="translate(181.435387 407.533828)scale(0.18 -0.18)">
      <use xlink:href="#ArialMT-73"/>
      <use x="27.783203" xlink:href="#ArialMT-116"/>
      <use x="55.566406" xlink:href="#ArialMT-101"/>
      <use x="111.181641" xlink:href="#ArialMT-114"/>
      <use x="144.482422" xlink:href="#ArialMT-97"/>
      <use x="200.097656" xlink:href="#ArialMT-116"/>
      <use x="227.880859" xlink:href="#ArialMT-105"/>
      <use x="250.097656" xlink:href="#ArialMT-111"/>
      <use x="305.712891" xlink:href="#ArialMT-110"/>
     </g>
    </g>
   </g>
   <g id="matplotlib.axis_2">
    <g id="ytick_1">
     <g id="line2d_5">
      <path clip-path="url(#p9f1f028d07)" d="M 90.565 348.35 
L 337.339212 348.35 
" style="fill:none;stroke:#cccccc;stroke-linecap:round;stroke-width:1.5;"/>
     </g>
     <g id="text_6">
      <!-- 0 -->
      <g style="fill:#262626;" transform="translate(68.889453 354.255195)scale(0.165 -0.165)">
       <use xlink:href="#ArialMT-48"/>
      </g>
     </g>
    </g>
    <g id="ytick_2">
     <g id="line2d_6">
      <path clip-path="url(#p9f1f028d07)" d="M 90.565 285.459876 
L 337.339212 285.459876 
" style="fill:none;stroke:#cccccc;stroke-linecap:round;stroke-width:1.5;"/>
     </g>
     <g id="text_7">
      <!-- 1000 -->
      <g style="fill:#262626;" transform="translate(41.362813 291.365071)scale(0.165 -0.165)">
       <use xlink:href="#ArialMT-49"/>
       <use x="55.615234" xlink:href="#ArialMT-48"/>
       <use x="111.230469" xlink:href="#ArialMT-48"/>
       <use x="166.845703" xlink:href="#ArialMT-48"/>
      </g>
     </g>
    </g>
    <g id="ytick_3">
     <g id="line2d_7">
      <path clip-path="url(#p9f1f028d07)" d="M 90.565 222.569752 
L 337.339212 222.569752 
" style="fill:none;stroke:#cccccc;stroke-linecap:round;stroke-width:1.5;"/>
     </g>
     <g id="text_8">
      <!-- 2000 -->
      <g style="fill:#262626;" transform="translate(41.362813 228.474947)scale(0.165 -0.165)">
       <use xlink:href="#ArialMT-50"/>
       <use x="55.615234" xlink:href="#ArialMT-48"/>
       <use x="111.230469" xlink:href="#ArialMT-48"/>
       <use x="166.845703" xlink:href="#ArialMT-48"/>
      </g>
     </g>
    </g>
    <g id="ytick_4">
     <g id="line2d_8">
      <path clip-path="url(#p9f1f028d07)" d="M 90.565 159.679628 
L 337.339212 159.679628 
" style="fill:none;stroke:#cccccc;stroke-linecap:round;stroke-width:1.5;"/>
     </g>
     <g id="text_9">
      <!-- 3000 -->
      <g style="fill:#262626;" transform="translate(41.362813 165.584823)scale(0.165 -0.165)">
       <use xlink:href="#ArialMT-51"/>
       <use x="55.615234" xlink:href="#ArialMT-48"/>
       <use x="111.230469" xlink:href="#ArialMT-48"/>
       <use x="166.845703" xlink:href="#ArialMT-48"/>
      </g>
     </g>
    </g>
    <g id="ytick_5">
     <g id="line2d_9">
      <path clip-path="url(#p9f1f028d07)" d="M 90.565 96.789504 
L 337.339212 96.789504 
" style="fill:none;stroke:#cccccc;stroke-linecap:round;stroke-width:1.5;"/>
     </g>
     <g id="text_10">
      <!-- 4000 -->
      <defs>
       <path d="M 32.328125 0 
L 32.328125 17.140625 
L 1.265625 17.140625 
L 1.265625 25.203125 
L 33.9375 71.578125 
L 41.109375 71.578125 
L 41.109375 25.203125 
L 50.78125 25.203125 
L 50.78125 17.140625 
L 41.109375 17.140625 
L 41.109375 0 
z
M 32.328125 25.203125 
L 32.328125 57.46875 
L 9.90625 25.203125 
z
" id="ArialMT-52"/>
      </defs>
      <g style="fill:#262626;" transform="translate(41.362813 102.694699)scale(0.165 -0.165)">
       <use xlink:href="#ArialMT-52"/>
       <use x="55.615234" xlink:href="#ArialMT-48"/>
       <use x="111.230469" xlink:href="#ArialMT-48"/>
       <use x="166.845703" xlink:href="#ArialMT-48"/>
      </g>
     </g>
    </g>
    <g id="text_11">
     <!-- No. generated Bemis Murcko scaffolds -->
     <defs>
      <path d="M 7.625 0 
L 7.625 71.578125 
L 17.328125 71.578125 
L 54.9375 15.375 
L 54.9375 71.578125 
L 64.015625 71.578125 
L 64.015625 0 
L 54.296875 0 
L 16.703125 56.25 
L 16.703125 0 
z
" id="ArialMT-78"/>
      <path d="M 9.078125 0 
L 9.078125 10.015625 
L 19.09375 10.015625 
L 19.09375 0 
z
" id="ArialMT-46"/>
      <path id="ArialMT-32"/>
      <path d="M 4.984375 -4.296875 
L 13.53125 -5.5625 
Q 14.0625 -9.515625 16.5 -11.328125 
Q 19.78125 -13.765625 25.4375 -13.765625 
Q 31.546875 -13.765625 34.859375 -11.328125 
Q 38.1875 -8.890625 39.359375 -4.5 
Q 40.046875 -1.8125 39.984375 6.78125 
Q 34.234375 0 25.640625 0 
Q 14.9375 0 9.078125 7.71875 
Q 3.21875 15.4375 3.21875 26.21875 
Q 3.21875 33.640625 5.90625 39.90625 
Q 8.59375 46.1875 13.6875 49.609375 
Q 18.796875 53.03125 25.6875 53.03125 
Q 34.859375 53.03125 40.828125 45.609375 
L 40.828125 51.859375 
L 48.921875 51.859375 
L 48.921875 7.03125 
Q 48.921875 -5.078125 46.453125 -10.125 
Q 44 -15.1875 38.640625 -18.109375 
Q 33.296875 -21.046875 25.484375 -21.046875 
Q 16.21875 -21.046875 10.5 -16.875 
Q 4.78125 -12.703125 4.984375 -4.296875 
z
M 12.25 26.859375 
Q 12.25 16.65625 16.296875 11.96875 
Q 20.359375 7.28125 26.46875 7.28125 
Q 32.515625 7.28125 36.609375 11.9375 
Q 40.71875 16.609375 40.71875 26.5625 
Q 40.71875 36.078125 36.5 40.90625 
Q 32.28125 45.75 26.3125 45.75 
Q 20.453125 45.75 16.34375 40.984375 
Q 12.25 36.234375 12.25 26.859375 
z
" id="ArialMT-103"/>
      <path d="M 40.234375 0 
L 40.234375 6.546875 
Q 35.296875 -1.171875 25.734375 -1.171875 
Q 19.53125 -1.171875 14.328125 2.25 
Q 9.125 5.671875 6.265625 11.796875 
Q 3.421875 17.921875 3.421875 25.875 
Q 3.421875 33.640625 6 39.96875 
Q 8.59375 46.296875 13.765625 49.65625 
Q 18.953125 53.03125 25.34375 53.03125 
Q 30.03125 53.03125 33.6875 51.046875 
Q 37.359375 49.078125 39.65625 45.90625 
L 39.65625 71.578125 
L 48.390625 71.578125 
L 48.390625 0 
z
M 12.453125 25.875 
Q 12.453125 15.921875 16.640625 10.984375 
Q 20.84375 6.0625 26.5625 6.0625 
Q 32.328125 6.0625 36.34375 10.765625 
Q 40.375 15.484375 40.375 25.140625 
Q 40.375 35.796875 36.265625 40.765625 
Q 32.171875 45.75 26.171875 45.75 
Q 20.3125 45.75 16.375 40.96875 
Q 12.453125 36.1875 12.453125 25.875 
z
" id="ArialMT-100"/>
      <path d="M 7.328125 0 
L 7.328125 71.578125 
L 34.1875 71.578125 
Q 42.390625 71.578125 47.34375 69.40625 
Q 52.296875 67.234375 55.09375 62.71875 
Q 57.90625 58.203125 57.90625 53.265625 
Q 57.90625 48.6875 55.421875 44.625 
Q 52.9375 40.578125 47.90625 38.09375 
Q 54.390625 36.1875 57.875 31.59375 
Q 61.375 27 61.375 20.75 
Q 61.375 15.71875 59.25 11.390625 
Q 57.125 7.078125 54 4.734375 
Q 50.875 2.390625 46.15625 1.1875 
Q 41.453125 0 34.625 0 
z
M 16.796875 41.5 
L 32.28125 41.5 
Q 38.578125 41.5 41.3125 42.328125 
Q 44.921875 43.40625 46.75 45.890625 
Q 48.578125 48.390625 48.578125 52.15625 
Q 48.578125 55.71875 46.875 58.421875 
Q 45.171875 61.140625 41.984375 62.140625 
Q 38.8125 63.140625 31.109375 63.140625 
L 16.796875 63.140625 
z
M 16.796875 8.453125 
L 34.625 8.453125 
Q 39.203125 8.453125 41.0625 8.796875 
Q 44.34375 9.375 46.53125 10.734375 
Q 48.734375 12.109375 50.140625 14.71875 
Q 51.5625 17.328125 51.5625 20.75 
Q 51.5625 24.75 49.515625 27.703125 
Q 47.46875 30.671875 43.828125 31.859375 
Q 40.1875 33.0625 33.34375 33.0625 
L 16.796875 33.0625 
z
" id="ArialMT-66"/>
      <path d="M 6.59375 0 
L 6.59375 51.859375 
L 14.453125 51.859375 
L 14.453125 44.578125 
Q 16.890625 48.390625 20.9375 50.703125 
Q 25 53.03125 30.171875 53.03125 
Q 35.9375 53.03125 39.625 50.640625 
Q 43.3125 48.25 44.828125 43.953125 
Q 50.984375 53.03125 60.84375 53.03125 
Q 68.5625 53.03125 72.703125 48.75 
Q 76.859375 44.484375 76.859375 35.59375 
L 76.859375 0 
L 68.109375 0 
L 68.109375 32.671875 
Q 68.109375 37.9375 67.25 40.25 
Q 66.40625 42.578125 64.15625 43.984375 
Q 61.921875 45.40625 58.890625 45.40625 
Q 53.421875 45.40625 49.796875 41.765625 
Q 46.1875 38.140625 46.1875 30.125 
L 46.1875 0 
L 37.40625 0 
L 37.40625 33.6875 
Q 37.40625 39.546875 35.25 42.46875 
Q 33.109375 45.40625 28.21875 45.40625 
Q 24.515625 45.40625 21.359375 43.453125 
Q 18.21875 41.5 16.796875 37.734375 
Q 15.375 33.984375 15.375 26.90625 
L 15.375 0 
z
" id="ArialMT-109"/>
      <path d="M 3.078125 15.484375 
L 11.765625 16.84375 
Q 12.5 11.625 15.84375 8.84375 
Q 19.1875 6.0625 25.203125 6.0625 
Q 31.25 6.0625 34.171875 8.515625 
Q 37.109375 10.984375 37.109375 14.3125 
Q 37.109375 17.28125 34.515625 19 
Q 32.71875 20.171875 25.53125 21.96875 
Q 15.875 24.421875 12.140625 26.203125 
Q 8.40625 27.984375 6.46875 31.125 
Q 4.546875 34.28125 4.546875 38.09375 
Q 4.546875 41.546875 6.125 44.5 
Q 7.71875 47.46875 10.453125 49.421875 
Q 12.5 50.921875 16.03125 51.96875 
Q 19.578125 53.03125 23.640625 53.03125 
Q 29.734375 53.03125 34.34375 51.265625 
Q 38.96875 49.515625 41.15625 46.5 
Q 43.359375 43.5 44.1875 38.484375 
L 35.59375 37.3125 
Q 35.015625 41.3125 32.203125 43.546875 
Q 29.390625 45.796875 24.265625 45.796875 
Q 18.21875 45.796875 15.625 43.796875 
Q 13.03125 41.796875 13.03125 39.109375 
Q 13.03125 37.40625 14.109375 36.03125 
Q 15.1875 34.625 17.484375 33.6875 
Q 18.796875 33.203125 25.25 31.453125 
Q 34.578125 28.953125 38.25 27.359375 
Q 41.9375 25.78125 44.03125 22.75 
Q 46.140625 19.734375 46.140625 15.234375 
Q 46.140625 10.84375 43.578125 6.953125 
Q 41.015625 3.078125 36.171875 0.953125 
Q 31.34375 -1.171875 25.25 -1.171875 
Q 15.140625 -1.171875 9.84375 3.03125 
Q 4.546875 7.234375 3.078125 15.484375 
z
" id="ArialMT-115"/>
      <path d="M 7.421875 0 
L 7.421875 71.578125 
L 21.6875 71.578125 
L 38.625 20.90625 
Q 40.96875 13.8125 42.046875 10.296875 
Q 43.265625 14.203125 45.84375 21.78125 
L 62.984375 71.578125 
L 75.734375 71.578125 
L 75.734375 0 
L 66.609375 0 
L 66.609375 59.90625 
L 45.796875 0 
L 37.25 0 
L 16.546875 60.9375 
L 16.546875 0 
z
" id="ArialMT-77"/>
      <path d="M 40.578125 0 
L 40.578125 7.625 
Q 34.515625 -1.171875 24.125 -1.171875 
Q 19.53125 -1.171875 15.546875 0.578125 
Q 11.578125 2.34375 9.640625 5 
Q 7.71875 7.671875 6.9375 11.53125 
Q 6.390625 14.109375 6.390625 19.734375 
L 6.390625 51.859375 
L 15.1875 51.859375 
L 15.1875 23.09375 
Q 15.1875 16.21875 15.71875 13.8125 
Q 16.546875 10.359375 19.234375 8.375 
Q 21.921875 6.390625 25.875 6.390625 
Q 29.828125 6.390625 33.296875 8.421875 
Q 36.765625 10.453125 38.203125 13.9375 
Q 39.65625 17.4375 39.65625 24.078125 
L 39.65625 51.859375 
L 48.4375 51.859375 
L 48.4375 0 
z
" id="ArialMT-117"/>
      <path d="M 40.4375 19 
L 49.078125 17.875 
Q 47.65625 8.9375 41.8125 3.875 
Q 35.984375 -1.171875 27.484375 -1.171875 
Q 16.84375 -1.171875 10.375 5.78125 
Q 3.90625 12.75 3.90625 25.734375 
Q 3.90625 34.125 6.6875 40.421875 
Q 9.46875 46.734375 15.15625 49.875 
Q 20.84375 53.03125 27.546875 53.03125 
Q 35.984375 53.03125 41.359375 48.75 
Q 46.734375 44.484375 48.25 36.625 
L 39.703125 35.296875 
Q 38.484375 40.53125 35.375 43.15625 
Q 32.28125 45.796875 27.875 45.796875 
Q 21.234375 45.796875 17.078125 41.03125 
Q 12.9375 36.28125 12.9375 25.984375 
Q 12.9375 15.53125 16.9375 10.796875 
Q 20.953125 6.0625 27.390625 6.0625 
Q 32.5625 6.0625 36.03125 9.234375 
Q 39.5 12.40625 40.4375 19 
z
" id="ArialMT-99"/>
      <path d="M 6.640625 0 
L 6.640625 71.578125 
L 15.4375 71.578125 
L 15.4375 30.765625 
L 36.234375 51.859375 
L 47.609375 51.859375 
L 27.78125 32.625 
L 49.609375 0 
L 38.765625 0 
L 21.625 26.515625 
L 15.4375 20.5625 
L 15.4375 0 
z
" id="ArialMT-107"/>
      <path d="M 8.6875 0 
L 8.6875 45.015625 
L 0.921875 45.015625 
L 0.921875 51.859375 
L 8.6875 51.859375 
L 8.6875 57.375 
Q 8.6875 62.59375 9.625 65.140625 
Q 10.890625 68.5625 14.078125 70.671875 
Q 17.28125 72.796875 23.046875 72.796875 
Q 26.765625 72.796875 31.25 71.921875 
L 29.9375 64.265625 
Q 27.203125 64.75 24.75 64.75 
Q 20.75 64.75 19.09375 63.03125 
Q 17.4375 61.328125 17.4375 56.640625 
L 17.4375 51.859375 
L 27.546875 51.859375 
L 27.546875 45.015625 
L 17.4375 45.015625 
L 17.4375 0 
z
" id="ArialMT-102"/>
      <path d="M 6.390625 0 
L 6.390625 71.578125 
L 15.1875 71.578125 
L 15.1875 0 
z
" id="ArialMT-108"/>
     </defs>
     <g style="fill:#262626;" transform="translate(33.574375 355.808125)rotate(-90)scale(0.18 -0.18)">
      <use xlink:href="#ArialMT-78"/>
      <use x="72.216797" xlink:href="#ArialMT-111"/>
      <use x="127.832031" xlink:href="#ArialMT-46"/>
      <use x="155.615234" xlink:href="#ArialMT-32"/>
      <use x="183.398438" xlink:href="#ArialMT-103"/>
      <use x="239.013672" xlink:href="#ArialMT-101"/>
      <use x="294.628906" xlink:href="#ArialMT-110"/>
      <use x="350.244141" xlink:href="#ArialMT-101"/>
      <use x="405.859375" xlink:href="#ArialMT-114"/>
      <use x="439.160156" xlink:href="#ArialMT-97"/>
      <use x="494.775391" xlink:href="#ArialMT-116"/>
      <use x="522.558594" xlink:href="#ArialMT-101"/>
      <use x="578.173828" xlink:href="#ArialMT-100"/>
      <use x="633.789062" xlink:href="#ArialMT-32"/>
      <use x="661.572266" xlink:href="#ArialMT-66"/>
      <use x="728.271484" xlink:href="#ArialMT-101"/>
      <use x="783.886719" xlink:href="#ArialMT-109"/>
      <use x="867.1875" xlink:href="#ArialMT-105"/>
      <use x="889.404297" xlink:href="#ArialMT-115"/>
      <use x="939.404297" xlink:href="#ArialMT-32"/>
      <use x="967.1875" xlink:href="#ArialMT-77"/>
      <use x="1050.488281" xlink:href="#ArialMT-117"/>
      <use x="1106.103516" xlink:href="#ArialMT-114"/>
      <use x="1139.404297" xlink:href="#ArialMT-99"/>
      <use x="1189.404297" xlink:href="#ArialMT-107"/>
      <use x="1239.404297" xlink:href="#ArialMT-111"/>
      <use x="1295.019531" xlink:href="#ArialMT-32"/>
      <use x="1322.802734" xlink:href="#ArialMT-115"/>
      <use x="1372.802734" xlink:href="#ArialMT-99"/>
      <use x="1422.802734" xlink:href="#ArialMT-97"/>
      <use x="1478.417969" xlink:href="#ArialMT-102"/>
      <use x="1506.185547" xlink:href="#ArialMT-102"/>
      <use x="1533.96875" xlink:href="#ArialMT-111"/>
      <use x="1589.583984" xlink:href="#ArialMT-108"/>
      <use x="1611.800781" xlink:href="#ArialMT-100"/>
      <use x="1667.416016" xlink:href="#ArialMT-115"/>
     </g>
    </g>
   </g>
   <g id="line2d_10">
    <path clip-path="url(#p9f1f028d07)" d="M 101.78201 348.35 
L 113.786836 348.28711 
L 115.287439 348.22422 
L 122.040154 348.16133 
L 123.540757 348.09844 
L 129.543171 348.035549 
L 131.794076 347.909769 
L 133.294679 347.846879 
L 149.801315 346.400406 
L 150.551617 346.148846 
L 152.802522 345.897285 
L 155.053427 345.582835 
L 155.803728 345.519944 
L 158.054633 344.702373 
L 158.804935 344.387922 
L 160.305538 344.199252 
L 161.05584 343.947691 
L 161.806142 343.884801 
L 163.306745 343.31879 
L 164.057046 342.689889 
L 164.807348 342.312548 
L 166.307951 341.746537 
L 167.058253 341.180526 
L 169.309158 340.237174 
L 172.310365 338.22469 
L 173.060666 338.03602 
L 173.810968 337.532899 
L 174.56127 337.281338 
L 176.061873 336.212206 
L 176.812175 335.331744 
L 179.813381 333.759491 
L 180.563683 333.19348 
L 181.313984 332.816139 
L 182.064286 332.313018 
L 182.814588 332.061458 
L 185.065493 330.677875 
L 187.316398 328.916952 
L 188.066699 327.91071 
L 190.317604 326.715797 
L 191.067906 326.086896 
L 191.818207 325.646665 
L 192.568509 325.017764 
L 193.318811 324.137302 
L 194.069112 323.445511 
L 194.819414 323.06817 
L 195.569716 322.187708 
L 196.320017 321.999038 
L 197.070319 321.244357 
L 197.820621 320.741236 
L 199.321224 319.043202 
L 200.071526 318.414301 
L 200.821827 317.533839 
L 202.322431 316.590487 
L 205.323637 314.452223 
L 206.073939 313.445981 
L 207.574542 312.251069 
L 213.576955 308.855002 
L 215.077559 308.414771 
L 215.82786 308.226101 
L 216.578162 307.84876 
L 217.328464 307.219859 
L 218.829067 306.528068 
L 219.579368 306.150727 
L 220.32967 305.962056 
L 221.079972 305.647606 
L 221.830273 305.647606 
L 224.081178 304.264023 
L 226.332083 303.069111 
L 227.832687 302.314429 
L 230.083592 301.119517 
L 232.334497 299.735934 
L 233.8351 299.107033 
L 236.836306 297.031659 
L 237.586608 296.214087 
L 239.087211 295.207845 
L 239.837513 294.893395 
L 240.587815 294.704724 
L 241.338116 294.327383 
L 242.088418 293.572702 
L 242.83872 293.006691 
L 244.339323 292.3149 
L 245.089625 291.748888 
L 245.839926 291.434438 
L 246.590228 291.308658 
L 248.090831 289.987965 
L 249.591434 288.478602 
L 251.092038 286.969239 
L 254.843546 284.579414 
L 255.593848 284.202074 
L 256.344149 283.636062 
L 257.844753 282.18959 
L 263.096864 278.604853 
L 263.847166 277.724391 
L 264.597467 277.53572 
L 265.347769 276.906819 
L 266.098071 276.592369 
L 266.848372 276.152138 
L 267.598674 275.397456 
L 268.348976 275.145896 
L 269.099277 274.579885 
L 269.849579 274.265434 
L 270.599881 273.825203 
L 272.100484 272.693181 
L 272.850786 272.37873 
L 274.351389 271.246708 
L 277.352595 269.548675 
L 278.102897 269.360004 
L 281.854405 266.97018 
L 282.604707 266.592839 
L 283.355009 266.341278 
L 284.10531 265.649487 
L 284.855612 265.335036 
L 285.605914 264.831915 
L 288.60712 263.762783 
L 289.357422 263.259662 
L 290.107723 262.945212 
L 290.858025 262.31631 
L 294.609533 260.240936 
L 295.359835 260.115156 
L 296.110137 259.674925 
L 296.860438 259.486255 
L 299.111343 258.291342 
L 300.611947 257.851112 
L 301.362248 257.536661 
L 302.862851 256.781979 
L 304.363455 256.215968 
L 305.113756 255.712847 
L 306.61436 255.083946 
L 307.364661 254.517935 
L 308.114963 254.203484 
L 308.865265 253.700363 
L 309.615566 253.574583 
L 311.866471 252.694121 
L 313.367075 252.379671 
L 314.867678 251.624989 
L 315.61798 251.373429 
L 318.619186 249.172274 
L 320.119789 248.732044 
L 320.870091 248.354703 
L 323.120996 247.851582 
L 324.621599 247.662912 
L 326.122203 246.97112 
L 326.122203 246.97112 
" style="fill:none;stroke:#1f77b4;stroke-linecap:round;stroke-width:2.25;"/>
   </g>
   <g id="line2d_11">
    <path clip-path="url(#p9f1f028d07)" d="M 101.78201 348.35 
L 113.786836 348.28711 
L 115.287439 348.22422 
L 122.040154 348.16133 
L 123.540757 348.09844 
L 129.543171 348.035549 
L 131.794076 347.909769 
L 133.294679 347.846879 
L 149.801315 346.400406 
L 150.551617 346.148846 
L 152.802522 345.897285 
L 154.303125 345.582835 
L 155.803728 345.394164 
L 157.304332 344.891043 
L 158.804935 344.199252 
L 160.305538 343.759021 
L 161.05584 343.50746 
L 161.806142 343.44457 
L 162.556443 343.06723 
L 163.306745 342.815669 
L 164.057046 342.060988 
L 164.807348 341.809427 
L 167.808555 340.111394 
L 168.558856 339.796943 
L 169.309158 339.293822 
L 170.05946 338.979372 
L 170.809761 338.790701 
L 171.560063 338.476251 
L 172.310365 337.595789 
L 176.061873 334.828623 
L 176.812175 334.451283 
L 177.562476 334.199722 
L 179.813381 332.564579 
L 180.563683 332.124348 
L 181.313984 331.243886 
L 182.064286 330.614985 
L 183.564889 328.916952 
L 185.815794 326.715797 
L 186.566096 326.212676 
L 187.316398 325.457995 
L 188.066699 324.451753 
L 190.317604 322.627939 
L 192.568509 320.426785 
L 194.819414 317.282279 
L 196.320017 315.772916 
L 197.070319 315.269795 
L 200.071526 312.565519 
L 201.572129 311.496387 
L 209.825447 303.886682 
L 211.32605 302.251539 
L 212.076352 301.496858 
L 215.82786 296.465648 
L 218.078765 294.012933 
L 219.579368 291.937559 
L 220.32967 290.931317 
L 221.830273 289.484844 
L 224.83148 285.837217 
L 225.581782 285.082535 
L 229.33329 280.239996 
L 230.083592 279.045083 
L 230.833893 278.479072 
L 231.584195 277.53572 
L 233.084798 275.900577 
L 233.8351 274.642775 
L 235.335703 273.007631 
L 236.086005 272.567401 
L 238.33691 269.297114 
L 239.837513 267.850641 
L 241.338116 265.775267 
L 242.83872 264.580355 
L 243.589021 264.140124 
L 245.089625 262.630761 
L 245.839926 261.624519 
L 246.590228 261.058508 
L 247.340529 260.681167 
L 251.092038 257.851112 
L 251.842339 256.719089 
L 254.093244 255.209726 
L 255.593848 253.826144 
L 260.845959 250.870308 
L 262.346562 250.241407 
L 263.847166 249.360945 
L 266.848372 247.474241 
L 267.598674 246.593779 
L 268.348976 245.964878 
L 269.849579 245.398867 
L 273.601087 242.505921 
L 274.351389 241.81413 
L 276.602294 240.367657 
L 278.102897 238.921184 
L 278.853199 238.480953 
L 281.104104 236.468469 
L 281.854405 235.588008 
L 282.604707 234.959106 
L 283.355009 234.015755 
L 284.855612 232.883732 
L 286.356215 230.997029 
L 287.106517 230.242347 
L 287.856819 229.236105 
L 288.60712 228.732984 
L 289.357422 227.852522 
L 290.107723 227.223621 
L 293.10893 223.890445 
L 294.609533 222.003741 
L 296.110137 220.305708 
L 296.860438 219.613916 
L 298.361042 217.475652 
L 299.111343 216.65808 
L 304.363455 209.362826 
L 305.113756 208.859705 
L 305.864058 207.664793 
L 308.865265 204.520286 
L 309.615566 204.080056 
L 310.365868 203.136704 
L 312.616773 200.935549 
L 313.367075 200.055088 
L 314.117376 199.426186 
L 314.867678 198.482835 
L 316.368281 197.225032 
L 317.868884 195.464109 
L 318.619186 194.394976 
L 319.369488 193.891855 
L 320.119789 193.011394 
L 321.620393 191.627811 
L 322.370694 190.495789 
L 323.871298 188.986426 
L 325.371901 188.231744 
L 326.122203 187.477063 
L 326.122203 187.477063 
" style="fill:none;stroke:#ff7f0e;stroke-linecap:round;stroke-width:2.25;"/>
   </g>
   <g id="line2d_12">
    <path clip-path="url(#p9f1f028d07)" d="M 101.78201 348.35 
L 113.786836 348.28711 
L 115.287439 348.22422 
L 122.040154 348.16133 
L 123.540757 348.09844 
L 129.543171 348.035549 
L 131.794076 347.909769 
L 133.294679 347.846879 
L 149.801315 346.400406 
L 150.551617 346.148846 
L 152.802522 345.897285 
L 154.303125 345.582835 
L 155.803728 345.394164 
L 157.304332 344.891043 
L 158.804935 344.199252 
L 160.305538 343.759021 
L 161.05584 343.50746 
L 161.806142 343.44457 
L 162.556443 343.06723 
L 163.306745 342.815669 
L 164.057046 342.060988 
L 164.807348 341.809427 
L 167.808555 340.111394 
L 168.558856 339.796943 
L 169.309158 339.293822 
L 170.05946 338.979372 
L 170.809761 338.790701 
L 171.560063 338.476251 
L 172.310365 337.595789 
L 173.810968 336.463767 
L 174.56127 335.709085 
L 176.061873 334.765733 
L 176.812175 334.136832 
L 177.562476 333.19348 
L 179.063079 331.872788 
L 179.813381 331.558337 
L 180.563683 330.677875 
L 181.313984 330.174754 
L 183.564889 327.093138 
L 184.315191 325.961116 
L 185.065493 325.143544 
L 186.566096 323.06817 
L 187.316398 322.502159 
L 188.066699 321.495917 
L 189.567303 319.106092 
L 190.317604 318.09985 
L 191.067906 316.653378 
L 193.318811 313.760432 
L 197.820621 306.024947 
L 200.821827 301.874198 
L 203.072732 297.346109 
L 203.823034 296.465648 
L 204.573336 295.144955 
L 205.323637 294.264493 
L 208.324844 289.296174 
L 209.075145 287.912591 
L 209.825447 286.906349 
L 210.575749 286.088777 
L 213.576955 281.434908 
L 214.327257 280.491556 
L 215.077559 279.799765 
L 216.578162 277.53572 
L 217.328464 276.906819 
L 218.829067 274.768555 
L 220.32967 273.322082 
L 221.079972 272.693181 
L 221.830273 271.624049 
L 222.580575 270.932257 
L 223.330877 269.926015 
L 224.83148 268.227982 
L 225.581782 267.28463 
L 227.082385 266.467059 
L 228.582988 264.706135 
L 229.33329 264.391684 
L 230.833893 262.442091 
L 232.334497 261.310068 
L 235.335703 258.983134 
L 236.086005 258.165562 
L 238.33691 256.467529 
L 239.837513 254.895276 
L 240.587815 254.266375 
L 242.088418 252.757012 
L 244.339323 250.807418 
L 245.089625 249.738286 
L 245.839926 249.298055 
L 246.590228 248.543373 
L 247.340529 247.977362 
L 248.090831 247.03401 
L 250.341736 245.084416 
L 251.842339 243.575053 
L 252.592641 242.443031 
L 253.342943 241.75124 
L 254.843546 239.801646 
L 257.094451 235.902458 
L 257.844753 235.147777 
L 258.595054 233.764194 
L 260.095658 231.8146 
L 263.096864 227.160731 
L 266.098071 222.255301 
L 266.848372 221.123279 
L 270.599881 213.450684 
L 271.350182 211.689761 
L 272.100484 210.494848 
L 272.850786 208.671035 
L 274.351389 206.15543 
L 276.602294 201.690231 
L 277.352595 200.243758 
L 279.6035 194.520757 
L 280.353802 193.074284 
L 281.104104 191.18758 
L 283.355009 186.911052 
L 284.855612 184.898568 
L 286.356215 181.754062 
L 288.60712 177.917764 
L 291.608327 173.515455 
L 293.10893 171.377191 
L 294.609533 168.924476 
L 298.361042 164.270607 
L 299.111343 163.453035 
L 300.611947 161.126101 
L 302.862851 158.233155 
L 303.613153 157.101133 
L 304.363455 156.409342 
L 305.113756 155.52888 
L 305.864058 154.899979 
L 308.114963 152.321484 
L 309.615566 150.937901 
L 310.365868 149.994549 
L 311.11617 149.302758 
L 311.866471 148.359406 
L 314.117376 146.158251 
L 314.867678 145.34068 
L 315.61798 144.334438 
L 317.868884 142.196174 
L 318.619186 140.62392 
L 319.369488 140.057909 
L 321.620393 137.353634 
L 322.370694 136.724733 
L 323.120996 135.781381 
L 324.621599 134.523578 
L 326.122203 133.077106 
L 326.122203 133.077106 
" style="fill:none;stroke:#2ca02c;stroke-linecap:round;stroke-width:2.25;"/>
   </g>
   <g id="line2d_13">
    <path clip-path="url(#p9f1f028d07)" d="M 101.78201 348.35 
L 113.786836 348.28711 
L 115.287439 348.22422 
L 122.040154 348.16133 
L 123.540757 348.09844 
L 129.543171 348.035549 
L 131.794076 347.909769 
L 133.294679 347.846879 
L 149.801315 346.400406 
L 150.551617 346.148846 
L 152.802522 345.897285 
L 154.303125 345.582835 
L 155.803728 345.394164 
L 157.304332 344.891043 
L 158.804935 344.199252 
L 160.305538 343.759021 
L 161.05584 343.50746 
L 161.806142 343.44457 
L 162.556443 343.06723 
L 163.306745 342.815669 
L 164.057046 342.060988 
L 164.807348 341.809427 
L 167.808555 340.111394 
L 168.558856 339.796943 
L 169.309158 339.293822 
L 170.05946 338.979372 
L 170.809761 338.790701 
L 171.560063 338.476251 
L 172.310365 337.595789 
L 173.810968 336.463767 
L 174.56127 335.709085 
L 176.061873 334.765733 
L 176.812175 334.136832 
L 177.562476 333.19348 
L 179.063079 331.872788 
L 179.813381 331.558337 
L 180.563683 330.677875 
L 181.313984 330.174754 
L 183.564889 327.093138 
L 184.315191 325.961116 
L 185.065493 325.143544 
L 186.566096 323.06817 
L 187.316398 322.502159 
L 188.066699 321.495917 
L 189.567303 319.106092 
L 190.317604 318.09985 
L 191.067906 316.653378 
L 193.318811 313.760432 
L 197.820621 306.024947 
L 200.821827 301.874198 
L 203.072732 297.346109 
L 203.823034 296.465648 
L 204.573336 295.144955 
L 205.323637 294.264493 
L 208.324844 289.296174 
L 209.075145 287.912591 
L 209.825447 286.906349 
L 210.575749 286.088777 
L 213.576955 281.434908 
L 214.327257 280.491556 
L 215.077559 279.799765 
L 216.578162 277.53572 
L 217.328464 276.843929 
L 219.579368 273.825203 
L 220.32967 273.133412 
L 221.830273 271.246708 
L 223.330877 269.297114 
L 224.081178 268.731103 
L 224.83148 267.41041 
L 225.581782 266.529949 
L 227.832687 264.517465 
L 228.582988 263.448333 
L 229.33329 262.756541 
L 230.083592 261.561629 
L 230.833893 260.995618 
L 231.584195 260.240936 
L 232.334497 259.297584 
L 233.084798 258.920244 
L 233.8351 257.725331 
L 234.585401 257.03354 
L 236.836306 253.826144 
L 238.33691 251.81366 
L 239.087211 250.996088 
L 240.587815 249.046494 
L 242.83872 246.65667 
L 245.089625 244.266845 
L 245.839926 243.826614 
L 247.340529 242.191471 
L 248.090831 241.81413 
L 248.841133 241.122339 
L 251.092038 238.606734 
L 251.842339 238.166503 
L 252.592641 237.034481 
L 253.342943 236.468469 
L 254.093244 235.273557 
L 254.843546 234.393095 
L 255.593848 233.827084 
L 257.094451 232.254831 
L 259.345356 229.487666 
L 260.095658 229.047435 
L 260.845959 228.104083 
L 263.847166 225.588478 
L 265.347769 223.827555 
L 266.848372 222.443972 
L 268.348976 220.683048 
L 269.099277 219.991257 
L 272.100484 215.840509 
L 273.601087 214.268256 
L 274.351389 212.947563 
L 275.851992 210.809299 
L 277.352595 209.048375 
L 278.853199 207.161672 
L 279.6035 206.21832 
L 280.353802 204.268726 
L 281.854405 202.067572 
L 282.604707 201.18711 
L 283.355009 200.117978 
L 284.855612 198.357054 
L 285.605914 196.973472 
L 290.858025 190.244228 
L 292.358628 188.294634 
L 293.10893 187.036832 
L 293.859232 185.401689 
L 294.609533 184.269667 
L 295.359835 182.571633 
L 296.860438 180.370479 
L 299.111343 176.219731 
L 300.611947 174.647478 
L 301.362248 173.515455 
L 302.11255 172.760774 
L 304.363455 169.490487 
L 305.113756 168.672916 
L 305.864058 167.352223 
L 306.61436 166.723322 
L 308.114963 164.836618 
L 309.615566 163.264365 
L 310.365868 162.321013 
L 311.11617 161.566332 
L 311.866471 160.4972 
L 312.616773 159.868298 
L 313.367075 158.924947 
L 314.117376 158.358935 
L 314.867678 157.604254 
L 315.61798 156.283561 
L 316.368281 155.65466 
L 317.118583 154.711308 
L 317.868884 154.208187 
L 319.369488 152.698824 
L 320.870091 150.309 
L 323.120996 148.170735 
L 325.371901 145.089119 
L 326.122203 144.397328 
L 326.122203 144.397328 
" style="fill:none;stroke:#d62728;stroke-linecap:round;stroke-width:2.25;"/>
   </g>
   <g id="line2d_14">
    <path clip-path="url(#p9f1f028d07)" d="M 101.78201 348.35 
L 113.786836 348.28711 
L 115.287439 348.22422 
L 122.040154 348.16133 
L 123.540757 348.09844 
L 129.543171 348.035549 
L 131.794076 347.909769 
L 133.294679 347.846879 
L 149.801315 346.400406 
L 150.551617 346.148846 
L 152.802522 345.897285 
L 154.303125 345.582835 
L 155.803728 345.394164 
L 157.304332 344.891043 
L 158.804935 344.199252 
L 160.305538 343.759021 
L 161.05584 343.50746 
L 161.806142 343.44457 
L 162.556443 343.06723 
L 163.306745 342.815669 
L 164.057046 342.060988 
L 164.807348 341.809427 
L 167.808555 340.111394 
L 168.558856 339.796943 
L 169.309158 339.293822 
L 170.05946 338.979372 
L 170.809761 338.790701 
L 171.560063 338.476251 
L 172.310365 337.595789 
L 173.810968 336.463767 
L 174.56127 335.709085 
L 176.061873 334.765733 
L 176.812175 334.136832 
L 177.562476 333.19348 
L 179.063079 331.872788 
L 179.813381 331.558337 
L 180.563683 330.677875 
L 181.313984 330.174754 
L 182.064286 329.168512 
L 182.814588 328.350941 
L 183.564889 327.156028 
L 184.315191 326.212676 
L 185.065493 325.583775 
L 185.815794 324.325973 
L 190.317604 318.540081 
L 191.067906 317.345169 
L 191.818207 316.904938 
L 194.069112 313.445981 
L 195.569716 311.307717 
L 197.070319 308.414771 
L 198.570922 306.213617 
L 199.321224 305.144485 
L 200.071526 303.760902 
L 200.821827 303.069111 
L 201.572129 301.748418 
L 202.322431 300.742176 
L 203.072732 299.484374 
L 203.823034 297.975011 
L 206.073939 294.641834 
L 208.324844 291.057097 
L 211.32605 285.082535 
L 212.076352 283.258722 
L 214.327257 278.856413 
L 215.077559 278.038841 
L 215.82786 276.718149 
L 216.578162 275.020115 
L 217.328464 274.013873 
L 218.829067 270.995147 
L 219.579368 269.863125 
L 221.079972 266.97018 
L 221.830273 265.963938 
L 222.580575 264.454575 
L 223.330877 263.762783 
L 225.581782 259.612035 
L 228.582988 254.266375 
L 231.584195 250.241407 
L 232.334497 249.612505 
L 233.084798 247.851582 
L 233.8351 246.84534 
L 235.335703 243.700834 
L 236.086005 242.443031 
L 236.836306 241.562569 
L 237.586608 239.675866 
L 239.087211 237.348931 
L 240.587815 234.770436 
L 241.338116 233.261073 
L 242.83872 230.682578 
L 251.842339 210.054617 
L 253.342943 206.721441 
L 254.843546 204.142946 
L 259.345356 194.520757 
L 262.346562 187.477063 
L 263.096864 186.09348 
L 263.847166 184.018106 
L 264.597467 182.320073 
L 265.347769 180.93649 
L 266.848372 177.603313 
L 267.598674 175.465049 
L 268.348976 174.144357 
L 269.099277 172.446323 
L 270.599881 168.295575 
L 271.350182 166.786212 
L 273.601087 161.188991 
L 276.602294 155.65466 
L 278.102897 151.755472 
L 278.853199 149.931659 
L 279.6035 148.485186 
L 280.353802 146.472702 
L 281.104104 145.026229 
L 285.605914 134.460688 
L 287.106517 132.070864 
L 287.856819 130.561501 
L 290.107723 125.21584 
L 291.608327 122.637345 
L 293.859232 117.291684 
L 294.609533 115.279201 
L 295.359835 114.210068 
L 296.110137 112.637815 
L 296.860438 111.380013 
L 297.61074 109.80776 
L 298.361042 108.738628 
L 299.861645 105.908572 
L 302.11255 100.814472 
L 303.613153 97.355515 
L 305.864058 93.204767 
L 306.61436 90.814942 
L 307.364661 89.68292 
L 308.865265 86.538414 
L 309.615566 85.217721 
L 310.365868 83.393908 
L 315.61798 73.960389 
L 316.368281 72.262356 
L 317.868884 69.998311 
L 318.619186 68.426058 
L 320.870091 64.652651 
L 321.620393 63.646409 
L 322.370694 62.262826 
L 326.122203 54.15 
L 326.122203 54.15 
" style="fill:none;stroke:#9467bd;stroke-linecap:round;stroke-width:2.25;"/>
   </g>
   <g id="patch_3">
    <path d="M 90.565 363.06 
L 90.565 39.44 
" style="fill:none;stroke:#cccccc;stroke-linecap:square;stroke-linejoin:miter;stroke-width:1.875;"/>
   </g>
   <g id="patch_4">
    <path d="M 337.339212 363.06 
L 337.339212 39.44 
" style="fill:none;stroke:#cccccc;stroke-linecap:square;stroke-linejoin:miter;stroke-width:1.875;"/>
   </g>
   <g id="patch_5">
    <path d="M 90.565 363.06 
L 337.339212 363.06 
" style="fill:none;stroke:#cccccc;stroke-linecap:square;stroke-linejoin:miter;stroke-width:1.875;"/>
   </g>
   <g id="patch_6">
    <path d="M 90.565 39.44 
L 337.339212 39.44 
" style="fill:none;stroke:#cccccc;stroke-linecap:square;stroke-linejoin:miter;stroke-width:1.875;"/>
   </g>
   <g id="text_12">
    <!-- HTR1A -->
    <defs>
     <path d="M 8.015625 0 
L 8.015625 71.578125 
L 17.484375 71.578125 
L 17.484375 42.1875 
L 54.6875 42.1875 
L 54.6875 71.578125 
L 64.15625 71.578125 
L 64.15625 0 
L 54.6875 0 
L 54.6875 33.734375 
L 17.484375 33.734375 
L 17.484375 0 
z
" id="ArialMT-72"/>
     <path d="M 25.921875 0 
L 25.921875 63.140625 
L 2.34375 63.140625 
L 2.34375 71.578125 
L 59.078125 71.578125 
L 59.078125 63.140625 
L 35.40625 63.140625 
L 35.40625 0 
z
" id="ArialMT-84"/>
     <path d="M 7.859375 0 
L 7.859375 71.578125 
L 39.59375 71.578125 
Q 49.171875 71.578125 54.140625 69.640625 
Q 59.125 67.71875 62.109375 62.828125 
Q 65.09375 57.953125 65.09375 52.046875 
Q 65.09375 44.4375 60.15625 39.203125 
Q 55.21875 33.984375 44.921875 32.5625 
Q 48.6875 30.765625 50.640625 29 
Q 54.78125 25.203125 58.5 19.484375 
L 70.953125 0 
L 59.03125 0 
L 49.5625 14.890625 
Q 45.40625 21.34375 42.71875 24.75 
Q 40.046875 28.171875 37.921875 29.53125 
Q 35.796875 30.90625 33.59375 31.453125 
Q 31.984375 31.78125 28.328125 31.78125 
L 17.328125 31.78125 
L 17.328125 0 
z
M 17.328125 39.984375 
L 37.703125 39.984375 
Q 44.1875 39.984375 47.84375 41.328125 
Q 51.515625 42.671875 53.421875 45.625 
Q 55.328125 48.578125 55.328125 52.046875 
Q 55.328125 57.125 51.640625 60.390625 
Q 47.953125 63.671875 39.984375 63.671875 
L 17.328125 63.671875 
z
" id="ArialMT-82"/>
     <path d="M -0.140625 0 
L 27.34375 71.578125 
L 37.546875 71.578125 
L 66.84375 0 
L 56.0625 0 
L 47.703125 21.6875 
L 17.78125 21.6875 
L 9.90625 0 
z
M 20.515625 29.390625 
L 44.78125 29.390625 
L 37.3125 49.21875 
Q 33.890625 58.25 32.234375 64.0625 
Q 30.859375 57.171875 28.375 50.390625 
z
" id="ArialMT-65"/>
    </defs>
    <g style="fill:#262626;" transform="translate(184.447575 33.44)scale(0.18 -0.18)">
     <use xlink:href="#ArialMT-72"/>
     <use x="72.216797" xlink:href="#ArialMT-84"/>
     <use x="133.300781" xlink:href="#ArialMT-82"/>
     <use x="205.517578" xlink:href="#ArialMT-49"/>
     <use x="261.132812" xlink:href="#ArialMT-65"/>
    </g>
   </g>
  </g>
 </g>
 <defs>
  <clipPath id="p9f1f028d07">
   <rect height="323.62" width="246.774212" x="90.565" y="39.44"/>
  </clipPath>
 </defs>
</svg>
