<?xml version="1.0" encoding="utf-8" standalone="no"?>
<!DOCTYPE svg PUBLIC "-//W3C//DTD SVG 1.1//EN"
  "http://www.w3.org/Graphics/SVG/1.1/DTD/svg11.dtd">
<!-- Created with matplotlib (https://matplotlib.org/) -->
<svg height="432pt" version="1.1" viewBox="0 0 360 432" width="360pt" xmlns="http://www.w3.org/2000/svg" xmlns:xlink="http://www.w3.org/1999/xlink">
 <defs>
  <style type="text/css">
*{stroke-linecap:butt;stroke-linejoin:round;}
  </style>
 </defs>
 <g id="figure_1">
  <g id="patch_1">
   <path d="M 0 432 
L 360 432 
L 360 0 
L 0 0 
z
" style="fill:#ffffff;"/>
  </g>
  <g id="axes_1">
   <g id="patch_2">
    <path d="M 90.565 363.06 
L 337.339208 363.06 
L 337.339208 39.44 
L 90.565 39.44 
z
" style="fill:#ffffff;"/>
   </g>
   <g id="matplotlib.axis_1">
    <g id="xtick_1">
     <g id="line2d_1">
      <path clip-path="url(#p295e932a3f)" d="M 101.782009 363.06 
L 101.782009 39.44 
" style="fill:none;stroke:#cccccc;stroke-linecap:round;stroke-width:1.5;"/>
     </g>
     <g id="text_1">
      <!-- 0 -->
      <defs>
       <path d="M 4.15625 35.296875 
Q 4.15625 48 6.765625 55.734375 
Q 9.375 63.484375 14.515625 67.671875 
Q 19.671875 71.875 27.484375 71.875 
Q 33.25 71.875 37.59375 69.546875 
Q 41.9375 67.234375 44.765625 62.859375 
Q 47.609375 58.5 49.21875 52.21875 
Q 50.828125 45.953125 50.828125 35.296875 
Q 50.828125 22.703125 48.234375 14.96875 
Q 45.65625 7.234375 40.5 3 
Q 35.359375 -1.21875 27.484375 -1.21875 
Q 17.140625 -1.21875 11.234375 6.203125 
Q 4.15625 15.140625 4.15625 35.296875 
z
M 13.1875 35.296875 
Q 13.1875 17.671875 17.3125 11.828125 
Q 21.4375 6 27.484375 6 
Q 33.546875 6 37.671875 11.859375 
Q 41.796875 17.71875 41.796875 35.296875 
Q 41.796875 52.984375 37.671875 58.78125 
Q 33.546875 64.59375 27.390625 64.59375 
Q 21.34375 64.59375 17.71875 59.46875 
Q 13.1875 52.9375 13.1875 35.296875 
z
" id="ArialMT-48"/>
      </defs>
      <g style="fill:#262626;" transform="translate(97.194236 387.370391)scale(0.165 -0.165)">
       <use xlink:href="#ArialMT-48"/>
      </g>
     </g>
    </g>
    <g id="xtick_2">
     <g id="line2d_2">
      <path clip-path="url(#p295e932a3f)" d="M 176.812173 363.06 
L 176.812173 39.44 
" style="fill:none;stroke:#cccccc;stroke-linecap:round;stroke-width:1.5;"/>
     </g>
     <g id="text_2">
      <!-- 100 -->
      <defs>
       <path d="M 37.25 0 
L 28.46875 0 
L 28.46875 56 
Q 25.296875 52.984375 20.140625 49.953125 
Q 14.984375 46.921875 10.890625 45.40625 
L 10.890625 53.90625 
Q 18.265625 57.375 23.78125 62.296875 
Q 29.296875 67.234375 31.59375 71.875 
L 37.25 71.875 
z
" id="ArialMT-49"/>
      </defs>
      <g style="fill:#262626;" transform="translate(163.048853 387.370391)scale(0.165 -0.165)">
       <use xlink:href="#ArialMT-49"/>
       <use x="55.615234" xlink:href="#ArialMT-48"/>
       <use x="111.230469" xlink:href="#ArialMT-48"/>
      </g>
     </g>
    </g>
    <g id="xtick_3">
     <g id="line2d_3">
      <path clip-path="url(#p295e932a3f)" d="M 251.842337 363.06 
L 251.842337 39.44 
" style="fill:none;stroke:#cccccc;stroke-linecap:round;stroke-width:1.5;"/>
     </g>
     <g id="text_3">
      <!-- 200 -->
      <defs>
       <path d="M 50.34375 8.453125 
L 50.34375 0 
L 3.03125 0 
Q 2.9375 3.171875 4.046875 6.109375 
Q 5.859375 10.9375 9.828125 15.625 
Q 13.8125 20.3125 21.34375 26.46875 
Q 33.015625 36.03125 37.109375 41.625 
Q 41.21875 47.21875 41.21875 52.203125 
Q 41.21875 57.421875 37.46875 61 
Q 33.734375 64.59375 27.734375 64.59375 
Q 21.390625 64.59375 17.578125 60.78125 
Q 13.765625 56.984375 13.71875 50.25 
L 4.6875 51.171875 
Q 5.609375 61.28125 11.65625 66.578125 
Q 17.71875 71.875 27.9375 71.875 
Q 38.234375 71.875 44.234375 66.15625 
Q 50.25 60.453125 50.25 52 
Q 50.25 47.703125 48.484375 43.546875 
Q 46.734375 39.40625 42.65625 34.8125 
Q 38.578125 30.21875 29.109375 22.21875 
Q 21.1875 15.578125 18.9375 13.203125 
Q 16.703125 10.84375 15.234375 8.453125 
z
" id="ArialMT-50"/>
      </defs>
      <g style="fill:#262626;" transform="translate(238.079016 387.370391)scale(0.165 -0.165)">
       <use xlink:href="#ArialMT-50"/>
       <use x="55.615234" xlink:href="#ArialMT-48"/>
       <use x="111.230469" xlink:href="#ArialMT-48"/>
      </g>
     </g>
    </g>
    <g id="xtick_4">
     <g id="line2d_4">
      <path clip-path="url(#p295e932a3f)" d="M 326.8725 363.06 
L 326.8725 39.44 
" style="fill:none;stroke:#cccccc;stroke-linecap:round;stroke-width:1.5;"/>
     </g>
     <g id="text_4">
      <!-- 300 -->
      <defs>
       <path d="M 4.203125 18.890625 
L 12.984375 20.0625 
Q 14.5 12.59375 18.140625 9.296875 
Q 21.78125 6 27 6 
Q 33.203125 6 37.46875 10.296875 
Q 41.75 14.59375 41.75 20.953125 
Q 41.75 27 37.796875 30.921875 
Q 33.84375 34.859375 27.734375 34.859375 
Q 25.25 34.859375 21.53125 33.890625 
L 22.515625 41.609375 
Q 23.390625 41.5 23.921875 41.5 
Q 29.546875 41.5 34.03125 44.421875 
Q 38.53125 47.359375 38.53125 53.46875 
Q 38.53125 58.296875 35.25 61.46875 
Q 31.984375 64.65625 26.8125 64.65625 
Q 21.6875 64.65625 18.265625 61.421875 
Q 14.84375 58.203125 13.875 51.765625 
L 5.078125 53.328125 
Q 6.6875 62.15625 12.390625 67.015625 
Q 18.109375 71.875 26.609375 71.875 
Q 32.46875 71.875 37.390625 69.359375 
Q 42.328125 66.84375 44.9375 62.5 
Q 47.5625 58.15625 47.5625 53.265625 
Q 47.5625 48.640625 45.0625 44.828125 
Q 42.578125 41.015625 37.703125 38.765625 
Q 44.046875 37.3125 47.5625 32.6875 
Q 51.078125 28.078125 51.078125 21.140625 
Q 51.078125 11.765625 44.234375 5.25 
Q 37.40625 -1.265625 26.953125 -1.265625 
Q 17.53125 -1.265625 11.296875 4.34375 
Q 5.078125 9.96875 4.203125 18.890625 
z
" id="ArialMT-51"/>
      </defs>
      <g style="fill:#262626;" transform="translate(313.10918 387.370391)scale(0.165 -0.165)">
       <use xlink:href="#ArialMT-51"/>
       <use x="55.615234" xlink:href="#ArialMT-48"/>
       <use x="111.230469" xlink:href="#ArialMT-48"/>
      </g>
     </g>
    </g>
    <g id="text_5">
     <!-- Iteration -->
     <defs>
      <path d="M 9.328125 0 
L 9.328125 71.578125 
L 18.796875 71.578125 
L 18.796875 0 
z
" id="ArialMT-73"/>
      <path d="M 25.78125 7.859375 
L 27.046875 0.09375 
Q 23.34375 -0.6875 20.40625 -0.6875 
Q 15.625 -0.6875 12.984375 0.828125 
Q 10.359375 2.34375 9.28125 4.8125 
Q 8.203125 7.28125 8.203125 15.1875 
L 8.203125 45.015625 
L 1.765625 45.015625 
L 1.765625 51.859375 
L 8.203125 51.859375 
L 8.203125 64.703125 
L 16.9375 69.96875 
L 16.9375 51.859375 
L 25.78125 51.859375 
L 25.78125 45.015625 
L 16.9375 45.015625 
L 16.9375 14.703125 
Q 16.9375 10.9375 17.40625 9.859375 
Q 17.875 8.796875 18.921875 8.15625 
Q 19.96875 7.515625 21.921875 7.515625 
Q 23.390625 7.515625 25.78125 7.859375 
z
" id="ArialMT-116"/>
      <path d="M 42.09375 16.703125 
L 51.171875 15.578125 
Q 49.03125 7.625 43.21875 3.21875 
Q 37.40625 -1.171875 28.375 -1.171875 
Q 17 -1.171875 10.328125 5.828125 
Q 3.65625 12.84375 3.65625 25.484375 
Q 3.65625 38.578125 10.390625 45.796875 
Q 17.140625 53.03125 27.875 53.03125 
Q 38.28125 53.03125 44.875 45.953125 
Q 51.46875 38.875 51.46875 26.03125 
Q 51.46875 25.25 51.421875 23.6875 
L 12.75 23.6875 
Q 13.234375 15.140625 17.578125 10.59375 
Q 21.921875 6.0625 28.421875 6.0625 
Q 33.25 6.0625 36.671875 8.59375 
Q 40.09375 11.140625 42.09375 16.703125 
z
M 13.234375 30.90625 
L 42.1875 30.90625 
Q 41.609375 37.453125 38.875 40.71875 
Q 34.671875 45.796875 27.984375 45.796875 
Q 21.921875 45.796875 17.796875 41.75 
Q 13.671875 37.703125 13.234375 30.90625 
z
" id="ArialMT-101"/>
      <path d="M 6.5 0 
L 6.5 51.859375 
L 14.40625 51.859375 
L 14.40625 44 
Q 17.4375 49.515625 20 51.265625 
Q 22.5625 53.03125 25.640625 53.03125 
Q 30.078125 53.03125 34.671875 50.203125 
L 31.640625 42.046875 
Q 28.421875 43.953125 25.203125 43.953125 
Q 22.3125 43.953125 20.015625 42.21875 
Q 17.71875 40.484375 16.75 37.40625 
Q 15.28125 32.71875 15.28125 27.15625 
L 15.28125 0 
z
" id="ArialMT-114"/>
      <path d="M 40.4375 6.390625 
Q 35.546875 2.25 31.03125 0.53125 
Q 26.515625 -1.171875 21.34375 -1.171875 
Q 12.796875 -1.171875 8.203125 3 
Q 3.609375 7.171875 3.609375 13.671875 
Q 3.609375 17.484375 5.34375 20.625 
Q 7.078125 23.78125 9.890625 25.6875 
Q 12.703125 27.59375 16.21875 28.5625 
Q 18.796875 29.25 24.03125 29.890625 
Q 34.671875 31.15625 39.703125 32.90625 
Q 39.75 34.71875 39.75 35.203125 
Q 39.75 40.578125 37.25 42.78125 
Q 33.890625 45.75 27.25 45.75 
Q 21.046875 45.75 18.09375 43.578125 
Q 15.140625 41.40625 13.71875 35.890625 
L 5.125 37.0625 
Q 6.296875 42.578125 8.984375 45.96875 
Q 11.671875 49.359375 16.75 51.1875 
Q 21.828125 53.03125 28.515625 53.03125 
Q 35.15625 53.03125 39.296875 51.46875 
Q 43.453125 49.90625 45.40625 47.53125 
Q 47.359375 45.171875 48.140625 41.546875 
Q 48.578125 39.3125 48.578125 33.453125 
L 48.578125 21.734375 
Q 48.578125 9.46875 49.140625 6.21875 
Q 49.703125 2.984375 51.375 0 
L 42.1875 0 
Q 40.828125 2.734375 40.4375 6.390625 
z
M 39.703125 26.03125 
Q 34.90625 24.078125 25.34375 22.703125 
Q 19.921875 21.921875 17.671875 20.9375 
Q 15.4375 19.96875 14.203125 18.09375 
Q 12.984375 16.21875 12.984375 13.921875 
Q 12.984375 10.40625 15.640625 8.0625 
Q 18.3125 5.71875 23.4375 5.71875 
Q 28.515625 5.71875 32.46875 7.9375 
Q 36.421875 10.15625 38.28125 14.015625 
Q 39.703125 17 39.703125 22.796875 
z
" id="ArialMT-97"/>
      <path d="M 6.640625 61.46875 
L 6.640625 71.578125 
L 15.4375 71.578125 
L 15.4375 61.46875 
z
M 6.640625 0 
L 6.640625 51.859375 
L 15.4375 51.859375 
L 15.4375 0 
z
" id="ArialMT-105"/>
      <path d="M 3.328125 25.921875 
Q 3.328125 40.328125 11.328125 47.265625 
Q 18.015625 53.03125 27.640625 53.03125 
Q 38.328125 53.03125 45.109375 46.015625 
Q 51.90625 39.015625 51.90625 26.65625 
Q 51.90625 16.65625 48.90625 10.90625 
Q 45.90625 5.171875 40.15625 2 
Q 34.421875 -1.171875 27.640625 -1.171875 
Q 16.75 -1.171875 10.03125 5.8125 
Q 3.328125 12.796875 3.328125 25.921875 
z
M 12.359375 25.921875 
Q 12.359375 15.96875 16.703125 11.015625 
Q 21.046875 6.0625 27.640625 6.0625 
Q 34.1875 6.0625 38.53125 11.03125 
Q 42.875 16.015625 42.875 26.21875 
Q 42.875 35.84375 38.5 40.796875 
Q 34.125 45.75 27.640625 45.75 
Q 21.046875 45.75 16.703125 40.8125 
Q 12.359375 35.890625 12.359375 25.921875 
z
" id="ArialMT-111"/>
      <path d="M 6.59375 0 
L 6.59375 51.859375 
L 14.5 51.859375 
L 14.5 44.484375 
Q 20.21875 53.03125 31 53.03125 
Q 35.6875 53.03125 39.625 51.34375 
Q 43.5625 49.65625 45.515625 46.921875 
Q 47.46875 44.1875 48.25 40.4375 
Q 48.734375 37.984375 48.734375 31.890625 
L 48.734375 0 
L 39.9375 0 
L 39.9375 31.546875 
Q 39.9375 36.921875 38.90625 39.578125 
Q 37.890625 42.234375 35.28125 43.8125 
Q 32.671875 45.40625 29.15625 45.40625 
Q 23.53125 45.40625 19.453125 41.84375 
Q 15.375 38.28125 15.375 28.328125 
L 15.375 0 
z
" id="ArialMT-110"/>
     </defs>
     <g style="fill:#262626;" transform="translate(181.435385 407.533828)scale(0.18 -0.18)">
      <use xlink:href="#ArialMT-73"/>
      <use x="27.783203" xlink:href="#ArialMT-116"/>
      <use x="55.566406" xlink:href="#ArialMT-101"/>
      <use x="111.181641" xlink:href="#ArialMT-114"/>
      <use x="144.482422" xlink:href="#ArialMT-97"/>
      <use x="200.097656" xlink:href="#ArialMT-116"/>
      <use x="227.880859" xlink:href="#ArialMT-105"/>
      <use x="250.097656" xlink:href="#ArialMT-111"/>
      <use x="305.712891" xlink:href="#ArialMT-110"/>
     </g>
    </g>
   </g>
   <g id="matplotlib.axis_2">
    <g id="ytick_1">
     <g id="line2d_5">
      <path clip-path="url(#p295e932a3f)" d="M 90.565 348.35 
L 337.339208 348.35 
" style="fill:none;stroke:#cccccc;stroke-linecap:round;stroke-width:1.5;"/>
     </g>
     <g id="text_6">
      <!-- 0 -->
      <g style="fill:#262626;" transform="translate(68.889453 354.255195)scale(0.165 -0.165)">
       <use xlink:href="#ArialMT-48"/>
      </g>
     </g>
    </g>
    <g id="ytick_2">
     <g id="line2d_6">
      <path clip-path="url(#p295e932a3f)" d="M 90.565 307.590787 
L 337.339208 307.590787 
" style="fill:none;stroke:#cccccc;stroke-linecap:round;stroke-width:1.5;"/>
     </g>
     <g id="text_7">
      <!-- 500 -->
      <defs>
       <path d="M 4.15625 18.75 
L 13.375 19.53125 
Q 14.40625 12.796875 18.140625 9.390625 
Q 21.875 6 27.15625 6 
Q 33.5 6 37.890625 10.78125 
Q 42.28125 15.578125 42.28125 23.484375 
Q 42.28125 31 38.0625 35.34375 
Q 33.84375 39.703125 27 39.703125 
Q 22.75 39.703125 19.328125 37.765625 
Q 15.921875 35.84375 13.96875 32.765625 
L 5.71875 33.84375 
L 12.640625 70.609375 
L 48.25 70.609375 
L 48.25 62.203125 
L 19.671875 62.203125 
L 15.828125 42.96875 
Q 22.265625 47.46875 29.34375 47.46875 
Q 38.71875 47.46875 45.15625 40.96875 
Q 51.609375 34.46875 51.609375 24.265625 
Q 51.609375 14.546875 45.953125 7.46875 
Q 39.0625 -1.21875 27.15625 -1.21875 
Q 17.390625 -1.21875 11.203125 4.25 
Q 5.03125 9.71875 4.15625 18.75 
z
" id="ArialMT-53"/>
      </defs>
      <g style="fill:#262626;" transform="translate(50.538359 313.495982)scale(0.165 -0.165)">
       <use xlink:href="#ArialMT-53"/>
       <use x="55.615234" xlink:href="#ArialMT-48"/>
       <use x="111.230469" xlink:href="#ArialMT-48"/>
      </g>
     </g>
    </g>
    <g id="ytick_3">
     <g id="line2d_7">
      <path clip-path="url(#p295e932a3f)" d="M 90.565 266.831574 
L 337.339208 266.831574 
" style="fill:none;stroke:#cccccc;stroke-linecap:round;stroke-width:1.5;"/>
     </g>
     <g id="text_8">
      <!-- 1000 -->
      <g style="fill:#262626;" transform="translate(41.362812 272.736769)scale(0.165 -0.165)">
       <use xlink:href="#ArialMT-49"/>
       <use x="55.615234" xlink:href="#ArialMT-48"/>
       <use x="111.230469" xlink:href="#ArialMT-48"/>
       <use x="166.845703" xlink:href="#ArialMT-48"/>
      </g>
     </g>
    </g>
    <g id="ytick_4">
     <g id="line2d_8">
      <path clip-path="url(#p295e932a3f)" d="M 90.565 226.072361 
L 337.339208 226.072361 
" style="fill:none;stroke:#cccccc;stroke-linecap:round;stroke-width:1.5;"/>
     </g>
     <g id="text_9">
      <!-- 1500 -->
      <g style="fill:#262626;" transform="translate(41.362812 231.977556)scale(0.165 -0.165)">
       <use xlink:href="#ArialMT-49"/>
       <use x="55.615234" xlink:href="#ArialMT-53"/>
       <use x="111.230469" xlink:href="#ArialMT-48"/>
       <use x="166.845703" xlink:href="#ArialMT-48"/>
      </g>
     </g>
    </g>
    <g id="ytick_5">
     <g id="line2d_9">
      <path clip-path="url(#p295e932a3f)" d="M 90.565 185.313148 
L 337.339208 185.313148 
" style="fill:none;stroke:#cccccc;stroke-linecap:round;stroke-width:1.5;"/>
     </g>
     <g id="text_10">
      <!-- 2000 -->
      <g style="fill:#262626;" transform="translate(41.362812 191.218343)scale(0.165 -0.165)">
       <use xlink:href="#ArialMT-50"/>
       <use x="55.615234" xlink:href="#ArialMT-48"/>
       <use x="111.230469" xlink:href="#ArialMT-48"/>
       <use x="166.845703" xlink:href="#ArialMT-48"/>
      </g>
     </g>
    </g>
    <g id="ytick_6">
     <g id="line2d_10">
      <path clip-path="url(#p295e932a3f)" d="M 90.565 144.553935 
L 337.339208 144.553935 
" style="fill:none;stroke:#cccccc;stroke-linecap:round;stroke-width:1.5;"/>
     </g>
     <g id="text_11">
      <!-- 2500 -->
      <g style="fill:#262626;" transform="translate(41.362812 150.45913)scale(0.165 -0.165)">
       <use xlink:href="#ArialMT-50"/>
       <use x="55.615234" xlink:href="#ArialMT-53"/>
       <use x="111.230469" xlink:href="#ArialMT-48"/>
       <use x="166.845703" xlink:href="#ArialMT-48"/>
      </g>
     </g>
    </g>
    <g id="ytick_7">
     <g id="line2d_11">
      <path clip-path="url(#p295e932a3f)" d="M 90.565 103.794722 
L 337.339208 103.794722 
" style="fill:none;stroke:#cccccc;stroke-linecap:round;stroke-width:1.5;"/>
     </g>
     <g id="text_12">
      <!-- 3000 -->
      <g style="fill:#262626;" transform="translate(41.362812 109.699917)scale(0.165 -0.165)">
       <use xlink:href="#ArialMT-51"/>
       <use x="55.615234" xlink:href="#ArialMT-48"/>
       <use x="111.230469" xlink:href="#ArialMT-48"/>
       <use x="166.845703" xlink:href="#ArialMT-48"/>
      </g>
     </g>
    </g>
    <g id="ytick_8">
     <g id="line2d_12">
      <path clip-path="url(#p295e932a3f)" d="M 90.565 63.035508 
L 337.339208 63.035508 
" style="fill:none;stroke:#cccccc;stroke-linecap:round;stroke-width:1.5;"/>
     </g>
     <g id="text_13">
      <!-- 3500 -->
      <g style="fill:#262626;" transform="translate(41.362812 68.940704)scale(0.165 -0.165)">
       <use xlink:href="#ArialMT-51"/>
       <use x="55.615234" xlink:href="#ArialMT-53"/>
       <use x="111.230469" xlink:href="#ArialMT-48"/>
       <use x="166.845703" xlink:href="#ArialMT-48"/>
      </g>
     </g>
    </g>
    <g id="text_14">
     <!-- No. generated carbon skeletons -->
     <defs>
      <path d="M 7.625 0 
L 7.625 71.578125 
L 17.328125 71.578125 
L 54.9375 15.375 
L 54.9375 71.578125 
L 64.015625 71.578125 
L 64.015625 0 
L 54.296875 0 
L 16.703125 56.25 
L 16.703125 0 
z
" id="ArialMT-78"/>
      <path d="M 9.078125 0 
L 9.078125 10.015625 
L 19.09375 10.015625 
L 19.09375 0 
z
" id="ArialMT-46"/>
      <path id="ArialMT-32"/>
      <path d="M 4.984375 -4.296875 
L 13.53125 -5.5625 
Q 14.0625 -9.515625 16.5 -11.328125 
Q 19.78125 -13.765625 25.4375 -13.765625 
Q 31.546875 -13.765625 34.859375 -11.328125 
Q 38.1875 -8.890625 39.359375 -4.5 
Q 40.046875 -1.8125 39.984375 6.78125 
Q 34.234375 0 25.640625 0 
Q 14.9375 0 9.078125 7.71875 
Q 3.21875 15.4375 3.21875 26.21875 
Q 3.21875 33.640625 5.90625 39.90625 
Q 8.59375 46.1875 13.6875 49.609375 
Q 18.796875 53.03125 25.6875 53.03125 
Q 34.859375 53.03125 40.828125 45.609375 
L 40.828125 51.859375 
L 48.921875 51.859375 
L 48.921875 7.03125 
Q 48.921875 -5.078125 46.453125 -10.125 
Q 44 -15.1875 38.640625 -18.109375 
Q 33.296875 -21.046875 25.484375 -21.046875 
Q 16.21875 -21.046875 10.5 -16.875 
Q 4.78125 -12.703125 4.984375 -4.296875 
z
M 12.25 26.859375 
Q 12.25 16.65625 16.296875 11.96875 
Q 20.359375 7.28125 26.46875 7.28125 
Q 32.515625 7.28125 36.609375 11.9375 
Q 40.71875 16.609375 40.71875 26.5625 
Q 40.71875 36.078125 36.5 40.90625 
Q 32.28125 45.75 26.3125 45.75 
Q 20.453125 45.75 16.34375 40.984375 
Q 12.25 36.234375 12.25 26.859375 
z
" id="ArialMT-103"/>
      <path d="M 40.234375 0 
L 40.234375 6.546875 
Q 35.296875 -1.171875 25.734375 -1.171875 
Q 19.53125 -1.171875 14.328125 2.25 
Q 9.125 5.671875 6.265625 11.796875 
Q 3.421875 17.921875 3.421875 25.875 
Q 3.421875 33.640625 6 39.96875 
Q 8.59375 46.296875 13.765625 49.65625 
Q 18.953125 53.03125 25.34375 53.03125 
Q 30.03125 53.03125 33.6875 51.046875 
Q 37.359375 49.078125 39.65625 45.90625 
L 39.65625 71.578125 
L 48.390625 71.578125 
L 48.390625 0 
z
M 12.453125 25.875 
Q 12.453125 15.921875 16.640625 10.984375 
Q 20.84375 6.0625 26.5625 6.0625 
Q 32.328125 6.0625 36.34375 10.765625 
Q 40.375 15.484375 40.375 25.140625 
Q 40.375 35.796875 36.265625 40.765625 
Q 32.171875 45.75 26.171875 45.75 
Q 20.3125 45.75 16.375 40.96875 
Q 12.453125 36.1875 12.453125 25.875 
z
" id="ArialMT-100"/>
      <path d="M 40.4375 19 
L 49.078125 17.875 
Q 47.65625 8.9375 41.8125 3.875 
Q 35.984375 -1.171875 27.484375 -1.171875 
Q 16.84375 -1.171875 10.375 5.78125 
Q 3.90625 12.75 3.90625 25.734375 
Q 3.90625 34.125 6.6875 40.421875 
Q 9.46875 46.734375 15.15625 49.875 
Q 20.84375 53.03125 27.546875 53.03125 
Q 35.984375 53.03125 41.359375 48.75 
Q 46.734375 44.484375 48.25 36.625 
L 39.703125 35.296875 
Q 38.484375 40.53125 35.375 43.15625 
Q 32.28125 45.796875 27.875 45.796875 
Q 21.234375 45.796875 17.078125 41.03125 
Q 12.9375 36.28125 12.9375 25.984375 
Q 12.9375 15.53125 16.9375 10.796875 
Q 20.953125 6.0625 27.390625 6.0625 
Q 32.5625 6.0625 36.03125 9.234375 
Q 39.5 12.40625 40.4375 19 
z
" id="ArialMT-99"/>
      <path d="M 14.703125 0 
L 6.546875 0 
L 6.546875 71.578125 
L 15.328125 71.578125 
L 15.328125 46.046875 
Q 20.90625 53.03125 29.546875 53.03125 
Q 34.328125 53.03125 38.59375 51.09375 
Q 42.875 49.171875 45.625 45.671875 
Q 48.390625 42.1875 49.953125 37.25 
Q 51.515625 32.328125 51.515625 26.703125 
Q 51.515625 13.375 44.921875 6.09375 
Q 38.328125 -1.171875 29.109375 -1.171875 
Q 19.921875 -1.171875 14.703125 6.5 
z
M 14.59375 26.3125 
Q 14.59375 17 17.140625 12.84375 
Q 21.296875 6.0625 28.375 6.0625 
Q 34.125 6.0625 38.328125 11.0625 
Q 42.53125 16.0625 42.53125 25.984375 
Q 42.53125 36.140625 38.5 40.96875 
Q 34.46875 45.796875 28.765625 45.796875 
Q 23 45.796875 18.796875 40.796875 
Q 14.59375 35.796875 14.59375 26.3125 
z
" id="ArialMT-98"/>
      <path d="M 3.078125 15.484375 
L 11.765625 16.84375 
Q 12.5 11.625 15.84375 8.84375 
Q 19.1875 6.0625 25.203125 6.0625 
Q 31.25 6.0625 34.171875 8.515625 
Q 37.109375 10.984375 37.109375 14.3125 
Q 37.109375 17.28125 34.515625 19 
Q 32.71875 20.171875 25.53125 21.96875 
Q 15.875 24.421875 12.140625 26.203125 
Q 8.40625 27.984375 6.46875 31.125 
Q 4.546875 34.28125 4.546875 38.09375 
Q 4.546875 41.546875 6.125 44.5 
Q 7.71875 47.46875 10.453125 49.421875 
Q 12.5 50.921875 16.03125 51.96875 
Q 19.578125 53.03125 23.640625 53.03125 
Q 29.734375 53.03125 34.34375 51.265625 
Q 38.96875 49.515625 41.15625 46.5 
Q 43.359375 43.5 44.1875 38.484375 
L 35.59375 37.3125 
Q 35.015625 41.3125 32.203125 43.546875 
Q 29.390625 45.796875 24.265625 45.796875 
Q 18.21875 45.796875 15.625 43.796875 
Q 13.03125 41.796875 13.03125 39.109375 
Q 13.03125 37.40625 14.109375 36.03125 
Q 15.1875 34.625 17.484375 33.6875 
Q 18.796875 33.203125 25.25 31.453125 
Q 34.578125 28.953125 38.25 27.359375 
Q 41.9375 25.78125 44.03125 22.75 
Q 46.140625 19.734375 46.140625 15.234375 
Q 46.140625 10.84375 43.578125 6.953125 
Q 41.015625 3.078125 36.171875 0.953125 
Q 31.34375 -1.171875 25.25 -1.171875 
Q 15.140625 -1.171875 9.84375 3.03125 
Q 4.546875 7.234375 3.078125 15.484375 
z
" id="ArialMT-115"/>
      <path d="M 6.640625 0 
L 6.640625 71.578125 
L 15.4375 71.578125 
L 15.4375 30.765625 
L 36.234375 51.859375 
L 47.609375 51.859375 
L 27.78125 32.625 
L 49.609375 0 
L 38.765625 0 
L 21.625 26.515625 
L 15.4375 20.5625 
L 15.4375 0 
z
" id="ArialMT-107"/>
      <path d="M 6.390625 0 
L 6.390625 71.578125 
L 15.1875 71.578125 
L 15.1875 0 
z
" id="ArialMT-108"/>
     </defs>
     <g style="fill:#262626;" transform="translate(33.574375 328.822187)rotate(-90)scale(0.18 -0.18)">
      <use xlink:href="#ArialMT-78"/>
      <use x="72.216797" xlink:href="#ArialMT-111"/>
      <use x="127.832031" xlink:href="#ArialMT-46"/>
      <use x="155.615234" xlink:href="#ArialMT-32"/>
      <use x="183.398438" xlink:href="#ArialMT-103"/>
      <use x="239.013672" xlink:href="#ArialMT-101"/>
      <use x="294.628906" xlink:href="#ArialMT-110"/>
      <use x="350.244141" xlink:href="#ArialMT-101"/>
      <use x="405.859375" xlink:href="#ArialMT-114"/>
      <use x="439.160156" xlink:href="#ArialMT-97"/>
      <use x="494.775391" xlink:href="#ArialMT-116"/>
      <use x="522.558594" xlink:href="#ArialMT-101"/>
      <use x="578.173828" xlink:href="#ArialMT-100"/>
      <use x="633.789062" xlink:href="#ArialMT-32"/>
      <use x="661.572266" xlink:href="#ArialMT-99"/>
      <use x="711.572266" xlink:href="#ArialMT-97"/>
      <use x="767.1875" xlink:href="#ArialMT-114"/>
      <use x="800.488281" xlink:href="#ArialMT-98"/>
      <use x="856.103516" xlink:href="#ArialMT-111"/>
      <use x="911.71875" xlink:href="#ArialMT-110"/>
      <use x="967.333984" xlink:href="#ArialMT-32"/>
      <use x="995.117188" xlink:href="#ArialMT-115"/>
      <use x="1045.117188" xlink:href="#ArialMT-107"/>
      <use x="1095.117188" xlink:href="#ArialMT-101"/>
      <use x="1150.732422" xlink:href="#ArialMT-108"/>
      <use x="1172.949219" xlink:href="#ArialMT-101"/>
      <use x="1228.564453" xlink:href="#ArialMT-116"/>
      <use x="1256.347656" xlink:href="#ArialMT-111"/>
      <use x="1311.962891" xlink:href="#ArialMT-110"/>
      <use x="1367.578125" xlink:href="#ArialMT-115"/>
     </g>
    </g>
   </g>
   <g id="line2d_13">
    <path clip-path="url(#p295e932a3f)" d="M 101.782009 348.35 
L 113.786836 348.268482 
L 115.287439 348.186963 
L 122.040154 348.105445 
L 123.540757 348.023926 
L 129.54317 347.942408 
L 131.794075 347.779371 
L 133.294678 347.697853 
L 149.801314 345.822929 
L 150.551616 345.496855 
L 152.802521 345.170781 
L 154.303124 344.926226 
L 155.803727 344.763189 
L 158.054632 343.70345 
L 158.804934 343.295858 
L 160.305537 343.051302 
L 161.055839 342.725229 
L 161.80614 342.64371 
L 163.306744 341.910044 
L 164.057045 341.09486 
L 164.807347 340.60575 
L 166.30795 339.953602 
L 167.058252 339.219936 
L 168.558855 338.649307 
L 169.309157 338.241715 
L 170.059458 337.589568 
L 170.80976 337.100457 
L 171.560062 336.203755 
L 172.310363 335.633126 
L 173.060665 335.470089 
L 173.810966 334.89946 
L 174.561268 334.573386 
L 175.31157 333.83972 
L 176.061871 333.35061 
L 176.812173 332.453907 
L 179.063078 331.068094 
L 179.81338 330.660502 
L 182.064284 328.948615 
L 182.814586 328.785578 
L 184.315189 327.807357 
L 185.815793 326.58458 
L 186.566094 326.176988 
L 187.316396 325.361804 
L 188.066698 324.057509 
L 190.317602 322.753214 
L 191.067904 321.93803 
L 191.818206 321.611956 
L 192.568507 321.041327 
L 193.318809 319.981588 
L 194.069111 319.247922 
L 194.819412 318.84033 
L 195.569714 317.862109 
L 196.320016 317.617553 
L 197.070317 316.802369 
L 197.820619 316.23174 
L 199.321222 314.601372 
L 200.071524 314.030743 
L 200.821825 313.215558 
L 202.322429 312.155819 
L 205.323635 310.117858 
L 207.57454 307.835342 
L 209.075143 307.101676 
L 212.07635 305.389789 
L 212.826652 304.900679 
L 215.077556 304.003976 
L 215.827858 303.840939 
L 218.829065 301.966016 
L 219.579366 301.558423 
L 221.830271 301.150831 
L 224.081176 299.520463 
L 227.832684 297.564021 
L 228.582986 297.319465 
L 229.333288 296.911873 
L 230.083589 296.667318 
L 230.833891 296.259726 
L 231.584192 295.689097 
L 232.334494 295.444541 
L 233.084796 295.036949 
L 233.835097 294.792394 
L 235.335701 293.895691 
L 236.836304 293.080507 
L 237.586606 292.42836 
L 238.336907 291.939249 
L 239.087209 291.776212 
L 239.83751 291.450139 
L 241.338114 291.042546 
L 242.088415 290.308881 
L 244.33932 289.249141 
L 245.089622 288.596994 
L 245.839924 288.27092 
L 246.590225 288.107883 
L 247.340527 287.455736 
L 248.090828 286.966625 
L 248.84113 286.069922 
L 249.591432 285.580812 
L 251.092035 284.11348 
L 251.842337 283.950443 
L 252.592638 283.542851 
L 253.34294 282.890704 
L 254.093242 282.483112 
L 256.344146 281.830964 
L 257.84475 280.852743 
L 259.345353 280.282114 
L 260.095655 280.200596 
L 260.845956 279.629967 
L 262.34656 279.222375 
L 263.847163 278.162635 
L 264.597464 277.91808 
L 265.347766 277.510488 
L 266.848369 277.021377 
L 267.598671 276.532267 
L 268.348973 276.36923 
L 269.099274 275.798601 
L 269.849576 275.554045 
L 270.599877 275.064935 
L 271.350179 274.738861 
L 272.100481 274.168232 
L 272.850782 273.842158 
L 275.101687 272.21179 
L 275.851989 271.722679 
L 276.602291 271.559643 
L 277.352592 271.15205 
L 278.102894 270.989014 
L 279.603497 270.255348 
L 283.355005 268.706498 
L 284.105307 267.972832 
L 284.855609 267.646758 
L 285.60591 267.157648 
L 286.356212 267.076129 
L 290.10772 265.934871 
L 290.858022 265.282724 
L 291.608323 264.95665 
L 293.108927 264.549058 
L 293.859228 264.222984 
L 295.359831 263.896911 
L 296.110133 263.489318 
L 296.860435 263.4078 
L 299.11134 262.511097 
L 299.861641 262.511097 
L 300.611943 262.185024 
L 301.362245 262.021987 
L 302.112546 261.451358 
L 302.862848 261.125284 
L 303.613149 260.962247 
L 304.363451 260.636173 
L 305.113753 260.147063 
L 306.614356 259.657952 
L 307.364658 259.25036 
L 308.114959 259.005805 
L 308.865261 258.516694 
L 310.365864 258.435176 
L 311.116166 258.353658 
L 312.616769 257.783029 
L 313.367071 257.70151 
L 314.117372 257.375436 
L 314.867674 257.2124 
L 315.617976 256.886326 
L 317.868881 255.500513 
L 318.619182 255.09292 
L 320.119785 254.848365 
L 320.870087 254.440773 
L 322.37069 254.196218 
L 323.120992 254.033181 
L 324.621595 254.033181 
L 325.371897 253.788626 
L 326.122199 253.381034 
L 326.122199 253.381034 
" style="fill:none;stroke:#1f77b4;stroke-linecap:round;stroke-width:2.25;"/>
   </g>
   <g id="line2d_14">
    <path clip-path="url(#p295e932a3f)" d="M 101.782009 348.35 
L 113.786836 348.268482 
L 115.287439 348.186963 
L 122.040154 348.105445 
L 123.540757 348.023926 
L 129.54317 347.942408 
L 131.794075 347.779371 
L 133.294678 347.697853 
L 149.801314 345.822929 
L 150.551616 345.496855 
L 152.802521 345.170781 
L 153.552822 344.926226 
L 155.803727 344.600152 
L 158.054632 343.540413 
L 158.804934 343.132821 
L 160.305537 342.806747 
L 161.055839 342.480673 
L 161.80614 342.399155 
L 162.556442 341.910044 
L 163.306744 341.583971 
L 164.057045 340.768786 
L 164.807347 340.442713 
L 166.30795 339.382973 
L 167.058252 339.138418 
L 167.808553 338.48627 
L 168.558855 338.078678 
L 169.309157 337.508049 
L 170.059458 337.100457 
L 170.80976 336.93742 
L 171.560062 336.611347 
L 172.310363 335.551607 
L 173.810966 334.328831 
L 174.561268 333.595165 
L 176.812173 331.964796 
L 177.562475 331.720241 
L 178.312776 331.068094 
L 179.063078 330.578983 
L 179.81338 329.926836 
L 180.563681 329.437725 
L 181.313983 328.377986 
L 182.064284 327.64432 
L 182.814586 326.666099 
L 184.315189 325.117249 
L 185.815793 323.568398 
L 186.566094 322.916251 
L 188.816999 320.226143 
L 190.317602 318.921848 
L 192.568507 316.557814 
L 194.069111 314.112261 
L 195.569714 312.237337 
L 196.320016 311.503671 
L 197.070317 311.014561 
L 199.321222 308.813563 
L 200.821825 307.753824 
L 201.572127 307.183195 
L 202.322429 306.449529 
L 203.07273 305.471308 
L 203.823032 304.982197 
L 204.573334 304.248531 
L 205.323635 303.351829 
L 206.073937 302.699681 
L 206.824238 301.639942 
L 207.57454 300.906276 
L 208.324842 299.928055 
L 209.825445 298.786797 
L 212.826652 295.363023 
L 216.57816 290.634954 
L 218.078763 288.923067 
L 218.829065 287.700291 
L 219.579366 286.803588 
L 220.329668 285.580812 
L 222.580573 283.053741 
L 223.330874 281.994001 
L 224.081176 281.341854 
L 225.581779 279.548448 
L 227.832684 277.347451 
L 230.083589 274.005195 
L 230.833891 273.597603 
L 231.584192 272.619382 
L 233.084796 271.315087 
L 234.585399 269.440163 
L 235.335701 268.706498 
L 236.086002 268.298906 
L 239.087209 264.467539 
L 239.83751 263.815392 
L 240.587812 262.511097 
L 242.088415 260.962247 
L 242.838717 260.473137 
L 243.589019 260.147063 
L 245.089622 258.924287 
L 245.839924 257.946065 
L 247.340527 256.886326 
L 248.84113 255.989623 
L 249.591432 255.174439 
L 250.341733 254.60381 
L 251.092035 254.359255 
L 251.842337 253.136478 
L 254.093242 251.669147 
L 255.593845 250.201815 
L 256.344146 249.631186 
L 257.84475 248.979039 
L 260.095655 247.511707 
L 260.845956 247.185633 
L 262.34656 246.778041 
L 263.096861 246.207412 
L 265.347766 245.310709 
L 266.098068 244.74008 
L 267.598671 243.028193 
L 268.348973 242.457564 
L 270.599877 241.397825 
L 272.850782 239.767456 
L 274.351386 238.870754 
L 275.101687 238.626198 
L 277.352592 237.403422 
L 278.102894 236.506719 
L 281.1041 234.468759 
L 281.854402 233.735093 
L 282.604704 233.327501 
L 283.355005 232.512316 
L 285.60591 230.963466 
L 287.856815 228.925506 
L 288.607117 228.599432 
L 289.357418 228.110321 
L 290.10772 227.784248 
L 291.608323 226.316916 
L 292.358625 225.746287 
L 295.359831 222.567068 
L 296.860435 221.833403 
L 298.361038 220.121516 
L 299.11134 219.632405 
L 302.112546 216.208631 
L 303.613149 214.7413 
L 304.363451 213.844597 
L 305.113753 213.273968 
L 305.864054 212.540302 
L 306.614356 211.969673 
L 307.364658 211.236007 
L 311.116166 208.871973 
L 311.866467 208.464381 
L 312.616769 207.730715 
L 314.117372 207.078567 
L 314.867674 206.263383 
L 315.617976 205.855791 
L 316.368277 205.285162 
L 317.118579 204.87757 
L 317.868881 204.225423 
L 318.619182 203.32872 
L 319.369484 202.921128 
L 320.119785 202.26898 
L 320.870087 201.942907 
L 321.620389 201.372278 
L 322.37069 200.394057 
L 324.621595 198.763688 
L 326.122199 198.274577 
L 326.122199 198.274577 
" style="fill:none;stroke:#ff7f0e;stroke-linecap:round;stroke-width:2.25;"/>
   </g>
   <g id="line2d_15">
    <path clip-path="url(#p295e932a3f)" d="M 101.782009 348.35 
L 113.786836 348.268482 
L 115.287439 348.186963 
L 122.040154 348.105445 
L 123.540757 348.023926 
L 129.54317 347.942408 
L 131.794075 347.779371 
L 133.294678 347.697853 
L 149.801314 345.822929 
L 150.551616 345.496855 
L 152.802521 345.170781 
L 153.552822 344.926226 
L 155.803727 344.600152 
L 158.054632 343.540413 
L 158.804934 343.132821 
L 160.305537 342.806747 
L 161.055839 342.480673 
L 161.80614 342.399155 
L 162.556442 341.910044 
L 163.306744 341.583971 
L 164.057045 340.768786 
L 164.807347 340.442713 
L 166.30795 339.382973 
L 167.058252 339.138418 
L 167.808553 338.48627 
L 168.558855 338.078678 
L 169.309157 337.508049 
L 170.059458 337.100457 
L 170.80976 336.93742 
L 171.560062 336.611347 
L 172.310363 335.551607 
L 173.810966 334.410349 
L 174.561268 333.513646 
L 176.061871 332.453907 
L 176.812173 331.964796 
L 177.562475 330.986575 
L 179.063078 329.437725 
L 179.81338 329.030133 
L 180.563681 328.051912 
L 181.313983 327.399764 
L 183.564888 323.812954 
L 185.065491 321.530438 
L 186.566094 319.32944 
L 187.316396 318.758811 
L 188.816999 316.313259 
L 190.317602 313.949224 
L 191.067904 312.237337 
L 192.568507 310.280895 
L 194.069111 308.161416 
L 194.819412 306.93864 
L 196.320016 303.596384 
L 198.57092 299.846536 
L 200.071524 297.808576 
L 200.821825 296.585799 
L 203.07273 291.857731 
L 205.323635 288.923067 
L 206.073937 287.455736 
L 207.57454 285.17322 
L 208.324842 283.787406 
L 209.825445 281.667927 
L 210.575747 281.01578 
L 211.326048 280.200596 
L 212.07635 278.896301 
L 214.327255 276.043156 
L 215.077556 275.554045 
L 215.827858 274.738861 
L 216.57816 273.434566 
L 217.328461 273.026974 
L 219.579366 270.418385 
L 221.07997 269.195608 
L 221.830271 268.298906 
L 222.580573 267.728277 
L 223.330874 266.587019 
L 224.081176 265.853353 
L 224.831478 265.282724 
L 225.581779 264.304503 
L 226.332081 264.059947 
L 227.832684 263.000208 
L 228.582986 262.103505 
L 229.333288 261.85895 
L 230.083589 261.206802 
L 230.833891 260.147063 
L 234.585399 257.619992 
L 235.335701 257.049363 
L 236.836304 256.15266 
L 238.336907 255.255957 
L 240.587812 252.973441 
L 242.088415 251.587628 
L 242.838717 251.016999 
L 245.089622 248.816002 
L 245.839924 248.40841 
L 248.84113 245.79982 
L 250.341733 244.25097 
L 251.842337 242.865157 
L 253.34294 241.234788 
L 254.093242 240.501122 
L 256.344146 237.240385 
L 257.094448 235.691535 
L 257.84475 235.120906 
L 258.595051 233.816611 
L 265.347766 224.849584 
L 266.098068 223.708326 
L 266.848369 223.056179 
L 267.598671 221.751884 
L 269.099274 219.632405 
L 270.599877 217.023815 
L 273.601084 212.784857 
L 274.351386 212.13271 
L 275.851989 209.850194 
L 277.352592 207.567678 
L 278.102894 205.611236 
L 279.603497 202.676572 
L 280.353799 201.535314 
L 281.1041 199.986464 
L 283.355005 196.807246 
L 284.105307 196.07358 
L 284.855609 195.01384 
L 286.356212 192.486769 
L 288.607117 189.144514 
L 289.357418 188.003256 
L 292.358625 184.416445 
L 293.859228 181.807855 
L 296.110133 179.362303 
L 296.860435 178.302563 
L 299.861641 175.123344 
L 300.611943 173.81905 
L 301.362245 173.085384 
L 305.113753 168.683389 
L 307.364658 166.56391 
L 308.114959 165.993281 
L 308.865261 165.585689 
L 309.615563 164.933541 
L 310.365864 164.118357 
L 311.116166 163.547728 
L 311.866467 162.732544 
L 313.367071 161.591286 
L 314.117372 160.85762 
L 315.617976 159.716362 
L 317.868881 158.412067 
L 318.619182 157.189291 
L 322.37069 154.254627 
L 323.120992 153.520961 
L 323.871294 153.113369 
L 326.122199 151.319964 
L 326.122199 151.319964 
" style="fill:none;stroke:#2ca02c;stroke-linecap:round;stroke-width:2.25;"/>
   </g>
   <g id="line2d_16">
    <path clip-path="url(#p295e932a3f)" d="M 101.782009 348.35 
L 113.786836 348.268482 
L 115.287439 348.186963 
L 122.040154 348.105445 
L 123.540757 348.023926 
L 129.54317 347.942408 
L 131.794075 347.779371 
L 133.294678 347.697853 
L 149.801314 345.822929 
L 150.551616 345.496855 
L 152.802521 345.170781 
L 153.552822 344.926226 
L 155.803727 344.600152 
L 158.054632 343.540413 
L 158.804934 343.132821 
L 160.305537 342.806747 
L 161.055839 342.480673 
L 161.80614 342.399155 
L 162.556442 341.910044 
L 163.306744 341.583971 
L 164.057045 340.768786 
L 164.807347 340.442713 
L 166.30795 339.382973 
L 167.058252 339.138418 
L 167.808553 338.48627 
L 168.558855 338.078678 
L 169.309157 337.508049 
L 170.059458 337.100457 
L 170.80976 336.93742 
L 171.560062 336.611347 
L 172.310363 335.551607 
L 173.810966 334.410349 
L 174.561268 333.513646 
L 176.061871 332.453907 
L 176.812173 331.964796 
L 177.562475 330.986575 
L 179.063078 329.437725 
L 179.81338 329.030133 
L 180.563681 328.051912 
L 181.313983 327.399764 
L 183.564888 323.812954 
L 185.065491 321.530438 
L 186.566094 319.32944 
L 187.316396 318.758811 
L 188.816999 316.313259 
L 190.317602 313.949224 
L 191.067904 312.237337 
L 192.568507 310.280895 
L 194.069111 308.161416 
L 194.819412 306.93864 
L 196.320016 303.596384 
L 198.57092 299.846536 
L 200.071524 297.808576 
L 200.821825 296.585799 
L 203.07273 291.857731 
L 205.323635 288.923067 
L 206.073937 287.455736 
L 207.57454 285.17322 
L 208.324842 283.787406 
L 209.825445 281.667927 
L 210.575747 281.01578 
L 211.326048 280.200596 
L 212.07635 278.896301 
L 214.327255 276.043156 
L 215.077556 275.554045 
L 215.827858 274.738861 
L 216.57816 273.434566 
L 217.328461 272.945456 
L 218.078763 272.21179 
L 218.829065 271.15205 
L 222.580573 266.913092 
L 223.330874 265.853353 
L 224.081176 265.282724 
L 224.831478 264.141466 
L 225.581779 263.244763 
L 227.832684 261.288321 
L 228.582986 260.228581 
L 229.333288 259.657952 
L 230.083589 258.598213 
L 230.833891 258.027584 
L 232.334494 256.315697 
L 233.084796 255.989623 
L 233.835097 255.09292 
L 234.585399 254.440773 
L 235.335701 253.54407 
L 237.586606 250.038778 
L 238.336907 249.386631 
L 240.587812 246.615004 
L 241.338114 245.962857 
L 242.088415 245.473746 
L 242.838717 244.495525 
L 243.589019 243.843378 
L 245.089622 242.376046 
L 245.839924 241.886935 
L 246.590225 241.15327 
L 247.340527 240.256567 
L 248.84113 239.278346 
L 251.092035 236.669756 
L 251.842337 236.262164 
L 252.592638 235.365461 
L 253.34294 234.876351 
L 254.093242 233.653574 
L 254.843543 232.756872 
L 256.344146 231.534095 
L 257.094448 230.800429 
L 257.84475 229.903727 
L 258.595051 229.251579 
L 259.345353 228.110321 
L 260.095655 227.784248 
L 260.845956 226.887545 
L 263.096861 224.849584 
L 265.347766 222.730105 
L 266.098068 222.077958 
L 267.598671 220.203034 
L 269.099274 218.735702 
L 269.849576 217.431408 
L 272.100481 214.252189 
L 273.601084 212.947894 
L 274.351386 211.725118 
L 276.602291 209.116528 
L 278.102894 207.160086 
L 279.603497 205.529717 
L 280.353799 203.410238 
L 281.854402 201.127722 
L 284.105307 198.519133 
L 284.855609 197.540912 
L 285.60591 196.155098 
L 287.856815 193.057398 
L 289.357418 191.182474 
L 290.858022 189.062995 
L 292.358625 187.025035 
L 295.359831 180.992671 
L 297.610736 177.894971 
L 298.361038 176.590676 
L 299.11134 174.960308 
L 299.861641 174.145123 
L 300.611943 173.574494 
L 301.362245 172.351718 
L 302.112546 171.536534 
L 304.363451 167.949723 
L 305.113753 166.971502 
L 305.864054 165.748725 
L 306.614356 165.178096 
L 308.114959 163.058617 
L 311.116166 159.471807 
L 311.866467 158.24903 
L 312.616769 157.596883 
L 313.367071 156.537143 
L 314.117372 155.884996 
L 314.867674 155.069812 
L 315.617976 153.520961 
L 316.368277 152.868814 
L 317.118579 151.890593 
L 317.868881 151.319964 
L 318.619182 150.586298 
L 319.369484 150.015669 
L 320.119785 148.711374 
L 321.620389 146.836451 
L 322.37069 146.021266 
L 323.120992 145.532156 
L 325.371897 142.515974 
L 326.122199 141.70079 
L 326.122199 141.70079 
" style="fill:none;stroke:#d62728;stroke-linecap:round;stroke-width:2.25;"/>
   </g>
   <g id="line2d_17">
    <path clip-path="url(#p295e932a3f)" d="M 101.782009 348.35 
L 113.786836 348.268482 
L 115.287439 348.186963 
L 122.040154 348.105445 
L 123.540757 348.023926 
L 129.54317 347.942408 
L 131.794075 347.779371 
L 133.294678 347.697853 
L 149.801314 345.822929 
L 150.551616 345.496855 
L 152.802521 345.170781 
L 153.552822 344.926226 
L 155.803727 344.600152 
L 158.054632 343.540413 
L 158.804934 343.132821 
L 160.305537 342.806747 
L 161.055839 342.480673 
L 161.80614 342.399155 
L 162.556442 341.910044 
L 163.306744 341.583971 
L 164.057045 340.768786 
L 164.807347 340.442713 
L 166.30795 339.382973 
L 167.058252 339.138418 
L 167.808553 338.48627 
L 168.558855 338.078678 
L 169.309157 337.508049 
L 170.059458 337.100457 
L 170.80976 336.93742 
L 171.560062 336.611347 
L 172.310363 335.551607 
L 173.810966 334.410349 
L 174.561268 333.513646 
L 176.061871 332.453907 
L 176.812173 331.964796 
L 177.562475 330.986575 
L 179.063078 329.437725 
L 179.81338 329.030133 
L 180.563681 328.051912 
L 181.313983 327.399764 
L 184.315189 322.834733 
L 185.065491 322.019548 
L 185.815793 320.633735 
L 186.566094 319.655514 
L 187.316396 318.269701 
L 188.066698 317.454516 
L 189.567301 315.008964 
L 191.067904 312.318856 
L 191.818206 311.748227 
L 192.568507 310.443932 
L 193.318809 308.895082 
L 195.569714 306.123455 
L 197.820619 301.802979 
L 199.321222 299.928055 
L 200.071524 298.460723 
L 200.821825 297.971613 
L 201.572127 296.830355 
L 202.322429 296.096689 
L 204.573334 292.020768 
L 205.323635 290.87951 
L 206.073937 290.145844 
L 206.824238 288.923067 
L 207.57454 287.455736 
L 209.075143 285.336257 
L 209.825445 283.705888 
L 210.575747 282.401593 
L 212.826652 277.91808 
L 214.327255 274.983416 
L 215.077556 274.168232 
L 215.827858 272.863937 
L 216.57816 270.989014 
L 217.328461 270.010792 
L 218.829065 266.750055 
L 219.579366 265.690316 
L 221.07997 262.592616 
L 221.830271 261.369839 
L 222.580573 259.739471 
L 223.330874 259.005805 
L 224.081176 257.375436 
L 224.831478 256.315697 
L 226.332081 253.462552 
L 227.082383 252.321294 
L 227.832684 250.44637 
L 228.582986 248.89752 
L 229.333288 247.756262 
L 230.083589 246.941078 
L 231.584192 244.903117 
L 232.334494 244.087933 
L 233.084796 242.131491 
L 233.835097 241.071751 
L 235.335701 237.647977 
L 236.086002 236.180646 
L 236.836304 235.365461 
L 238.336907 232.430798 
L 239.087209 231.371058 
L 240.587812 228.599432 
L 244.33932 220.773663 
L 245.839924 217.186852 
L 246.590225 215.719521 
L 247.340527 213.763078 
L 248.090828 212.13271 
L 250.341733 206.344902 
L 251.842337 203.002646 
L 252.592638 201.046204 
L 253.34294 199.497354 
L 254.093242 198.274577 
L 257.094448 191.91614 
L 260.845956 182.949113 
L 261.596258 180.748116 
L 263.096861 178.058008 
L 263.847163 176.020047 
L 264.597464 174.471197 
L 265.347766 173.248421 
L 266.848369 169.743128 
L 267.598671 167.542131 
L 268.348973 166.156318 
L 272.850782 155.477404 
L 274.351386 152.705777 
L 275.101687 151.483001 
L 276.602291 148.711374 
L 277.352592 146.428858 
L 278.853195 142.515974 
L 279.603497 141.130161 
L 280.353799 138.847645 
L 281.1041 137.706387 
L 281.854402 136.076018 
L 282.604704 134.771723 
L 284.105307 131.021876 
L 286.356212 126.619881 
L 287.106513 125.64166 
L 287.856815 124.174328 
L 289.357418 120.342962 
L 290.858022 117.815891 
L 291.608323 116.756151 
L 293.859228 112.028083 
L 294.60953 110.153159 
L 295.359831 109.093419 
L 296.110133 107.463051 
L 297.610736 105.180535 
L 298.361038 104.365351 
L 300.611943 100.533984 
L 302.112546 97.110211 
L 303.613149 93.5234 
L 304.363451 92.300623 
L 305.113753 91.322402 
L 305.864054 90.099626 
L 306.614356 87.898628 
L 307.364658 86.75737 
L 308.114959 84.963965 
L 309.615563 82.926004 
L 311.866467 78.524009 
L 312.616769 77.545788 
L 313.367071 76.323012 
L 314.867674 73.551385 
L 315.617976 72.328609 
L 316.368277 70.698241 
L 317.868881 68.578761 
L 318.619182 66.948393 
L 319.369484 65.888653 
L 320.119785 64.421322 
L 320.870087 63.361582 
L 321.620389 62.546398 
L 325.371897 55.20974 
L 326.122199 54.15 
L 326.122199 54.15 
" style="fill:none;stroke:#9467bd;stroke-linecap:round;stroke-width:2.25;"/>
   </g>
   <g id="patch_3">
    <path d="M 90.565 363.06 
L 90.565 39.44 
" style="fill:none;stroke:#cccccc;stroke-linecap:square;stroke-linejoin:miter;stroke-width:1.875;"/>
   </g>
   <g id="patch_4">
    <path d="M 337.339208 363.06 
L 337.339208 39.44 
" style="fill:none;stroke:#cccccc;stroke-linecap:square;stroke-linejoin:miter;stroke-width:1.875;"/>
   </g>
   <g id="patch_5">
    <path d="M 90.565 363.06 
L 337.339208 363.06 
" style="fill:none;stroke:#cccccc;stroke-linecap:square;stroke-linejoin:miter;stroke-width:1.875;"/>
   </g>
   <g id="patch_6">
    <path d="M 90.565 39.44 
L 337.339208 39.44 
" style="fill:none;stroke:#cccccc;stroke-linecap:square;stroke-linejoin:miter;stroke-width:1.875;"/>
   </g>
   <g id="text_15">
    <!-- HTR1A -->
    <defs>
     <path d="M 8.015625 0 
L 8.015625 71.578125 
L 17.484375 71.578125 
L 17.484375 42.1875 
L 54.6875 42.1875 
L 54.6875 71.578125 
L 64.15625 71.578125 
L 64.15625 0 
L 54.6875 0 
L 54.6875 33.734375 
L 17.484375 33.734375 
L 17.484375 0 
z
" id="ArialMT-72"/>
     <path d="M 25.921875 0 
L 25.921875 63.140625 
L 2.34375 63.140625 
L 2.34375 71.578125 
L 59.078125 71.578125 
L 59.078125 63.140625 
L 35.40625 63.140625 
L 35.40625 0 
z
" id="ArialMT-84"/>
     <path d="M 7.859375 0 
L 7.859375 71.578125 
L 39.59375 71.578125 
Q 49.171875 71.578125 54.140625 69.640625 
Q 59.125 67.71875 62.109375 62.828125 
Q 65.09375 57.953125 65.09375 52.046875 
Q 65.09375 44.4375 60.15625 39.203125 
Q 55.21875 33.984375 44.921875 32.5625 
Q 48.6875 30.765625 50.640625 29 
Q 54.78125 25.203125 58.5 19.484375 
L 70.953125 0 
L 59.03125 0 
L 49.5625 14.890625 
Q 45.40625 21.34375 42.71875 24.75 
Q 40.046875 28.171875 37.921875 29.53125 
Q 35.796875 30.90625 33.59375 31.453125 
Q 31.984375 31.78125 28.328125 31.78125 
L 17.328125 31.78125 
L 17.328125 0 
z
M 17.328125 39.984375 
L 37.703125 39.984375 
Q 44.1875 39.984375 47.84375 41.328125 
Q 51.515625 42.671875 53.421875 45.625 
Q 55.328125 48.578125 55.328125 52.046875 
Q 55.328125 57.125 51.640625 60.390625 
Q 47.953125 63.671875 39.984375 63.671875 
L 17.328125 63.671875 
z
" id="ArialMT-82"/>
     <path d="M -0.140625 0 
L 27.34375 71.578125 
L 37.546875 71.578125 
L 66.84375 0 
L 56.0625 0 
L 47.703125 21.6875 
L 17.78125 21.6875 
L 9.90625 0 
z
M 20.515625 29.390625 
L 44.78125 29.390625 
L 37.3125 49.21875 
Q 33.890625 58.25 32.234375 64.0625 
Q 30.859375 57.171875 28.375 50.390625 
z
" id="ArialMT-65"/>
    </defs>
    <g style="fill:#262626;" transform="translate(184.447573 33.44)scale(0.18 -0.18)">
     <use xlink:href="#ArialMT-72"/>
     <use x="72.216797" xlink:href="#ArialMT-84"/>
     <use x="133.300781" xlink:href="#ArialMT-82"/>
     <use x="205.517578" xlink:href="#ArialMT-49"/>
     <use x="261.132812" xlink:href="#ArialMT-65"/>
    </g>
   </g>
  </g>
 </g>
 <defs>
  <clipPath id="p295e932a3f">
   <rect height="323.62" width="246.774208" x="90.565" y="39.44"/>
  </clipPath>
 </defs>
</svg>
